<svg width="73" height="72" viewBox="0 0 73 72" fill="none" xmlns="http://www.w3.org/2000/svg">
<path d="M23.6426 23.143H31.3569L23.6426 15.4287V23.143Z" fill="#A72037"/>
<path d="M54.5 51.4287H72.5V33.4287H54.5V51.4287ZM57.4479 41.519C57.9501 41.0168 58.764 41.0168 59.2663 41.519L63.1475 45.4003L67.4931 36.7101C67.8133 36.0748 68.5842 35.8199 69.2184 36.135C69.8538 36.4524 70.111 37.225 69.7936 37.8604L64.6507 48.1461C64.4659 48.5152 64.1146 48.774 63.7065 48.8406C63.6365 48.8515 63.5676 48.8567 63.4999 48.8567C63.1624 48.8567 62.8329 48.7235 62.5907 48.4801L57.4478 43.3373C56.9456 42.8351 56.9456 42.0212 57.4478 41.5189L57.4479 41.519Z" fill="#A72037"/>
<path d="M54.5 30.8569H72.5V12.8569H54.5V30.8569ZM57.4479 20.9472C57.9501 20.445 58.764 20.445 59.2663 20.9472L63.1475 24.8285L67.4931 16.1384C67.8133 15.503 68.5842 15.2481 69.2184 15.5632C69.8538 15.8807 70.111 16.6532 69.7936 17.2886L64.6507 27.5743C64.4659 27.9434 64.1146 28.2022 63.7065 28.2688C63.6365 28.2797 63.5676 28.2849 63.4999 28.2849C63.1624 28.2849 62.8329 28.1517 62.5907 27.9084L57.4478 22.7655C56.9456 22.2633 56.9456 21.4494 57.4478 20.9471L57.4479 20.9472Z" fill="#A72037"/>
<path d="M33.9277 30.8569H51.9277V12.8569H33.9277V30.8569ZM36.8756 20.9472C37.3779 20.445 38.1918 20.445 38.694 20.9472L42.5752 24.8285L46.9208 16.1384C47.2411 15.503 48.0119 15.2481 48.6461 15.5632C49.2815 15.8807 49.5387 16.6532 49.2213 17.2886L44.0784 27.5743C43.8936 27.9434 43.5423 28.2022 43.1342 28.2688C43.0642 28.2797 42.9953 28.2849 42.9276 28.2849C42.5901 28.2849 42.2606 28.1517 42.0184 27.9084L36.8756 22.7655C36.3733 22.2633 36.3733 21.4494 36.8756 20.9471L36.8756 20.9472Z" fill="#A72037"/>
<path d="M33.9277 69.4286C33.9277 70.8486 35.0791 72 36.4992 72H51.9277V54H33.9277V69.4286ZM36.8756 62.0903C37.3779 61.5881 38.1918 61.5881 38.694 62.0903L42.5752 65.9715L46.9208 57.2814C47.2411 56.646 48.0119 56.3912 48.6461 56.7063C49.2815 57.0237 49.5387 57.7963 49.2213 58.4317L44.0784 68.7174C43.8936 69.0864 43.5423 69.3453 43.1342 69.4119C43.0642 69.4228 42.9953 69.428 42.9276 69.428C42.5901 69.428 42.2606 69.2948 42.0184 69.0514L36.8756 63.9086C36.3733 63.4063 36.3733 62.5924 36.8756 62.0902L36.8756 62.0903Z" fill="#A72037"/>
<path d="M54.5 72H69.9286C71.3486 72 72.5 70.8486 72.5 69.4286V54H54.5V72ZM57.4479 58.7664C56.9457 58.2642 56.9457 57.4503 57.4479 56.948C57.9501 56.4458 58.764 56.4458 59.2663 56.948L63.4999 61.1822L67.7334 56.9486C68.2357 56.4464 69.0496 56.4464 69.5518 56.9486C70.0541 57.4509 70.0541 58.2647 69.5518 58.767L65.3182 63.0001L69.5518 67.2337C70.0541 67.736 70.0541 68.5499 69.5518 69.0521C69.3004 69.3029 68.9715 69.4286 68.6426 69.4286C68.3137 69.4286 67.9848 69.3029 67.7334 69.0521L63.4999 64.8185L59.2663 69.0521C59.0149 69.3029 58.686 69.4286 58.3571 69.4286C58.0282 69.4286 57.6993 69.3029 57.4479 69.0521C56.9457 68.5499 56.9457 67.736 57.4479 67.2337L61.6821 63.0001L57.4479 58.7664Z" fill="#A72037"/>
<path d="M33.9277 51.4287H51.9277V33.4287H33.9277V51.4287ZM36.8756 38.1951C36.3734 37.6929 36.3734 36.879 36.8756 36.3767C37.3779 35.8745 38.1918 35.8745 38.694 36.3767L42.9276 40.6109L47.1612 36.3773C47.6634 35.8751 48.4773 35.8751 48.9796 36.3773C49.4818 36.8796 49.4818 37.6935 48.9796 38.1957L44.746 42.4289L48.9796 46.6625C49.4818 47.1647 49.4818 47.9786 48.9796 48.4808C48.7282 48.7316 48.3993 48.8574 48.0704 48.8574C47.7415 48.8574 47.4126 48.7317 47.1612 48.4808L42.9276 44.2472L38.694 48.4808C38.4426 48.7316 38.1137 48.8574 37.7848 48.8574C37.4559 48.8574 37.127 48.7317 36.8756 48.4808C36.3734 47.9786 36.3734 47.1647 36.8756 46.6625L41.1098 42.4289L36.8756 38.1951Z" fill="#A72037"/>
<path d="M33.9277 2.57143V10.2857H51.9277V0H36.4992C35.0791 0 33.9277 1.1514 33.9277 2.57143Z" fill="#A72037"/>
<path d="M69.9286 0H54.5V10.2857H72.5V2.57143C72.5 1.1514 71.3486 0 69.9286 0Z" fill="#A72037"/>
<path d="M21.0714 23.143V15.4287H3.07143C1.6514 15.4287 0.5 16.5801 0.5 18.0001V54.0001C0.5 55.4202 1.6514 56.5716 3.07143 56.5716H28.7857C30.2057 56.5716 31.3571 55.4202 31.3571 54.0001V25.7144H23.6429C22.2228 25.7144 21.0714 24.563 21.0714 23.143ZM24.9286 48.8573H6.92857C6.21799 48.8573 5.64286 48.2821 5.64286 47.5716C5.64286 46.861 6.21799 46.2859 6.92857 46.2859H24.9286C25.6392 46.2859 26.2143 46.861 26.2143 47.5716C26.2143 48.2821 25.6392 48.8573 24.9286 48.8573ZM24.9286 43.7144H6.92857C6.21799 43.7144 5.64286 43.1393 5.64286 42.4287C5.64286 41.7181 6.21799 41.143 6.92857 41.143H24.9286C25.6392 41.143 26.2143 41.7181 26.2143 42.4287C26.2143 43.1393 25.6392 43.7144 24.9286 43.7144ZM24.9286 38.5716H6.92857C6.21799 38.5716 5.64286 37.9964 5.64286 37.2859C5.64286 36.5753 6.21799 36.0001 6.92857 36.0001H24.9286C25.6392 36.0001 26.2143 36.5753 26.2143 37.2859C26.2143 37.9964 25.6392 38.5716 24.9286 38.5716ZM26.2143 32.143C26.2143 32.8536 25.6392 33.4287 24.9286 33.4287H6.92857C6.21799 33.4287 5.64286 32.8536 5.64286 32.143C5.64286 31.4324 6.21799 30.8573 6.92857 30.8573H24.9286C25.6392 30.8573 26.2143 31.4324 26.2143 32.143Z" fill="#A72037"/>
</svg>
