<svg width="21" height="22" viewBox="0 0 21 22" fill="none" xmlns="http://www.w3.org/2000/svg">
<g clip-path="url(#clip0_2874_122102)">
<path d="M7.875 11.875C9.808 11.875 11.375 10.308 11.375 8.375C11.375 6.442 9.808 4.875 7.875 4.875C5.942 4.875 4.375 6.442 4.375 8.375C4.375 10.308 5.942 11.875 7.875 11.875Z" fill="white"/>
<path d="M7.875 13.6219C5.53875 13.6219 0.875 14.7944 0.875 17.1219V17.9969C0.875 18.4781 1.26875 18.8719 1.75 18.8719H14C14.4813 18.8719 14.875 18.4781 14.875 17.9969V17.1219C14.875 14.7944 10.2113 13.6219 7.875 13.6219ZM13.5363 7.29561C13.8163 7.98686 13.8163 8.75686 13.5363 9.44811C13.37 9.85936 13.44 10.3231 13.755 10.6381L13.7813 10.6644C14.2888 11.1719 15.155 11.0669 15.4875 10.4281C16.1525 9.15936 16.1525 7.67186 15.47 6.35061C15.1375 5.70311 14.2625 5.58061 13.7463 6.09686L13.7375 6.10561C13.44 6.41186 13.37 6.88436 13.5363 7.29561ZM16.7825 3.02561C16.4325 3.37561 16.38 3.91811 16.6688 4.32061C18.3925 6.71811 18.3838 9.92936 16.6425 12.4144C16.3625 12.8081 16.4238 13.3506 16.765 13.6919L16.7913 13.7181C17.22 14.1469 17.9463 14.1119 18.3138 13.6306C20.72 10.5331 20.7288 6.30686 18.3138 3.11311C17.9463 2.63186 17.2113 2.59686 16.7825 3.02561V3.02561Z" fill="white"/>
</g>
<defs>
<clipPath id="clip0_2874_122102">
<rect width="21" height="21" fill="white" transform="translate(0 0.5)"/>
</clipPath>
</defs>
</svg>
