<svg width="47" height="41" viewBox="0 0 47 41" fill="none" xmlns="http://www.w3.org/2000/svg">
<path d="M2.87494 27.1494V32.4402C2.87494 33.2396 3.19947 34.0227 3.76575 34.5889C4.33162 35.1544 5.11505 35.4789 5.91574 35.4789C6.34558 35.4789 6.75369 35.3867 7.12489 35.2249V37.6637C7.12489 39.5031 8.62619 41 10.4706 41H43.0256C44.8699 41 46.3713 39.5031 46.3713 37.6637L46.3717 8.30496C46.3717 8.30004 46.3693 8.29635 46.3689 8.29144V3.67919C46.3689 1.83655 44.8691 0.33725 43.0269 0.33725H10.4677C8.62426 0.33725 7.12453 1.83697 7.12453 3.67919V8.30371C7.12453 8.30535 7.12535 8.30658 7.12535 8.30822V16.739H6.4427C4.89053 16.739 3.42689 17.347 2.31403 18.4591C1.22036 19.5764 0.618042 21.0344 0.618042 22.5636C0.618042 24.3784 1.45886 26.0539 2.87544 27.1488L2.87494 27.1494ZM11.2135 18.3281L21.518 15.1184V30.0181L11.2135 26.8007V18.3281ZM5.91613 33.6484C5.59734 33.6484 5.28511 33.5193 5.06015 33.2944C4.83479 33.0686 4.7053 32.7572 4.7053 32.4396V28.1216C4.72128 28.1265 4.73767 28.1282 4.75365 28.1327C4.92493 28.1847 5.10113 28.2183 5.2765 28.2544C5.38058 28.2757 5.48179 28.3068 5.5871 28.3224C5.83172 28.3589 6.08044 28.374 6.33039 28.379C6.36809 28.3798 6.40456 28.3876 6.44225 28.3876H7.12491V32.4397C7.12491 33.1063 6.5828 33.6484 5.91617 33.6484L5.91613 33.6484ZM8.9545 3.67913C8.9545 2.84527 9.63264 2.16713 10.4673 2.16713H43.0265C43.8604 2.16713 44.5385 2.84527 44.5385 3.67913V7.38862H8.95408L8.9545 3.67913ZM8.95532 9.21982H44.5419V37.6639C44.5419 38.4945 43.8617 39.1701 43.0262 39.1701L10.4712 39.1697C9.6357 39.1697 8.95553 38.494 8.95553 37.6635V28.3878H10.1578L22.1612 32.1358C22.2505 32.1637 22.3427 32.1772 22.4337 32.1772C22.6267 32.1772 22.8172 32.1165 22.9762 31.9993C23.2102 31.8268 23.3487 31.5531 23.3487 31.2622V26.343L27.7355 29.1785C27.8839 29.274 28.0564 29.3252 28.2326 29.3252H32.4334V31.9152C32.4334 32.4205 32.8427 32.8302 33.3484 32.8302H40.3634C40.8691 32.8302 41.2784 32.4205 41.2784 31.9152V24.901C41.2784 24.3958 40.8691 23.986 40.3634 23.986H33.3484C32.8427 23.986 32.4334 24.3958 32.4334 24.901V27.4948H28.5021L23.3486 24.1635V20.447L28.5021 17.116H32.4334V19.7094C32.4334 20.2147 32.8427 20.6244 33.3484 20.6244H40.3634C40.8691 20.6244 41.2784 20.2147 41.2784 19.7094V12.6952C41.2784 12.19 40.8691 11.7802 40.3634 11.7802H33.3484C32.8427 11.7802 32.4334 12.19 32.4334 12.6952V15.2857H28.2326C28.0564 15.2857 27.8839 15.3365 27.7355 15.4324L23.3487 18.2679V13.8749C23.3487 13.5839 23.2102 13.3102 22.9762 13.1381C22.7422 12.9652 22.4403 12.914 22.1612 13.0013L10.1599 16.7395L8.95564 16.7391L8.95532 9.21982ZM34.2629 30.9997V25.8159H39.448V30.9997H34.2629ZM34.2629 18.7938V13.61H39.448V18.7938H34.2629ZM3.61497 19.7465C4.37466 18.9872 5.37893 18.5693 6.44228 18.5693H8.03788C8.0387 18.5693 8.03952 18.5697 8.04034 18.5697H9.38356V26.5571H6.44275C5.67527 26.5571 4.93075 26.3371 4.28542 25.9179C3.13438 25.1803 2.44803 23.9265 2.44803 22.564C2.44803 21.5158 2.86517 20.5127 3.61502 19.7465L3.61497 19.7465Z" fill="#BEFBFF"/>
</svg>
