<svg width="32" height="32" viewBox="0 0 32 32" fill="none" xmlns="http://www.w3.org/2000/svg">
<circle cx="16" cy="16" r="16" fill="#1BA0F2"/>
<path fill-rule="evenodd" clip-rule="evenodd" d="M22 9C22 9.26522 22.1054 9.51957 22.2929 9.70711C22.4804 9.89464 22.7348 10 23 10C23.2652 10 23.5196 9.89464 23.7071 9.70711C23.8946 9.51957 24 9.26522 24 9C24 8.73478 23.8946 8.48043 23.7071 8.29289C23.5196 8.10536 23.2652 8 23 8C22.7348 8 22.4804 8.10536 22.2929 8.29289C22.1054 8.48043 22 8.73478 22 9ZM23 6C22.2044 6 21.4413 6.31607 20.8787 6.87868C20.3161 7.44129 20 8.20435 20 9C20 9.79565 20.3161 10.5587 20.8787 11.1213C21.4413 11.6839 22.2044 12 23 12C23.7956 12 24.5587 11.6839 25.1213 11.1213C25.6839 10.5587 26 9.79565 26 9C26 8.20435 25.6839 7.44129 25.1213 6.87868C24.5587 6.31607 23.7956 6 23 6Z" fill="white"/>
<path fill-rule="evenodd" clip-rule="evenodd" d="M10.293 20.292L20.293 10.293C20.5893 10.9119 21.0882 11.4112 21.707 11.708L11.707 21.707C11.4106 21.088 10.9117 20.5888 10.293 20.292Z" fill="white"/>
<path fill-rule="evenodd" clip-rule="evenodd" d="M8 23C8 23.2652 8.10536 23.5196 8.29289 23.7071C8.48043 23.8946 8.73478 24 9 24C9.26522 24 9.51957 23.8946 9.70711 23.7071C9.89464 23.5196 10 23.2652 10 23C10 22.7348 9.89464 22.4804 9.70711 22.2929C9.51957 22.1054 9.26522 22 9 22C8.73478 22 8.48043 22.1054 8.29289 22.2929C8.10536 22.4804 8 22.7348 8 23ZM9 20C8.20435 20 7.44129 20.3161 6.87868 20.8787C6.31607 21.4413 6 22.2044 6 23C6 23.7956 6.31607 24.5587 6.87868 25.1213C7.44129 25.6839 8.20435 26 9 26C9.79565 26 10.5587 25.6839 11.1213 25.1213C11.6839 24.5587 12 23.7956 12 23C12 22.2044 11.6839 21.4413 11.1213 20.8787C10.5587 20.3161 9.79565 20 9 20Z" fill="white"/>
</svg>
