<svg width="12" height="14" viewBox="0 0 12 14" fill="none" xmlns="http://www.w3.org/2000/svg">
<path d="M10.6667 2.0013H7.88C7.6 1.22797 6.86667 0.667969 6 0.667969C5.13333 0.667969 4.4 1.22797 4.12 2.0013H1.33333C0.6 2.0013 0 2.6013 0 3.33464V12.668C0 13.4013 0.6 14.0013 1.33333 14.0013H10.6667C11.4 14.0013 12 13.4013 12 12.668V3.33464C12 2.6013 11.4 2.0013 10.6667 2.0013ZM6 2.0013C6.36667 2.0013 6.66667 2.3013 6.66667 2.66797C6.66667 3.03464 6.36667 3.33464 6 3.33464C5.63333 3.33464 5.33333 3.03464 5.33333 2.66797C5.33333 2.3013 5.63333 2.0013 6 2.0013ZM4.19333 10.8613L2.46667 9.13463C2.20667 8.87463 2.20667 8.45464 2.46667 8.19463C2.72667 7.93464 3.14667 7.93464 3.40667 8.19463L4.66667 9.44797L8.58667 5.52797C8.84667 5.26797 9.26667 5.26797 9.52667 5.52797C9.78667 5.78797 9.78667 6.20797 9.52667 6.46797L5.13333 10.8613C4.88 11.1213 4.45333 11.1213 4.19333 10.8613Z" fill="#448087"/>
</svg>
