<svg width="76" height="76" viewBox="0 0 76 76" fill="none" xmlns="http://www.w3.org/2000/svg">
<path d="M37.662 37.3214C39.462 37.3214 41.1882 36.6065 42.4607 35.3342C43.733 34.0613 44.4479 32.3351 44.4479 30.5356C44.4479 28.7361 43.7329 27.0101 42.4607 25.737C41.1883 24.4646 39.4622 23.7498 37.662 23.7498C35.8625 23.7498 34.1365 24.4647 32.864 25.737C31.5911 27.0099 30.8762 28.7361 30.8762 30.5356C30.8786 32.3345 31.5942 34.0594 32.8665 35.3317C34.1383 36.6035 35.8631 37.3189 37.662 37.3214ZM37.662 26.4641C38.7423 26.4641 39.7778 26.8931 40.5411 27.6565C41.3044 28.4199 41.7335 29.456 41.7335 30.5355C41.7335 31.615 41.3045 32.6513 40.5411 33.4146C39.7777 34.1778 38.7422 34.6069 37.662 34.6069C36.5824 34.6069 35.5469 34.178 34.7835 33.4146C34.0194 32.6512 33.5905 31.615 33.5905 30.5355C33.5905 29.456 34.0194 28.4197 34.7835 27.6565C35.5469 26.8931 36.5824 26.4641 37.662 26.4641ZM37.9989 38.8362C34.7054 38.8113 31.5287 40.0558 29.1283 42.3108C26.7273 44.5659 25.287 47.6588 25.1058 50.9477C25.0828 51.4621 25.2712 51.9637 25.6269 52.3357C25.9862 52.7138 26.4848 52.9277 27.0059 52.9289H48.992C49.5106 52.9295 50.0068 52.718 50.3655 52.3436C50.7242 51.9692 50.9144 51.4639 50.892 50.9459C50.7102 47.6578 49.2701 44.5653 46.8695 42.3103C44.4685 40.0558 41.2924 38.8112 37.9989 38.8362V38.8362ZM27.8959 50.2145C28.3963 46.9706 30.4236 44.1648 33.3458 42.6707C36.2679 41.1766 39.7299 41.1766 42.6521 42.6707C45.5742 44.1648 47.6014 46.9706 48.102 50.2145H27.8959ZM74.6428 36.6428H71.8945C71.5431 28.126 68.0023 20.0529 61.9745 14.0255C55.9473 7.99766 47.8733 4.45693 39.3572 4.10546V1.35717C39.3572 0.6077 38.7495 0 38 0C37.2505 0 36.6428 0.6077 36.6428 1.35717V4.10546C28.126 4.45687 20.0529 7.99766 14.0255 14.0255C7.99766 20.0527 4.45693 28.1267 4.10546 36.6428H1.35717C0.6077 36.6428 0 37.2505 0 38C0 38.7495 0.6077 39.3572 1.35717 39.3572H4.10546C4.45687 47.874 7.99766 55.9472 14.0255 61.9745C20.0527 68.0023 28.1267 71.5431 36.6428 71.8945V74.6429C36.6428 75.3923 37.2505 76 38 76C38.7495 76 39.3572 75.3923 39.3572 74.6429V71.8945C47.874 71.5431 55.9471 68.0023 61.9745 61.9745C68.0023 55.9473 71.5431 47.8733 71.8945 39.3572H74.6428C75.3923 39.3572 76 38.7495 76 38C76 37.2505 75.3923 36.6428 74.6428 36.6428ZM69.1802 36.6428H65.0735C64.7318 29.9327 61.9126 23.588 57.1619 18.8368C52.4112 14.0857 46.0665 11.267 39.3559 10.9253V6.81855C47.1535 7.16754 54.538 10.4216 60.0577 15.9406C65.5767 21.4601 68.8308 28.8445 69.1797 36.6424L69.1802 36.6428ZM59.714 39.3572H62.3593C62.02 45.3475 59.488 51.0034 55.2458 55.2461C51.0029 59.4885 45.347 62.0204 39.3569 62.3596V59.7143C39.3569 58.9649 38.7492 58.3572 37.9997 58.3572C37.2502 58.3572 36.6425 58.9649 36.6425 59.7143V62.3596C30.6522 62.0204 24.9963 59.4883 20.7536 55.2461C16.5112 51.0032 13.9793 45.3473 13.6401 39.3572H16.2854C17.0348 39.3572 17.6425 38.7495 17.6425 38C17.6425 37.2505 17.0348 36.6428 16.2854 36.6428H13.6401C13.9793 30.6525 16.5113 24.9967 20.7536 20.7539C24.9965 16.5115 30.6524 13.9796 36.6425 13.6404V16.2857C36.6425 17.0351 37.2502 17.6428 37.9997 17.6428C38.7492 17.6428 39.3569 17.0351 39.3569 16.2857V13.6404C45.3471 13.9797 51.003 16.5117 55.2458 20.7539C59.4882 24.9968 62.0201 30.6527 62.3593 36.6428H59.714C58.9646 36.6428 58.3569 37.2505 58.3569 38C58.3569 38.7495 58.9646 39.3572 59.714 39.3572ZM36.6422 6.81933V10.926C29.9321 11.2677 23.5874 14.0869 18.8362 18.8376C14.085 23.5883 11.2663 29.933 10.9246 36.6436H6.81793C7.16692 28.846 10.421 21.4615 15.9399 15.9418C21.4595 10.4229 28.8439 7.16878 36.6417 6.81979L36.6422 6.81933ZM6.81871 39.3572H10.9254C11.2671 46.0673 14.0863 52.412 18.837 57.1632C23.5877 61.9143 29.9324 64.7331 36.643 65.0748V69.1815C28.8454 68.8325 21.4609 65.5784 15.9412 60.0594C10.4223 54.5399 7.16816 47.1555 6.81917 39.3576L6.81871 39.3572ZM39.3565 69.1807V65.074C46.0667 64.7323 52.4114 61.9131 57.1626 57.1624C61.9137 52.4117 64.7324 46.067 65.0741 39.3564H69.1808C68.8318 47.154 65.5778 54.5385 60.0588 60.0582C54.5393 65.5771 47.1549 68.8312 39.357 69.1802L39.3565 69.1807Z" fill="#A81E30"/>
</svg>
