<svg width="72" height="83" viewBox="0 0 72 83" fill="none" xmlns="http://www.w3.org/2000/svg">
<path d="M42.858 78.8526H18.8583C17.9119 78.8526 17.1445 78.0847 17.1445 77.1382C17.1445 76.1918 17.9119 75.4238 18.8583 75.4238H42.858C43.8044 75.4238 44.5718 76.1918 44.5718 77.1382C44.5718 78.0847 43.8044 78.8526 42.858 78.8526Z" fill="#A72037"/>
<path d="M51.0694 28.1984L46.0467 33.221C48.5939 38.1031 48.641 43.9114 46.1724 48.8339C43.7039 53.7561 39.021 57.1935 33.5852 58.0722C28.1493 58.9509 22.6216 57.1648 18.7275 53.2711C14.8334 49.3774 13.0478 43.8497 13.9264 38.4134C14.8052 32.9776 18.2425 28.2947 23.1647 25.8262C28.0875 23.3576 33.8958 23.4047 38.7776 25.9519L43.8002 20.9292C37.0971 16.6366 28.7016 15.9473 21.3874 19.0886C14.0737 22.2298 8.79326 28.7935 7.29119 36.6101C5.78853 44.4272 8.26002 52.4801 13.8887 58.109C19.5174 63.7377 27.5704 66.2091 35.3876 64.7065C43.2041 63.2044 49.7678 57.9241 52.9091 50.6102C56.0503 43.2964 55.361 34.9004 51.0685 28.1974L51.0694 28.1984Z" fill="#A72037"/>
<path d="M50.4685 64.9497C56.4846 59.9868 60.3984 52.93 61.423 45.1993C62.4469 37.4682 60.5052 29.6349 55.9889 23.2772L53.5375 25.7112C57.3778 31.3572 58.9745 38.2325 58.0143 44.993C57.0547 51.7535 53.6076 57.9132 48.3473 62.2661C43.087 66.6201 36.3914 68.8551 29.571 68.5342C22.7508 68.2134 16.2945 65.3598 11.4662 60.531C6.63763 55.703 3.78395 49.2466 3.46305 42.4262C3.14221 35.6054 5.37711 28.9098 9.73111 23.65C14.0845 18.3897 20.2442 14.9426 27.0043 13.9829C33.7649 13.0227 40.6402 14.6194 46.286 18.4598L48.7374 16.0084C43.5231 12.2771 37.2699 10.2747 30.8589 10.2832C1.99286 10.2832 -11.0193 46.5898 11.2495 64.9488C6.62118 81.1993 6.50128 80.6675 7.20376 81.5946C7.90685 82.5204 7.90685 82.2805 17.1463 82.2805V82.2799C17.9383 82.3092 18.6466 81.792 18.8601 81.0287L21.8257 70.6236C27.7557 72.4545 34.1002 72.4545 40.0304 70.6236L42.8589 81.0287C43.0724 81.792 43.7806 82.3092 44.5727 82.2799C53.7438 82.2799 53.8121 82.5198 54.5152 81.594C55.2183 80.6688 55.0811 81.1486 50.4694 64.9497L50.4685 64.9497ZM15.859 78.8518H10.8537L14.2818 67.0756V67.0751C15.6576 67.9762 17.1085 68.7561 18.6187 69.4064L15.859 78.8518ZM45.8579 78.8518L43.1667 69.4064H43.1661C44.6767 68.7561 46.1276 67.9761 47.5035 67.075L50.9317 78.8512L45.8579 78.8518Z" fill="#A72037"/>
<path d="M43.4766 35.7916L40.7855 38.4828C41.5735 41.419 41.0214 44.5539 39.2782 47.0454C37.5346 49.5364 34.7785 51.1285 31.7492 51.3943C28.7199 51.6595 25.729 50.5707 23.5791 48.4207C21.4291 46.2707 20.3403 43.2799 20.6056 40.2506C20.8713 37.2214 22.4635 34.4652 24.9544 32.7216C27.4459 30.9786 30.5808 30.4264 33.5171 31.2144L36.2083 28.5232C32.271 26.853 27.7799 27.1147 24.0636 29.2326C20.3472 31.3499 17.8316 35.08 17.2611 39.3187C16.6912 43.5579 18.1312 47.8199 21.1554 50.8447C24.1801 53.8688 28.4423 55.3088 32.6814 54.7389C36.92 54.1684 40.65 51.6528 42.7674 47.9365C44.8853 44.2201 45.147 39.729 43.4768 35.7917L43.4766 35.7916Z" fill="#A72037"/>
<path d="M37.7159 41.1402C37.7159 44.927 34.6458 47.9971 30.8589 47.9971C27.0721 47.9971 24.002 44.927 24.002 41.1402C24.002 37.3533 27.0721 34.2832 30.8589 34.2832C34.6458 34.2832 37.7159 37.3533 37.7159 41.1402Z" fill="#A72037"/>
<path d="M55.7998 16.2163L53.2969 8.72519L62.0226 0L64.525 7.47392L55.7998 16.2163Z" fill="#A72037"/>
<path d="M55.8008 16.216L63.2747 18.7018L71.9999 9.97601L64.526 7.47363L55.8008 16.216Z" fill="#A72037"/>
<path d="M30.8591 42.8546C30.1629 42.8586 29.5332 42.4408 29.2657 41.7974C28.9989 41.1546 29.1475 40.4136 29.6417 39.9229L67.0458 2.51872C67.7179 1.84663 68.8072 1.84663 69.4799 2.51872C70.152 3.19138 70.152 4.28071 69.4799 4.95277C28.8359 45.5791 31.9053 42.8535 30.8591 42.8535L30.8591 42.8546Z" fill="#A72037"/>
</svg>
