<svg width="61" height="60" viewBox="0 0 61 60" fill="none" xmlns="http://www.w3.org/2000/svg">
<circle cx="30.5" cy="30" r="30" fill="#A72037"/>
<rect width="24" height="25" transform="translate(18.5 18)" fill="#A72037"/>
<path d="M30.5 33.625C32.1569 33.625 33.5 32.2259 33.5 30.5C33.5 28.7741 32.1569 27.375 30.5 27.375C28.8431 27.375 27.5 28.7741 27.5 30.5C27.5 32.2259 28.8431 33.625 30.5 33.625Z" fill="white"/>
<path d="M38.5 22.1654H35.33L34.09 20.7591C33.72 20.332 33.18 20.082 32.62 20.082H28.38C27.82 20.082 27.28 20.332 26.9 20.7591L25.67 22.1654H22.5C21.4 22.1654 20.5 23.1029 20.5 24.2487V36.7487C20.5 37.8945 21.4 38.832 22.5 38.832H38.5C39.6 38.832 40.5 37.8945 40.5 36.7487V24.2487C40.5 23.1029 39.6 22.1654 38.5 22.1654ZM30.5 35.707C27.74 35.707 25.5 33.3737 25.5 30.4987C25.5 27.6237 27.74 25.2904 30.5 25.2904C33.26 25.2904 35.5 27.6237 35.5 30.4987C35.5 33.3737 33.26 35.707 30.5 35.707Z" fill="white"/>
</svg>
