<svg width="10" height="12" viewBox="0 0 10 12" fill="none" xmlns="http://www.w3.org/2000/svg">
<path d="M7.70833 2.20656C8.15792 2.20656 8.52083 1.84365 8.52083 1.39406C8.52083 1.03656 8.16333 0.505729 7.91958 0.191563C7.81125 0.0507292 7.6 0.0507292 7.49167 0.191563C7.25333 0.505729 6.89583 1.03656 6.89583 1.39406C6.89583 1.84365 7.25875 2.20656 7.70833 2.20656ZM5 2.20656C5.44958 2.20656 5.8125 1.84365 5.8125 1.39406C5.8125 1.03656 5.455 0.505729 5.21125 0.191563C5.10292 0.0507292 4.89167 0.0507292 4.78333 0.191563C4.545 0.505729 4.1875 1.03656 4.1875 1.39406C4.1875 1.84365 4.55042 2.20656 5 2.20656ZM2.29167 2.20656C2.74125 2.20656 3.10417 1.84365 3.10417 1.39406C3.10417 1.03656 2.74667 0.505729 2.50292 0.191563C2.39458 0.0507292 2.18333 0.0507292 2.075 0.191563C1.83667 0.505729 1.47917 1.03656 1.47917 1.39406C1.47917 1.84365 1.84208 2.20656 2.29167 2.20656ZM8.74833 3.83698C8.64 3.5174 8.33667 3.2899 7.97917 3.2899H2.02083C1.66333 3.2899 1.36542 3.5174 1.25167 3.83698L0.184583 6.90823C0.146667 7.02198 0.125 7.14115 0.125 7.26573V11.1441C0.125 11.5936 0.487917 11.9566 0.9375 11.9566C1.38708 11.9566 1.75 11.5936 1.75 11.1441V10.8732H8.25V11.1441C8.25 11.5882 8.61292 11.9566 9.0625 11.9566C9.50667 11.9566 9.875 11.5936 9.875 11.1441V7.26573C9.875 7.14656 9.85333 7.02198 9.81542 6.90823L8.74833 3.83698ZM2.02083 9.24823C1.57125 9.24823 1.20833 8.88531 1.20833 8.43573C1.20833 7.98615 1.57125 7.62323 2.02083 7.62323C2.47042 7.62323 2.83333 7.98615 2.83333 8.43573C2.83333 8.88531 2.47042 9.24823 2.02083 9.24823ZM7.97917 9.24823C7.52958 9.24823 7.16667 8.88531 7.16667 8.43573C7.16667 7.98615 7.52958 7.62323 7.97917 7.62323C8.42875 7.62323 8.79167 7.98615 8.79167 8.43573C8.79167 8.88531 8.42875 9.24823 7.97917 9.24823ZM1.20833 6.5399L1.89625 4.47073C1.97208 4.25406 2.17792 4.1024 2.41083 4.1024H7.58917C7.82208 4.1024 8.02792 4.25406 8.10375 4.47073L8.79167 6.5399H1.20833Z" fill="#7A50C2"/>
</svg>
