<svg width="14" height="14" viewBox="0 0 14 14" fill="none" xmlns="http://www.w3.org/2000/svg">
<path d="M9.70833 3.20656C10.1579 3.20656 10.5208 2.84365 10.5208 2.39406C10.5208 2.03656 10.1633 1.50573 9.91958 1.19156C9.81125 1.05073 9.6 1.05073 9.49167 1.19156C9.25333 1.50573 8.89583 2.03656 8.89583 2.39406C8.89583 2.84365 9.25875 3.20656 9.70833 3.20656ZM7 3.20656C7.44958 3.20656 7.8125 2.84365 7.8125 2.39406C7.8125 2.03656 7.455 1.50573 7.21125 1.19156C7.10292 1.05073 6.89167 1.05073 6.78333 1.19156C6.545 1.50573 6.1875 2.03656 6.1875 2.39406C6.1875 2.84365 6.55042 3.20656 7 3.20656ZM4.29167 3.20656C4.74125 3.20656 5.10417 2.84365 5.10417 2.39406C5.10417 2.03656 4.74667 1.50573 4.50292 1.19156C4.39458 1.05073 4.18333 1.05073 4.075 1.19156C3.83667 1.50573 3.47917 2.03656 3.47917 2.39406C3.47917 2.84365 3.84208 3.20656 4.29167 3.20656ZM10.7483 4.83698C10.64 4.5174 10.3367 4.2899 9.97917 4.2899H4.02083C3.66333 4.2899 3.36542 4.5174 3.25167 4.83698L2.18458 7.90823C2.14667 8.02198 2.125 8.14115 2.125 8.26573V12.1441C2.125 12.5936 2.48792 12.9566 2.9375 12.9566C3.38708 12.9566 3.75 12.5936 3.75 12.1441V11.8732H10.25V12.1441C10.25 12.5882 10.6129 12.9566 11.0625 12.9566C11.5067 12.9566 11.875 12.5936 11.875 12.1441V8.26573C11.875 8.14656 11.8533 8.02198 11.8154 7.90823L10.7483 4.83698ZM4.02083 10.2482C3.57125 10.2482 3.20833 9.88531 3.20833 9.43573C3.20833 8.98615 3.57125 8.62323 4.02083 8.62323C4.47042 8.62323 4.83333 8.98615 4.83333 9.43573C4.83333 9.88531 4.47042 10.2482 4.02083 10.2482ZM9.97917 10.2482C9.52958 10.2482 9.16667 9.88531 9.16667 9.43573C9.16667 8.98615 9.52958 8.62323 9.97917 8.62323C10.4288 8.62323 10.7917 8.98615 10.7917 9.43573C10.7917 9.88531 10.4288 10.2482 9.97917 10.2482ZM3.20833 7.5399L3.89625 5.47073C3.97208 5.25406 4.17792 5.1024 4.41083 5.1024H9.58917C9.82208 5.1024 10.0279 5.25406 10.1038 5.47073L10.7917 7.5399H3.20833Z" fill="#7A50C2"/>
</svg>
