<svg width="13" height="14" viewBox="0 0 13 14" fill="none" xmlns="http://www.w3.org/2000/svg">
<path d="M11.1667 2.0013H8.38C8.1 1.22797 7.36667 0.667969 6.5 0.667969C5.63333 0.667969 4.9 1.22797 4.62 2.0013H1.83333C1.1 2.0013 0.5 2.6013 0.5 3.33464V12.668C0.5 13.4013 1.1 14.0013 1.83333 14.0013H11.1667C11.9 14.0013 12.5 13.4013 12.5 12.668V3.33464C12.5 2.6013 11.9 2.0013 11.1667 2.0013ZM6.5 2.0013C6.86667 2.0013 7.16667 2.3013 7.16667 2.66797C7.16667 3.03464 6.86667 3.33464 6.5 3.33464C6.13333 3.33464 5.83333 3.03464 5.83333 2.66797C5.83333 2.3013 6.13333 2.0013 6.5 2.0013ZM4.69333 10.8613L2.96667 9.13463C2.70667 8.87463 2.70667 8.45464 2.96667 8.19463C3.22667 7.93464 3.64667 7.93464 3.90667 8.19463L5.16667 9.44797L9.08667 5.52797C9.34667 5.26797 9.76667 5.26797 10.0267 5.52797C10.2867 5.78797 10.2867 6.20797 10.0267 6.46797L5.63333 10.8613C5.38 11.1213 4.95333 11.1213 4.69333 10.8613Z" fill="#448087"/>
</svg>
