<svg width="10" height="12" viewBox="0 0 10 12" fill="none" xmlns="http://www.w3.org/2000/svg">
<path d="M6.08302 0.0390625H3.91635C3.61844 0.0390625 3.37469 0.282813 3.37469 0.580729C3.37469 0.878646 3.61844 1.1224 3.91635 1.1224H6.08302C6.38094 1.1224 6.62469 0.878646 6.62469 0.580729C6.62469 0.282813 6.38094 0.0390625 6.08302 0.0390625ZM4.99969 7.08073C5.29761 7.08073 5.54136 6.83698 5.54136 6.53906V4.3724C5.54136 4.07448 5.29761 3.83073 4.99969 3.83073C4.70177 3.83073 4.45802 4.07448 4.45802 4.3724V6.53906C4.45802 6.83698 4.70177 7.08073 4.99969 7.08073ZM8.80761 3.50031L9.21386 3.09406C9.41969 2.88823 9.42511 2.54698 9.21386 2.33573L9.20844 2.33031C8.99719 2.11906 8.66136 2.12448 8.45011 2.33031L8.04386 2.73656C7.20427 2.0649 6.14802 1.66406 4.99969 1.66406C2.39969 1.66406 0.189688 3.80906 0.124688 6.40906C0.0542714 9.16073 2.25885 11.4141 4.99969 11.4141C7.69719 11.4141 9.87469 9.23115 9.87469 6.53906C9.87469 5.39073 9.47386 4.33448 8.80761 3.50031ZM4.99969 10.3307C2.90344 10.3307 1.20802 8.63531 1.20802 6.53906C1.20802 4.44281 2.90344 2.7474 4.99969 2.7474C7.09594 2.7474 8.79136 4.44281 8.79136 6.53906C8.79136 8.63531 7.09594 10.3307 4.99969 10.3307Z" fill="#7A50C2"/>
</svg>
