<svg width="12" height="12" viewBox="0 0 12 12" fill="none" xmlns="http://www.w3.org/2000/svg">
<path d="M10.8751 0.0429688H3.29175C2.69591 0.0429688 2.20841 0.530469 2.20841 1.1263V8.70963C2.20841 9.30547 2.69591 9.79297 3.29175 9.79297H10.8751C11.4709 9.79297 11.9584 9.30547 11.9584 8.70963V1.1263C11.9584 0.530469 11.4709 0.0429688 10.8751 0.0429688ZM10.8751 8.70963H3.29175V1.1263H10.8751V8.70963ZM6.54175 7.6263H7.62508C8.22091 7.6263 8.70841 7.14422 8.70841 6.54297V5.45963C8.70841 4.85839 8.22091 4.3763 7.62508 4.3763H6.54175V3.29297H8.70841V2.20964H6.54175C5.94591 2.20964 5.45841 2.69172 5.45841 3.29297V6.54297C5.45841 7.14422 5.94591 7.6263 6.54175 7.6263ZM6.54175 5.45963H7.62508V6.54297H6.54175V5.45963ZM1.12508 11.9596H9.79175V10.8763H1.12508V2.20964H0.041748V10.8763C0.041748 11.4721 0.529248 11.9596 1.12508 11.9596Z" fill="#323232"/>
</svg>
