<svg width="81" height="81" viewBox="0 0 81 81" fill="none" xmlns="http://www.w3.org/2000/svg">
<path d="M72.5852 7.6065H54.7552L54.2925 6.80459C54.2865 6.79526 54.2772 6.78727 54.2712 6.77661C54.2066 6.66938 54.132 6.56948 54.0468 6.48221C54.0421 6.47622 54.0361 6.47356 54.0315 6.46756C53.845 6.28307 53.618 6.14786 53.3683 6.07127C53.3616 6.06927 53.3556 6.0666 53.349 6.06461C53.2298 6.02997 53.1039 6.01132 52.9768 6.00533C52.9681 6.00533 52.9594 6.00133 52.9501 6.00067C52.9375 6 52.9262 6.00067 52.9128 6.00067C52.9088 6.00067 52.9062 6 52.9035 6L28.1002 6.00067C28.0895 6.00067 28.0789 6.00266 28.0675 6.00266C28.0615 6.00266 28.0582 6.00067 28.0529 6.00067C28.0436 6.00067 28.0349 6.00466 28.0249 6.00533C27.8977 6.01132 27.7732 6.0293 27.6534 6.06461C27.646 6.0666 27.6387 6.0706 27.6314 6.07193C27.3824 6.1472 27.156 6.28307 26.9709 6.46623C26.9649 6.47223 26.9595 6.47556 26.9536 6.48155C26.867 6.57014 26.7911 6.67071 26.7252 6.78061C26.7205 6.78793 26.7125 6.79393 26.7079 6.80259L26.2451 7.6045H8.41689C4.87921 7.6045 2 10.4832 2 14.0233V62.1628C2 65.7022 4.87921 68.582 8.41689 68.582H32.4788V71.791H29.2707C28.3852 71.791 27.666 72.509 27.666 73.3948C27.666 74.2807 28.3852 75 29.2707 75H51.7286C52.6155 75 53.332 74.282 53.332 73.3948C53.332 72.509 52.6148 71.791 51.7286 71.791H48.5206L48.5212 68.5839H72.5831C76.1228 68.5839 79 65.7039 79 62.1646V54.1421L78.9993 14.025C78.9993 10.4849 76.1229 7.60621 72.5831 7.60621L72.5852 7.6065ZM75.7932 62.1639C75.7932 63.9343 74.3536 65.3742 72.5852 65.3742H8.41621C6.6477 65.3742 5.20818 63.9356 5.20818 62.1639V55.7451H75.7932V62.1639ZM45.3136 71.793H35.688V68.5834H45.3136V71.793ZM5.20818 14.0249C5.20818 12.2545 6.64775 10.816 8.41621 10.816H24.3953L21.4636 15.8966C21.4576 15.9059 21.4563 15.9166 21.4509 15.9272C21.4243 15.9752 21.3977 16.0225 21.3757 16.0731C21.3477 16.1377 21.3271 16.205 21.3091 16.2709C21.3071 16.2782 21.3031 16.2856 21.3018 16.2929C21.2691 16.4155 21.2558 16.54 21.2532 16.6652C21.2532 16.6832 21.2512 16.7005 21.2512 16.7185C21.2532 16.8397 21.2691 16.961 21.2991 17.0802C21.3038 17.0995 21.3084 17.1175 21.3138 17.1355C21.3471 17.2547 21.395 17.3706 21.4569 17.4811C21.4596 17.4871 21.4609 17.4938 21.4642 17.4991C21.4689 17.5078 21.4769 17.5144 21.4822 17.5231C21.5441 17.6263 21.6147 17.7256 21.702 17.8141L22.5456 18.684C21.2139 19.3754 19.8868 20.142 18.5691 20.9859C13.7571 24.0511 10.4685 27.26 8.9282 28.8978C8.88026 28.9457 8.8483 28.9777 8.81634 28.993C8.28632 29.6031 8.28632 30.5176 8.83232 31.1429C8.8483 31.1583 8.88026 31.1909 8.92887 31.2555C10.4856 32.892 13.7897 36.1017 18.6017 39.1662C25.7582 43.7553 33.1206 46.0824 40.5004 46.1144C47.8794 46.0818 55.2597 43.7399 62.4299 39.1495C67.2426 36.0684 70.5312 32.876 72.0708 31.2388C72.1194 31.1902 72.1507 31.1575 72.168 31.1422C72.7134 30.5328 72.7134 29.6176 72.184 29.0081C72.184 29.0081 72.184 28.9922 72.168 28.9922C72.1507 28.9768 72.1194 28.9442 72.0708 28.8969C70.6998 27.4296 65.7545 22.4836 58.4442 18.6937L59.2785 17.8332H59.2792L59.2985 17.8132C59.3837 17.7266 59.4523 17.63 59.5136 17.5288C59.5202 17.5181 59.5309 17.5095 59.5375 17.4982C59.5422 17.4908 59.5435 17.4808 59.5469 17.4735C59.6061 17.3676 59.6507 17.2571 59.684 17.1425C59.6907 17.1185 59.6973 17.0939 59.7033 17.0692C59.7313 16.9553 59.7466 16.8394 59.748 16.7215C59.7486 16.6989 59.746 16.6769 59.746 16.6549C59.7433 16.5324 59.73 16.4112 59.6993 16.2919C59.6967 16.2826 59.6927 16.274 59.69 16.264C59.672 16.1994 59.6521 16.1341 59.6254 16.0708C59.6041 16.0202 59.5768 15.9722 59.5502 15.925C59.5442 15.9156 59.5435 15.9036 59.5375 15.8943L56.6058 10.8137H72.5849C74.3534 10.8137 75.7929 12.2524 75.7929 14.0227V52.5336L5.20794 52.5349L5.20818 14.0249ZM37.4043 9.21013L36.271 10.8153L34.1291 13.8505L32.1308 10.8153L31.0741 9.21013H37.4043ZM28.189 10.6608L28.2909 10.8153L31.1068 15.094H25.6316L28.0998 10.8153L28.189 10.6608ZM40.5 10.389L40.8016 10.816L43.15 14.1436L43.2339 14.2628L43.8212 15.0947H37.1793L37.7666 14.2628L37.8551 14.1369L40.1983 10.8154L40.5 10.389ZM39.916 42.8946C39.8901 42.8946 39.8648 42.8926 39.8388 42.8926C33.0691 42.547 27.6664 36.9288 27.6664 30.072C27.6664 28.2823 28.0359 26.5779 28.7005 25.0287L39.3495 36.0038C39.3542 36.0098 39.3621 36.0124 39.3668 36.0184C39.3815 36.0331 39.3954 36.0464 39.4101 36.0604C39.438 36.0864 39.4673 36.109 39.4966 36.1323C39.5279 36.157 39.5566 36.1829 39.5892 36.2049C39.6018 36.2136 39.6138 36.2202 39.6252 36.2289C39.6358 36.2356 39.6445 36.2442 39.6544 36.2509C39.6791 36.2655 39.7051 36.2769 39.7297 36.2902C39.7583 36.3055 39.7863 36.3208 39.8149 36.3348C39.8342 36.3441 39.8529 36.3541 39.8728 36.3628C39.8875 36.3694 39.9015 36.3721 39.9161 36.3781C39.9268 36.3821 39.9374 36.3854 39.9474 36.3894C39.9761 36.4001 40.0054 36.4121 40.034 36.4207C40.0719 36.4314 40.1092 36.44 40.1478 36.4494C40.1698 36.454 40.1911 36.4587 40.2118 36.4627C40.2291 36.4653 40.2464 36.47 40.263 36.472C40.3416 36.4833 40.4208 36.4913 40.4981 36.4913L40.5001 36.49H40.5007C40.5793 36.49 40.6586 36.4827 40.7365 36.4707C40.7538 36.468 40.7711 36.464 40.7877 36.4614C40.809 36.4574 40.831 36.4527 40.8516 36.448C40.8896 36.4394 40.9269 36.4307 40.9655 36.4194C40.9948 36.4107 41.0234 36.3981 41.0521 36.3881C41.0627 36.3841 41.0734 36.3814 41.0834 36.3768C41.098 36.3708 41.112 36.3674 41.1273 36.3614C41.1466 36.3541 41.1653 36.3435 41.1846 36.3335C41.2132 36.3202 41.2412 36.3042 41.2698 36.2889C41.2944 36.2755 41.3204 36.2642 41.345 36.2496C41.3557 36.2429 41.3644 36.2342 41.3743 36.2276C41.387 36.2202 41.399 36.2123 41.4103 36.2036C41.4429 36.1816 41.4722 36.155 41.5028 36.131C41.5321 36.107 41.5621 36.085 41.5894 36.0591C41.6041 36.0457 41.618 36.0311 41.6327 36.0171C41.6387 36.0111 41.6453 36.0078 41.65 36.0025L52.299 25.0274C52.9635 26.5773 53.3318 28.2817 53.3318 30.0707C53.3318 37.1488 47.5749 42.9087 40.4988 42.9087C40.3044 42.9087 40.11 42.902 39.9162 42.8947L39.916 42.8946ZM52.9708 19.7294L52.8556 19.848L51.7349 21.0036L50.603 22.1692L44.4505 28.5105L44.5943 28.1016L47.6566 19.4224L48.0508 18.3054H54.3538L52.9708 19.7294ZM28.0157 19.7155L26.6467 18.3041H32.9477L33.3419 19.4224L36.548 28.5106L30.3969 22.1693L29.2656 21.0037L28.145 19.8481L28.0157 19.7155ZM40.4997 30.0637L36.3501 18.304H44.648L40.6009 29.7766L40.4997 30.0637ZM49.8935 15.0944L52.7106 10.8156L52.8125 10.6611L52.9011 10.8156L55.3688 15.0944H49.8935ZM26.3208 22.5767C25.1343 24.816 24.4577 27.3656 24.4577 30.0711C24.4577 34.0746 25.9346 37.7366 28.367 40.5507C24.8925 39.2186 21.8923 37.5141 19.5497 35.9609C17.3837 34.5163 15.3142 32.8957 13.3892 31.1468C12.9883 30.7785 12.6188 30.4248 12.2506 30.0718C12.5875 29.7348 12.9724 29.3818 13.3892 28.9968C15.4959 27.066 19.549 23.7297 24.8898 21.1014L26.3208 22.5767ZM56.5413 30.0711C56.5413 27.3649 55.8655 24.8153 54.6782 22.5767L56.1032 21.1081C58.1287 22.1012 59.9291 23.1721 61.4499 24.1819C64.1619 25.9962 66.2954 27.7918 67.6098 28.996C68.0106 29.3816 68.3961 29.7353 68.7484 30.071C68.3801 30.424 67.9953 30.793 67.6098 31.146C65.0655 33.4799 59.6821 37.865 52.6147 40.5711C55.0577 37.7557 56.5412 34.0845 56.5412 30.0709L56.5413 30.0711ZM49.9242 9.21115L48.8681 10.8163L46.8698 13.8509L44.7285 10.8163L43.5966 9.21115H49.9242ZM37.2917 60.5613C37.2917 59.6755 38.0095 58.9561 38.895 58.9561H42.1031C42.99 58.9561 43.7078 59.6755 43.7078 60.5613C43.7078 61.4471 42.99 62.1651 42.1031 62.1651H38.895C38.0095 62.1651 37.2917 61.4471 37.2917 60.5613Z" fill="#448087"/>
</svg>
