<svg width="25" height="18" viewBox="0 0 25 18" fill="none" xmlns="http://www.w3.org/2000/svg">
<path d="M15.7497 8.9987C18.1438 8.9987 20.083 7.05953 20.083 4.66536C20.083 2.2712 18.1438 0.332031 15.7497 0.332031C13.3555 0.332031 11.4163 2.2712 11.4163 4.66536C11.4163 7.05953 13.3555 8.9987 15.7497 8.9987ZM5.99967 6.83203V4.66536C5.99967 4.06953 5.51217 3.58203 4.91634 3.58203C4.32051 3.58203 3.83301 4.06953 3.83301 4.66536V6.83203H1.66634C1.07051 6.83203 0.583008 7.31953 0.583008 7.91536C0.583008 8.5112 1.07051 8.9987 1.66634 8.9987H3.83301V11.1654C3.83301 11.7612 4.32051 12.2487 4.91634 12.2487C5.51217 12.2487 5.99967 11.7612 5.99967 11.1654V8.9987H8.16634C8.76217 8.9987 9.24967 8.5112 9.24967 7.91536C9.24967 7.31953 8.76217 6.83203 8.16634 6.83203H5.99967ZM15.7497 11.1654C12.8572 11.1654 7.08301 12.617 7.08301 15.4987V16.582C7.08301 17.1779 7.57051 17.6654 8.16634 17.6654H23.333C23.9288 17.6654 24.4163 17.1779 24.4163 16.582V15.4987C24.4163 12.617 18.6422 11.1654 15.7497 11.1654Z" fill="white"/>
</svg>
