<svg width="21" height="12" viewBox="0 0 21 12" fill="none" xmlns="http://www.w3.org/2000/svg">
<path d="M15.1371 0.513604C14.7958 0.172354 14.2446 0.172354 13.9033 0.513604L8.96832 5.4486L10.2021 6.68235L15.1371 1.7386C15.4696 1.4061 15.4696 0.846104 15.1371 0.513604ZM18.8471 0.504854L10.2021 9.14985L7.15707 6.1136C6.81582 5.77235 6.26457 5.77235 5.92332 6.1136C5.58207 6.45485 5.58207 7.0061 5.92332 7.34735L9.58082 11.0049C9.92207 11.3461 10.4733 11.3461 10.8146 11.0049L20.0808 1.74735C20.4221 1.4061 20.4221 0.854854 20.0808 0.513604H20.0721C19.7396 0.163604 19.1883 0.163604 18.8471 0.504854ZM0.97957 7.3561L4.63707 11.0136C4.97832 11.3549 5.52957 11.3549 5.87082 11.0136L6.48332 10.4011L2.21332 6.1136C1.87207 5.77235 1.32082 5.77235 0.97957 6.1136C0.63832 6.45485 0.63832 7.01485 0.97957 7.3561Z" fill="#448087"/>
</svg>
