<svg width="87" height="80" viewBox="0 0 87 80" fill="none" xmlns="http://www.w3.org/2000/svg">
<path d="M86.3565 45.7171L78.0645 41.0586C77.7627 40.8894 77.4026 40.8562 77.0757 40.9687C76.7481 41.0804 76.4844 41.3273 76.3514 41.6463L75.533 43.602H75.5322C72.2002 42.4695 69.0434 40.8748 66.1551 38.8657C65.0114 38.1404 63.8492 37.3981 62.6204 36.6898C57.0319 33.4162 47.1624 35.0798 42.2153 36.5765C38.8386 37.5965 33.1722 39.2357 29.1703 40.3796H29.1712C27.6398 40.8183 26.3501 41.8521 25.5893 43.2493C24.8285 44.6457 24.6614 46.2881 25.1254 47.8092C25.1254 47.8286 25.1473 47.8456 25.1546 47.865C23.7749 47.6934 22.4309 47.3097 21.1697 46.7261L6.88138 40.0243C5.38245 39.3378 3.63779 39.4576 2.2468 40.3424C0.855755 41.2264 0.0098588 42.7548 9.95933e-05 44.4004C-0.0104447 46.0461 0.816884 47.5849 2.19655 48.4859L19.2021 59.3655H19.2029C21.9485 61.1148 25.0696 62.1914 28.3107 62.5087L60.4933 65.652L65.8612 66.6938L62.8407 73.8909C62.603 74.4591 62.8301 75.1148 63.3687 75.4143L71.3459 79.8486L71.3467 79.8478C71.5252 79.9482 71.7271 80.0008 71.9324 80C72.4847 80.0016 72.9681 79.6292 73.1077 79.0958C73.2463 78.5623 73.0063 78.003 72.5237 77.735L65.4987 73.8284L78.0717 43.8319L85.177 47.8235H85.1762C85.4568 47.9871 85.791 48.0316 86.1049 47.9474C86.418 47.8632 86.6849 47.6568 86.8438 47.3743C87.0036 47.0918 87.0425 46.7574 86.9525 46.4458C86.8633 46.1341 86.6516 45.8719 86.3661 45.7172L86.3565 45.7171ZM60.8309 63.2676L28.5363 60.1243C25.6747 59.8426 22.921 58.8898 20.4982 57.3437L3.49019 46.4569C2.41062 45.7664 2.05372 44.3587 2.6726 43.2384C3.29229 42.1181 4.67683 41.6688 5.83749 42.212L20.13 48.904C22.2899 49.9054 24.6462 50.4121 27.0268 50.3887L28.6766 50.3668H28.7009C32.3907 50.2438 41.5715 50.0066 47.1845 50.4299H47.2761L47.2769 50.4291C47.9461 50.455 48.509 49.9345 48.5341 49.2667C48.5593 48.5989 48.0377 48.0371 47.3686 48.012C41.6511 47.5765 32.4069 47.8185 28.6573 47.9416H28.6135H28.6143C28.0733 47.9529 27.5907 47.604 27.4317 47.0884C27.1559 46.1874 27.2541 45.2136 27.7042 44.3855C28.1552 43.5574 28.9201 42.9446 29.8278 42.6855C33.8394 41.5344 39.5181 39.8952 42.9093 38.8729C48.8393 37.0767 57.1515 36.2784 61.3853 38.7572C62.5963 39.4606 63.7255 40.1859 64.8422 40.8941C67.8488 42.9762 71.1275 44.6365 74.586 45.8312L66.805 64.4203L60.8309 63.2676ZM33.4574 69.1015C33.3966 69.7224 32.8718 70.1943 32.2464 70.1919H32.1256L27.5923 69.7393C23.2067 69.3071 18.9849 67.8468 15.2716 65.4775C14.965 65.3237 14.7379 65.0468 14.6471 64.7165C14.5562 64.3855 14.6098 64.0325 14.7955 63.7435C14.9813 63.4554 15.2805 63.2587 15.6196 63.2036C15.9578 63.1486 16.305 63.2392 16.5726 63.4537C19.9647 65.6168 23.8198 66.9499 27.825 67.3457L32.3574 67.7885C33.0217 67.8508 33.51 68.4377 33.45 69.1015H33.4574ZM23.9634 35.8308C24.0793 35.8664 24.1994 35.8842 24.3194 35.8842C24.6406 35.8842 24.9488 35.7563 25.1759 35.5297C25.4031 35.303 25.5312 34.9954 25.5312 34.6748V24.9317C36.4958 24.2736 47.4894 24.2655 58.455 24.9075C58.7835 24.9164 59.1023 24.7957 59.3424 24.5715C59.5792 24.3432 59.7131 24.0284 59.7131 23.6989V1.64968C59.7131 0.99805 59.1972 0.463771 58.5451 0.440313C20.2703 -0.961719 15.8537 1.0183 14.8882 5.89708V6.03469V6.08812V28.1021C14.2807 32.6037 22.3178 35.3259 23.9628 35.8311L23.9634 35.8308ZM23.1133 32.9708C20.1845 31.827 16.9773 29.9247 17.2775 28.3502C17.2799 28.3203 17.2799 28.2911 17.2775 28.2612C17.2897 28.2158 17.2994 28.1697 17.3067 28.1236V10.5414C19.0846 11.8188 21.0443 12.8234 23.1207 13.5203V32.9707L23.1133 32.9708ZM57.2892 2.81686V22.4438C46.7109 21.8536 36.1055 21.8731 25.5303 22.502V12.6497C25.5311 12.1203 25.1864 11.6516 24.6794 11.4938C21.8333 10.6115 17.7097 8.59258 17.3008 6.81331V6.21106C17.914 3.59313 21.7465 1.55979 57.2887 2.81685L57.2892 2.81686ZM66.9795 12.8432V24.6609C66.9795 25.3279 66.4369 25.8695 65.7677 25.8695C65.0985 25.8695 64.5567 25.3279 64.5567 24.6609V12.8432C64.5567 12.1754 65.0986 11.6339 65.7677 11.6339C66.4369 11.6339 66.9795 12.1754 66.9795 12.8432ZM64.5567 7.13075V7.12994C64.5567 6.64101 64.852 6.20064 65.3046 6.01366C65.7572 5.82586 66.2779 5.92947 66.6242 6.27512C66.9706 6.62078 67.0744 7.14128 66.887 7.59298C66.6997 8.04468 66.2576 8.33934 65.7677 8.33934C65.4449 8.33934 65.135 8.21063 64.908 7.98153C64.6809 7.75244 64.5543 7.4424 64.5567 7.12024L64.5567 7.13075ZM39.814 69.5669C39.814 70.0559 39.5188 70.4962 39.0662 70.684C38.6136 70.871 38.0928 70.7674 37.7465 70.4217C37.4001 70.0761 37.2963 69.5556 37.4837 69.1039C37.6711 68.6522 38.1131 68.3583 38.603 68.3583C38.9242 68.3583 39.2324 68.4854 39.4595 68.7121C39.6867 68.9387 39.814 69.2463 39.814 69.5669L39.814 69.5669ZM29.8017 12.011C29.062 11.3068 28.8284 10.2228 29.2128 9.27661C29.5275 8.50516 30.2129 7.945 31.0321 7.78796V7.12012C31.0321 6.45309 31.5748 5.91156 32.2439 5.91156C32.9123 5.91156 33.4549 6.45311 33.4549 7.12012V7.70053H34.1233C34.7924 7.70053 35.335 8.24208 35.335 8.90909C35.335 9.57693 34.7924 10.1185 34.1233 10.1185H31.5366L33.0818 11.7917L34.6854 13.3273V13.3265C35.3594 13.9644 35.6198 14.9244 35.361 15.8141C35.1015 16.7037 34.3666 17.3747 33.4549 17.5528V18.2077C33.4549 18.8756 32.9123 19.4171 32.2439 19.4171C31.5748 19.4171 31.0322 18.8755 31.0322 18.2077V17.6273H30.3638C29.6946 17.6273 29.1528 17.0866 29.1528 16.4188C29.1528 15.7509 29.6946 15.2102 30.3638 15.2102H32.9537L31.4061 13.537L29.8017 12.011Z" fill="#A81E30"/>
</svg>
