<svg width="20" height="19" viewBox="0 0 20 19" fill="none" xmlns="http://www.w3.org/2000/svg">
<path d="M17.6285 4.15733L8.87849 12.9073C8.53724 13.2486 7.98599 13.2486 7.64474 12.9073L5.16849 10.4311C4.82724 10.0898 4.82724 9.53858 5.16849 9.19733C5.50974 8.85608 6.06099 8.85608 6.40224 9.19733L8.25724 11.0523L16.386 2.92358C16.7272 2.58233 17.2785 2.58233 17.6197 2.92358C17.9697 3.26483 17.9697 3.81608 17.6285 4.15733ZM9.49974 16.5036C5.37849 16.5036 2.07974 12.9248 2.54349 8.71608C2.88474 5.63608 5.27349 3.10733 8.32724 2.59983C9.91099 2.33733 11.416 2.61733 12.6935 3.28233C13.0347 3.45733 13.446 3.39608 13.7172 3.12483C14.1372 2.70483 14.0322 1.99608 13.5072 1.72483C12.221 1.06858 10.7685 0.709834 9.21974 0.753584C4.72224 0.893584 0.985991 4.55108 0.758491 9.03983C0.504741 14.0886 4.51224 18.2536 9.49974 18.2536C10.5497 18.2536 11.5472 18.0698 12.4835 17.7286C13.0785 17.5098 13.2447 16.7398 12.7897 16.2848C12.5535 16.0486 12.1947 15.9611 11.8797 16.0836C11.136 16.3548 10.331 16.5036 9.49974 16.5036ZM15.6247 12.1286H13.8747C13.3935 12.1286 12.9997 12.5223 12.9997 13.0036C12.9997 13.4848 13.3935 13.8786 13.8747 13.8786H15.6247V15.6286C15.6247 16.1098 16.0185 16.5036 16.4997 16.5036C16.981 16.5036 17.3747 16.1098 17.3747 15.6286V13.8786H19.1247C19.606 13.8786 19.9997 13.4848 19.9997 13.0036C19.9997 12.5223 19.606 12.1286 19.1247 12.1286H17.3747V10.3786C17.3747 9.89734 16.981 9.50358 16.4997 9.50358C16.0185 9.50358 15.6247 9.89734 15.6247 10.3786V12.1286Z" fill="#448087"/>
</svg>
