<svg width="80" height="80" viewBox="0 0 80 80" fill="none" xmlns="http://www.w3.org/2000/svg">
<path d="M62.6451 23.6455C53.6275 23.6455 46.2903 30.9827 46.2903 40.0003C46.2903 49.018 53.6275 56.3552 62.6451 56.3552C71.6628 56.3552 79 49.018 79 40.0003C79 30.9827 71.6628 23.6455 62.6451 23.6455ZM62.6451 53.8391C55.0148 53.8391 48.8064 47.6307 48.8064 40.0003C48.8064 32.37 55.0148 26.1616 62.6451 26.1616C70.2755 26.1616 76.4838 32.37 76.4838 40.0003C76.4838 47.6307 70.2755 53.8391 62.6451 53.8391Z" fill="#A62033"/>
<path d="M62.6452 33.7097C64.033 33.7097 65.1613 34.8381 65.1613 36.2259H67.6774C67.6774 33.8883 66.0673 31.9344 63.9032 31.3722V28.6775H61.3871V31.3722C59.2231 31.9344 57.6129 33.8883 57.6129 36.2259C57.6129 39.001 59.8701 41.2581 62.6452 41.2581C64.033 41.2581 65.1613 42.3865 65.1613 43.7743C65.1613 45.1621 64.033 46.2904 62.6452 46.2904C61.2574 46.2904 60.129 45.1621 60.129 43.7743H57.6129C57.6129 46.113 59.2231 48.0658 61.3871 48.6279V51.3227H63.9032V48.6279C66.0673 48.0657 67.6774 46.113 67.6774 43.7743C67.6774 40.9992 65.4202 38.742 62.6452 38.742C61.2574 38.742 60.129 37.6137 60.129 36.2259C60.129 34.8381 61.2574 33.7097 62.6452 33.7097Z" fill="#A62033"/>
<path d="M36.2258 56.7057C36.2258 53.7178 34.0995 51.1225 31.1694 50.5373L23.6452 49.0326V47.2157C24.9043 46.3351 25.9186 45.1338 26.5775 43.7308C29.1555 43.5163 31.1935 41.3747 31.1935 38.7418V32.4515C31.1935 25.5147 25.5497 19.8708 18.6129 19.8708C11.6762 19.8708 6.03226 25.5147 6.03226 32.4515V38.7418C6.03226 41.3747 8.07046 43.5163 10.6483 43.7314C11.3076 45.1343 12.3214 46.3356 13.5806 47.2163V49.0332L6.05641 50.5379C3.12634 51.1236 1 53.7178 1 56.7057V60.1289H36.2258V56.7057ZM27.3677 40.936C27.4003 40.6277 27.4194 40.3154 27.4194 39.9998V36.5755C28.1681 37.0119 28.6775 37.8145 28.6775 38.7417C28.6775 39.6903 28.1439 40.5069 27.3677 40.9361V40.936ZM18.6129 22.3871C24.1625 22.3871 28.6774 26.9021 28.6774 32.4516V34.4089C28.2298 34.1472 27.7462 33.9394 27.2245 33.8265C26.7376 32.3056 25.3262 31.1936 23.6452 31.1936H13.5806C11.8997 31.1936 10.4882 32.3056 10.0013 33.8282C9.47951 33.9411 8.99594 34.1489 8.54839 34.4089V32.4517C8.54839 26.9021 13.0633 22.3872 18.6129 22.3872V22.3871ZM8.54839 38.742C8.54839 37.8147 9.05779 37.0122 9.80645 36.5758V40C9.80645 40.3157 9.82555 40.6279 9.85812 40.9363C9.08195 40.5072 8.54838 39.6906 8.54838 38.7419L8.54839 38.742ZM12.3226 40V34.9678C12.3226 34.2747 12.8876 33.7097 13.5806 33.7097H23.6452C24.3382 33.7097 24.9032 34.2747 24.9032 34.9678V40C24.9032 43.4687 22.0816 46.2903 18.6129 46.2903C15.1442 46.2903 12.3226 43.4687 12.3226 40ZM18.6129 48.8065C19.4874 48.8065 20.3315 48.6745 21.129 48.4352V49.5433L18.6129 52.0595L16.0968 49.5433V48.4352C16.8943 48.6745 17.7384 48.8065 18.6129 48.8065ZM33.7097 57.6129H3.51613V56.7059C3.51613 54.912 4.79161 53.3557 6.55058 53.0047L14.4258 51.4299L18.6128 55.6175L22.8009 51.4293L30.6761 53.0042C32.4341 53.3557 33.7095 54.9131 33.7095 56.7059L33.7097 57.6129Z" fill="#A62033"/>
<path d="M61.3871 75.2257C61.3871 75.9199 60.8221 76.4838 60.129 76.4838H21.1291C20.436 76.4838 19.871 75.9199 19.871 75.2257V66.6382L26.6006 72.405L28.2383 70.4955L18.6131 62.2462L8.98779 70.4978L10.6256 72.4073L17.3551 66.6382V75.2257C17.3551 77.3066 19.0484 78.9999 21.1293 78.9999H60.1293C62.2102 78.9999 63.9035 77.3066 63.9035 75.2257V58.8708H61.3874L61.3871 75.2257Z" fill="#A62033"/>
<path d="M19.8709 4.77419C19.8709 4.08114 20.4359 3.51613 21.129 3.51613H60.129C60.822 3.51613 61.387 4.08114 61.387 4.77419V17.1359L54.6575 11.3679L53.0197 13.2791L62.645 21.5279L72.2702 13.2774L70.6324 11.3662L63.9029 17.1359V4.77419C63.9029 2.69328 62.2096 1 60.1287 1H21.1287C19.0478 1 17.3545 2.69328 17.3545 4.77419V17.3548H19.8706L19.8709 4.77419Z" fill="#A62033"/>
<path d="M70.1936 38.7422H72.7097V41.2583H70.1936V38.7422Z" fill="#A62033"/>
<path d="M52.5806 38.7422H55.0967V41.2583H52.5806V38.7422Z" fill="#A62033"/>
<path d="M43.7742 6.03223H46.2903V8.54836H43.7742V6.03223Z" fill="#A62033"/>
<path d="M38.7419 6.03223H41.2581V8.54836H38.7419V6.03223Z" fill="#A62033"/>
<path d="M33.7097 6.03223H36.2258V8.54836H33.7097V6.03223Z" fill="#A62033"/>
<path d="M43.7742 71.4517H46.2903V73.9678H43.7742V71.4517Z" fill="#A62033"/>
<path d="M38.7419 71.4517H41.2581V73.9678H38.7419V71.4517Z" fill="#A62033"/>
<path d="M33.7097 71.4517H36.2258V73.9678H33.7097V71.4517Z" fill="#A62033"/>
</svg>
