<svg width="41" height="31" viewBox="0 0 41 31" fill="none" xmlns="http://www.w3.org/2000/svg">
<mask id="path-1-inside-1_0_563" fill="white">
<path d="M32.7895 4.23878e-05C34.2055 4.23878e-05 35.363 1.17321 35.4437 2.65276L35.4481 2.8182V4.69721H37.2208C39.1785 4.69721 40.7655 6.37935 40.7655 8.45458C40.7655 10.4669 39.2732 12.11 37.3976 12.2075L37.2208 12.2122H35.4481V14.0909H37.2208C39.1785 14.0909 40.7655 15.7734 40.7655 17.8486C40.7655 19.861 39.2732 21.5038 37.3976 21.6015L37.2208 21.6063H35.4481V23.4849H37.2208C39.1785 23.4849 40.7654 25.1674 40.7654 27.2426C40.7654 29.255 39.2732 30.8978 37.3976 30.9956L37.2208 31H31.9034C29.9457 31 28.3584 29.3178 28.3584 27.2426C28.3584 25.2303 29.8507 23.5872 31.7263 23.4897L31.9034 23.485H33.6758V21.6063H31.9034C29.9457 21.6063 28.3584 19.9238 28.3584 17.8486C28.3584 15.8362 29.8507 14.1934 31.7263 14.0956L31.9034 14.0909H33.6758V12.2122H31.9034C29.9457 12.2122 28.3584 10.5298 28.3584 8.45455C28.3584 6.44221 29.8507 4.79936 31.7263 4.70161L31.9034 4.69721H33.6758V2.8182C33.6758 2.33666 33.3336 1.93941 32.893 1.8853L32.7894 1.87901H21.269V4.6972H23.0414C24.9991 4.6972 26.5864 6.37934 26.5864 8.45457C26.5864 10.4669 25.0939 12.11 23.2182 12.2075L23.0414 12.2122H21.269V14.0909H23.0414C24.9991 14.0909 26.5864 15.7734 26.5864 17.8486C26.5864 19.8609 25.0939 21.5038 23.2182 21.6015L23.0414 21.6063H21.269V23.4849H23.0414C24.9991 23.4849 26.5864 25.1674 26.5864 27.2426C26.5864 29.255 25.0939 30.8978 23.2182 30.9956L23.0414 31H17.724C15.7663 31 14.179 29.3178 14.179 27.2426C14.179 25.2303 15.6715 23.5872 17.5472 23.4897L17.724 23.4849H19.4964V21.6063H17.724C15.7663 21.6063 14.179 19.9238 14.179 17.8486C14.179 15.8362 15.6715 14.1934 17.5472 14.0956L17.724 14.0909H19.4964V12.2122H17.724C15.7663 12.2122 14.179 10.5298 14.179 8.45454C14.179 6.4422 15.6715 4.79935 17.5472 4.7016L17.724 4.6972H19.4964V1.87901H7.97601C7.52142 1.87901 7.14696 2.24167 7.09561 2.70877L7.08968 2.81823V4.69723H8.86202C10.8198 4.69723 12.407 6.37937 12.407 8.4546C12.407 10.4669 10.9147 12.11 9.03916 12.2075L8.86202 12.2123H7.08968V14.0909H8.86202C10.8198 14.0909 12.407 15.7734 12.407 17.8486C12.407 19.861 10.9147 21.5038 9.03916 21.6016L8.86202 21.6063H7.08968V23.485H8.86202C10.8198 23.485 12.407 25.1674 12.407 27.2427C12.407 29.255 10.9147 30.8978 9.03916 30.9956L8.86202 31H3.54469C1.58692 31 0 29.3179 0 27.2426C0 25.2303 1.49227 23.5872 3.36785 23.4897L3.54469 23.485H5.31734V21.6063H3.54469C1.58693 21.6063 7.53406e-06 19.9238 7.53406e-06 17.8486C7.53406e-06 15.8363 1.49228 14.1934 3.36785 14.0957L3.5447 14.0909H5.31735V12.2123H3.5447C1.58694 12.2123 1.50681e-05 10.5298 1.50681e-05 8.45458C1.50681e-05 6.44223 1.49229 4.79939 3.36786 4.70164L3.54471 4.69723H5.31736V2.81823C5.31736 1.31758 6.42412 0.0906248 7.81962 0.00503248L7.97599 0L32.7895 4.23878e-05ZM8.8615 25.3637H3.54416C2.56524 25.3637 1.77182 26.2051 1.77182 27.2427C1.77182 28.2332 2.49494 29.0447 3.41214 29.1164L3.54419 29.1215H8.86152C9.84044 29.1215 10.6342 28.2804 10.6342 27.2428C10.6342 26.2523 9.91105 25.4408 8.99384 25.3691L8.8615 25.3637ZM23.0413 25.3637H17.724C16.7451 25.3637 15.9516 26.2051 15.9516 27.2427C15.9516 28.2332 16.6745 29.0447 17.5916 29.1164L17.724 29.1215H23.0413C24.0202 29.1215 24.8137 28.2804 24.8137 27.2428C24.8137 26.2523 24.0908 25.4408 23.1736 25.3691L23.0413 25.3637ZM37.2211 25.3637H31.9038C30.9249 25.3637 30.1311 26.2051 30.1311 27.2427C30.1311 28.2332 30.8542 29.0447 31.7715 29.1164L31.9038 29.1215H37.2211C38.2001 29.1215 38.9935 28.2804 38.9935 27.2428C38.9935 26.2523 38.2704 25.4408 37.3531 25.3691L37.2211 25.3637ZM8.8615 15.9703H3.54416C2.56524 15.9703 1.77182 16.8113 1.77182 17.849C1.77182 18.8395 2.49494 19.6509 3.41214 19.7227L3.54419 19.7277H8.86152C9.84044 19.7277 10.6342 18.8867 10.6342 17.849C10.6342 16.8586 9.91105 16.0471 8.99384 15.9753L8.8615 15.9703ZM23.0413 15.9703H17.724C16.7451 15.9703 15.9516 16.8113 15.9516 17.849C15.9516 18.8395 16.6745 19.6509 17.5916 19.7227L17.724 19.7277H23.0413C24.0202 19.7277 24.8137 18.8867 24.8137 17.849C24.8137 16.8586 24.0908 16.0471 23.1736 15.9753L23.0413 15.9703ZM37.2211 15.9703H31.9038C30.9249 15.9703 30.1311 16.8113 30.1311 17.849C30.1311 18.8395 30.8542 19.6509 31.7715 19.7227L31.9038 19.7277H37.2211C38.2001 19.7277 38.9935 18.8867 38.9935 17.849C38.9935 16.8586 38.2704 16.0471 37.3531 15.9753L37.2211 15.9703ZM8.8615 6.57608H3.54416C2.56524 6.57608 1.77182 7.41711 1.77182 8.45476C1.77182 9.44524 2.49494 10.2567 3.41214 10.3285L3.54419 10.3338H8.86152C9.84044 10.3338 10.6342 9.49245 10.6342 8.4548C10.6342 7.46432 9.91105 6.65285 8.99384 6.5811L8.8615 6.57608ZM23.0413 6.57608H17.724C16.7451 6.57608 15.9516 7.41711 15.9516 8.45476C15.9516 9.44524 16.6745 10.2567 17.5916 10.3285L17.724 10.3338H23.0413C24.0202 10.3338 24.8137 9.49245 24.8137 8.4548C24.8137 7.46432 24.0908 6.65285 23.1736 6.5811L23.0413 6.57608ZM37.2211 6.57608H31.9038C30.9249 6.57608 30.1311 7.41711 30.1311 8.45476C30.1311 9.44524 30.8542 10.2567 31.7715 10.3285L31.9038 10.3338H37.2211C38.2001 10.3338 38.9935 9.49245 38.9935 8.4548C38.9935 7.46432 38.2704 6.65285 37.3531 6.5811L37.2211 6.57608Z"/>
</mask>
<path d="M32.7895 4.23878e-05C34.2055 4.23878e-05 35.363 1.17321 35.4437 2.65276L35.4481 2.8182V4.69721H37.2208C39.1785 4.69721 40.7655 6.37935 40.7655 8.45458C40.7655 10.4669 39.2732 12.11 37.3976 12.2075L37.2208 12.2122H35.4481V14.0909H37.2208C39.1785 14.0909 40.7655 15.7734 40.7655 17.8486C40.7655 19.861 39.2732 21.5038 37.3976 21.6015L37.2208 21.6063H35.4481V23.4849H37.2208C39.1785 23.4849 40.7654 25.1674 40.7654 27.2426C40.7654 29.255 39.2732 30.8978 37.3976 30.9956L37.2208 31H31.9034C29.9457 31 28.3584 29.3178 28.3584 27.2426C28.3584 25.2303 29.8507 23.5872 31.7263 23.4897L31.9034 23.485H33.6758V21.6063H31.9034C29.9457 21.6063 28.3584 19.9238 28.3584 17.8486C28.3584 15.8362 29.8507 14.1934 31.7263 14.0956L31.9034 14.0909H33.6758V12.2122H31.9034C29.9457 12.2122 28.3584 10.5298 28.3584 8.45455C28.3584 6.44221 29.8507 4.79936 31.7263 4.70161L31.9034 4.69721H33.6758V2.8182C33.6758 2.33666 33.3336 1.93941 32.893 1.8853L32.7894 1.87901H21.269V4.6972H23.0414C24.9991 4.6972 26.5864 6.37934 26.5864 8.45457C26.5864 10.4669 25.0939 12.11 23.2182 12.2075L23.0414 12.2122H21.269V14.0909H23.0414C24.9991 14.0909 26.5864 15.7734 26.5864 17.8486C26.5864 19.8609 25.0939 21.5038 23.2182 21.6015L23.0414 21.6063H21.269V23.4849H23.0414C24.9991 23.4849 26.5864 25.1674 26.5864 27.2426C26.5864 29.255 25.0939 30.8978 23.2182 30.9956L23.0414 31H17.724C15.7663 31 14.179 29.3178 14.179 27.2426C14.179 25.2303 15.6715 23.5872 17.5472 23.4897L17.724 23.4849H19.4964V21.6063H17.724C15.7663 21.6063 14.179 19.9238 14.179 17.8486C14.179 15.8362 15.6715 14.1934 17.5472 14.0956L17.724 14.0909H19.4964V12.2122H17.724C15.7663 12.2122 14.179 10.5298 14.179 8.45454C14.179 6.4422 15.6715 4.79935 17.5472 4.7016L17.724 4.6972H19.4964V1.87901H7.97601C7.52142 1.87901 7.14696 2.24167 7.09561 2.70877L7.08968 2.81823V4.69723H8.86202C10.8198 4.69723 12.407 6.37937 12.407 8.4546C12.407 10.4669 10.9147 12.11 9.03916 12.2075L8.86202 12.2123H7.08968V14.0909H8.86202C10.8198 14.0909 12.407 15.7734 12.407 17.8486C12.407 19.861 10.9147 21.5038 9.03916 21.6016L8.86202 21.6063H7.08968V23.485H8.86202C10.8198 23.485 12.407 25.1674 12.407 27.2427C12.407 29.255 10.9147 30.8978 9.03916 30.9956L8.86202 31H3.54469C1.58692 31 0 29.3179 0 27.2426C0 25.2303 1.49227 23.5872 3.36785 23.4897L3.54469 23.485H5.31734V21.6063H3.54469C1.58693 21.6063 7.53406e-06 19.9238 7.53406e-06 17.8486C7.53406e-06 15.8363 1.49228 14.1934 3.36785 14.0957L3.5447 14.0909H5.31735V12.2123H3.5447C1.58694 12.2123 1.50681e-05 10.5298 1.50681e-05 8.45458C1.50681e-05 6.44223 1.49229 4.79939 3.36786 4.70164L3.54471 4.69723H5.31736V2.81823C5.31736 1.31758 6.42412 0.0906248 7.81962 0.00503248L7.97599 0L32.7895 4.23878e-05ZM8.8615 25.3637H3.54416C2.56524 25.3637 1.77182 26.2051 1.77182 27.2427C1.77182 28.2332 2.49494 29.0447 3.41214 29.1164L3.54419 29.1215H8.86152C9.84044 29.1215 10.6342 28.2804 10.6342 27.2428C10.6342 26.2523 9.91105 25.4408 8.99384 25.3691L8.8615 25.3637ZM23.0413 25.3637H17.724C16.7451 25.3637 15.9516 26.2051 15.9516 27.2427C15.9516 28.2332 16.6745 29.0447 17.5916 29.1164L17.724 29.1215H23.0413C24.0202 29.1215 24.8137 28.2804 24.8137 27.2428C24.8137 26.2523 24.0908 25.4408 23.1736 25.3691L23.0413 25.3637ZM37.2211 25.3637H31.9038C30.9249 25.3637 30.1311 26.2051 30.1311 27.2427C30.1311 28.2332 30.8542 29.0447 31.7715 29.1164L31.9038 29.1215H37.2211C38.2001 29.1215 38.9935 28.2804 38.9935 27.2428C38.9935 26.2523 38.2704 25.4408 37.3531 25.3691L37.2211 25.3637ZM8.8615 15.9703H3.54416C2.56524 15.9703 1.77182 16.8113 1.77182 17.849C1.77182 18.8395 2.49494 19.6509 3.41214 19.7227L3.54419 19.7277H8.86152C9.84044 19.7277 10.6342 18.8867 10.6342 17.849C10.6342 16.8586 9.91105 16.0471 8.99384 15.9753L8.8615 15.9703ZM23.0413 15.9703H17.724C16.7451 15.9703 15.9516 16.8113 15.9516 17.849C15.9516 18.8395 16.6745 19.6509 17.5916 19.7227L17.724 19.7277H23.0413C24.0202 19.7277 24.8137 18.8867 24.8137 17.849C24.8137 16.8586 24.0908 16.0471 23.1736 15.9753L23.0413 15.9703ZM37.2211 15.9703H31.9038C30.9249 15.9703 30.1311 16.8113 30.1311 17.849C30.1311 18.8395 30.8542 19.6509 31.7715 19.7227L31.9038 19.7277H37.2211C38.2001 19.7277 38.9935 18.8867 38.9935 17.849C38.9935 16.8586 38.2704 16.0471 37.3531 15.9753L37.2211 15.9703ZM8.8615 6.57608H3.54416C2.56524 6.57608 1.77182 7.41711 1.77182 8.45476C1.77182 9.44524 2.49494 10.2567 3.41214 10.3285L3.54419 10.3338H8.86152C9.84044 10.3338 10.6342 9.49245 10.6342 8.4548C10.6342 7.46432 9.91105 6.65285 8.99384 6.5811L8.8615 6.57608ZM23.0413 6.57608H17.724C16.7451 6.57608 15.9516 7.41711 15.9516 8.45476C15.9516 9.44524 16.6745 10.2567 17.5916 10.3285L17.724 10.3338H23.0413C24.0202 10.3338 24.8137 9.49245 24.8137 8.4548C24.8137 7.46432 24.0908 6.65285 23.1736 6.5811L23.0413 6.57608ZM37.2211 6.57608H31.9038C30.9249 6.57608 30.1311 7.41711 30.1311 8.45476C30.1311 9.44524 30.8542 10.2567 31.7715 10.3285L31.9038 10.3338H37.2211C38.2001 10.3338 38.9935 9.49245 38.9935 8.4548C38.9935 7.46432 38.2704 6.65285 37.3531 6.5811L37.2211 6.57608Z" fill="#BEFBFF" stroke="white" stroke-width="8" mask="url(#path-1-inside-1_0_563)"/>
</svg>
