<svg width="24" height="16" viewBox="0 0 24 16" fill="none" xmlns="http://www.w3.org/2000/svg">
<path d="M1.16665 0.416748C1.76248 0.416748 2.24998 0.904248 2.24998 1.50008V14.5001C2.24998 15.0959 1.76248 15.5834 1.16665 15.5834C0.570813 15.5834 0.083313 15.0959 0.083313 14.5001V1.50008C0.083313 0.904248 0.570813 0.416748 1.16665 0.416748ZM5.49998 0.416748C6.09581 0.416748 6.58331 0.904248 6.58331 1.50008V14.5001C6.58331 15.0959 6.09581 15.5834 5.49998 15.5834C4.90415 15.5834 4.41665 15.0959 4.41665 14.5001V1.50008C4.41665 0.904248 4.90415 0.416748 5.49998 0.416748ZM22.8333 0.416748H9.83331C9.23748 0.416748 8.74998 0.904248 8.74998 1.50008V14.5001C8.74998 15.0959 9.23748 15.5834 9.83331 15.5834H22.8333C23.4291 15.5834 23.9166 15.0959 23.9166 14.5001V1.50008C23.9166 0.904248 23.4291 0.416748 22.8333 0.416748ZM11.61 12.5392L13.2025 10.5242C13.4191 10.2534 13.82 10.2534 14.0475 10.5134L15.5641 12.3334L17.8391 9.39758C18.0558 9.11592 18.4783 9.11592 18.695 9.39758L21.0891 12.5392C21.36 12.8967 21.1108 13.4059 20.6558 13.4059H12.0325C11.5883 13.4167 11.3283 12.8967 11.61 12.5392Z" fill="#A72037"/>
</svg>
