<svg width="25" height="25" viewBox="0 0 25 25" fill="none" xmlns="http://www.w3.org/2000/svg">
<path d="M12.1048 22.19C6.53362 22.19 2.01758 17.674 2.01758 12.1028C2.01758 6.53167 6.53362 2.01562 12.1048 2.01562C17.6759 2.01562 22.192 6.53167 22.192 12.1028C22.192 17.674 17.6759 22.19 12.1048 22.19ZM12.1048 20.1726C14.245 20.1726 16.2976 19.3224 17.811 17.809C19.3243 16.2956 20.1745 14.2431 20.1745 12.1028C20.1745 9.9626 19.3243 7.91002 17.811 6.39665C16.2976 4.88327 14.245 4.03307 12.1048 4.03307C9.96455 4.03307 7.91197 4.88327 6.3986 6.39665C4.88522 7.91002 4.03502 9.9626 4.03502 12.1028C4.03502 14.2431 4.88522 16.2956 6.3986 17.809C7.91197 19.3224 9.96455 20.1726 12.1048 20.1726ZM9.07862 8.06795H15.1309L17.6527 11.5985L12.1048 17.1464L6.55682 11.5985L9.07862 8.06795ZM10.1176 10.0854L9.18958 11.3866L12.1048 14.3018L15.02 11.3866L14.092 10.0854H10.1176Z" fill="#A81E30"/>
</svg>
