<svg width="46" height="45" viewBox="0 0 46 45" fill="none" xmlns="http://www.w3.org/2000/svg">
<rect x="0.5" width="45" height="45" rx="22.5" fill="#ECF8FF"/>
<path d="M33.7863 28.7862C33.7567 28.5404 33.6382 28.3255 33.4605 28.2025C33.2828 28.0489 33.0458 27.9874 32.8384 28.0182L24.0123 29.4004C23.9827 29.4004 23.953 29.4311 23.953 29.4311C23.2718 30.1683 22.2352 30.4754 21.2282 30.1683L16.8743 28.7552C16.6374 28.6937 16.4892 28.4173 16.5781 28.1716C16.6669 27.9258 16.9039 27.7722 17.1409 27.8643L21.4947 29.2774C21.9686 29.431 22.5016 29.3695 22.946 29.0931C23.0053 29.0625 23.0053 29.001 23.0053 28.9703C23.0053 28.9397 23.0053 28.8782 22.946 28.8476L17.0817 25.4378C16.8743 25.315 16.6077 25.2226 16.3708 25.2226C16.1043 25.192 15.808 25.2533 15.5415 25.3763L12.2244 26.9121L12.1651 26.9736V27.0658L13.6755 30.3832C13.7051 30.4138 13.7348 30.4447 13.7644 30.4447L22.3831 31.9499C23.094 32.0726 23.8047 31.9805 24.4563 31.6426C24.4859 31.612 24.5156 31.612 24.5452 31.612L33.8452 28.9703C33.8156 28.8782 33.7861 28.8167 33.7861 28.786L33.7863 28.7862ZM13.4685 31.1512C13.4685 31.1206 13.4685 31.0897 13.4389 31.0897L11.5139 26.9122C11.4843 26.8816 11.4843 26.8507 11.4546 26.8201C11.3953 26.7586 11.3657 26.7279 11.3064 26.6973C11.2769 26.6973 11.2471 26.6973 11.2176 26.6667C11.1583 26.6667 11.0992 26.6667 11.0399 26.6973L10.3588 27.0352C10.2699 27.0658 10.2106 27.158 10.1811 27.2503C10.1515 27.3424 10.1515 27.4346 10.1811 27.5267L12.1061 31.7042C12.1357 31.7964 12.2245 31.8578 12.3136 31.8885C12.4024 31.9191 12.4912 31.9191 12.5801 31.8578L13.2612 31.52C13.4092 31.4891 13.498 31.3048 13.4685 31.1512H13.4685Z" fill="#1BA0F2"/>
<path d="M26.5596 23.5008C26.5003 23.3165 26.3819 23.1629 26.2634 23.0401C26.145 22.948 25.9671 22.825 25.7599 22.7329C25.7006 22.7022 25.6415 22.6714 25.5524 22.6407C25.345 22.5486 25.1674 22.4871 25.049 22.4256C24.9601 22.395 24.9008 22.3335 24.8713 22.3028C24.7529 22.2107 24.6936 22.0571 24.7234 21.9034C24.7234 21.7498 24.8122 21.627 24.9603 21.5349C25.0196 21.5043 25.0787 21.4734 25.138 21.4428C25.2269 21.4121 25.3454 21.4121 25.4638 21.4121C25.6712 21.4428 25.8192 21.5043 25.9378 21.5964C25.9378 21.5964 25.9673 21.627 25.997 21.627C26.0563 21.6885 26.1154 21.8113 26.1452 21.9343C26.1747 22.0571 26.2636 22.1186 26.3822 22.1186H26.4117C26.5005 22.1186 26.5598 22.0879 26.6191 22.0264C26.6784 21.9649 26.6784 21.8728 26.6784 21.8113C26.6489 21.5962 26.56 21.4119 26.4414 21.2891C26.3231 21.1355 26.1452 21.0127 25.938 20.9512L25.8491 20.9206L25.8787 20.6442C25.8787 20.5214 25.7898 20.3984 25.6712 20.3984H25.6417C25.5233 20.3984 25.4047 20.4906 25.4047 20.6136L25.3157 20.8897H25.2269C25.1085 20.8897 24.9899 20.9204 24.8715 20.9819C24.6938 21.074 24.5457 21.1662 24.4273 21.3504C24.3089 21.5347 24.2496 21.719 24.2496 21.9341C24.2201 22.1184 24.2496 22.3026 24.3089 22.4869C24.3682 22.6711 24.4571 22.7941 24.5755 22.9169C24.6938 23.0091 24.842 23.1012 25.0494 23.1933C25.0789 23.1933 25.1087 23.224 25.1382 23.224L25.1975 23.2546C25.4938 23.3774 25.6417 23.4389 25.7603 23.5004C25.7899 23.531 25.8196 23.531 25.8491 23.5619C25.938 23.6234 26.0268 23.7155 26.0566 23.8076C26.1159 23.8998 26.1159 24.0227 26.1159 24.1455C26.0863 24.3606 26.027 24.5141 25.8494 24.637C25.7901 24.6985 25.731 24.7292 25.6419 24.7598C25.5235 24.7905 25.405 24.8213 25.2568 24.7905C25.1087 24.7905 24.9606 24.729 24.8717 24.6677C24.6941 24.5449 24.5755 24.3604 24.5164 24.1149C24.4868 23.9921 24.398 23.8998 24.2794 23.8998H24.2499C24.161 23.8998 24.1017 23.9304 24.0424 23.9919C23.9832 24.0534 23.9832 24.1455 23.9832 24.207C24.072 24.7907 24.3682 25.1592 24.8717 25.2822L24.9606 25.3129L24.931 25.5893C24.931 25.712 25.0199 25.835 25.1385 25.835H25.168C25.2864 25.835 25.405 25.7429 25.405 25.6199L25.4345 25.3435H25.5234C25.8196 25.3129 26.0268 25.2207 26.2045 25.0671C26.4415 24.852 26.5599 24.5449 26.5896 24.1764C26.6485 23.9 26.6189 23.6851 26.5596 23.5009L26.5596 23.5008Z" fill="#1BA0F2"/>
<path d="M25.7007 19.2606C23.657 19.0763 21.8801 20.6737 21.7022 22.7929C21.5245 24.9124 23.0647 26.7553 25.1081 26.9398C27.1518 27.1241 28.9287 25.5267 29.1066 23.4075C29.2548 21.2879 27.7146 19.4449 25.7007 19.2606ZM26.3819 25.1889C26.2042 25.3732 25.9672 25.4653 25.671 25.5268V25.5883C25.6414 25.8341 25.434 26.0184 25.197 26.0184H25.1675C24.9305 25.9877 24.7529 25.7726 24.7529 25.5268V25.4653C24.2198 25.2811 23.894 24.8817 23.805 24.2368C23.7754 24.0831 23.8345 23.9604 23.9234 23.8374C24.0122 23.7146 24.1603 23.6531 24.2787 23.6531C24.4861 23.6531 24.6934 23.8067 24.7229 24.0525C24.7822 24.2676 24.871 24.3904 24.9894 24.4825C25.0782 24.544 25.1671 24.5747 25.2857 24.5747C25.4041 24.5747 25.5226 24.5747 25.5819 24.544C25.6412 24.5134 25.6708 24.5134 25.7301 24.4825C25.8484 24.3904 25.9077 24.2674 25.9077 24.1446C25.9077 24.0525 25.9077 23.991 25.8782 23.9295C25.8487 23.868 25.7894 23.8374 25.7301 23.7759C25.7005 23.7759 25.7005 23.7452 25.6412 23.7452C25.5524 23.6837 25.3747 23.6225 25.1082 23.4995L25.0787 23.438C25.0491 23.4073 25.0194 23.4073 24.9898 23.4073C24.7529 23.3152 24.5752 23.1922 24.4568 23.0694C24.3087 22.9467 24.1903 22.7622 24.131 22.5473C24.0717 22.3322 24.0422 22.1173 24.0422 21.9021C24.0717 21.6257 24.131 21.4106 24.2791 21.1957C24.4273 20.9806 24.605 20.8578 24.8122 20.735C24.9305 20.7044 25.0196 20.6735 25.138 20.6429V20.5814C25.1675 20.3356 25.3749 20.1514 25.6119 20.1514H25.6414C25.8784 20.182 26.0561 20.3971 26.0561 20.6429V20.735C26.2635 20.8272 26.4412 20.9193 26.5891 21.1036C26.7372 21.2878 26.8261 21.5029 26.8854 21.7487C26.9149 21.9023 26.8854 22.0251 26.7965 22.1481C26.7077 22.2709 26.5596 22.3324 26.4114 22.3324H26.3819C26.1745 22.3324 25.9968 22.1787 25.9377 21.9638C25.9082 21.8717 25.8784 21.8102 25.8489 21.7487L25.8193 21.7181C25.7305 21.6566 25.6416 21.5953 25.4935 21.5953C25.3751 21.5953 25.3158 21.5953 25.227 21.6259C25.1677 21.6259 25.1382 21.6566 25.1086 21.6874C25.0198 21.7489 24.9902 21.8102 24.9902 21.9026C24.9902 21.9947 25.0198 22.0562 25.0791 22.1483C25.0791 22.179 25.1384 22.2098 25.1975 22.2405C25.3158 22.3019 25.464 22.3632 25.6714 22.4556C25.7602 22.4862 25.8195 22.5171 25.8788 22.5477C26.1453 22.6705 26.323 22.7628 26.4416 22.8856C26.6193 23.0392 26.7379 23.2235 26.797 23.4384C26.8562 23.6535 26.8858 23.8991 26.8858 24.1757C26.7965 24.5744 26.6484 24.9123 26.3819 25.1889L26.3819 25.1889Z" fill="#1BA0F2"/>
<path d="M32.8977 19.4159C32.8681 19.2932 32.8088 19.2008 32.72 19.1395C32.6607 19.078 32.5423 19.0168 32.3942 18.9553C32.3646 18.9246 32.3053 18.9246 32.2758 18.8938C32.1574 18.8323 32.0388 18.8016 31.9795 18.771C31.9202 18.7404 31.8907 18.7095 31.8612 18.6789C31.8019 18.6174 31.7723 18.5252 31.7723 18.4331C31.7723 18.341 31.8316 18.2488 31.9204 18.1873C31.95 18.1567 31.9797 18.1567 32.0388 18.1258C32.0981 18.0952 32.1572 18.0952 32.2463 18.0952C32.3646 18.0952 32.4537 18.1567 32.5425 18.218C32.5425 18.218 32.5721 18.218 32.5721 18.2486C32.6016 18.2792 32.6313 18.3407 32.6609 18.4329C32.6904 18.4944 32.7497 18.5557 32.809 18.5557C32.8683 18.5557 32.8979 18.525 32.9274 18.4942C32.9569 18.4635 32.957 18.402 32.957 18.3714C32.9274 18.2486 32.8977 18.1256 32.8088 18.0335C32.72 17.9414 32.6311 17.8799 32.483 17.8184L32.4237 17.7877V17.6341C32.4237 17.542 32.3644 17.4805 32.3053 17.4805H32.2758C32.187 17.4805 32.1277 17.542 32.1277 17.6032V17.7569H32.0684C31.9795 17.7569 31.9202 17.7875 31.8609 17.8184C31.7426 17.8799 31.6535 17.9411 31.5944 18.0335C31.5351 18.1256 31.476 18.2486 31.476 18.402C31.476 18.5248 31.476 18.6478 31.5056 18.7399C31.5351 18.8321 31.5944 18.9242 31.6833 18.9857C31.7426 19.0472 31.8609 19.1085 31.9795 19.17C32.0091 19.17 32.0091 19.2006 32.0388 19.2006H32.0684C32.246 19.2621 32.3349 19.3234 32.3942 19.3542C32.4237 19.3542 32.4237 19.3849 32.4535 19.3849C32.5128 19.4155 32.5718 19.477 32.6016 19.5385C32.6311 19.6 32.6311 19.6613 32.6311 19.7536C32.6311 19.8764 32.5718 19.9687 32.483 20.0609C32.4535 20.0915 32.3942 20.1224 32.3646 20.1224C32.3053 20.153 32.2165 20.153 32.1277 20.153C32.0388 20.153 31.95 20.1224 31.8907 20.0609C31.7723 19.9994 31.713 19.8766 31.6537 19.723C31.6242 19.6615 31.5649 19.6002 31.5056 19.6002C31.4463 19.6002 31.4168 19.6308 31.3872 19.6617C31.3577 19.6923 31.3577 19.7538 31.3577 19.7845C31.417 20.153 31.5946 20.3681 31.8907 20.4602H31.95V20.6139C31.95 20.6754 32.0093 20.7675 32.0684 20.7675H32.0979C32.1867 20.7675 32.246 20.706 32.246 20.6447V20.4911H32.3053C32.483 20.4605 32.6311 20.4296 32.72 20.3068C32.8681 20.1532 32.9569 19.9996 32.9569 19.754C32.9569 19.6617 32.9569 19.5387 32.8976 19.4159L32.8977 19.4159Z" fill="#1BA0F2"/>
<path d="M32.3944 16.803C31.1504 16.7109 30.0547 17.6631 29.9361 18.984C29.8473 20.2742 30.7654 21.4106 32.0391 21.5335C33.283 21.6257 34.3788 20.6735 34.4974 19.3525C34.5564 18.0624 33.6383 16.926 32.3944 16.803ZM32.809 20.4584C32.6906 20.5812 32.5425 20.6427 32.3648 20.6735V20.7042C32.3648 20.8578 32.2167 20.9806 32.0686 20.9499H32.039C31.8909 20.9499 31.7725 20.7963 31.8021 20.6427V20.5812C31.4763 20.4584 31.2691 20.2126 31.2098 19.8133C31.2098 19.7211 31.2098 19.629 31.2691 19.5675C31.3284 19.506 31.4172 19.4754 31.506 19.4447C31.6244 19.4447 31.743 19.5368 31.7725 19.6905C31.8021 19.8133 31.8614 19.9056 31.9502 19.9669C32.0095 19.9975 32.0686 20.0284 32.1279 20.0284C32.1872 20.0284 32.276 20.0284 32.3056 19.9977C32.3351 19.9977 32.3649 19.9671 32.3944 19.9362C32.4537 19.8747 32.5128 19.8135 32.5128 19.7211C32.5128 19.6596 32.5128 19.629 32.4832 19.5983C32.4537 19.5677 32.424 19.5368 32.3944 19.5062C32.3944 19.5062 32.3649 19.4756 32.3351 19.4756C32.2758 19.4449 32.187 19.4141 32.0093 19.3219H31.9798C31.9502 19.3219 31.9502 19.2913 31.9205 19.2913C31.7723 19.2298 31.6835 19.1685 31.5947 19.0762C31.5058 18.984 31.4465 18.8919 31.3872 18.7689C31.3279 18.6461 31.3279 18.5232 31.3279 18.3695C31.3279 18.2159 31.3872 18.0623 31.4761 17.9395C31.5649 17.8167 31.6538 17.7244 31.8019 17.6631C31.8612 17.6325 31.9203 17.6016 32.0093 17.6016V17.571C32.0093 17.4173 32.1574 17.2946 32.3056 17.3252H32.3351C32.4832 17.3252 32.6016 17.4788 32.5721 17.6325V17.694C32.6905 17.7555 32.8091 17.8167 32.8979 17.9091C32.9867 18.0012 33.046 18.1548 33.0756 18.3085C33.1051 18.4006 33.0756 18.4927 33.0163 18.5542C32.957 18.6157 32.8681 18.677 32.7793 18.6464C32.6609 18.6464 32.5423 18.5542 32.5128 18.4312C32.5128 18.3697 32.4832 18.3391 32.4535 18.3085H32.424C32.3647 18.2778 32.3056 18.247 32.2165 18.247H32.0684C32.0389 18.247 32.0091 18.2776 31.9796 18.2776C31.9203 18.3083 31.8907 18.3391 31.8907 18.4004C31.8907 18.4619 31.8907 18.4925 31.95 18.554C31.95 18.554 31.9796 18.5847 32.0389 18.6155C32.0981 18.6462 32.2165 18.7076 32.3351 18.7383C32.3944 18.7689 32.424 18.7689 32.4535 18.7998C32.6016 18.8613 32.72 18.9226 32.8088 19.0149C32.8977 19.107 32.9865 19.23 33.0458 19.3528C33.1051 19.4756 33.1051 19.6292 33.1051 19.8135C33.0756 20.0899 32.9867 20.3048 32.8091 20.4584L32.809 20.4584Z" fill="#1BA0F2"/>
<path d="M21.4357 16.8666C21.4061 16.7438 21.3173 16.6515 21.2282 16.5594C21.1394 16.4979 21.0208 16.4366 20.8729 16.3442C20.8433 16.3136 20.784 16.3136 20.7247 16.2827C20.5766 16.2212 20.4582 16.1906 20.3989 16.1291C20.3396 16.0985 20.3101 16.0676 20.2806 16.037C20.2213 15.9448 20.1622 15.8527 20.1917 15.7606C20.1917 15.6378 20.251 15.5763 20.3399 15.5148C20.3694 15.4842 20.4287 15.4842 20.4582 15.4533C20.5175 15.4227 20.6064 15.4227 20.6952 15.4227C20.8433 15.4227 20.9322 15.4842 21.021 15.5455C21.021 15.5455 21.0506 15.5455 21.0506 15.5761C21.0801 15.6376 21.1394 15.6989 21.1394 15.7912C21.1689 15.8527 21.2282 15.914 21.2875 15.914C21.3468 15.914 21.4059 15.8834 21.4357 15.8525C21.4652 15.8219 21.4949 15.7604 21.4652 15.6989C21.4357 15.5452 21.3764 15.4225 21.2875 15.3303C21.1987 15.2382 21.0801 15.1461 20.9322 15.1152L20.9024 15.1465V14.9622C20.9024 14.8701 20.8431 14.8086 20.7543 14.8086H20.7247C20.6359 14.8086 20.5766 14.8701 20.5766 14.9622V15.1465H20.5173C20.4285 15.1465 20.3396 15.1771 20.2804 15.208C20.162 15.2695 20.0729 15.3308 19.9841 15.4537C19.8953 15.5765 19.8657 15.6995 19.8657 15.8531C19.8657 15.9759 19.8657 16.0989 19.925 16.2217C19.9545 16.3444 20.0138 16.4368 20.1027 16.4981C20.162 16.5596 20.2804 16.6208 20.4285 16.6823C20.458 16.6823 20.458 16.713 20.4878 16.713H20.5173C20.7247 16.8051 20.8136 16.8358 20.9024 16.8666C20.932 16.8666 20.9617 16.8973 20.9617 16.8973C21.021 16.9279 21.0801 16.9894 21.1098 17.0509C21.1394 17.1124 21.1691 17.2045 21.1394 17.266C21.1394 17.4196 21.0801 17.5118 20.9617 17.6039C20.9322 17.6345 20.8729 17.6654 20.8136 17.696C20.7247 17.7267 20.6359 17.7267 20.5471 17.7267C20.4287 17.7267 20.3396 17.696 20.2806 17.6345C20.1622 17.5424 20.0731 17.4194 20.0436 17.266C20.014 17.1739 19.9547 17.1124 19.8955 17.1124C19.8362 17.1124 19.8066 17.143 19.7771 17.1739C19.6882 17.2351 19.6882 17.266 19.6882 17.3273C19.7475 17.7267 19.9547 17.9724 20.2805 18.0645L20.3398 18.0952V18.2795C20.3398 18.3716 20.3991 18.4331 20.488 18.4331H20.5175C20.6063 18.4331 20.6656 18.3716 20.6656 18.2795V18.0952H20.7249C20.9324 18.0645 21.0803 18.003 21.1989 17.9109C21.347 17.7573 21.4358 17.5424 21.4654 17.3272C21.4949 17.143 21.4652 16.9893 21.4356 16.8666L21.4357 16.8666Z" fill="#1BA0F2"/>
<path d="M20.8434 14.0096C19.4514 13.8868 18.237 14.9617 18.1481 16.4055C18.0297 17.8492 19.0662 19.1086 20.4583 19.2008C21.8504 19.2929 23.0647 18.2486 23.1536 16.8048C23.2424 15.392 22.2057 14.1325 20.8434 14.0096ZM21.3171 18.0336C21.1987 18.1564 21.0209 18.2179 20.8432 18.2488V18.3103C20.8432 18.4639 20.6951 18.6175 20.5174 18.5867H20.4878C20.3102 18.5867 20.1916 18.433 20.2213 18.2488V18.1873C19.866 18.0645 19.6585 17.7879 19.5697 17.3579C19.5402 17.2657 19.5697 17.1736 19.629 17.0814C19.6883 17.02 19.7772 16.9587 19.866 16.9587C20.0141 16.9587 20.1325 17.0814 20.1623 17.2351C20.1918 17.3579 20.2511 17.4808 20.3399 17.5115C20.3992 17.5421 20.4583 17.573 20.5474 17.573C20.6362 17.573 20.6955 17.573 20.7548 17.5423C20.7843 17.5423 20.8141 17.5117 20.8436 17.4808C20.9325 17.4193 20.962 17.3581 20.962 17.2351C20.962 17.1736 20.962 17.1429 20.9325 17.0814C20.9029 17.0508 20.8732 17.02 20.8436 16.9893C20.8436 16.9893 20.8141 16.9587 20.7843 16.9587C20.725 16.928 20.6067 16.8665 20.429 16.805H20.3994C20.3699 16.805 20.3401 16.7744 20.3401 16.7744C20.192 16.7129 20.0736 16.6208 19.9848 16.5593C19.896 16.4672 19.8071 16.3442 19.7478 16.2214C19.6885 16.0678 19.6885 15.945 19.6885 15.7914C19.6885 15.6071 19.7478 15.4535 19.8367 15.3307C19.9255 15.2079 20.0441 15.0849 20.192 15.0234C20.2513 14.9928 20.3401 14.9619 20.429 14.9619V14.9005C20.429 14.7162 20.5771 14.5932 20.7548 14.624H20.7843C20.962 14.624 21.0806 14.7777 21.0509 14.9619V15.0234C21.199 15.0849 21.3174 15.1462 21.4062 15.2692C21.495 15.392 21.5839 15.5456 21.6136 15.6992C21.6432 15.7914 21.6136 15.8835 21.5543 15.9756C21.495 16.0678 21.4062 16.0984 21.2878 16.0984C21.1397 16.0984 21.0213 16.0063 20.9916 15.8526C20.9916 15.7911 20.962 15.7605 20.9323 15.7299L20.9027 15.6992C20.8434 15.6686 20.7843 15.6377 20.6657 15.6071H20.4881C20.4585 15.6071 20.4288 15.6377 20.3992 15.6377C20.3399 15.6684 20.3104 15.7299 20.3104 15.7914C20.3104 15.8529 20.3104 15.9141 20.3697 15.945C20.3697 15.945 20.3992 15.9756 20.4585 16.0065C20.5474 16.0371 20.6362 16.0986 20.7843 16.1601C20.8436 16.1908 20.8732 16.1908 20.9325 16.2216C21.1101 16.2831 21.2287 16.3752 21.3176 16.4367C21.4359 16.5289 21.525 16.6519 21.5545 16.8053C21.6138 16.9589 21.6138 17.1125 21.6138 17.2968C21.5839 17.6036 21.495 17.8491 21.3172 18.0337L21.3171 18.0336Z" fill="#1BA0F2"/>
</svg>
