<svg width="46" height="45" viewBox="0 0 46 45" fill="none" xmlns="http://www.w3.org/2000/svg">
<rect x="0.5" width="45" height="45" rx="22.5" fill="#ECF8FF"/>
<g clip-path="url(#clip0_3061_102081)">
<path d="M12.9195 33.8373L10.9065 34.9987L7.5 29.1148L9.51297 27.9534L9.74518 28.3792L12.6484 33.4115L12.9195 33.8373ZM36.8807 26.6374L26.1969 33.1407C25.3838 33.644 24.4936 33.8373 23.5647 33.7601L12.9583 32.831L10.4809 28.5728L14.7002 26.289C15.3582 25.9407 16.1324 25.9018 16.7904 26.2115L24.3774 30.0825C24.3388 30.1211 24.2999 30.16 24.2613 30.1986C24.0677 30.3922 23.8741 30.5469 23.6419 30.6244C23.0614 30.8955 22.4806 30.7791 22.2484 30.7405L16.9064 29.5017C16.7517 29.4631 16.5967 29.5792 16.5967 29.6953C16.5581 29.85 16.6353 30.005 16.7903 30.005L22.0937 31.2827C22.442 31.3602 23.1001 31.4763 23.8356 31.1666C24.1453 31.0505 24.3775 30.8569 24.6097 30.6247C24.8808 30.315 25.2677 30.0827 25.7321 29.8891L36.2611 25.5149C36.6094 25.3601 36.9967 25.5535 37.1514 25.9021C37.2677 26.1729 37.1516 26.4826 36.8805 26.6373L36.8807 26.6374Z" fill="#1BA0F2"/>
<path d="M22.2484 11C18.5711 11 15.5518 14.0193 15.5518 17.6967C15.5518 21.374 18.5711 24.4322 22.2484 24.4322C25.9258 24.4322 28.9451 21.4129 28.9451 17.7355C28.9451 14.0579 25.9258 11 22.2484 11ZM24.7259 20.9871C24.4936 21.4129 24.1839 21.7226 23.7581 21.9162C23.4484 22.0709 23.1387 22.1873 22.7517 22.2259V22.8064C22.7517 23.0775 22.5581 23.2708 22.2873 23.2708H22.1326C21.8615 23.2708 21.6682 23.0772 21.6682 22.8064V22.187C21.0876 22.0709 20.5843 21.8387 20.1971 21.4514C19.7713 21.0256 19.5005 20.4451 19.423 19.7871C19.3844 19.516 19.5777 19.2838 19.8488 19.2452C20.081 19.2065 20.3132 19.3999 20.3521 19.6324C20.4296 19.9035 20.5068 20.1357 20.6232 20.329C20.7779 20.6001 21.049 20.8323 21.3588 20.987C21.4749 21.0645 21.591 21.1031 21.7071 21.1417C21.9393 21.2192 22.1715 21.2578 22.4037 21.2578C22.5585 21.2578 22.6748 21.2578 22.7909 21.2192C23.1781 21.1806 23.4876 21.0256 23.72 20.832C24.0297 20.5609 24.1845 20.2126 24.1845 19.7482C24.1845 19.4771 24.1459 19.2837 24.0297 19.0901C23.9136 18.8965 23.7586 18.7418 23.5264 18.6257C23.4103 18.5482 23.1392 18.471 22.8298 18.3546C22.5976 18.2771 22.3654 18.1999 22.0557 18.1224C21.9396 18.0838 21.8235 18.0449 21.746 18.0063C21.2427 17.8516 20.8557 17.658 20.6235 17.503C20.3524 17.3094 20.1202 17.0385 19.9655 16.7289C19.8108 16.4191 19.7333 16.0708 19.7333 15.6836C19.7333 14.987 19.9655 14.4062 20.4299 13.9418C20.7782 13.5934 21.243 13.3612 21.7849 13.3223V12.7418C21.7849 12.4707 21.9785 12.2774 22.2493 12.2774H22.404C22.6751 12.2774 22.8685 12.471 22.8685 12.7418V13.3612C23.1782 13.3998 23.4104 13.4773 23.6815 13.6323C24.0687 13.8645 24.3782 14.1356 24.6106 14.5226C24.7653 14.7937 24.8817 15.1031 24.9203 15.4128C24.9589 15.6839 24.7656 15.9161 24.4945 15.9547C24.2623 15.9547 24.0687 15.8 23.9912 15.5675C23.9137 15.1803 23.759 14.9095 23.5268 14.7159C23.3721 14.5612 23.1396 14.4448 22.8687 14.3676C22.714 14.329 22.5204 14.2901 22.2882 14.2901C22.0946 14.2901 21.901 14.2901 21.7463 14.3287C21.4752 14.3673 21.243 14.4834 21.0497 14.6384C20.7786 14.8707 20.6238 15.1804 20.6238 15.5675C20.6238 15.9159 20.7399 16.187 20.9335 16.3806C21.0883 16.4967 21.3594 16.6517 21.7466 16.7678C21.9013 16.8453 22.1338 16.8839 22.3271 16.9614C22.5207 17 22.6754 17.0775 22.8304 17.1161C23.2949 17.2708 23.6046 17.3872 23.7982 17.4644C24.224 17.6966 24.5723 17.9677 24.8045 18.3547C25.0368 18.7419 25.1529 19.1677 25.1529 19.6707C25.0743 20.0968 24.9582 20.5613 24.726 20.9871H24.7259Z" fill="#1BA0F2"/>
</g>
<defs>
<clipPath id="clip0_3061_102081">
<rect width="24" height="24" fill="white" transform="translate(10.5 11)"/>
</clipPath>
</defs>
</svg>
