<svg width="45" height="44" viewBox="0 0 45 44" fill="none" xmlns="http://www.w3.org/2000/svg">
<rect x="0.5" width="44" height="44" rx="22" fill="#ECF8FF"/>
<path d="M24.9961 22.1289L20.3789 20.6797C19.4219 20.3789 18.75 19.3828 18.75 18.2617C18.75 16.875 19.75 15.75 20.9766 15.75H23.8594C24.7266 15.75 25.5508 16.0859 26.207 16.707C26.3281 16.8203 26.5117 16.832 26.6367 16.7188L27.1016 16.2969C27.2344 16.1758 27.2422 15.9688 27.1172 15.8438C26.2266 14.9844 25.0586 14.4961 23.8633 14.4961H23.125V12.3125C23.125 12.1406 22.9844 12 22.8125 12H22.1875C22.0156 12 21.875 12.1406 21.875 12.3125V14.5H20.9766C19.0586 14.5 17.5 16.1875 17.5 18.2617C17.5 19.9258 18.5312 21.4102 20.0039 21.8711L24.6211 23.3203C25.582 23.6211 26.25 24.6172 26.25 25.7383C26.25 27.1211 25.25 28.25 24.0234 28.25H21.1406C20.2734 28.25 19.4492 27.9141 18.793 27.293C18.6719 27.1797 18.4883 27.168 18.3633 27.2812L17.9023 27.7031C17.7734 27.8203 17.7617 28.0312 17.8906 28.1523C18.7812 29.0117 19.9492 29.5 21.1445 29.5H21.875V31.6875C21.875 31.8594 22.0156 32 22.1875 32H22.8125C22.9844 32 23.125 31.8594 23.125 31.6875V29.5H24.0234C25.9414 29.5 27.5 27.8125 27.5 25.7383C27.5 24.0781 26.4688 22.5937 24.9961 22.1289Z" fill="#1BA0F2"/>
</svg>
