<svg width="45" height="44" viewBox="0 0 45 44" fill="none" xmlns="http://www.w3.org/2000/svg">
<rect x="0.5" width="44" height="44" rx="22" fill="#ECF8FF"/>
<g clip-path="url(#clip0_4236_34701)">
<path d="M23 16.9C24.42 16.9 25.13 17.44 25.39 18.3C25.52 18.73 25.95 19 26.4 19H26.46C27.16 19 27.68 18.29 27.43 17.64C26.99 16.49 26.02 15.56 24.5 15.19V14.5C24.5 13.67 23.83 13 23 13C22.17 13 21.5 13.67 21.5 14.5V15.16C21.11 15.24 20.75 15.37 20.4 15.52L21.91 17.03C22.23 16.95 22.6 16.9 23 16.9ZM15.27 14.62C14.88 15.01 14.88 15.64 15.27 16.03L18 18.77C18 20.85 19.56 21.99 21.91 22.68L25.42 26.19C25.08 26.68 24.37 27.1 23 27.1C21.35 27.1 20.5 26.51 20.17 25.67C20.02 25.28 19.68 25 19.27 25H19.1C18.38 25 17.86 25.74 18.15 26.39C18.74 27.72 20.04 28.51 21.51 28.83V29.5C21.51 30.33 22.18 31 23.01 31C23.84 31 24.51 30.33 24.51 29.5V28.85C25.47 28.67 26.34 28.3 26.97 27.73L28.48 29.24C28.87 29.63 29.5 29.63 29.89 29.24C30.28 28.85 30.28 28.22 29.89 27.83L16.68 14.62C16.29 14.23 15.66 14.23 15.27 14.62Z" fill="#1BA0F2"/>
</g>
<defs>
<clipPath id="clip0_4236_34701">
<rect width="24" height="24" fill="white" transform="translate(10.5 10)"/>
</clipPath>
</defs>
</svg>
