<svg width="81" height="81" viewBox="0 0 81 81" fill="none" xmlns="http://www.w3.org/2000/svg">
<path d="M76.2866 9.72021H61.7009C60.2026 9.72021 58.9874 8.43829 58.9874 6.86011C58.9874 5.28088 60.2036 4 61.7009 4H76.2866C77.7848 4 79 5.28193 79 6.86011C79 8.43934 77.7848 9.72021 76.2866 9.72021Z" fill="#448087"/>
<path d="M61.7006 60.4916C60.2024 60.4916 58.9872 59.2097 58.9872 57.6315V6.86011C58.9872 5.28088 60.2034 4 61.7006 4C63.1989 4 64.414 5.28193 64.414 6.86011V57.6315C64.414 59.2098 63.1988 60.4916 61.7006 60.4916Z" fill="#448087"/>
<path d="M61.7006 60.4917H4.71343C3.21519 60.4917 2 59.2098 2 57.6316C2 56.0524 3.21619 54.7715 4.71343 54.7715H61.7006C63.1988 54.7715 64.414 56.0534 64.414 57.6316C64.414 59.2098 63.1988 60.4917 61.7006 60.4917Z" fill="#448087"/>
<path d="M50.8458 77C46.2859 77 42.5747 73.2031 42.5747 68.5333C42.5747 63.8656 46.284 60.0684 50.8458 60.0684C55.4077 60.0684 59.117 63.8653 59.117 68.5333C59.117 73.2031 55.407 77 50.8458 77ZM50.8458 65.7907C49.2785 65.7907 48.0018 67.0208 48.0018 68.5351C48.0018 70.0495 49.2776 71.2816 50.8458 71.2816C52.4141 71.2816 53.6899 70.0505 53.6899 68.5351C53.6899 67.0207 52.4131 65.7907 50.8458 65.7907Z" fill="#448087"/>
<path d="M16.5857 76.2849C12.0258 76.2849 8.31458 72.488 8.31458 67.8182C8.31458 63.1505 12.0255 59.3533 16.5857 59.3533C21.1456 59.3533 24.8568 63.1502 24.8568 67.8182C24.8568 72.487 21.1459 76.2849 16.5857 76.2849ZM16.5857 65.0746C15.0174 65.0746 13.7417 66.3046 13.7417 67.819C13.7417 69.3334 15.0175 70.5655 16.5857 70.5655C18.154 70.5655 19.4297 69.3344 19.4297 67.819C19.4297 66.3046 18.1539 65.0746 16.5857 65.0746Z" fill="#448087"/>
<path d="M12.5152 49.4078C11.2584 49.4078 10.1661 48.4979 9.87474 47.208L3.42928 18.6044C3.23621 17.7534 3.42645 16.8565 3.93943 16.1702C4.45336 15.4839 5.23892 15.0828 6.06802 15.0828H61.3591C62.8573 15.0828 64.0725 16.3647 64.0725 17.9429V46.189C64.0725 47.7623 62.8686 49.0381 61.378 49.0491L12.5319 49.4063C12.5281 49.4073 12.5215 49.4073 12.5158 49.4073L12.5152 49.4078ZM9.50452 20.8041L14.6561 43.6715L58.6467 43.3482V20.8042L9.50452 20.8041Z" fill="#448087"/>
</svg>
