<svg width="81" height="74" viewBox="0 0 81 74" fill="none" xmlns="http://www.w3.org/2000/svg">
<path d="M20.2265 20.0638C20.6839 20.0648 21.1143 19.8476 21.3833 19.478C25.2599 14.0998 31.2319 10.6126 37.8206 9.88134C44.4104 9.14903 51.0011 11.2393 55.9638 15.636C56.5556 16.1611 57.4603 16.1063 57.9844 15.5144C58.5094 14.9226 58.4546 14.018 57.8638 13.4939C52.3004 8.55796 44.9075 6.20784 37.5159 7.0248C30.1232 7.84079 23.4218 11.7485 19.07 17.7781C18.7521 18.2135 18.7063 18.7894 18.9504 19.2696C19.1945 19.7499 19.6887 20.0508 20.2267 20.0498L20.2265 20.0638Z" fill="#A81E30"/>
<path d="M46.4212 23.0328L35.9795 33.4745L34.8238 32.2171C33.968 31.2476 32.7534 30.6698 31.4611 30.618C30.1689 30.5652 28.9115 31.0424 27.98 31.9391C27.0485 32.8358 26.5234 34.0733 26.5264 35.3666C26.5294 36.6598 27.0605 37.8953 27.996 38.788L34.9094 45.7154C35.1784 45.9824 35.5431 46.1319 35.9227 46.1289C36.3033 46.1319 36.6679 45.9824 36.9369 45.7154L53.0345 29.6466C54.2162 28.465 54.6775 26.7433 54.2451 25.1293C53.8127 23.5152 52.5523 22.2547 50.9382 21.8224C49.3242 21.39 47.6026 21.8513 46.4209 23.033L46.4212 23.0328ZM51.0064 27.6318L35.9229 42.6862L30.0236 36.7729H30.0246C29.2903 36.0276 29.3003 34.829 30.0456 34.0948C30.7908 33.3615 31.9904 33.3714 32.7237 34.1167L34.8947 36.4451C35.1577 36.7281 35.5233 36.8924 35.9089 36.9014C36.2935 36.9074 36.6642 36.7579 36.9372 36.4879L48.3641 25.061C49.0765 24.3566 50.2233 24.3566 50.9356 25.061C51.2773 25.4007 51.4697 25.864 51.4697 26.3463C51.4697 26.8285 51.2774 27.2918 50.9356 27.6315L51.0064 27.6318Z" fill="#A81E30"/>
<path d="M80.9308 72.04L78.2167 63.8123L80.9308 55.1135V55.1145C81.0713 54.6691 80.9856 54.1829 80.7007 53.8132C80.4167 53.4436 79.9693 53.2354 79.5031 53.2573H73.7464V48.6443C73.7464 48.2647 73.5959 47.902 73.3279 47.634C73.0599 47.366 72.6972 47.2156 72.3186 47.2156H70.6468C75.2608 37.296 74.6938 25.7408 69.1304 16.3201C63.567 6.90078 53.7212 0.825251 42.8056 0.0779254C31.8919 -0.670318 21.3089 4.00534 14.5118 12.5779C9.84399 18.4463 7.32324 25.7334 7.37017 33.2319C7.37515 38.063 8.43326 42.8344 10.4697 47.2153H8.75496C7.96688 47.2153 7.32721 47.8549 7.32721 48.644V53.2581L1.4996 53.2571C1.02932 53.2342 0.577995 53.4434 0.293042 53.817C0.00808915 54.1906 -0.075597 54.6808 0.070861 55.1282L2.78495 63.5839L0.070861 72.0397C-0.0755996 72.487 0.00809425 72.9772 0.293042 73.3508C0.577995 73.7244 1.02932 73.9337 1.4996 73.9108H24.5815C24.9601 73.9108 25.3238 73.7603 25.5908 73.4923C25.8588 73.2243 26.0092 72.8616 26.0092 72.482V67.869H55.0631V72.4831V72.4821C55.0631 72.8617 55.2136 73.2243 55.4816 73.4923C55.7486 73.7604 56.1123 73.9108 56.4908 73.9108H79.5728C80.0301 73.9108 80.4595 73.6906 80.7285 73.321C80.9965 72.9503 81.0712 72.4741 80.9297 72.0397L80.9308 72.04ZM10.1848 33.2326C10.1768 25.1804 13.3731 17.4559 19.066 11.7617C24.76 6.06773 32.4845 2.87234 40.5369 2.8805C51.126 2.8795 60.9476 8.40204 66.4485 17.4498C71.9501 26.4965 72.3338 37.7579 67.4608 47.1592H62.6187C65.3387 42.881 66.7624 37.9063 66.7165 32.837C66.6706 27.7677 65.1582 22.8208 62.3616 18.5924C62.1564 18.2686 61.8306 18.0415 61.4559 17.9608C61.0813 17.8811 60.6908 17.9548 60.3709 18.165C60.0511 18.3752 59.8289 18.706 59.7552 19.0816C59.6805 19.4573 59.7612 19.8468 59.9764 20.1637C62.6525 24.2069 64.0066 28.9821 63.8503 33.8282C63.6938 38.6744 62.0359 43.3532 59.1056 47.2158H21.6552C17.074 41.1242 15.747 33.1835 18.0984 25.9334C18.3096 25.1951 17.8981 24.4219 17.1678 24.1838C16.4375 23.9457 15.6504 24.3273 15.3844 25.0476C12.9872 32.4941 14.0343 40.6213 18.2418 47.2159H13.6706C11.403 42.9018 10.2074 38.1054 10.1855 33.2325L10.1848 33.2326ZM10.1848 50.0725H70.8891V65.0134H10.1848V50.0725ZM23.1541 71.0552H3.39996L5.65666 64.0281V64.0271C5.74832 63.7441 5.74832 63.4392 5.65666 63.1563L3.39996 56.1291H7.27075V66.456C7.27075 66.8346 7.4212 67.1972 7.68921 67.4652C7.95722 67.7333 8.32088 67.8837 8.69947 67.8837H23.1542L23.1541 71.0552ZM75.3598 64.2701L77.6025 71.0552H57.9201V67.87H72.3179C72.6965 67.87 73.0592 67.7196 73.3272 67.4516C73.5952 67.1836 73.7457 66.8199 73.7457 66.4413V56.1292H77.6741L75.4035 63.4135H75.4025C75.2979 63.6925 75.2829 63.9974 75.3596 64.2843L75.3598 64.2701Z" fill="#A81E30"/>
</svg>
