<svg width="72" height="71" viewBox="0 0 72 71" fill="none" xmlns="http://www.w3.org/2000/svg">
<path d="M35.9494 54.7226L30.2691 60.4018L29.6445 60.0804L30.3932 63.0746C34.5839 64.7555 41.8658 65.7917 49.6549 65.7917C64.1115 65.7917 71.9995 62.511 71.9995 60.8262V51.8535C67.7518 54.4953 58.666 55.8608 49.6549 55.8608C44.6945 55.8608 39.9883 55.4645 35.949 54.7225L35.9494 54.7226ZM69.0463 55.5766L69.9873 57.8754C69.2547 58.1746 68.4245 58.4628 67.5195 58.7271L66.8218 56.3436C67.6447 56.1031 68.3923 55.8448 69.0463 55.5766L69.0463 55.5766ZM64.4981 56.931L65.0318 59.3556C64.2399 59.5307 63.4058 59.6909 62.533 59.8372L62.1224 57.3877C62.9515 57.2486 63.7445 57.0962 64.4981 56.931L64.4981 56.931ZM59.715 57.744L60.0253 60.2068C59.2134 60.3087 58.3755 60.4002 57.5155 60.48L57.2883 58.0072C58.1184 57.9301 58.9291 57.8432 59.7149 57.7439L59.715 57.744Z" fill="#A72037"/>
<path d="M12.9033 59.9151C12.0532 59.6419 11.2346 59.3016 10.4467 58.917L8 68.7028L12.8364 66.7687L15.5113 70.3354L17.073 63.309H13.9906L12.9033 59.9151Z" fill="#A72037"/>
<path d="M24.3388 59.9153L23.2504 63.3091H20.168L21.7297 70.3349L24.4046 66.7682L29.241 68.7023L26.7943 58.9165C26.0074 59.3017 25.1895 59.6408 24.3387 59.9151L24.3388 59.9153Z" fill="#A72037"/>
<path d="M10.7528 56.2905C11.829 56.8912 12.9961 57.3728 14.2237 57.7202L14.8654 57.9014L15.8014 60.8264H21.4385L22.3756 57.902L23.0173 57.7208C24.2448 57.3733 25.412 56.8917 26.4882 56.291L27.069 55.9646L29.7939 57.3661L33.7802 53.3799L32.3775 50.655L32.7039 50.0725C33.3058 48.9974 33.789 47.8293 34.1354 46.6017L34.3166 45.9599L37.241 45.025V39.388L34.3166 38.4508L34.1354 37.8091C33.7891 36.5849 33.3075 35.4173 32.7039 34.3382L32.3786 33.7575L33.7802 31.0326L29.7939 27.0463L27.069 28.4478L26.4882 28.1225C25.4092 27.519 24.2415 27.0363 23.0173 26.691L22.3756 26.5098L21.4396 23.5854H15.8025L14.8654 26.5098L14.2237 26.691C12.9995 27.0374 11.8319 27.519 10.7528 28.1225L10.172 28.4478L7.44711 27.0463L3.46084 31.0326L4.86236 33.7575L4.53705 34.3382C3.93355 35.4172 3.45087 36.5849 3.10558 37.8091L2.92437 38.4508L0 39.3869V45.0239L2.92437 45.9599L3.10558 46.6017C3.45194 47.8292 3.93352 48.9974 4.53705 50.0725L4.86347 50.655L3.46084 53.3799L7.44711 57.3662L10.172 55.9646L10.7528 56.2905ZM6.20685 42.206C6.20685 35.3497 11.7642 29.7924 18.6205 29.7924C25.4768 29.7924 31.0341 35.3497 31.0341 42.206C31.0341 49.0623 25.4768 54.6197 18.6205 54.6197C11.7642 54.6197 6.20685 49.0623 6.20685 42.206Z" fill="#A72037"/>
<path d="M28.5219 24.9086L29.7931 24.2541V22.3439H33.5172V24.8266H31.0866L32.9286 26.6686C37.2635 27.864 43.3278 28.5507 49.6551 28.5507C64.1117 28.5507 71.9997 25.2699 71.9997 23.5852C71.9997 22.9113 70.331 21.5071 65.7929 20.3428V4.96546H58.3447V20.3002H53.3792V9.93092H45.931V20.3002H40.9656V0H33.5174V20.3428C28.9804 21.5071 27.3105 22.9113 27.3105 23.5852C27.3105 23.8717 27.6447 24.3511 28.522 24.9086L28.5219 24.9086ZM69.5167 22.3439V24.8266H65.7926V22.3439H69.5167ZM58.3444 22.3439V24.8266H53.3789V22.3439H58.3444ZM45.9307 22.3439V24.8266H40.9653V22.3439H45.9307Z" fill="#A72037"/>
<path d="M39.7243 42.8665V46.835L36.3305 47.9223C36.0213 48.8833 35.6406 49.8105 35.1895 50.6893L35.9653 52.1979C39.9487 52.9665 44.661 53.3771 49.6552 53.3771C64.1118 53.3771 71.9998 50.0964 71.9998 48.4117V39.439C67.7521 42.0807 58.6663 43.4462 49.6552 43.4462C46.2227 43.4462 42.8327 43.2401 39.7243 42.8666L39.7243 42.8665ZM69.0461 43.1618L69.9871 45.4606C69.2544 45.7598 68.4242 46.048 67.5192 46.3123L66.8215 43.9288C67.6445 43.6883 68.392 43.43 69.0461 43.1618L69.0461 43.1618ZM64.4979 44.5163L65.0315 46.9408C64.2396 47.1159 63.4056 47.2761 62.5328 47.4224L62.1221 44.9729C62.9512 44.8338 63.7443 44.6814 64.4979 44.5162L64.4979 44.5163ZM59.7147 45.3292L60.025 47.792C59.2132 47.8939 58.3752 47.9854 57.5152 48.0652L57.288 45.5924C58.1182 45.5154 58.9289 45.4284 59.7147 45.3291L59.7147 45.3292Z" fill="#A72037"/>
<path d="M36.2024 29.9408L36.8181 30.5565L35.1895 33.7209C35.64 34.602 36.0224 35.5297 36.3305 36.4879L39.7255 37.5763V40.3672C42.814 40.7518 46.2105 40.9641 49.6564 40.9641C64.113 40.9641 72.001 37.6833 72.001 35.9986V27.0259C67.7532 29.6665 58.6674 31.0331 49.6564 31.0331C44.7641 31.0331 40.1427 30.6486 36.2026 29.9409L36.2024 29.9408ZM69.0482 30.7499L69.9892 33.0475C69.2544 33.349 68.4237 33.6349 67.5204 33.8993L66.8255 31.5157C67.6456 31.2763 68.3927 31.0191 69.0483 30.7498L69.0482 30.7499ZM64.5 32.1043L65.0337 34.5289C64.2418 34.7029 63.4077 34.8642 62.5349 35.0104L62.1243 32.5609C62.9533 32.4224 63.7464 32.2694 64.5 32.1043L64.5 32.1043ZM59.7157 32.9151L60.0272 35.3778C59.2153 35.4809 58.3762 35.5712 57.5156 35.651L57.2884 33.1793C58.1203 33.1023 58.9299 33.0142 59.7157 32.915L59.7157 32.9151Z" fill="#A72037"/>
<path d="M25.1912 36.3618L14.8968 46.6568L12.0506 43.81L10.2949 45.5656L14.8969 50.1671L26.9471 38.1175L25.1912 36.3618Z" fill="#A72037"/>
</svg>
