<svg width="73" height="72" viewBox="0 0 73 72" fill="none" xmlns="http://www.w3.org/2000/svg">
<path d="M70.8757 64.4622C69.4435 61.7569 67.0868 58.2921 63.8748 54.1589C63.4586 53.61 62.7014 53.4516 62.0998 53.7877C61.7653 53.9834 61.5323 54.3141 61.4594 54.6946C61.3864 55.0751 61.4808 55.4683 61.7193 55.7742C69.3666 65.6 69.8103 68.6629 69.7965 69.2957C69.3113 69.3127 67.4108 69.0484 62.1294 65.4925C58.3159 62.9253 53.6317 59.2484 48.4654 54.7779L48.4901 54.7625C48.1633 54.4922 47.8343 54.2175 47.5058 53.9428C47.0299 53.5272 46.5512 53.1055 46.0703 52.6779L46.0697 52.6773C45.9869 52.6049 45.8959 52.5424 45.7983 52.4914C43.6034 50.6002 41.3695 48.593 39.0951 46.4703C38.5869 46.0053 38.4986 45.2371 38.8879 44.6691C39.1143 44.3549 39.4647 44.1531 39.8507 44.1159C40.2362 44.078 40.6189 44.208 40.9018 44.4728C43.7788 47.1689 46.6147 49.6834 49.3673 51.988H49.3679C50.1421 52.6328 51.2842 52.5659 51.9779 51.8345C55.0337 48.6624 57.041 44.6274 57.7276 40.2765C58.4141 35.9256 57.7467 31.4684 55.8162 27.5096C61.2451 21.3547 65.631 15.8074 68.559 11.3896C72.3599 5.62901 73.3458 2.34509 71.7474 0.746848C70.3657 -0.634914 67.8264 -0.114552 63.5091 2.43563C60.07 4.46381 55.5365 7.78606 50.3993 12.0405C49.8203 12.5082 49.7156 13.351 50.163 13.9459C50.3873 14.2326 50.7179 14.4163 51.0792 14.4552C51.4411 14.4947 51.8036 14.3856 52.0837 14.1531C63.8209 4.42108 68.6908 2.58647 69.8039 2.68627C69.8192 3.15892 69.5769 5.11366 65.7924 10.6697C62.6802 15.2416 52.5891 27.1532 52.1623 27.6852C50.6562 29.4125 48.7463 31.5575 46.5234 33.9536H46.5224C46.0168 34.4991 45.1647 34.5309 44.6197 34.0254C44.0741 33.5193 44.0423 32.6672 44.5478 32.1221C47.5876 28.8476 50.0288 26.0534 51.6408 24.1649C52.2916 23.3962 52.2346 22.2546 51.5103 21.5549C47.5015 17.6415 42.1226 15.45 36.5203 15.4456C30.9182 15.4418 25.5365 17.6262 21.5219 21.533C20.7905 22.2381 20.7378 23.3917 21.4024 24.16C23.1789 26.2112 26.0866 29.4908 29.75 33.353C30.2676 33.8997 30.278 34.8039 29.7253 35.3138H29.7248C29.1841 35.8128 28.3424 35.7837 27.8364 35.2497C25.426 32.7104 23.3363 30.4168 21.6739 28.5482C21.6229 28.4495 21.5599 28.3568 21.4869 28.2729C15.5882 21.7513 10.74 15.7833 7.45286 11.0146C3.43481 5.19308 3.18312 3.16826 3.19842 2.68624C4.29779 2.59083 9.10486 4.39046 20.6673 13.9442C20.9486 14.1762 21.3116 14.2842 21.6735 14.2436C22.0354 14.203 22.3655 14.0177 22.5881 13.7293C23.0278 13.1322 22.9182 12.2949 22.3397 11.8315C17.2639 7.63855 12.7903 4.37006 9.39895 2.38019C5.13356 -0.120618 2.62012 -0.625665 1.24773 0.746721C-0.381246 2.3757 0.676937 5.76434 4.6775 11.7334C7.60995 16.1106 11.9042 21.5224 17.1867 27.5122H17.1873C15.2463 31.4886 14.5806 35.9678 15.2808 40.3367C15.9816 44.7063 18.0136 48.7523 21.1006 51.9232C21.7932 52.6431 22.9226 52.71 23.6952 52.0767C25.5853 50.5074 27.5137 48.8373 29.4541 47.0854C29.9959 46.5776 30.8419 46.5891 31.3699 47.1111C31.6221 47.3743 31.7575 47.728 31.7449 48.0921C31.7323 48.4562 31.5727 48.8 31.3024 49.0445C30.1027 50.1285 28.9101 51.1791 27.7236 52.1962C27.5004 52.245 27.2937 52.3508 27.1232 52.5033C20.97 57.9782 15.3722 62.4551 10.9373 65.4491C5.55778 69.0767 3.6447 69.319 3.18415 69.2949C3.09203 68.1911 4.89272 63.3747 14.4806 51.7811V51.7805C14.7323 51.5091 14.8617 51.1467 14.8376 50.7771C14.8134 50.4075 14.638 50.0648 14.3534 49.8285C14.0683 49.5922 13.6987 49.4836 13.3314 49.528C12.964 49.573 12.6311 49.7666 12.4113 50.0643C8.18926 55.1691 4.8993 59.6709 2.89259 63.0792C0.380691 67.3549 -0.127585 69.8727 1.24648 71.2469C1.73449 71.7349 2.3793 71.9839 3.20238 71.9839C5.04472 71.9839 7.77153 70.7556 11.6464 68.2054C15.9035 65.4145 21.2605 61.2138 27.2175 56.0016L30.8194 56.0011C31.5613 55.9896 32.1797 56.5653 32.2209 57.3061C32.2313 57.669 32.0937 58.0211 31.8403 58.281C31.587 58.5414 31.2394 58.6884 30.8764 58.6878H28.9463C28.2571 58.6878 27.6984 59.2471 27.6984 59.9363V62.918V62.9175C27.6984 63.3775 28.0707 63.7498 28.5302 63.7498H44.4662C44.9252 63.7487 45.2969 63.3764 45.2969 62.9175V59.9424C45.2969 59.2537 44.7393 58.695 44.0501 58.6944H42.1804C41.4379 58.707 40.8183 58.1307 40.7772 57.3894C40.7673 57.0259 40.905 56.6744 41.1589 56.414C41.4122 56.1541 41.7604 56.0071 42.1233 56.0077H45.7741C51.7616 61.2507 57.1505 65.4682 61.4167 68.2576C65.255 70.7711 67.9664 71.9901 69.7934 71.9901C70.6164 71.9901 71.2612 71.7411 71.7508 71.2531C73.3251 69.6685 72.1182 66.7932 70.8763 64.4639L70.8757 64.4622ZM34.7728 40.4339C34.3879 40.8205 33.8089 40.9378 33.3044 40.7306C32.8 40.5238 32.4693 40.0337 32.4666 39.4886C32.4638 38.9436 32.7895 38.4501 33.2924 38.2385C33.7946 38.0268 34.3753 38.1381 34.7634 38.5209L34.7727 38.5302C35.2975 39.0566 35.2975 39.9081 34.7727 40.4339L34.7728 40.4339Z" fill="#A72037"/>
</svg>
