<svg width="77" height="77" viewBox="0 0 77 77" fill="none" xmlns="http://www.w3.org/2000/svg">
<g filter="url(#filter0_d_2862_41136)">
<rect x="4" width="69" height="69" rx="12" fill="white"/>
</g>
<circle cx="38.5" cy="34.5" r="16.1875" fill="url(#paint0_linear_2862_41136)"/>
<path d="M44.5284 39.4505L45.2474 34.8817H40.7492V31.9181C40.7492 30.6678 41.3764 29.4484 43.3911 29.4484H45.4375V25.5587C45.4375 25.5587 43.5812 25.25 41.8072 25.25C38.1009 25.25 35.6807 27.4387 35.6807 31.3995V34.8817H31.5625V39.4505H35.6807V50.4961C36.5074 50.6227 37.3533 50.6875 38.2149 50.6875C39.0766 50.6875 39.9224 50.6227 40.7492 50.4961V39.4505H44.5284Z" fill="white"/>
<defs>
<filter id="filter0_d_2862_41136" x="0" y="0" width="77" height="77" filterUnits="userSpaceOnUse" color-interpolation-filters="sRGB">
<feFlood flood-opacity="0" result="BackgroundImageFix"/>
<feColorMatrix in="SourceAlpha" type="matrix" values="0 0 0 0 0 0 0 0 0 0 0 0 0 0 0 0 0 0 127 0" result="hardAlpha"/>
<feOffset dy="4"/>
<feGaussianBlur stdDeviation="2"/>
<feComposite in2="hardAlpha" operator="out"/>
<feColorMatrix type="matrix" values="0 0 0 0 0 0 0 0 0 0 0 0 0 0 0 0 0 0 0.25 0"/>
<feBlend mode="normal" in2="BackgroundImageFix" result="effect1_dropShadow_2862_41136"/>
<feBlend mode="normal" in="SourceGraphic" in2="effect1_dropShadow_2862_41136" result="shape"/>
</filter>
<linearGradient id="paint0_linear_2862_41136" x1="38.5" y1="18.3125" x2="38.5" y2="50.5915" gradientUnits="userSpaceOnUse">
<stop stop-color="#18ACFE"/>
<stop offset="1" stop-color="#0163E0"/>
</linearGradient>
</defs>
</svg>
