<svg width="77" height="81" viewBox="0 0 77 81" fill="none" xmlns="http://www.w3.org/2000/svg">
<path d="M48.7884 36.3717C49.7845 36.1954 50.506 35.323 50.4918 34.3117V29.7623C50.4964 28.999 50.1975 28.265 49.6613 27.7222C49.1257 27.1787 48.3957 26.8702 47.6324 26.864H43.5712C43.2209 25.3073 42.1796 23.9955 40.7428 23.3016C39.306 22.6078 37.6313 22.6078 36.1946 23.3016C34.7579 23.9954 33.7165 25.3073 33.3662 26.864H29.305C28.5416 26.8702 27.8117 27.1787 27.2761 27.7222C26.7399 28.2652 26.441 28.9991 26.4455 29.7623V34.3117C26.4314 35.3231 27.1529 36.1954 28.149 36.3717C29.0129 36.544 29.748 37.1084 30.1378 37.8983C30.527 38.6888 30.527 39.6154 30.1378 40.4058C29.7485 41.1963 29.0134 41.7607 28.1495 41.9331C27.1529 42.1082 26.4308 42.9812 26.4455 43.993V47.7255C26.441 48.4888 26.7399 49.2228 27.2755 49.7662C27.8117 50.3097 28.5417 50.6182 29.305 50.6244H47.6323C48.3956 50.6182 49.1256 50.3097 49.6617 49.7662C50.1974 49.2227 50.4962 48.4887 50.4917 47.7255V43.993C50.5064 42.9811 49.7849 42.1088 48.7883 41.9337C47.9244 41.7608 47.1893 41.1969 46.7995 40.4064C46.4102 39.616 46.4102 38.6894 46.7995 37.8989C47.1894 37.1085 47.9244 36.544 48.7883 36.3717H48.7884ZM47.9607 44.3438V47.7253C47.9709 47.9174 47.8245 48.0813 47.6324 48.0931H29.3051C29.113 48.0813 28.9667 47.9174 28.9768 47.7253V44.3444C30.5119 43.9336 31.786 42.8641 32.4577 41.4244C33.129 39.9842 33.129 38.3208 32.4577 36.8807C31.786 35.4405 30.5119 34.3714 28.9768 33.9602V29.7623C28.9667 29.5708 29.113 29.4064 29.3051 29.3951H33.7448C34.759 29.403 35.6269 28.6679 35.7867 27.6662C35.9014 26.7905 36.4359 26.0266 37.219 25.6187C38.0021 25.2108 38.9354 25.2108 39.7185 25.6187C40.5016 26.0266 41.0361 26.7905 41.1508 27.6662C41.3107 28.668 42.1785 29.403 43.1926 29.3951H47.6324C47.8245 29.4064 47.9708 29.5708 47.9606 29.7623V33.9602C46.4261 34.3716 45.1514 35.4405 44.4797 36.8807C43.8085 38.3203 43.8085 39.9836 44.4797 41.4238C45.1515 42.864 46.4261 43.933 47.9606 44.3438H47.9607Z" fill="#A81E30"/>
<path d="M7.30097 39.2344H1.7656C1.0667 39.2344 0.5 39.8011 0.5 40.5C0.5 41.1989 1.0667 41.7656 1.7656 41.7656H7.30097C7.99987 41.7656 8.56657 41.1989 8.56657 40.5C8.56657 39.8011 7.99987 39.2344 7.30097 39.2344Z" fill="#A81E30"/>
<path d="M38.4677 8.82015C39.1666 8.82015 39.7333 8.25345 39.7333 7.55455V1.2656C39.7333 0.566699 39.1666 0 38.4677 0C37.7688 0 37.2021 0.566699 37.2021 1.2656V7.55455C37.2021 8.25345 37.7688 8.82015 38.4677 8.82015Z" fill="#A81E30"/>
<path d="M25.6282 10.621C25.8796 11.2662 26.5949 11.5996 27.2503 11.3764C27.9074 11.1374 28.2453 10.4108 28.0058 9.75428L25.8881 3.9438C25.6479 3.28841 24.9219 2.95109 24.2659 3.1901C23.61 3.42965 23.2715 4.15456 23.51 4.81108L25.6282 10.621Z" fill="#A81E30"/>
<path d="M16.218 17.2984C16.5248 17.3024 16.8226 17.1928 17.0537 16.9911C17.5785 16.5289 17.6294 15.7294 17.1678 15.2045L13.254 10.7579C12.7924 10.2331 11.9923 10.1816 11.4674 10.6438C10.9431 11.1054 10.8916 11.9049 11.3538 12.4298L15.2676 16.8769C15.5106 17.1459 15.8558 17.299 16.218 17.2984L16.218 17.2984Z" fill="#A81E30"/>
<path d="M10.1576 26.1179L5.04384 23.711V23.7115C4.41216 23.4155 3.65959 23.6873 3.36297 24.3189C3.06578 24.95 3.33585 25.7026 3.9664 26.0015L9.08015 28.4085H9.07958C9.71294 28.691 10.4559 28.4232 10.7639 27.8022C10.9069 27.4983 10.9232 27.1502 10.8097 26.8344C10.6961 26.5185 10.4616 26.2609 10.1577 26.118L10.1576 26.1179Z" fill="#A81E30"/>
<path d="M75.1701 39.2344H69.6347C68.9358 39.2344 68.3691 39.8011 68.3691 40.5C68.3691 41.1989 68.9358 41.7656 69.6347 41.7656H75.1701C75.869 41.7656 76.4357 41.1989 76.4357 40.5C76.4357 39.8011 75.869 39.2344 75.1701 39.2344Z" fill="#A81E30"/>
<path d="M73.5763 24.3166C73.2785 23.6844 72.5248 23.4132 71.8925 23.7104L66.7788 26.1173V26.1168C66.1466 26.4145 65.8748 27.1682 66.1725 27.8005C66.4833 28.4186 67.2234 28.6853 67.8563 28.4073L72.97 26.0004C73.274 25.8574 73.5085 25.5998 73.6221 25.284C73.7356 24.9681 73.7192 24.6201 73.5763 24.3167V24.3166Z" fill="#A81E30"/>
<path d="M63.6814 10.7579L59.7676 15.205V15.2045C59.306 15.7293 59.3569 16.5288 59.8817 16.991C60.4117 17.4368 61.1988 17.3866 61.6677 16.8769L65.5816 12.4298C66.0437 11.9049 65.9923 11.1055 65.468 10.6438C64.9431 10.1816 64.1431 10.2331 63.6814 10.7579L63.6814 10.7579Z" fill="#A81E30"/>
<path d="M49.6849 11.3764C50.3409 11.6069 51.0612 11.2713 51.307 10.621L53.4253 4.81107C53.6637 4.15454 53.3253 3.42965 52.6693 3.19009C52.0134 2.9511 51.2873 3.2884 51.0472 3.9438L48.9289 9.75369L48.9295 9.75426C48.6899 10.4108 49.0284 11.1374 49.6849 11.3764L49.6849 11.3764Z" fill="#A81E30"/>
<path d="M45.428 73.4053C45.428 72.7064 44.8613 72.1397 44.1624 72.1397H33.2314C32.6816 72.1307 32.224 71.7137 32.1646 71.1668C31.5008 65.7258 29.051 60.1267 25.0796 54.9758C23.5022 52.931 21.6658 51.0806 20.2658 48.902C18.1001 45.5363 16.9498 41.6187 16.9521 37.6168C16.9521 25.9472 26.604 16.4531 38.4673 16.4531C50.3307 16.4531 59.9825 25.9468 59.9825 37.6168C59.9837 41.478 58.9124 45.2641 56.8885 48.5529C56.5252 49.1433 56.1326 49.71 55.728 50.2705C56.5976 50.4518 57.4462 50.7208 58.2615 51.0728C58.5299 50.6812 58.7938 50.2857 59.0441 49.8789C61.3136 46.1912 62.5149 41.9463 62.5137 37.6168C62.5137 24.5518 51.7267 13.9219 38.4673 13.9219C25.2079 13.9219 14.4209 24.5512 14.4209 37.6168C14.4186 42.1035 15.708 46.4964 18.1364 50.2699C19.5772 52.5118 21.453 54.4176 23.0751 56.5211C26.7691 61.3129 29.0439 66.4832 29.6524 71.474V71.4745C29.7947 72.6322 30.4846 73.6515 31.5066 74.2142V77.2685C31.5292 78.2788 31.9519 79.2387 32.6813 79.9382C33.4101 80.6376 34.387 81.0196 35.3972 80.9998H41.5376C42.5478 81.0196 43.5247 80.6376 44.2535 79.9382C44.9829 79.2387 45.4055 78.2787 45.4281 77.2685L45.428 73.4053ZM42.8968 77.2676C42.8493 77.9727 42.2431 78.5084 41.5374 78.4677H35.397C34.6913 78.5084 34.0851 77.9727 34.0376 77.2676V74.6709H42.8968L42.8968 77.2676Z" fill="#A81E30"/>
<path d="M53.0213 52.5215C50.168 52.5215 47.4317 53.6549 45.4147 55.6725C43.3971 57.6895 42.2637 60.4258 42.2637 63.2791C42.2637 66.1324 43.3971 68.8687 45.4147 70.8857C47.4317 72.9033 50.168 74.0367 53.0213 74.0367C55.8746 74.0367 58.6109 72.9033 60.6279 70.8857C62.6455 68.8687 63.7789 66.1324 63.7789 63.2791C63.7755 60.4269 62.6415 57.6924 60.6244 55.6759C58.608 53.6589 55.8733 52.525 53.0213 52.5215ZM53.0213 71.5055C50.8392 71.5055 48.747 70.6388 47.2046 69.0958C45.6616 67.5533 44.7949 65.4611 44.7949 63.2791C44.7949 61.097 45.6616 59.0048 47.2046 57.4624C48.747 55.9194 50.8392 55.0527 53.0213 55.0527C55.2033 55.0527 57.2955 55.9194 58.838 57.4624C60.381 59.0048 61.2477 61.097 61.2477 63.2791C61.2454 65.46 60.3776 67.551 58.8357 69.0935C57.2932 70.6353 55.2022 71.5032 53.0213 71.5055Z" fill="#A81E30"/>
<path d="M56.1361 60.3154L51.363 63.3804L50.3346 61.5149C50.1725 61.2211 49.9002 61.003 49.5775 60.9097C49.2549 60.8165 48.9086 60.8549 48.6142 61.0171C48.3204 61.1793 48.1029 61.4516 48.0097 61.7742C47.9164 62.0968 47.9554 62.4437 48.1176 62.7375L49.7996 65.7886C49.9685 66.0954 50.2573 66.318 50.5968 66.4038C50.9369 66.4869 51.2957 66.4287 51.5918 66.2423L57.5034 62.4455C57.787 62.2641 57.9864 61.9782 58.0587 61.6499C58.1305 61.3211 58.0689 60.9776 57.887 60.6951C57.7056 60.412 57.4186 60.2131 57.0903 60.1419C56.7615 60.0708 56.4186 60.1335 56.136 60.3154L56.1361 60.3154Z" fill="#A81E30"/>
</svg>
