<svg width="81" height="81" viewBox="0 0 81 81" fill="none" xmlns="http://www.w3.org/2000/svg">
<path d="M1.61333 58.08C2.50354 58.08 3.22667 58.8031 3.22667 59.6933V77.44H20.9733C21.8635 77.44 22.5867 78.1631 22.5867 79.0533C22.5867 79.9435 21.8635 80.6666 20.9733 80.6666H1.61333C0.723123 80.6666 0 79.9435 0 79.0533V59.6933C0 58.8031 0.723123 58.08 1.61333 58.08Z" fill="#A81E30"/>
<path d="M79.0533 22.3857C78.1631 22.3857 77.4399 21.6626 77.4399 20.7724V3.22746H59.6933C58.8031 3.22746 58.08 2.50434 58.08 1.61413C58.08 0.723919 58.8031 0.000795364 59.6933 0.000795364H79.0533C79.9435 0.000795364 80.6666 0.723919 80.6666 1.61413V20.7731C80.6666 21.6634 79.9435 22.3865 79.0533 22.3865V22.3857Z" fill="#A81E30"/>
<path d="M1.61333 1.52588e-05H20.7723C21.6626 1.52588e-05 22.3857 0.723139 22.3857 1.61335C22.3857 2.50356 21.6626 3.22668 20.7723 3.22668H3.2274V20.9733C3.2274 21.8635 2.50427 22.5867 1.61406 22.5867C0.723856 22.5867 0.000732422 21.8635 0.000732422 20.9733V1.61335C0.000732422 0.723139 0.723856 1.52588e-05 1.61406 1.52588e-05H1.61333Z" fill="#A81E30"/>
<path d="M79.0533 80.6666H59.6933C58.8031 80.6666 58.08 79.9435 58.08 79.0533C58.08 78.1631 58.8031 77.44 59.6933 77.44H77.4399V59.6933C77.4399 58.8031 78.1631 58.08 79.0533 58.08C79.9435 58.08 80.6666 58.8031 80.6666 59.6933V79.0533C80.6666 79.9435 79.9435 80.6666 79.0533 80.6666Z" fill="#A81E30"/>
<path d="M29.04 64.5333H17.7467C16.8565 64.5333 16.1333 63.8102 16.1333 62.92V51.6267C16.1333 50.7365 16.8565 50.0133 17.7467 50.0133H27.4267V41.9467H17.7467C16.8565 41.9467 16.1333 41.2235 16.1333 40.3333V29.04C16.1333 28.1498 16.8565 27.4267 17.7467 27.4267H27.4267V17.7467C27.4267 16.8565 28.1498 16.1334 29.04 16.1334H40.3333C41.2235 16.1334 41.9466 16.8565 41.9466 17.7467V27.4267H50.0133V17.7467C50.0133 16.8565 50.7364 16.1334 51.6266 16.1334H62.92C63.8102 16.1334 64.5333 16.8565 64.5333 17.7467V29.04C64.5333 29.9302 63.8102 30.6533 62.92 30.6533H53.24V38.72H62.92C63.8102 38.72 64.5333 39.4431 64.5333 40.3333V51.6267C64.5333 52.5169 63.8102 53.24 62.92 53.24H53.24V62.92C53.24 63.8102 52.5169 64.5333 51.6266 64.5333H40.3333C39.4431 64.5333 38.72 63.8102 38.72 62.92V53.24H30.6533V62.92C30.6533 63.8102 29.9302 64.5333 29.04 64.5333ZM50.0133 41.9467H41.9466V50.0133H50.0133V41.9467ZM38.72 30.6533H30.6533V38.72H38.72V30.6533ZM19.36 61.3067H27.4267V53.24H19.36V61.3067ZM19.36 38.72H27.4267V30.6533H19.36V38.72ZM38.72 19.36H30.6533V27.4267H38.72V19.36ZM41.9466 38.72H50.0133V30.6533H41.9466V38.72ZM61.3066 19.36H53.24V27.4267H61.3066V19.36ZM61.3066 41.9467H53.24V50.0133H61.3066V41.9467ZM41.9466 61.3067H50.0133V53.24H41.9466V61.3067ZM38.72 41.9467H30.6533V50.0133H38.72V41.9467Z" fill="#A81E30"/>
</svg>
