<svg width="73" height="70" viewBox="0 0 73 70" fill="none" xmlns="http://www.w3.org/2000/svg">
<path d="M36.4993 13.0358C38.0911 13.0358 39.3794 11.7474 39.3794 10.1557V2.88014C39.3794 1.28883 38.0911 0 36.4993 0C34.9075 0 33.6191 1.28835 33.6191 2.88014V10.1562C33.6191 11.7475 34.9075 13.0358 36.4993 13.0358Z" fill="#A72037"/>
<path d="M21.1144 17.735C21.1144 16.9768 20.8114 16.2193 20.2807 15.6885L15.1272 10.5351C13.9906 9.39846 12.1715 9.39846 11.0349 10.5351C10.5041 11.0659 10.2012 11.8234 10.2012 12.5815C10.2012 13.3396 10.5041 14.0972 11.0349 14.628L16.1883 19.7814C16.7191 20.3122 17.4767 20.6151 18.2347 20.6151C18.9929 20.6151 19.7504 20.3122 20.2812 19.7814C20.8109 19.2506 21.1144 18.4925 21.1144 17.735Z" fill="#A72037"/>
<path d="M10.6557 33.1201H3.38014C1.78829 33.1201 0.5 34.4085 0.5 36.0003C0.5 37.5921 1.78835 38.8804 3.38014 38.8804H10.6562C12.248 38.8804 13.5363 37.592 13.5363 36.0003C13.5358 34.4084 12.2474 33.1201 10.6557 33.1201Z" fill="#A72037"/>
<path d="M69.6191 33.1201H62.343C60.7512 33.1201 59.4629 34.4085 59.4629 36.0003C59.4629 37.5921 60.7512 38.8804 62.343 38.8804H69.6191C71.2109 38.8804 72.4992 37.592 72.4992 36.0003C72.4992 34.4084 71.2109 33.1201 69.6191 33.1201Z" fill="#A72037"/>
<path d="M62.798 12.581C62.798 11.8229 62.495 11.0654 61.9643 10.5346C60.8276 9.39797 59.0085 9.39797 57.8719 10.5346L52.7185 15.688C52.1877 16.2188 51.8848 16.9764 51.8848 17.7345C51.8848 18.4926 52.1877 19.2501 52.7185 19.7809C53.2493 20.3117 54.0068 20.6146 54.7649 20.6146C55.523 20.6146 56.2806 20.3117 56.8114 19.7809L61.9648 14.6275C62.4945 14.0967 62.798 13.3391 62.798 12.581Z" fill="#A72037"/>
<path d="M47.5653 22.1308C44.3821 19.6297 40.5172 18.2656 36.4243 18.2656C34.9841 18.2656 33.5441 18.4174 32.1802 18.7964C25.814 20.3121 20.7361 25.3143 19.1444 31.605C17.4014 38.7293 19.8264 45.8534 25.5868 50.2492C26.3449 50.8556 26.7995 51.841 26.7995 52.9776V55.2514H46.1258V52.8259C46.1258 51.7649 46.5805 50.7794 47.2625 50.2492C51.7339 46.8388 54.3106 41.6848 54.3106 36.1523C54.3862 30.6188 51.8851 25.541 47.5653 22.1299L47.5653 22.1308ZM43.7758 34.7114L36.6515 41.8357C36.1968 42.2904 35.5905 42.5177 34.9841 42.5177C34.3778 42.5177 33.7714 42.2904 33.3167 41.8357L29.2238 37.8946C28.3145 36.9852 28.3145 35.469 29.2238 34.4842C30.1332 33.5749 31.6494 33.5749 32.6342 34.4842L34.9836 36.8335L40.4404 31.3767C41.3497 30.4674 42.8659 30.4674 43.8508 31.3767C44.7606 32.2865 44.7606 33.8022 43.7757 34.7115L43.7758 34.7114Z" fill="#A72037"/>
<path d="M26.8752 63.6631C26.8752 65.1033 28.0118 66.2399 29.4519 66.2399H32.7111L33.014 67.0736C33.4692 68.6654 34.9088 69.7265 36.5006 69.7265C38.0925 69.7265 39.5319 68.6654 39.9872 67.0736L40.2901 66.2399H43.5488C44.989 66.2399 46.1255 65.1032 46.1255 63.6631V60.0254H26.875L26.8752 63.6631Z" fill="#A72037"/>
</svg>
