<svg width="12" height="12" viewBox="0 0 12 12" fill="none" xmlns="http://www.w3.org/2000/svg">
<path d="M10.5319 2.69133L5.11528 8.108C4.90403 8.31925 4.56278 8.31925 4.35153 8.108L2.81861 6.57508C2.60736 6.36383 2.60736 6.02258 2.81861 5.81133C3.02986 5.60008 3.37111 5.60008 3.58236 5.81133L4.7307 6.95967L9.76278 1.92758C9.97403 1.71633 10.3153 1.71633 10.5265 1.92758C10.7432 2.13883 10.7432 2.48008 10.5319 2.69133ZM5.49986 10.3342C2.94861 10.3342 0.90653 8.11883 1.19361 5.51342C1.40486 3.60675 2.88361 2.04133 4.77403 1.72717C5.75445 1.56467 6.68611 1.738 7.47695 2.14967C7.6882 2.258 7.94278 2.22008 8.1107 2.05217C8.3707 1.79217 8.3057 1.35342 7.9807 1.1855C7.18445 0.77925 6.28528 0.557166 5.32653 0.58425C2.54236 0.670916 0.229446 2.93508 0.0886131 5.71383C-0.0684703 8.83925 2.41236 11.4176 5.49986 11.4176C6.14986 11.4176 6.76736 11.3038 7.34695 11.0926C7.71528 10.9572 7.8182 10.4805 7.53653 10.1988C7.39028 10.0526 7.1682 9.99842 6.9732 10.0742C6.51278 10.2422 6.01445 10.3342 5.49986 10.3342ZM9.29153 7.62592H8.2082C7.91028 7.62592 7.66653 7.86967 7.66653 8.16758C7.66653 8.4655 7.91028 8.70925 8.2082 8.70925H9.29153V9.79258C9.29153 10.0905 9.53528 10.3342 9.8332 10.3342C10.1311 10.3342 10.3749 10.0905 10.3749 9.79258V8.70925H11.4582C11.7561 8.70925 11.9999 8.4655 11.9999 8.16758C11.9999 7.86967 11.7561 7.62592 11.4582 7.62592H10.3749V6.54258C10.3749 6.24467 10.1311 6.00092 9.8332 6.00092C9.53528 6.00092 9.29153 6.24467 9.29153 6.54258V7.62592Z" fill="#F0F0F0"/>
</svg>
