<svg width="11" height="12" viewBox="0 0 11 12" fill="none" xmlns="http://www.w3.org/2000/svg">
<path d="M5.50016 0.582031C2.521 0.582031 0.0834961 3.01953 0.0834961 5.9987C0.0834961 8.97787 2.521 11.4154 5.50016 11.4154C8.47933 11.4154 10.9168 8.97787 10.9168 5.9987C10.9168 3.01953 8.47933 0.582031 5.50016 0.582031ZM7.42308 8.05703L5.21308 6.69745C5.05058 6.59995 4.95308 6.42661 4.95308 6.23703V3.69661C4.9585 3.47453 5.14266 3.29036 5.36475 3.29036C5.58683 3.29036 5.771 3.47453 5.771 3.69661V6.10703L7.851 7.35828C8.046 7.47745 8.111 7.73203 7.99183 7.92703C7.87266 8.11662 7.61808 8.1762 7.42308 8.05703Z" fill="#F0F0F0"/>
</svg>
