<svg width="11" height="12" viewBox="0 0 11 12" fill="none" xmlns="http://www.w3.org/2000/svg">
<path d="M5.49475 0.582031C2.50475 0.582031 0.0834961 3.0087 0.0834961 5.9987C0.0834961 8.9887 2.50475 11.4154 5.49475 11.4154C8.49016 11.4154 10.9168 8.9887 10.9168 5.9987C10.9168 3.0087 8.49016 0.582031 5.49475 0.582031ZM7.24433 8.91828L5.50016 7.86745L3.756 8.91828C3.55016 9.04286 3.29558 8.8587 3.34975 8.62578L3.81016 6.64328L2.27725 5.3162C2.0985 5.15911 2.196 4.8612 2.43433 4.83953L4.46016 4.6662L5.251 2.79745C5.34308 2.57536 5.65725 2.57536 5.74933 2.79745L6.54016 4.66078L8.566 4.83412C8.80433 4.85578 8.90183 5.1537 8.71766 5.31078L7.18475 6.63787L7.64516 8.62578C7.69933 8.8587 7.45016 9.04286 7.24433 8.91828Z" fill="#F0F0F0"/>
</svg>
