<svg width="81" height="81" viewBox="0 0 81 81" fill="none" xmlns="http://www.w3.org/2000/svg">
<path d="M54.3886 13.3789H26.7729C25.3922 13.3789 24.3361 14.3951 24.3361 15.7238V18.8498C24.3361 20.1784 25.3921 21.1947 26.7729 21.1947H54.3886C55.7693 21.1947 56.8254 20.1785 56.8254 18.8498V15.7238C56.8254 14.4731 55.7694 13.3789 54.3886 13.3789ZM55.2011 18.8498C55.2011 19.3187 54.8764 19.6316 54.3886 19.6316H26.7729C26.2856 19.6316 25.9604 19.3192 25.9604 18.8498V15.7238C25.9604 15.2549 26.2851 14.942 26.7729 14.942H54.3886C54.8759 14.942 55.2011 15.2544 55.2011 15.7238V18.8498Z" fill="#448087"/>
<path d="M52.1144 15.8018C51.2209 15.8018 50.571 16.5051 50.571 17.2869C50.571 18.1467 51.3019 18.7721 52.1954 18.7721C53.0888 18.7721 53.7387 18.0688 53.7387 17.2091C53.7387 16.5052 53.0079 15.802 52.1144 15.802V15.8018ZM52.1144 17.3648V17.2869V17.3648Z" fill="#448087"/>
<path d="M43.6673 16.5053H28.2349C27.7477 16.5053 27.4225 16.8177 27.4225 17.2871C27.4225 17.7559 27.7471 18.0689 28.2349 18.0689H43.6673C44.1545 18.0689 44.4797 17.7565 44.4797 17.2871C44.4791 16.8182 44.1545 16.5053 43.6673 16.5053Z" fill="#448087"/>
<path d="M48.7031 16.5053H46.51C46.0227 16.5053 45.6975 16.8177 45.6975 17.2871C45.6975 17.7559 46.0222 18.0689 46.51 18.0689H48.7031C49.1904 18.0689 49.5156 17.7565 49.5156 17.2871C49.5156 16.8182 49.1094 16.5053 48.7031 16.5053Z" fill="#448087"/>
<path d="M39.7686 23.305V25.4154C39.7686 25.8843 40.0932 26.1972 40.581 26.1972C41.0683 26.1972 41.3935 25.8848 41.3935 25.4154V23.305C41.3935 22.8361 41.0688 22.5232 40.581 22.5232C40.0938 22.5232 39.7686 22.9141 39.7686 23.305Z" fill="#448087"/>
<path d="M54.3886 4H26.7729C25.3922 4 24.3361 5.01622 24.3361 6.34487V9.47091C24.3361 10.7995 25.3921 11.8158 26.7729 11.8158H54.3886C55.7693 11.8158 56.8254 10.7996 56.8254 9.47091V6.34487C56.8254 5.09422 55.7694 4 54.3886 4V4ZM55.2011 9.47091C55.2011 9.93977 54.8764 10.2527 54.3886 10.2527H26.7729C26.2856 10.2527 25.9604 9.94032 25.9604 9.47091V6.34487C25.9604 5.87601 26.2851 5.56307 26.7729 5.56307H54.3886C54.8759 5.56307 55.2011 5.87547 55.2011 6.34487V9.47091Z" fill="#448087"/>
<path d="M53.4952 7.75146C53.3326 6.89169 52.5207 6.3449 51.6273 6.50081C51.221 6.57877 50.8148 6.8132 50.6528 7.12614C50.3275 7.43908 50.2465 7.82998 50.3275 8.22032C50.4902 8.92362 51.14 9.47097 51.8709 9.47097H52.1145C52.5208 9.39301 52.927 9.15858 53.1706 8.84564C53.4142 8.53324 53.5768 8.14234 53.4953 7.75146H53.4952Z" fill="#448087"/>
<path d="M43.5048 7.12617H28.0725C27.5852 7.12617 27.26 7.43857 27.26 7.90798C27.26 8.37684 27.5847 8.68978 28.0725 8.68978H43.5048C43.992 8.68978 44.3172 8.37738 44.3172 7.90798C44.3172 7.43911 43.992 7.12617 43.5048 7.12617V7.12617Z" fill="#448087"/>
<path d="M48.1345 7.12617H45.9414C45.4541 7.12617 45.1289 7.43857 45.1289 7.90798C45.1289 8.37684 45.4536 8.68978 45.9414 8.68978H48.1345C48.6218 8.68978 48.947 8.37738 48.947 7.90798C48.947 7.43911 48.6223 7.12617 48.1345 7.12617Z" fill="#448087"/>
<path d="M2 69.5744V72.0758C4.76143 72.0758 6.06114 73.092 7.60451 74.2642C9.31048 75.5148 11.1785 77 14.8333 77C18.4882 77 20.4378 75.5149 22.0622 74.2642C23.6055 73.0921 24.9052 72.0758 27.6667 72.0758C30.4281 72.0758 31.7278 73.092 33.2712 74.2642C34.9771 75.5148 36.8451 77 40.5 77C44.1549 77 46.0229 75.5149 47.7288 74.2642C49.2722 73.0921 50.5719 72.0758 53.3333 72.0758C56.0948 72.0758 57.3945 73.092 58.9378 74.2642C60.6438 75.5148 62.5118 77 66.1667 77C69.8215 77 71.6895 75.5149 73.3955 74.2642C74.9389 73.0921 76.2386 72.0758 79 72.0758V69.5744C75.3451 69.5744 73.4771 71.0596 71.7712 72.3103C70.2278 73.4824 68.9281 74.4987 66.1667 74.4987C63.4052 74.4987 62.1055 73.4825 60.5622 72.3103C58.8562 71.0596 56.9882 69.5744 53.3333 69.5744C49.6779 69.5744 47.891 70.981 46.1856 72.3103C44.6422 73.4824 43.3425 74.4987 40.5811 74.4987C37.8197 74.4987 36.5199 73.4825 34.9766 72.3103C33.2706 71.0596 31.4026 69.5744 27.7477 69.5744C24.0929 69.5744 22.2249 71.0596 20.5189 72.3103C18.9755 73.4824 17.6758 74.4987 14.9144 74.4987C12.153 74.4987 10.8533 73.4825 9.3099 72.3103C7.523 70.9811 5.65502 69.5744 2.00014 69.5744H2Z" fill="#448087"/>
<path d="M2 63.2436V65.7449C4.76143 65.7449 6.06114 66.7612 7.60451 67.9334C9.31048 69.184 11.1785 70.6692 14.8333 70.6692C18.4882 70.6692 20.4378 69.184 22.0622 67.9334C23.6055 66.7612 24.9052 65.7449 27.6667 65.7449C30.4281 65.7449 31.7278 66.7612 33.2712 67.9334C34.9771 69.184 36.8451 70.6692 40.5 70.6692C44.1549 70.6692 46.0229 69.184 47.7288 67.9334C49.2722 66.7612 50.5719 65.7449 53.3333 65.7449C56.0948 65.7449 57.3945 66.7612 58.9378 67.9334C60.6438 69.184 62.5118 70.6692 66.1667 70.6692C69.8215 70.6692 71.6895 69.184 73.3955 67.9334C74.9389 66.7612 76.2386 65.7449 79 65.7449V63.2436C75.3451 63.2436 73.4771 64.7287 71.7712 65.9794C70.2278 67.1516 68.9281 68.1678 66.1667 68.1678C63.4052 68.1678 62.1055 67.1516 60.5622 65.9794C58.8562 64.7288 56.9882 63.2436 53.3333 63.2436C49.6785 63.2436 47.8105 64.7287 46.1045 65.9794C44.5611 67.1516 43.2614 68.1678 40.5 68.1678C37.7386 68.1678 36.4389 67.1516 34.8955 65.9794C33.1895 64.7288 31.3215 63.2436 27.6667 63.2436C24.0118 63.2436 22.1438 64.7287 20.4378 65.9794C18.8945 67.1516 17.5948 68.1678 14.8333 68.1678C12.0719 68.1678 10.7722 67.1516 9.22882 65.9794C7.52285 64.6503 5.65488 63.2436 2 63.2436Z" fill="#448087"/>
<path d="M2 56.8347V59.336C4.76143 59.336 6.06114 60.3522 7.60451 61.5244C9.31048 62.7751 11.1785 64.2602 14.8333 64.2602C18.4882 64.2602 20.4378 62.7751 22.0622 61.5244C23.6055 60.3523 24.9052 59.336 27.6667 59.336C30.4281 59.336 31.7278 60.3522 33.2712 61.5244C34.9771 62.7751 36.8451 64.2602 40.5 64.2602C44.1549 64.2602 46.0229 62.7751 47.7288 61.5244C49.2722 60.3523 50.5719 59.336 53.3333 59.336C56.0948 59.336 57.3945 60.3522 58.9378 61.5244C60.6438 62.7751 62.5118 64.2602 66.1667 64.2602C69.8215 64.2602 71.6895 62.7751 73.3955 61.5244C74.9389 60.3523 76.2386 59.336 79 59.336V56.8347C75.3451 56.8347 73.4771 58.3198 71.7712 59.5705C70.2278 60.7426 68.9281 61.7589 66.1667 61.7589C63.4052 61.7589 62.1055 60.7427 60.5622 59.5705C58.8562 58.3198 56.9882 56.8347 53.3333 56.8347C49.6785 56.8347 47.8105 58.3198 46.1045 59.5705C44.6422 60.8211 43.3425 61.8368 40.5811 61.8368C37.8197 61.8368 36.5199 60.8206 34.9766 59.6484C33.2706 58.3977 31.4026 56.9126 27.7477 56.9126C24.0929 56.9126 22.2249 58.3977 20.5189 59.6484C18.9755 60.8205 17.6758 61.8368 14.9144 61.8368C12.153 61.8368 10.8533 60.8206 9.3099 59.6484C7.523 58.3198 5.65502 56.8347 2.00014 56.8347H2Z" fill="#448087"/>
<path d="M57.9624 53.3176V53.1611V53.3176C57.8814 53.3176 57.8814 53.3176 57.9624 53.3176Z" fill="#448087"/>
<path d="M11.1781 50.7384C11.747 50.7384 12.2342 50.2695 12.2342 49.7222V43.6259C12.2342 43.0785 11.747 42.6096 11.1781 42.6096C10.6093 42.6096 10.1221 43.0785 10.1221 43.6259V49.7222C10.1221 50.2695 10.6093 50.7384 11.1781 50.7384Z" fill="#448087"/>
<path d="M15.4018 50.7384C15.9706 50.7384 16.4578 50.2695 16.4578 49.7222V43.6259C16.4578 43.0785 15.9706 42.6096 15.4018 42.6096C14.8329 42.6096 14.3457 43.0785 14.3457 43.6259V49.7222C14.3463 50.2695 14.8335 50.7384 15.4018 50.7384Z" fill="#448087"/>
<path d="M18.4882 44.7202V48.7845C18.4882 49.8787 19.4627 50.8165 20.5998 50.8165L22.7119 50.8171C23.849 50.8171 24.8235 49.8793 24.8235 48.7851V44.7207C24.8235 43.6266 23.849 42.6888 22.7119 42.6888H20.6002C19.4626 42.6882 18.4882 43.548 18.4882 44.7202V44.7202ZM22.7119 48.7065H20.6002V44.6422H22.7119V48.7065Z" fill="#448087"/>
<path d="M29.0472 40.656H32.1338C32.8646 42.0626 34.0017 43.3132 35.3015 44.173V49.7225C35.3015 50.2698 35.7887 50.7387 36.3575 50.7387C36.9264 50.7387 37.4136 50.2698 37.4136 49.7225L37.413 45.1893C38.0629 45.4237 38.7937 45.5802 39.5247 45.6582V49.7225C39.5247 50.2699 40.0119 50.7387 40.5807 50.7387C41.1496 50.7387 41.6368 50.2699 41.6368 49.7225V45.6582C42.3677 45.5802 43.0985 45.4237 43.7485 45.1893V49.8005C43.7485 50.3479 44.2357 50.8167 44.8045 50.8167C45.3733 50.8167 45.8606 50.3478 45.8606 49.8005V44.251C47.2413 43.3912 48.2974 42.1406 49.0283 40.734H52.1149C53.252 40.734 54.2265 39.7963 54.2265 38.7021V34.6377C54.2265 33.5435 53.252 32.6058 52.1149 32.6058H49.0283C47.404 29.4797 44.1546 27.5258 40.5814 27.5258C37.0075 27.5258 33.6772 29.4797 32.1345 32.6058H29.0479C27.9108 32.6058 26.9363 33.5435 26.9363 34.6377V38.7021C26.9357 39.7177 27.8286 40.656 29.0473 40.656H29.0472ZM49.7589 34.5597H52.1141V38.6241H49.7589C50.0836 37.2949 50.0836 35.8882 49.7589 34.5597V34.5597ZM40.5806 29.5576C44.6418 29.5576 47.972 32.7622 47.972 36.6701C47.972 40.578 44.6418 43.7826 40.5806 43.7826C36.5195 43.7826 33.2709 40.578 33.1892 36.6701C33.1892 32.6838 36.5195 29.5576 40.5806 29.5576V29.5576ZM29.047 34.5597H31.4022C31.0775 35.8883 31.0775 37.2955 31.4022 38.6241H29.047V34.5597Z" fill="#448087"/>
<path d="M61.6175 50.7384C62.1863 50.7384 62.6735 50.2695 62.6735 49.7222V43.6259C62.6735 43.0785 62.1863 42.6096 61.6175 42.6096C61.0486 42.6096 60.5614 43.0785 60.5614 43.6259V49.7222C60.562 50.2695 60.9676 50.7384 61.6175 50.7384Z" fill="#448087"/>
<path d="M57.394 50.7384C57.9628 50.7384 58.45 50.2695 58.45 49.7222V43.6259C58.45 43.0785 57.9628 42.6096 57.394 42.6096C56.8251 42.6096 56.3379 43.0785 56.3379 43.6259V49.7222C56.3379 50.2695 56.8251 50.7384 57.394 50.7384Z" fill="#448087"/>
<path d="M52.1144 42.6881H50.0028C48.8657 42.6881 47.8911 43.6259 47.8911 44.7201V48.7844C47.8911 49.8786 48.8656 50.8164 50.0028 50.8164H52.1144C53.2515 50.8164 54.2261 49.8787 54.2261 48.7844V44.7201C54.2261 43.548 53.3331 42.6881 52.1144 42.6881ZM52.1144 48.7064H50.0028V44.6421H52.1144V48.7064Z" fill="#448087"/>
<path d="M29.0472 50.7384H31.1588C32.2959 50.7384 33.2705 49.8007 33.2705 48.7064V44.6421C33.2705 43.5479 32.296 42.6101 31.1588 42.6101H29.0472C27.9101 42.6101 26.9355 43.5478 26.9355 44.6421V48.7064C26.9355 49.8786 27.8284 50.7384 29.0472 50.7384ZM29.0472 44.7201H31.1588V48.7844H29.0472V44.7201Z" fill="#448087"/>
<path d="M64.704 44.7202V48.7846C64.704 49.8787 65.6785 50.8165 66.8156 50.8165H68.9273C70.0644 50.8165 71.0389 49.8788 71.0389 48.7846V44.7202C71.0389 43.626 70.0644 42.6882 68.9273 42.6882H66.8156C65.6785 42.6882 64.704 43.548 64.704 44.7202ZM68.9277 48.7065H66.8161V44.6422H68.9277V48.7065Z" fill="#448087"/>
<path d="M12.2341 53.7865C12.2341 53.2391 11.7468 52.7703 11.178 52.7703C10.6092 52.7703 10.1219 53.2391 10.1219 53.7865V58.5541C10.7718 59.023 11.4216 59.4139 12.2336 59.7263L12.2341 53.7865Z" fill="#448087"/>
<path d="M16.3764 59.961V59.8046V53.7863C16.3764 53.2389 15.8892 52.7701 15.3204 52.7701C14.7515 52.7701 14.2643 53.2389 14.2643 53.7863V59.8826C14.2643 59.9605 14.2643 60.039 14.3453 60.117H14.8325C15.4014 60.117 15.9702 60.0391 16.3765 59.9611L16.3764 59.961Z" fill="#448087"/>
<path d="M20.6 57.7726V54.8025H22.7121V56.3655C23.3619 56.0531 24.0118 55.7401 24.8237 55.5057V54.8024C24.8237 53.7082 23.8492 52.7705 22.7121 52.7705H20.6004C19.4633 52.7705 18.4888 53.7082 18.4888 54.8024V58.8668V59.2577C19.1386 58.8668 19.7885 58.3979 20.4383 57.9291C20.5187 57.8506 20.5997 57.8505 20.5997 57.7726L20.6 57.7726Z" fill="#448087"/>
<path d="M45.8603 53.7865C45.8603 53.2391 45.3731 52.7703 44.8042 52.7703C44.2354 52.7703 43.7482 53.2391 43.7482 53.7865V59.4919C44.5606 59.1795 45.2099 58.7101 45.8598 58.1633L45.8603 53.7865Z" fill="#448087"/>
<path d="M33.1895 53.7865C33.1895 53.2391 32.7023 52.7703 32.1335 52.7703C31.5646 52.7703 31.0774 53.2391 31.0774 53.7865V55.6624C31.8899 55.8969 32.5391 56.2878 33.189 56.6786L33.1895 53.7865Z" fill="#448087"/>
<path d="M29.0472 55.1934V53.7863C29.0472 53.2389 28.5599 52.7701 27.9911 52.7701C27.4223 52.7701 26.9351 53.2389 26.9351 53.7863V55.1928C27.1787 55.1928 27.4223 55.1149 27.7475 55.1149C28.1537 55.1149 28.641 55.1934 29.0472 55.1934L29.0472 55.1934Z" fill="#448087"/>
<path d="M71.0393 53.7865C71.0393 53.2391 70.552 52.7703 69.9832 52.7703C69.4144 52.7703 68.9271 53.2391 68.9271 53.7865V59.7264C69.7396 59.414 70.3888 59.0231 71.0388 58.5542L71.0393 53.7865Z" fill="#448087"/>
<path d="M58.4498 53.7865C58.4498 53.2391 57.9625 52.7703 57.3937 52.7703C56.8249 52.7703 56.3376 53.2391 56.3376 53.7865V55.506C57.1501 55.7404 57.7994 55.9748 58.4493 56.3657L58.4498 53.7865Z" fill="#448087"/>
<path d="M50.0026 54.8026H52.1143V55.1935C52.5205 55.1155 52.9267 55.1155 53.414 55.1155C53.6576 55.1155 53.9012 55.1155 54.2264 55.1935V54.8026C54.2264 53.7084 53.2519 52.7706 52.1148 52.7706H50.0031C48.866 52.7706 47.8915 53.7084 47.8915 54.8026V56.6785C48.5413 56.2876 49.1912 55.9752 50.0031 55.6623L50.0026 54.8026Z" fill="#448087"/>
<path d="M41.1493 60.0392C41.3929 59.7268 41.6366 59.2574 41.6366 58.7885V54.7242C41.6366 53.63 40.6621 52.6922 39.5249 52.6922H37.4133C36.2762 52.6922 35.3016 53.6299 35.3016 54.7242V58.0847C36.6823 59.1788 37.982 60.0386 40.5808 60.0386C40.8239 60.1171 40.9865 60.1171 41.1491 60.0392H41.1493ZM39.5244 58.867H37.4128V54.8027H39.5244V58.867Z" fill="#448087"/>
<path d="M66.3284 60.1173C66.653 59.8049 66.8972 59.3355 66.8972 58.8666V54.8023C66.8972 53.7081 65.9227 52.7703 64.7855 52.7703H62.6739C61.5368 52.7703 60.5623 53.7081 60.5623 54.8023V57.7724C60.6433 57.7724 60.6433 57.8504 60.7249 57.8504C62.186 59.1016 63.5668 60.1173 66.3282 60.1173L66.3284 60.1173ZM62.6735 54.8028H64.7851V58.8672H62.6735V54.8028Z" fill="#448087"/>
<path d="M11.1781 40.6561C11.747 40.6561 12.2342 40.1872 12.2342 39.6398V33.5435C12.2342 32.9962 11.747 32.5273 11.1781 32.5273C10.6093 32.5273 10.1221 32.9962 10.1221 33.5435V39.6398C10.1221 40.1872 10.6093 40.6561 11.1781 40.6561Z" fill="#448087"/>
<path d="M23.7677 40.6561C24.3366 40.6561 24.8238 40.1872 24.8238 39.6398V33.5435C24.8238 32.9962 24.3366 32.5273 23.7677 32.5273C23.1989 32.5273 22.7117 32.9962 22.7117 33.5435V39.6398C22.7122 40.1872 23.1995 40.6561 23.7677 40.6561Z" fill="#448087"/>
<path d="M16.4576 40.656H18.5692C19.7063 40.656 20.6809 39.7183 20.6809 38.624V34.5597C20.6809 33.4655 19.7064 32.5277 18.5692 32.5277H16.4576C15.3205 32.5277 14.3459 33.4655 14.3459 34.5597V38.624C14.3459 39.7177 15.2394 40.656 16.4576 40.656ZM16.4576 34.5597H18.5692V38.624H16.4576V34.5597Z" fill="#448087"/>
<path d="M69.9834 40.6561C70.5523 40.6561 71.0395 40.1872 71.0395 39.6398V33.5435C71.0395 32.9962 70.5523 32.5273 69.9834 32.5273C69.4146 32.5273 68.9274 32.9962 68.9274 33.5435V39.6398C68.9279 40.1872 69.4152 40.6561 69.9834 40.6561Z" fill="#448087"/>
<path d="M57.394 40.6561C57.9628 40.6561 58.45 40.1872 58.45 39.6398V33.5435C58.45 32.9962 57.9628 32.5273 57.394 32.5273C56.8251 32.5273 56.3379 32.9962 56.3379 33.5435V39.6398C56.3379 40.1872 56.8251 40.6561 57.394 40.6561Z" fill="#448087"/>
<path d="M62.6734 40.656H64.7851C65.9222 40.656 66.8967 39.7183 66.8967 38.624V34.5597C66.8967 33.4655 65.9222 32.5277 64.7851 32.5277H62.6734C61.5363 32.5277 60.5618 33.4655 60.5618 34.5597V38.624C60.5618 39.7177 61.4552 40.656 62.6734 40.656ZM62.6734 34.5597H64.7851V38.624H62.6734V34.5597Z" fill="#448087"/>
<path d="M39.5249 40.656H41.6365C42.7736 40.656 43.7481 39.7183 43.7481 38.624V34.5597C43.7481 33.4655 42.7736 32.5277 41.6365 32.5277H39.5249C38.3878 32.5277 37.4132 33.4655 37.4132 34.5597V38.624C37.4132 39.7177 38.3877 40.656 39.5249 40.656ZM39.5249 34.5597H41.6365V38.624H39.5249V34.5597Z" fill="#448087"/>
</svg>
