<svg width="26" height="26" viewBox="0 0 26 26" fill="none" xmlns="http://www.w3.org/2000/svg">
<g clip-path="url(#clip0_693_472)">
<path d="M2.16671 5.41675C2.76254 5.41675 3.25004 5.90425 3.25004 6.50008V19.5001C3.25004 20.0959 2.76254 20.5834 2.16671 20.5834C1.57087 20.5834 1.08337 20.0959 1.08337 19.5001V6.50008C1.08337 5.90425 1.57087 5.41675 2.16671 5.41675ZM6.50004 5.41675C7.09587 5.41675 7.58337 5.90425 7.58337 6.50008V19.5001C7.58337 20.0959 7.09587 20.5834 6.50004 20.5834C5.90421 20.5834 5.41671 20.0959 5.41671 19.5001V6.50008C5.41671 5.90425 5.90421 5.41675 6.50004 5.41675ZM23.8334 5.41675H10.8334C10.2375 5.41675 9.75004 5.90425 9.75004 6.50008V19.5001C9.75004 20.0959 10.2375 20.5834 10.8334 20.5834H23.8334C24.4292 20.5834 24.9167 20.0959 24.9167 19.5001V6.50008C24.9167 5.90425 24.4292 5.41675 23.8334 5.41675ZM12.61 17.5392L14.2025 15.5242C14.4192 15.2534 14.82 15.2534 15.0475 15.5134L16.5642 17.3334L18.8392 14.3976C19.0559 14.1159 19.4784 14.1159 19.695 14.3976L22.0892 17.5392C22.36 17.8967 22.1109 18.4059 21.6559 18.4059H13.0325C12.5884 18.4167 12.3284 17.8967 12.61 17.5392Z" fill="#A72037"/>
</g>
<defs>
<clipPath id="clip0_693_472">
<rect width="26" height="26" fill="white"/>
</clipPath>
</defs>
</svg>
