<svg width="24" height="16" viewBox="0 0 24 16" fill="none" xmlns="http://www.w3.org/2000/svg">
<path d="M1.16634 0.416016C1.76217 0.416016 2.24967 0.903516 2.24967 1.49935V14.4993C2.24967 15.0952 1.76217 15.5827 1.16634 15.5827C0.570508 15.5827 0.0830078 15.0952 0.0830078 14.4993V1.49935C0.0830078 0.903516 0.570508 0.416016 1.16634 0.416016ZM5.49967 0.416016C6.09551 0.416016 6.58301 0.903516 6.58301 1.49935V14.4993C6.58301 15.0952 6.09551 15.5827 5.49967 15.5827C4.90384 15.5827 4.41634 15.0952 4.41634 14.4993V1.49935C4.41634 0.903516 4.90384 0.416016 5.49967 0.416016ZM22.833 0.416016H9.83301C9.23717 0.416016 8.74967 0.903516 8.74967 1.49935V14.4993C8.74967 15.0952 9.23717 15.5827 9.83301 15.5827H22.833C23.4288 15.5827 23.9163 15.0952 23.9163 14.4993V1.49935C23.9163 0.903516 23.4288 0.416016 22.833 0.416016ZM11.6097 12.5385L13.2022 10.5235C13.4188 10.2527 13.8197 10.2527 14.0472 10.5127L15.5638 12.3327L17.8388 9.39685C18.0555 9.11518 18.478 9.11518 18.6947 9.39685L21.0888 12.5385C21.3597 12.896 21.1105 13.4052 20.6555 13.4052H12.0322C11.588 13.416 11.328 12.896 11.6097 12.5385Z" fill="#A72037"/>
</svg>
