<svg width="19" height="18" viewBox="0 0 19 18" fill="none" xmlns="http://www.w3.org/2000/svg">
<path d="M13.35 0.85L14.8 2.3L12.62 4.46C12.23 4.85 12.23 5.49 12.62 5.88C13.01 6.27 13.65 6.27 14.04 5.88L16.2 3.7L17.65 5.15C17.96 5.46 18.5 5.24 18.5 4.79V0.5C18.5 0.22 18.28 0 18 0H13.71C13.26 0 13.04 0.54 13.35 0.85ZM1.35 5.15L2.8 3.7L4.96 5.88C5.35 6.27 5.99 6.27 6.38 5.88C6.77 5.49 6.77 4.85 6.38 4.46L4.2 2.3L5.65 0.85C5.96 0.54 5.74 0 5.29 0H1C0.72 0 0.5 0.22 0.5 0.5V4.79C0.5 5.24 1.04 5.46 1.35 5.15ZM5.65 17.15L4.2 15.7L6.38 13.54C6.77 13.15 6.77 12.51 6.38 12.12C5.99 11.73 5.35 11.73 4.96 12.12L2.8 14.3L1.35 12.85C1.04 12.54 0.5 12.76 0.5 13.21V17.5C0.5 17.78 0.72 18 1 18H5.29C5.74 18 5.96 17.46 5.65 17.15ZM17.65 12.85L16.2 14.3L14.04 12.12C13.65 11.73 13.01 11.73 12.62 12.12C12.23 12.51 12.23 13.15 12.62 13.54L14.8 15.7L13.35 17.15C13.04 17.46 13.26 18 13.71 18H18C18.28 18 18.5 17.78 18.5 17.5V13.21C18.5 12.76 17.96 12.54 17.65 12.85Z" fill="white"/>
</svg>
