<svg width="39" height="39" viewBox="0 0 39 39" fill="none" xmlns="http://www.w3.org/2000/svg">
<path d="M19.951 11.568C19.951 6.75475 16.0357 2.83942 11.2224 2.83942C6.40911 2.83942 2.49377 6.75475 2.49377 11.568C2.49377 16.3813 6.40911 20.2967 11.2224 20.2967C16.0357 20.2967 19.951 16.3813 19.951 11.568ZM3.74072 11.568C3.74072 7.44257 7.09693 4.08636 11.2224 4.08636C15.3479 4.08636 18.7041 7.44257 18.7041 11.568C18.7041 15.6935 15.3479 19.0497 11.2224 19.0497C7.09693 19.0497 3.74072 15.6935 3.74072 11.568Z" fill="#BEFBFF"/>
<path d="M11.2223 32.7656C10.191 32.7656 9.35187 33.6047 9.35187 34.636C9.35187 35.6672 10.191 36.5064 11.2223 36.5064C12.2535 36.5064 13.0927 35.6672 13.0927 34.636C13.0927 33.6047 12.2535 32.7656 11.2223 32.7656ZM11.2223 35.2595C10.8783 35.2595 10.5988 34.98 10.5988 34.636C10.5988 34.292 10.8783 34.0125 11.2223 34.0125C11.5663 34.0125 11.8458 34.292 11.8458 34.636C11.8458 34.98 11.5663 35.2595 11.2223 35.2595Z" fill="#BEFBFF"/>
<path d="M38.6552 9.07422V0.345601H28.6797V4.08644H25.9278L21.8964 8.11785C20.4368 3.61381 16.2058 0.345459 11.2225 0.345459C5.03452 0.345459 0 5.37998 0 11.568C0 16.6237 3.36234 20.9058 7.96691 22.3052L8.17901 22.6607C8.52888 23.2485 8.71759 23.9187 8.72816 24.6009L6.94318 33.5269C6.88696 33.8094 6.85829 34.0967 6.85829 34.3831V34.6361C6.85829 37.0421 8.81663 39.0004 11.2226 39.0004C12.9588 39.0004 14.4572 37.9786 15.16 36.5065H38.6553V16.5554H36.7526C36.7712 16.3709 36.7848 16.1863 36.7848 16.0012V15.9319C36.7848 12.8377 34.2679 10.3207 31.1736 10.3207C28.0793 10.3207 25.5623 12.8377 25.5623 15.9319V16.0012C25.5623 16.1863 25.576 16.3709 25.5946 16.5554H21.2604C22.011 15.0504 22.445 13.3607 22.445 11.5676C22.445 10.8698 22.3726 10.1899 22.2499 9.52683L26.4438 5.33289H28.6797V9.07373L38.6552 9.07422ZM1.24687 11.5681C1.24687 6.06794 5.72227 1.59255 11.2224 1.59255C16.7226 1.59255 21.198 6.06794 21.198 11.5681C21.198 17.0683 16.7226 21.5437 11.2224 21.5437C5.72227 21.5437 1.24687 17.0683 1.24687 11.5681ZM20.5745 17.8028V26.5315H14.103L13.7169 24.6012C13.7275 23.9184 13.9165 23.2488 14.2661 22.6614L14.4781 22.3054C16.9826 21.5442 19.1194 19.9318 20.547 17.8033H20.5746L20.5745 17.8028ZM29.7136 25.6301C29.9922 26.1857 30.5522 26.5316 31.1737 26.5316C31.7952 26.5316 32.3552 26.1856 32.6339 25.6295L32.8059 25.2847H37.4084V27.7786H24.3155V35.2602H21.8216V30.2725H14.8513L14.3525 27.7786H21.8213V17.803H24.3152V25.2847H29.5404L29.7136 25.6301ZM11.2224 22.7908C11.7861 22.7908 12.3352 22.7354 12.8766 22.6549C12.6901 23.0964 12.5693 23.562 12.5111 24.0377H9.93318C9.87528 23.562 9.75421 23.0964 9.56772 22.6549C10.1096 22.7354 10.6588 22.7908 11.2225 22.7908H11.2224ZM14.3398 34.6368C14.3398 36.3558 12.9414 37.7541 11.2224 37.7541C9.50344 37.7541 8.10508 36.3558 8.10508 34.6368V34.3837C8.10508 34.1792 8.12512 33.9735 8.16547 33.7728L9.86332 25.285H12.5935L14.2799 33.7721C14.3197 33.9742 14.3398 34.1798 14.3398 34.3844L14.3398 34.6368ZM15.5019 33.5276L15.1005 31.5194H20.5745V35.2602H15.537C15.5662 35.0556 15.5868 34.8488 15.5868 34.6368V34.3837C15.5868 34.0973 15.5581 33.8101 15.5019 33.5276L15.5019 33.5276ZM25.5622 35.2602V29.0255H37.4082V35.2602H25.5622ZM37.4082 17.803V24.0377H33.4291L36.1924 18.5119C36.3065 18.2837 36.4001 18.0454 36.4816 17.803L37.4082 17.803ZM26.8092 15.9326C26.8092 13.5266 28.7675 11.5683 31.1735 11.5683C33.5795 11.5683 35.5378 13.5266 35.5378 15.9326V16.0019C35.5378 16.6757 35.3783 17.351 35.0772 17.9539L31.5184 25.0709C31.3867 25.3354 30.9603 25.3348 30.8295 25.0715L27.2707 17.9539C26.9687 17.351 26.8092 16.6757 26.8092 16.0019L26.8092 15.9326ZM26.1545 18.5119L28.9171 24.0377H25.5623V17.803H25.8654C25.9475 18.0449 26.0405 18.2831 26.1546 18.5119L26.1545 18.5119ZM29.9266 1.59262H37.4083V7.82735H29.9266V1.59262Z" fill="#BEFBFF"/>
<path d="M31.173 2.83942H36.1608V4.08636H31.173V2.83942Z" fill="#BEFBFF"/>
<path d="M31.173 5.33331H36.1608V6.58026H31.173V5.33331Z" fill="#BEFBFF"/>
<path d="M31.173 19.0495C32.892 19.0495 34.2904 17.6512 34.2904 15.9322C34.2904 14.2132 32.892 12.8148 31.173 12.8148C29.454 12.8148 28.0557 14.2132 28.0557 15.9322C28.0557 17.6512 29.454 19.0495 31.173 19.0495ZM31.173 14.0618C32.2043 14.0618 33.0434 14.9009 33.0434 15.9322C33.0434 16.9634 32.2043 17.8026 31.173 17.8026C30.1418 17.8026 29.3026 16.9634 29.3026 15.9322C29.3026 14.9009 30.1418 14.0618 31.173 14.0618Z" fill="#BEFBFF"/>
<path d="M15.5867 14.6853V13.4384C15.5867 13.2102 15.5207 12.9989 15.4132 12.8149C15.5207 12.631 15.5867 12.4197 15.5867 12.1915V10.9445C15.5867 10.7163 15.5207 10.505 15.4132 10.321C15.5207 10.1371 15.5867 9.9258 15.5867 9.69757V8.45062C15.5867 7.76285 15.0275 7.20367 14.3397 7.20367H8.10498C7.41721 7.20367 6.85803 7.76285 6.85803 8.45062V9.69757C6.85803 9.9258 6.924 10.1371 7.03144 10.321C6.924 10.505 6.85803 10.7163 6.85803 10.9445V12.1915C6.85803 12.4197 6.924 12.631 7.03144 12.8149C6.924 12.9989 6.85803 13.2102 6.85803 13.4384V14.6853C6.85803 15.3731 7.41721 15.9323 8.10498 15.9323H14.3397C15.0275 15.9323 15.5867 15.3731 15.5867 14.6853ZM8.10498 10.9445H14.3397L14.3408 12.1915H8.10495L8.10498 10.9445ZM8.10498 8.45062H14.3397L14.3408 9.69757H8.10495L8.10498 8.45062ZM8.10498 13.4384H14.3397L14.3408 14.6853H8.10495L8.10498 13.4384Z" fill="#BEFBFF"/>
</svg>
