<svg width="37" height="37" viewBox="0 0 37 37" fill="none" xmlns="http://www.w3.org/2000/svg">
<path d="M34.6892 18.8602C34.6892 17.5292 34.579 16.558 34.3405 15.5508H18.832V21.5581H27.9351C27.7517 23.051 26.7606 25.2992 24.5582 26.81L24.5273 27.0111L29.4308 30.7338L29.7705 30.767C32.8905 27.9432 34.6892 23.7884 34.6892 18.8602Z" fill="#4285F4"/>
<path d="M18.8311 34.6892C23.2909 34.6892 27.0349 33.2502 29.7696 30.7682L24.5573 26.8111C23.1625 27.7644 21.2904 28.4299 18.8311 28.4299C14.4631 28.4299 10.7558 25.6061 9.43427 21.7031L9.24056 21.7192L4.14187 25.5863L4.0752 25.768C6.79143 31.0559 12.3708 34.6892 18.8311 34.6892Z" fill="#34A853"/>
<path d="M9.43541 21.703C9.0867 20.6958 8.8849 19.6165 8.8849 18.5014C8.8849 17.3862 9.0867 16.3071 9.41706 15.2999L9.40782 15.0854L4.24522 11.1562L4.07631 11.235C2.95682 13.4293 2.31445 15.8935 2.31445 18.5014C2.31445 21.1094 2.95682 23.5734 4.07631 25.7678L9.43541 21.703Z" fill="#FBBC05"/>
<path d="M18.8312 8.57162C21.9329 8.57162 24.0251 9.8846 25.2181 10.9818L29.8798 6.52125C27.0168 3.91327 23.291 2.3125 18.8312 2.3125C12.3708 2.3125 6.79144 5.94567 4.0752 11.2335L9.41596 15.2985C10.7559 11.3955 14.4632 8.57162 18.8312 8.57162Z" fill="#EB4335"/>
</svg>
