<svg width="46" height="45" viewBox="0 0 46 45" fill="none" xmlns="http://www.w3.org/2000/svg">
<rect x="0.5" width="45" height="45" rx="22.5" fill="#ECF8FF"/>
<path d="M30.5592 15.1991C28.4303 13.3866 25.2467 13.6874 23.2701 15.7265L22.5006 16.5234L21.731 15.7304C20.1373 14.0819 16.9224 13.0897 14.4419 15.1991C11.9888 17.2929 11.8598 21.0508 14.0552 23.3164L21.6138 31.1212C21.856 31.3712 22.1764 31.5001 22.4967 31.5001C22.817 31.5001 23.1373 31.3751 23.3795 31.1212L30.9382 23.3164C33.1413 21.0508 33.0124 17.2929 30.5592 15.1991ZM30.0475 22.4492L22.5162 30.254L14.9536 22.4492C13.4536 20.9023 13.1411 17.9531 15.2544 16.1523C17.3951 14.3241 19.9107 15.6484 20.8326 16.6015L22.5006 18.3242L24.1686 16.6015C25.0748 15.664 27.6139 14.3359 29.7467 16.1523C31.8561 17.9492 31.5475 20.8984 30.0475 22.4492Z" fill="#1BA0F2"/>
</svg>
