<svg width="40" height="29" viewBox="0 0 40 29" fill="none" xmlns="http://www.w3.org/2000/svg">
<path d="M0.664511 0.000722701C0.297721 0.000428818 2.17598e-07 0.297563 2.17598e-07 0.664353V25.9356C-0.000293666 26.3027 0.297134 26.6004 0.664218 26.5998H19.5206V27.7984C19.5203 27.9744 19.5903 28.1437 19.7149 28.2683C19.8395 28.393 20.0085 28.4629 20.1848 28.4626H39.3324C39.5084 28.4626 39.6771 28.3927 39.8018 28.2681C39.9261 28.1434 39.996 27.9744 39.9957 27.7984V15.0333C39.996 14.857 39.9261 14.6883 39.8018 14.5637C39.6772 14.4391 39.5085 14.3688 39.3324 14.3688H36.831V5.77956C36.8295 5.41394 36.5324 5.11828 36.1668 5.11857H21.1792L16.4944 0.207494C16.3694 0.0755328 16.196 0.000586864 16.0144 0L0.664511 0.000722701ZM1.3255 1.32854H15.73L19.345 5.11931H10.8505C10.4849 5.11872 10.1878 5.41439 10.1863 5.77999C10.186 6.14708 10.4834 6.4448 10.8505 6.44451H35.5026V14.3694H20.1847V14.3691C20.0083 14.3691 19.8393 14.4391 19.7147 14.5637C19.5901 14.6883 19.5202 14.8573 19.5205 15.0336V25.2714H14.0803V18.6137C14.0809 18.2466 13.7832 17.9489 13.4161 17.9492H5.78009C5.413 17.9489 5.11528 18.2463 5.11587 18.6134V25.2714H1.3251L1.3255 1.32854ZM20.8463 15.6969H22.3987L20.8463 17.2323V15.6969ZM24.2855 15.6969H26.2288L23.7412 18.1598H21.7971L24.2855 15.6969ZM28.1156 15.6969H30.0316L27.5687 18.1598H25.6269L28.1156 15.6969ZM31.9078 15.6969H33.8779L31.3603 18.1598H29.4443L31.9078 15.6969ZM35.7712 15.6969H37.7171L35.2295 18.1598H33.2581L35.7712 15.6969ZM38.6685 16.6227V18.1599H37.1152L38.6685 16.6227ZM6.44514 19.2776H12.7526V25.2711H6.44514V19.2776ZM20.8466 19.485H38.6693V27.1338H20.8466V19.485ZM26.638 19.8751C26.4567 19.8665 26.2797 19.9324 26.1484 20.0576C26.0173 20.1828 25.9429 20.3562 25.9426 20.5378V26.204C25.9429 26.4297 26.0581 26.6398 26.248 26.7615C26.4381 26.8835 26.6771 26.9005 26.8822 26.8065L33.2643 23.8945C33.5024 23.7855 33.654 23.5462 33.6511 23.2844C33.6481 23.0225 33.4918 22.7865 33.2514 22.6825L26.8693 19.9283C26.7961 19.8969 26.7177 19.8787 26.638 19.8751V19.8751ZM27.2705 21.545L31.3534 23.3084L27.2705 25.1712V21.545Z" fill="#BEFBFF"/>
<path d="M11.8923 24.3472H7.36055C7.16558 24.3472 6.99508 24.2497 6.92192 24.0549C6.84877 23.8844 6.87325 23.6894 6.99507 23.5432L7.87215 22.5443C8.04265 22.3494 8.38377 22.325 8.57875 22.52L8.99288 22.9341L10.1379 21.7891C10.3329 21.5454 10.7227 21.5698 10.8932 21.8134L12.2576 23.5676C12.3794 23.7137 12.3794 23.9087 12.3062 24.0792C12.2334 24.2497 12.0629 24.3472 11.8924 24.3472L11.8923 24.3472ZM8.23767 22.861L7.36044 23.8599H11.8922L10.5278 22.1057L9.38279 23.2508C9.2123 23.4701 8.87117 23.4944 8.67619 23.2751L8.23767 22.861Z" fill="#BEFBFF"/>
<path d="M8.03761 21.8623C7.61868 21.8623 7.27582 21.5194 7.27582 21.1005C7.27582 20.6815 7.61868 20.3387 8.03761 20.3387C8.45655 20.3387 8.79941 20.6815 8.79941 21.1005C8.79941 21.5194 8.45655 21.8623 8.03761 21.8623ZM8.03761 20.7196C7.82814 20.7196 7.65672 20.891 7.65672 21.1005C7.65672 21.31 7.82814 21.4814 8.03761 21.4814C8.24708 21.4814 8.41851 21.31 8.41851 21.1005C8.41851 20.891 8.24708 20.7196 8.03761 20.7196Z" fill="#BEFBFF"/>
</svg>
