<svg width="37" height="37" viewBox="0 0 37 37" fill="none" xmlns="http://www.w3.org/2000/svg">
<rect x="2.3125" y="2.3125" width="32.375" height="32.375" rx="16.1875" fill="#1275B1"/>
<path d="M14.5902 11.2065C14.5902 12.2871 13.6536 13.1631 12.4982 13.1631C11.3429 13.1631 10.4062 12.2871 10.4062 11.2065C10.4062 10.126 11.3429 9.25 12.4982 9.25C13.6536 9.25 14.5902 10.126 14.5902 11.2065Z" fill="white"/>
<path d="M10.6923 14.6012H14.2684V25.4375H10.6923V14.6012Z" fill="white"/>
<path d="M20.0258 14.6012H16.4497V25.4375H20.0258C20.0258 25.4375 20.0258 22.0261 20.0258 19.8931C20.0258 18.6129 20.4629 17.327 22.2072 17.327C24.1784 17.327 24.1665 19.0024 24.1573 20.3004C24.1453 21.997 24.174 23.7284 24.174 25.4375H27.75V19.7184C27.7197 16.0665 26.7681 14.3838 23.6376 14.3838C21.7784 14.3838 20.626 15.2279 20.0258 15.9915V14.6012Z" fill="white"/>
</svg>
