<svg width="62" height="64" viewBox="0 0 62 64" fill="none" xmlns="http://www.w3.org/2000/svg">
<rect y="0.5" width="62" height="63" rx="12" fill="#ECF8FF"/>
<g clip-path="url(#clip0_2874_36121)">
<path d="M39.75 29.4193C41.1625 29.4193 42.45 28.9155 43.5 28.1018V39.7526C43.5 41.1734 42.375 42.3359 41 42.3359H21C19.625 42.3359 18.5 41.1734 18.5 39.7526V24.2526C18.5 22.8318 19.625 21.6693 21 21.6693H33.625C33.55 22.0826 33.5 22.5218 33.5 22.9609C33.5 24.8726 34.3125 26.5647 35.5875 27.753L31 30.7109L22.625 25.2989C21.9125 24.8468 21 25.3634 21 26.2289C21 26.6034 21.1875 26.9522 21.5 27.1589L30.3375 32.868C30.7375 33.1264 31.2625 33.1264 31.6625 32.868L37.625 29.0189C38.3 29.2643 39 29.4193 39.75 29.4193ZM36 22.9609C36 25.1051 37.675 26.8359 39.75 26.8359C41.825 26.8359 43.5 25.1051 43.5 22.9609C43.5 20.8168 41.825 19.0859 39.75 19.0859C37.675 19.0859 36 20.8168 36 22.9609Z" fill="#2467AA"/>
<path d="M39.75 26.8359C41.8211 26.8359 43.5 25.101 43.5 22.9609C43.5 20.8208 41.8211 19.0859 39.75 19.0859C37.6789 19.0859 36 20.8208 36 22.9609C36 25.101 37.6789 26.8359 39.75 26.8359Z" fill="#E21212"/>
</g>
<defs>
<clipPath id="clip0_2874_36121">
<rect width="30" height="31" fill="white" transform="translate(16 16.5)"/>
</clipPath>
</defs>
</svg>
