<svg width="32" height="34" viewBox="0 0 32 34" fill="none" xmlns="http://www.w3.org/2000/svg">
<path d="M25.3327 14.2444C26.8393 14.2444 28.2127 13.7071 29.3327 12.8391V25.2666C29.3327 26.7822 28.1327 28.0222 26.666 28.0222H5.33268C3.86602 28.0222 2.66602 26.7822 2.66602 25.2666V8.73328C2.66602 7.21772 3.86602 5.97772 5.33268 5.97772H18.7994C18.7194 6.41861 18.666 6.88706 18.666 7.3555C18.666 9.39461 19.5327 11.1995 20.8927 12.4671L15.9993 15.6222L7.06602 9.84928C6.30602 9.36706 5.33268 9.91817 5.33268 10.8413C5.33268 11.2408 5.53268 11.6128 5.86602 11.8333L15.2927 17.9231C15.7193 18.1986 16.2793 18.1986 16.706 17.9231L23.066 13.8173C23.786 14.0791 24.5327 14.2444 25.3327 14.2444ZM21.3327 7.3555C21.3327 9.64261 23.1194 11.4888 25.3327 11.4888C27.546 11.4888 29.3327 9.64261 29.3327 7.3555C29.3327 5.06839 27.546 3.22217 25.3327 3.22217C23.1194 3.22217 21.3327 5.06839 21.3327 7.3555Z" fill="#A6A6AB"/>
<path d="M25.334 11.4888C27.5431 11.4888 29.334 9.63828 29.334 7.3555C29.334 5.07272 27.5431 3.22217 25.334 3.22217C23.1248 3.22217 21.334 5.07272 21.334 7.3555C21.334 9.63828 23.1248 11.4888 25.334 11.4888Z" fill="#E21212"/>
</svg>
