<svg width="23" height="13" viewBox="0 0 23 13" fill="none" xmlns="http://www.w3.org/2000/svg">
<path d="M16.8006 0.301262C16.4106 -0.088738 15.7806 -0.088738 15.3906 0.301262L9.75062 5.94126L11.1606 7.35126L16.8006 1.70126C17.1806 1.32126 17.1806 0.681262 16.8006 0.301262ZM21.0406 0.291262L11.1606 10.1713L7.68063 6.70126C7.29063 6.31126 6.66062 6.31126 6.27063 6.70126C5.88063 7.09126 5.88063 7.72126 6.27063 8.11126L10.4506 12.2913C10.8406 12.6813 11.4706 12.6813 11.8606 12.2913L22.4506 1.71126C22.8406 1.32126 22.8406 0.691262 22.4506 0.301262H22.4406C22.0606 -0.098738 21.4306 -0.0987382 21.0406 0.291262ZM0.620625 8.12126L4.80063 12.3013C5.19063 12.6913 5.82063 12.6913 6.21063 12.3013L6.91062 11.6013L2.03062 6.70126C1.64062 6.31126 1.01063 6.31126 0.620625 6.70126C0.230625 7.09126 0.230625 7.73126 0.620625 8.12126Z" fill="#EB7A2A"/>
</svg>
