<svg width="21" height="20" viewBox="0 0 21 20" fill="none" xmlns="http://www.w3.org/2000/svg">
<path d="M7.5 9.75C6.81 9.75 6.25 10.31 6.25 11C6.25 11.69 6.81 12.25 7.5 12.25C8.19 12.25 8.75 11.69 8.75 11C8.75 10.31 8.19 9.75 7.5 9.75ZM13.5 9.75C12.81 9.75 12.25 10.31 12.25 11C12.25 11.69 12.81 12.25 13.5 12.25C14.19 12.25 14.75 11.69 14.75 11C14.75 10.31 14.19 9.75 13.5 9.75ZM10.5 0C4.98 0 0.5 4.48 0.5 10C0.5 15.52 4.98 20 10.5 20C16.02 20 20.5 15.52 20.5 10C20.5 4.48 16.02 0 10.5 0ZM10.5 18C6.09 18 2.5 14.41 2.5 10C2.5 9.71 2.52 9.42 2.55 9.14C4.91 8.09 6.78 6.16 7.76 3.77C9.57 6.33 12.55 8 15.92 8C16.7 8 17.45 7.91 18.17 7.74C18.38 8.45 18.5 9.21 18.5 10C18.5 14.41 14.91 18 10.5 18Z" fill="#2467AA"/>
</svg>
