<svg width="65" height="64" viewBox="0 0 65 64" fill="none" xmlns="http://www.w3.org/2000/svg">
<path d="M21.0742 20.5715H27.9314L21.0742 13.7144V20.5715Z" fill="#1D1D1F"/>
<path d="M48.5 45.7144H64.5V29.7144H48.5V45.7144ZM51.1203 36.9057C51.5668 36.4593 52.2902 36.4593 52.7367 36.9057L56.1867 40.3557L60.0494 32.6312C60.3341 32.0664 61.0193 31.8399 61.583 32.12C62.1478 32.4021 62.3764 33.0888 62.0943 33.6536L57.5228 42.7965C57.3586 43.1245 57.0463 43.3546 56.6835 43.4138C56.6213 43.4235 56.5601 43.4281 56.4999 43.4281C56.1999 43.4281 55.907 43.3097 55.6917 43.0934L51.1203 38.522C50.6739 38.0755 50.6739 37.3521 51.1203 36.9057L51.1203 36.9057Z" fill="#1D1D1F"/>
<path d="M48.5 27.4282H64.5V11.4282H48.5V27.4282ZM51.1203 18.6196C51.5668 18.1732 52.2902 18.1732 52.7367 18.6196L56.1867 22.0696L60.0494 14.3451C60.3341 13.7803 61.0193 13.5537 61.583 13.8338C62.1478 14.116 62.3764 14.8027 62.0943 15.3675L57.5228 24.5103C57.3586 24.8384 57.0463 25.0685 56.6835 25.1277C56.6213 25.1374 56.5601 25.142 56.4999 25.142C56.1999 25.142 55.907 25.0236 55.6917 24.8073L51.1203 20.2358C50.6739 19.7894 50.6739 19.066 51.1203 18.6195L51.1203 18.6196Z" fill="#1D1D1F"/>
<path d="M30.2148 27.4282H46.2148V11.4282H30.2148V27.4282ZM32.8352 18.6196C33.2816 18.1732 34.0051 18.1732 34.4515 18.6196L37.9015 22.0696L41.7642 14.3451C42.0489 13.7803 42.7341 13.5537 43.2979 13.8338C43.8627 14.116 44.0912 14.8027 43.8091 15.3675L39.2377 24.5103C39.0734 24.8384 38.7612 25.0685 38.3984 25.1277C38.3361 25.1374 38.2749 25.142 38.2147 25.142C37.9147 25.142 37.6219 25.0236 37.4066 24.8073L32.8351 20.2358C32.3887 19.7894 32.3887 19.066 32.8351 18.6195L32.8352 18.6196Z" fill="#1D1D1F"/>
<path d="M30.2148 61.7143C30.2148 62.9765 31.2383 64 32.5006 64H46.2148V48H30.2148V61.7143ZM32.8352 55.1914C33.2816 54.7449 34.0051 54.7449 34.4515 55.1914L37.9015 58.6414L41.7642 50.9168C42.0489 50.352 42.7341 50.1255 43.2979 50.4056C43.8627 50.6878 44.0912 51.3745 43.8091 51.9393L39.2377 61.0821C39.0734 61.4102 38.7612 61.6403 38.3984 61.6995C38.3361 61.7092 38.2749 61.7137 38.2147 61.7137C37.9147 61.7137 37.6219 61.5954 37.4066 61.3791L32.8351 56.8076C32.3887 56.3612 32.3887 55.6377 32.8351 55.1913L32.8352 55.1914Z" fill="#1D1D1F"/>
<path d="M48.5 64H62.2143C63.4765 64 64.5 62.9765 64.5 61.7143V48H48.5V64ZM51.1203 52.2368C50.6739 51.7904 50.6739 51.0669 51.1203 50.6205C51.5668 50.174 52.2902 50.174 52.7367 50.6205L56.4999 54.3842L60.2631 50.621C60.7095 50.1746 61.433 50.1746 61.8794 50.621C62.3258 51.0674 62.3258 51.7909 61.8794 52.2373L58.1162 56.0001L61.8794 59.7633C62.3258 60.2098 62.3258 60.9332 61.8794 61.3797C61.6559 61.6026 61.3636 61.7143 61.0712 61.7143C60.7789 61.7143 60.4865 61.6026 60.2631 61.3797L56.4999 57.6165L52.7367 61.3797C52.5132 61.6026 52.2209 61.7143 51.9285 61.7143C51.6362 61.7143 51.3438 61.6026 51.1203 61.3797C50.6739 60.9332 50.6739 60.2098 51.1203 59.7633L54.8841 56.0001L51.1203 52.2368Z" fill="#1D1D1F"/>
<path d="M30.2148 45.7144H46.2148V29.7144H30.2148V45.7144ZM32.8352 33.9512C32.3888 33.5047 32.3888 32.7813 32.8352 32.3348C33.2816 31.8884 34.0051 31.8884 34.4515 32.3348L38.2147 36.0986L41.9779 32.3353C42.4243 31.8889 43.1478 31.8889 43.5942 32.3353C44.0407 32.7818 44.0407 33.5052 43.5942 33.9517L39.831 37.7145L43.5942 41.4777C44.0407 41.9241 44.0407 42.6476 43.5942 43.094C43.3708 43.317 43.0784 43.4287 42.7861 43.4287C42.4937 43.4287 42.2014 43.317 41.9779 43.094L38.2147 39.3308L34.4515 43.094C34.2281 43.317 33.9357 43.4287 33.6434 43.4287C33.351 43.4287 33.0587 43.317 32.8352 43.094C32.3888 42.6476 32.3888 41.9241 32.8352 41.4777L36.5989 37.7145L32.8352 33.9512Z" fill="#1D1D1F"/>
<path d="M30.2148 2.28571V9.14286H46.2148V0H32.5006C31.2383 0 30.2148 1.02346 30.2148 2.28571Z" fill="#1D1D1F"/>
<path d="M62.2143 0H48.5V9.14286H64.5V2.28571C64.5 1.02346 63.4765 0 62.2143 0Z" fill="#1D1D1F"/>
<path d="M18.7857 20.5715V13.7144H2.78571C1.52346 13.7144 0.5 14.7378 0.5 16.0001V48.0001C0.5 49.2623 1.52346 50.2858 2.78571 50.2858H25.6429C26.9051 50.2858 27.9286 49.2623 27.9286 48.0001V22.8572H21.0714C19.8092 22.8572 18.7857 21.8337 18.7857 20.5715ZM22.2143 43.4286H6.21429C5.58266 43.4286 5.07143 42.9174 5.07143 42.2858C5.07143 41.6542 5.58266 41.1429 6.21429 41.1429H22.2143C22.8459 41.1429 23.3571 41.6542 23.3571 42.2858C23.3571 42.9174 22.8459 43.4286 22.2143 43.4286ZM22.2143 38.8572H6.21429C5.58266 38.8572 5.07143 38.346 5.07143 37.7144C5.07143 37.0827 5.58266 36.5715 6.21429 36.5715H22.2143C22.8459 36.5715 23.3571 37.0827 23.3571 37.7144C23.3571 38.346 22.8459 38.8572 22.2143 38.8572ZM22.2143 34.2858H6.21429C5.58266 34.2858 5.07143 33.7746 5.07143 33.1429C5.07143 32.5113 5.58266 32.0001 6.21429 32.0001H22.2143C22.8459 32.0001 23.3571 32.5113 23.3571 33.1429C23.3571 33.7746 22.8459 34.2858 22.2143 34.2858ZM23.3571 28.5715C23.3571 29.2031 22.8459 29.7144 22.2143 29.7144H6.21429C5.58266 29.7144 5.07143 29.2031 5.07143 28.5715C5.07143 27.9399 5.58266 27.4286 6.21429 27.4286H22.2143C22.8459 27.4286 23.3571 27.9399 23.3571 28.5715Z" fill="#1D1D1F"/>
</svg>
