<svg width="67" height="64" viewBox="0 0 67 64" fill="none" xmlns="http://www.w3.org/2000/svg">
<path d="M33.5459 11.9652C35.0071 11.9652 36.1895 10.7826 36.1895 9.32159V2.6436C36.1895 1.18298 35.007 0 33.5459 0C32.0849 0 30.9023 1.18254 30.9023 2.6436V9.32209C30.9023 10.7827 32.0849 11.9652 33.5459 11.9652Z" fill="#1D1D1F"/>
<path d="M19.4232 16.2782C19.4232 15.5824 19.1451 14.887 18.6579 14.3998L13.9278 9.66966C12.8845 8.62639 11.2147 8.62639 10.1715 9.66966C9.6843 10.1569 9.40625 10.8522 9.40625 11.548C9.40625 12.2439 9.6843 12.9392 10.1715 13.4264L14.9017 18.1566C15.3889 18.6438 16.0842 18.9218 16.78 18.9218C17.4759 18.9218 18.1712 18.6438 18.6584 18.1566C19.1447 17.6694 19.4232 16.9736 19.4232 16.2782Z" fill="#1D1D1F"/>
<path d="M9.82159 30.3999H3.1436C1.68248 30.3999 0.5 31.5824 0.5 33.0435C0.5 34.5046 1.68254 35.6871 3.1436 35.6871H9.82209C11.2832 35.6871 12.4657 34.5046 12.4657 33.0435C12.4652 31.5824 11.2827 30.3999 9.82159 30.3999Z" fill="#1D1D1F"/>
<path d="M63.9432 30.3999H57.2647C55.8036 30.3999 54.6211 31.5824 54.6211 33.0435C54.6211 34.5046 55.8036 35.6871 57.2647 35.6871H63.9432C65.4043 35.6871 66.5868 34.5046 66.5868 33.0435C66.5868 31.5824 65.4042 30.3999 63.9432 30.3999Z" fill="#1D1D1F"/>
<path d="M57.6849 11.5476C57.6849 10.8517 57.4068 10.1564 56.9196 9.66918C55.8764 8.6259 54.2066 8.6259 53.1634 9.66918L48.4332 14.3994C47.946 14.8865 47.668 15.5819 47.668 16.2777C47.668 16.9736 47.946 17.6689 48.4332 18.1561C48.9204 18.6433 49.6158 18.9214 50.3116 18.9214C51.0074 18.9214 51.7028 18.6433 52.19 18.1561L56.9201 13.4259C57.4064 12.9387 57.6849 12.2434 57.6849 11.5476Z" fill="#1D1D1F"/>
<path d="M43.7012 20.3133C40.7795 18.0177 37.2319 16.7656 33.4752 16.7656C32.1533 16.7656 30.8316 16.9049 29.5797 17.2528C23.7363 18.644 19.0755 23.2354 17.6145 29.0094C16.0146 35.5487 18.2404 42.0877 23.5277 46.1224C24.2236 46.679 24.6409 47.5836 24.6409 48.6268V50.7139H42.38V48.4875C42.38 47.5136 42.7973 46.6091 43.4233 46.1224C47.5275 42.9921 49.8926 38.2615 49.8926 33.1833C49.962 28.1042 47.6662 23.4435 43.7013 20.3126L43.7012 20.3133ZM40.223 31.8607L33.6837 38.4C33.2664 38.8173 32.7099 39.026 32.1533 39.026C31.5968 39.026 31.0402 38.8173 30.6229 38.4L26.8661 34.7825C26.0315 33.9478 26.0315 32.5561 26.8661 31.6522C27.7008 30.8175 29.0925 30.8175 29.9964 31.6522L32.1528 33.8086L37.1615 28.7999C37.9961 27.9653 39.3878 27.9653 40.2918 28.7999C41.1269 29.635 41.1269 31.0262 40.2229 31.8609L40.223 31.8607Z" fill="#1D1D1F"/>
<path d="M24.7072 58.4347C24.7072 59.7566 25.7505 60.7998 27.0723 60.7998H30.0638L30.3419 61.565C30.7597 63.0261 32.081 64.0001 33.5421 64.0001C35.0032 64.0001 36.3245 63.0262 36.7424 61.565L37.0204 60.7998H40.0115C41.3333 60.7998 42.3766 59.7565 42.3766 58.4347V55.0957H24.707L24.7072 58.4347Z" fill="#1D1D1F"/>
</svg>
