<svg width="66" height="64" viewBox="0 0 66 64" fill="none" xmlns="http://www.w3.org/2000/svg">
<path d="M32.7096 49.7933L27.541 54.961L26.9727 54.6685L27.6539 57.393C31.4671 58.9224 38.0931 59.8653 45.1806 59.8653C58.335 59.8653 65.5125 56.8801 65.5125 55.3471V47.1826C61.6474 49.5864 53.38 50.8289 45.1806 50.8289C40.667 50.8289 36.3847 50.4684 32.7093 49.7932L32.7096 49.7933ZM62.8254 50.5704L63.6816 52.662C63.015 52.9343 62.2595 53.1966 61.4361 53.4371L60.8012 51.2682C61.55 51.0494 62.2302 50.8144 62.8253 50.5703L62.8254 50.5704ZM58.6868 51.8028L59.1724 54.009C58.4518 54.1683 57.6929 54.314 56.8987 54.4472L56.5251 52.2183C57.2795 52.0917 58.0011 51.953 58.6868 51.8028L58.6868 51.8028ZM54.3345 52.5426L54.6169 54.7834C53.8781 54.8762 53.1157 54.9594 52.3331 55.0321L52.1264 52.782C52.8818 52.7119 53.6195 52.6327 54.3345 52.5425L54.3345 52.5426Z" fill="#1D1D1F"/>
<path d="M11.7429 54.518C10.9694 54.2694 10.2245 53.9598 9.50756 53.6099L7.28125 62.5142L11.682 60.7543L14.116 63.9998L15.537 57.6063H12.7323L11.7429 54.518Z" fill="#1D1D1F"/>
<path d="M22.1467 54.5182L21.1563 57.6063H18.3516L19.7726 63.9993L22.2066 60.7538L26.6073 62.5137L24.381 53.6094C23.665 53.9598 22.9208 54.2684 22.1466 54.5181L22.1467 54.5182Z" fill="#1D1D1F"/>
<path d="M9.78424 51.2201C10.7635 51.7667 11.8254 52.2049 12.9425 52.521L13.5264 52.6859L14.3781 55.3474H19.5074L20.3601 52.6864L20.9441 52.5216C22.061 52.2054 23.123 51.7672 24.1023 51.2206L24.6308 50.9236L27.1102 52.1988L30.7374 48.5716L29.4611 46.0922L29.7581 45.5622C30.3058 44.5839 30.7455 43.521 31.0607 42.404L31.2256 41.82L33.8865 40.9694V35.84L31.2256 34.9873L31.0607 34.4034C30.7455 33.2895 30.3073 32.227 29.7581 31.2452L29.4621 30.7167L30.7374 28.2373L27.1102 24.61L24.6308 25.8853L24.1023 25.5893C23.1205 25.0402 22.058 24.601 20.9441 24.2868L20.3601 24.1219L19.5084 21.4609H14.3791L13.5264 24.1219L12.9425 24.2868C11.8285 24.6019 10.7661 25.0401 9.78424 25.5893L9.25577 25.8853L6.77631 24.61L3.1491 28.2373L4.42438 30.7167L4.12838 31.2452C3.57924 32.227 3.14003 33.2895 2.82585 34.4034L2.66096 34.9873L0 35.839V40.9684L2.66096 41.8201L2.82585 42.404C3.14101 43.5209 3.57921 44.584 4.12838 45.5622L4.42539 46.0922L3.1491 48.5716L6.77631 52.1989L9.25577 50.9236L9.78424 51.2201ZM5.64777 38.4043C5.64777 32.1655 10.7045 27.1088 16.9433 27.1088C23.182 27.1088 28.2388 32.1655 28.2388 38.4043C28.2388 44.643 23.182 49.6997 16.9433 49.6997C10.7045 49.6997 5.64777 44.643 5.64777 38.4043Z" fill="#1D1D1F"/>
<path d="M25.9538 22.665L27.1105 22.0695V20.3312H30.4992V22.5903H28.2875L29.9636 24.2665C33.908 25.3542 39.4261 25.979 45.1834 25.979C58.3378 25.979 65.5153 22.9937 65.5153 21.4608C65.5153 20.8476 63.997 19.5699 59.8676 18.5104V4.5182H53.0903V18.4717H48.5721V9.03639H41.7948V18.4717H37.2766V0H30.4993V18.5104C26.371 19.5699 24.8516 20.8476 24.8516 21.4608C24.8516 21.7215 25.1556 22.1577 25.9539 22.665L25.9538 22.665ZM63.256 20.3313V22.5904H59.8673V20.3313H63.256ZM53.09 20.3313V22.5904H48.5718V20.3313H53.09ZM41.7946 20.3313V22.5904H37.2764V20.3313H41.7946Z" fill="#1D1D1F"/>
<path d="M36.1459 39.0055V42.6166L33.0578 43.6059C32.7764 44.4803 32.43 45.324 32.0195 46.1237L32.7255 47.4964C36.3501 48.1958 40.6379 48.5694 45.1823 48.5694C58.3367 48.5694 65.5142 45.5842 65.5142 44.0512V35.8867C61.6491 38.2905 53.3817 39.533 45.1823 39.533C42.0589 39.533 38.9743 39.3454 36.1459 39.0056L36.1459 39.0055ZM62.8265 39.2743L63.6828 41.3659C63.0161 41.6382 62.2607 41.9004 61.4372 42.141L60.8024 39.9721C61.5512 39.7533 62.2314 39.5183 62.8265 39.2742L62.8265 39.2743ZM58.688 40.5067L59.1736 42.7128C58.453 42.8722 57.6941 43.0179 56.8999 43.151L56.5263 40.9222C57.2806 40.7956 58.0023 40.6569 58.688 40.5066L58.688 40.5067ZM54.3357 41.2464L54.6181 43.4873C53.8793 43.5801 53.1169 43.6633 52.3343 43.7359L52.1276 41.4859C52.8829 41.4158 53.6206 41.3366 54.3357 41.2463L54.3357 41.2464Z" fill="#1D1D1F"/>
<path d="M32.9413 27.2437L33.5015 27.8039L32.0195 30.6833C32.4295 31.485 32.7774 32.3292 33.0578 33.2011L36.147 34.1914V36.7309C38.9573 37.0809 42.0479 37.274 45.1834 37.274C58.3378 37.274 65.5152 34.2888 65.5152 32.7558V24.5913C61.6501 26.9941 53.3827 28.2376 45.1834 28.2376C40.7318 28.2376 36.5266 27.8877 32.9414 27.2437L32.9413 27.2437ZM62.8285 27.9799L63.6847 30.0705C63.0161 30.3448 62.2602 30.605 61.4383 30.8456L60.8059 28.6767C61.5522 28.4589 62.232 28.2249 62.8285 27.9798L62.8285 27.9799ZM58.6899 29.2123L59.1756 31.4185C58.455 31.5768 57.696 31.7236 56.9019 31.8567L56.5282 29.6278C57.2826 29.5017 58.0042 29.3625 58.69 29.2123L58.6899 29.2123ZM54.3366 29.95L54.62 32.1909C53.8812 32.2847 53.1178 32.3669 52.3347 32.4395L52.1279 30.1905C52.8848 30.1204 53.6215 30.0402 54.3366 29.95L54.3366 29.95Z" fill="#1D1D1F"/>
<path d="M22.9216 33.0864L13.5545 42.4541L10.9647 39.8637L9.36719 41.4612L13.5546 45.6482L24.5194 34.6839L22.9216 33.0864Z" fill="#1D1D1F"/>
</svg>
