<svg width="81" height="81" viewBox="0 0 81 81" fill="none" xmlns="http://www.w3.org/2000/svg">
<path d="M26.7503 56.1429C26.7503 60.4627 23.0568 63.9643 18.5003 63.9643C13.9438 63.9643 10.2504 60.4627 10.2504 56.1429C10.2504 51.8231 13.9438 48.3215 18.5003 48.3215C23.0568 48.3215 26.7503 51.8231 26.7503 56.1429Z" fill="#448087"/>
<path d="M23.9705 63.9643H13.0295C6.94698 63.9643 2 68.6415 2 74.3929C2 75.8338 3.23012 77 4.74998 77H32.2498C33.7697 77 34.9998 75.8338 34.9998 74.3929C34.9998 68.6415 30.053 63.9643 23.9703 63.9643H23.9705Z" fill="#448087"/>
<path d="M62.5001 45.7143H48.7502V41.299C49.6501 40.8882 50.5132 40.4162 51.3314 39.8773L52.9145 40.7508C53.5467 41.1023 54.3042 41.1977 55.0089 41.0156C55.7166 40.8364 56.3194 40.3958 56.6834 39.7923L62.136 30.7617C62.8855 29.5192 62.4399 27.9357 61.1343 27.2146L59.5377 26.3324C59.5825 25.8371 59.6046 25.3471 59.6046 24.8571C59.6046 24.3671 59.5831 23.8771 59.5389 23.3819L61.1355 22.4996C62.4405 21.7792 62.8862 20.1957 62.1373 18.9526L56.6846 9.92191C56.3206 9.31843 55.7178 8.8779 55.0101 8.69866C54.3079 8.52058 53.5492 8.61195 52.9157 8.96344L51.3327 9.83695C50.4991 9.28817 49.6206 8.80457 48.7024 8.38789L48.7018 6.60714C48.7018 5.16739 47.4705 4 45.9518 4H35.0489C33.5302 4 32.2989 5.16739 32.2989 6.60714V8.38789C31.3806 8.80399 30.5021 9.28759 29.6686 9.83695L28.0856 8.96344C27.4533 8.61194 26.6946 8.51941 25.9912 8.69866C25.2822 8.87848 24.6794 9.31844 24.3154 9.92191L18.8634 18.9532C18.1127 20.1956 18.5596 21.7792 19.8652 22.5002L21.4605 23.3825C21.4163 23.8771 21.3948 24.3671 21.3948 24.8571C21.3948 25.3471 21.4163 25.8371 21.4605 26.3324L19.8652 27.2146C18.5602 27.9351 18.1127 29.5186 18.8634 30.7617L24.3148 39.7923C24.6788 40.3958 25.2816 40.8364 25.9893 41.0156C26.6952 41.1989 27.4539 41.1023 28.0837 40.7508L29.6668 39.8773C30.4856 40.4162 31.3493 40.8887 32.2499 41.3002L32.2505 53.5357H29.5005V58.75H35.0004C36.5203 58.75 37.7504 57.5838 37.7504 56.1429V45.7143H43.2504V48.3214C43.2504 49.7623 44.4805 50.9286 46.0004 50.9286H59.7503V53.5357H65.2503V48.3214C65.2503 46.8805 64.0201 45.7143 62.5003 45.7143L62.5001 45.7143ZM35.17 24.8572C35.17 21.9817 37.637 19.6429 40.67 19.6429C43.703 19.6429 46.17 21.9817 46.17 24.8572C46.17 27.7326 43.703 30.0715 40.67 30.0715C37.6376 30.0715 35.17 27.7326 35.17 24.8572Z" fill="#448087"/>
<path d="M76.2499 58.75C76.2499 57.3103 75.0198 56.1429 73.5 56.1429H51.5001C49.9802 56.1429 48.7501 57.3103 48.7501 58.75V69.1786H76.2499V58.75Z" fill="#448087"/>
<path d="M76.2501 77H48.7502C47.2304 77 46.0002 75.8326 46.0002 74.3929C46.0002 72.9531 47.2304 71.7857 48.7502 71.7857H76.2501C77.7699 71.7857 79 72.9531 79 74.3929C79 75.8326 77.7699 77 76.2501 77Z" fill="#448087"/>
</svg>
