<svg width="85" height="84" viewBox="0 0 85 84" fill="none" xmlns="http://www.w3.org/2000/svg">
<path d="M42.4844 37.32C43.8177 37.32 45.0444 37.5467 46.1644 38C47.311 38.4533 48.2977 39.08 49.1244 39.88C49.9777 40.68 50.631 41.64 51.0844 42.76C51.5644 43.88 51.8044 45.1067 51.8044 46.44C51.8044 47.8533 51.5377 49.1467 51.0044 50.32C50.4977 51.4933 49.7777 52.4933 48.8444 53.32C47.9377 54.1733 46.8577 54.8267 45.6044 55.28C44.351 55.7333 43.0044 55.96 41.5644 55.96C39.511 55.96 37.671 55.4933 36.0444 54.56C34.4177 53.6533 33.1777 52.4133 32.3244 50.84L34.9644 48.32C35.711 49.44 36.671 50.3467 37.8444 51.04C39.0177 51.7333 40.271 52.08 41.6044 52.08C43.2577 52.08 44.6177 51.5733 45.6844 50.56C46.751 49.5467 47.2844 48.2 47.2844 46.52C47.2844 45.72 47.1377 45 46.8444 44.36C46.5777 43.6933 46.2044 43.1333 45.7244 42.68C45.2444 42.2 44.671 41.8267 44.0044 41.56C43.3644 41.2933 42.6577 41.16 41.8844 41.16C40.871 41.16 39.9244 41.3867 39.0444 41.84C38.1644 42.2667 37.4444 42.9067 36.8844 43.76H33.0044C33.031 43.6533 33.0844 43.3333 33.1644 42.8C33.271 42.2667 33.4044 41.6 33.5644 40.8C33.7244 40 33.8977 39.1067 34.0844 38.12C34.271 37.1333 34.471 36.1333 34.6844 35.12C35.1644 32.7467 35.6844 30.0933 36.2444 27.16H50.1244V31.2H39.4444L38.0044 38.96C38.4577 38.4533 39.0577 38.0533 39.8044 37.76C40.5777 37.4667 41.471 37.32 42.4844 37.32Z" fill="black"/>
<circle cx="42.6" cy="42" r="41" stroke="#A72037" stroke-width="2"/>
</svg>
