<svg width="48" height="48" viewBox="0 0 48 48" fill="none" xmlns="http://www.w3.org/2000/svg">
<circle cx="24" cy="24" r="12" fill="#16601A"/>
<path d="M26.9238 27.1094V28H21.3398V27.2207L24.1348 24.1094C24.4785 23.7266 24.7441 23.4023 24.9316 23.1367C25.123 22.8672 25.2559 22.627 25.3301 22.416C25.4082 22.2012 25.4473 21.9824 25.4473 21.7598C25.4473 21.4785 25.3887 21.2246 25.2715 20.998C25.1582 20.7676 24.9902 20.584 24.7676 20.4473C24.5449 20.3105 24.2754 20.2422 23.959 20.2422C23.5801 20.2422 23.2637 20.3164 23.0098 20.4648C22.7598 20.6094 22.5723 20.8125 22.4473 21.0742C22.3223 21.3359 22.2598 21.6367 22.2598 21.9766H21.1758C21.1758 21.4961 21.2812 21.0566 21.4922 20.6582C21.7031 20.2598 22.0156 19.9434 22.4297 19.709C22.8438 19.4707 23.3535 19.3516 23.959 19.3516C24.498 19.3516 24.959 19.4473 25.3418 19.6387C25.7246 19.8262 26.0176 20.0918 26.2207 20.4355C26.4277 20.7754 26.5312 21.1738 26.5312 21.6309C26.5312 21.8809 26.4883 22.1348 26.4023 22.3926C26.3203 22.6465 26.2051 22.9004 26.0566 23.1543C25.9121 23.4082 25.7422 23.6582 25.5469 23.9043C25.3555 24.1504 25.1504 24.3926 24.9316 24.6309L22.6465 27.1094H26.9238Z" fill="white"/>
</svg>
