<svg width="48" height="48" viewBox="0 0 48 48" fill="none" xmlns="http://www.w3.org/2000/svg">
<circle cx="24" cy="24" r="12" fill="#16601A"/>
<path d="M25.4941 19.457H25.5879V20.377H25.4941C24.9199 20.377 24.4395 20.4707 24.0527 20.6582C23.666 20.8418 23.3594 21.0898 23.1328 21.4023C22.9062 21.7109 22.7422 22.0586 22.6406 22.4453C22.543 22.832 22.4941 23.2246 22.4941 23.623V24.877C22.4941 25.2559 22.5391 25.5918 22.6289 25.8848C22.7188 26.1738 22.8418 26.418 22.998 26.6172C23.1543 26.8164 23.3301 26.9668 23.5254 27.0684C23.7246 27.1699 23.9316 27.2207 24.1465 27.2207C24.3965 27.2207 24.6191 27.1738 24.8145 27.0801C25.0098 26.9824 25.1738 26.8477 25.3066 26.6758C25.4434 26.5 25.5469 26.293 25.6172 26.0547C25.6875 25.8164 25.7227 25.5547 25.7227 25.2695C25.7227 25.0156 25.6914 24.7715 25.6289 24.5371C25.5664 24.2988 25.4707 24.0879 25.3418 23.9043C25.2129 23.7168 25.0508 23.5703 24.8555 23.4648C24.6641 23.3555 24.4355 23.3008 24.1699 23.3008C23.8691 23.3008 23.5879 23.375 23.3262 23.5234C23.0684 23.668 22.8555 23.8594 22.6875 24.0977C22.5234 24.332 22.4297 24.5879 22.4062 24.8652L21.832 24.8594C21.8867 24.4219 21.9883 24.0488 22.1367 23.7402C22.2891 23.4277 22.4766 23.1738 22.6992 22.9785C22.9258 22.7793 23.1777 22.6348 23.4551 22.5449C23.7363 22.4512 24.0332 22.4043 24.3457 22.4043C24.7715 22.4043 25.1387 22.4844 25.4473 22.6445C25.7559 22.8047 26.0098 23.0195 26.209 23.2891C26.4082 23.5547 26.5547 23.8555 26.6484 24.1914C26.7461 24.5234 26.7949 24.8652 26.7949 25.2168C26.7949 25.6191 26.7383 25.9961 26.625 26.3477C26.5117 26.6992 26.3418 27.0078 26.1152 27.2734C25.8926 27.5391 25.6172 27.7461 25.2891 27.8945C24.9609 28.043 24.5801 28.1172 24.1465 28.1172C23.6855 28.1172 23.2832 28.0234 22.9395 27.8359C22.5957 27.6445 22.3105 27.3906 22.084 27.0742C21.8574 26.7578 21.6875 26.4062 21.5742 26.0195C21.4609 25.6328 21.4043 25.2402 21.4043 24.8418V24.332C21.4043 23.7305 21.4648 23.1406 21.5859 22.5625C21.707 21.9844 21.916 21.4609 22.2129 20.9922C22.5137 20.5234 22.9297 20.1504 23.4609 19.873C23.9922 19.5957 24.6699 19.457 25.4941 19.457Z" fill="white"/>
</svg>
