<svg width="48" height="48" viewBox="0 0 48 48" fill="none" xmlns="http://www.w3.org/2000/svg">
<circle cx="24" cy="24" r="12" fill="#16601A"/>
<path d="M26.7129 25.6914C26.7129 26.2109 26.5918 26.6523 26.3496 27.0156C26.1113 27.375 25.7871 27.6484 25.377 27.8359C24.9707 28.0234 24.5117 28.1172 24 28.1172C23.4883 28.1172 23.0273 28.0234 22.6172 27.8359C22.207 27.6484 21.8828 27.375 21.6445 27.0156C21.4062 26.6523 21.2871 26.2109 21.2871 25.6914C21.2871 25.3516 21.3516 25.041 21.4805 24.7598C21.6133 24.4746 21.7988 24.2266 22.0371 24.0156C22.2793 23.8047 22.5645 23.6426 22.8926 23.5293C23.2246 23.4121 23.5898 23.3535 23.9883 23.3535C24.5117 23.3535 24.9785 23.4551 25.3887 23.6582C25.7988 23.8574 26.1211 24.1328 26.3555 24.4844C26.5938 24.8359 26.7129 25.2383 26.7129 25.6914ZM25.623 25.668C25.623 25.3516 25.5547 25.0723 25.418 24.8301C25.2812 24.584 25.0898 24.3926 24.8438 24.2559C24.5977 24.1191 24.3125 24.0508 23.9883 24.0508C23.6562 24.0508 23.3691 24.1191 23.127 24.2559C22.8887 24.3926 22.7031 24.584 22.5703 24.8301C22.4375 25.0723 22.3711 25.3516 22.3711 25.668C22.3711 25.9961 22.4355 26.2773 22.5645 26.5117C22.6973 26.7422 22.8848 26.9199 23.127 27.0449C23.373 27.166 23.6641 27.2266 24 27.2266C24.3359 27.2266 24.625 27.166 24.8672 27.0449C25.1094 26.9199 25.2949 26.7422 25.4238 26.5117C25.5566 26.2773 25.623 25.9961 25.623 25.668ZM26.5137 21.6895C26.5137 22.1035 26.4043 22.4766 26.1855 22.8086C25.9668 23.1406 25.668 23.4023 25.2891 23.5938C24.9102 23.7852 24.4805 23.8809 24 23.8809C23.5117 23.8809 23.0762 23.7852 22.6934 23.5938C22.3145 23.4023 22.0176 23.1406 21.8027 22.8086C21.5879 22.4766 21.4805 22.1035 21.4805 21.6895C21.4805 21.1934 21.5879 20.7715 21.8027 20.4238C22.0215 20.0762 22.3203 19.8105 22.6992 19.627C23.0781 19.4434 23.5098 19.3516 23.9941 19.3516C24.4824 19.3516 24.916 19.4434 25.2949 19.627C25.6738 19.8105 25.9707 20.0762 26.1855 20.4238C26.4043 20.7715 26.5137 21.1934 26.5137 21.6895ZM25.4297 21.707C25.4297 21.4219 25.3691 21.1699 25.248 20.9512C25.127 20.7324 24.959 20.5605 24.7441 20.4355C24.5293 20.3066 24.2793 20.2422 23.9941 20.2422C23.709 20.2422 23.459 20.3027 23.2441 20.4238C23.0332 20.541 22.8672 20.709 22.7461 20.9277C22.6289 21.1465 22.5703 21.4062 22.5703 21.707C22.5703 22 22.6289 22.2559 22.7461 22.4746C22.8672 22.6934 23.0352 22.8633 23.25 22.9844C23.4648 23.1055 23.7148 23.166 24 23.166C24.2852 23.166 24.5332 23.1055 24.7441 22.9844C24.959 22.8633 25.127 22.6934 25.248 22.4746C25.3691 22.2559 25.4297 22 25.4297 21.707Z" fill="white"/>
</svg>
