<svg width="48" height="48" viewBox="0 0 48 48" fill="none" xmlns="http://www.w3.org/2000/svg">
<circle cx="24" cy="24" r="12" fill="#16601A"/>
<path d="M22.916 23.2012H23.6895C24.0684 23.2012 24.3809 23.1387 24.627 23.0137C24.877 22.8848 25.0625 22.7109 25.1836 22.4922C25.3086 22.2695 25.3711 22.0195 25.3711 21.7422C25.3711 21.4141 25.3164 21.1387 25.207 20.916C25.0977 20.6934 24.9336 20.5254 24.7148 20.4121C24.4961 20.2988 24.2188 20.2422 23.8828 20.2422C23.5781 20.2422 23.3086 20.3027 23.0742 20.4238C22.8438 20.541 22.6621 20.709 22.5293 20.9277C22.4004 21.1465 22.3359 21.4043 22.3359 21.7012H21.252C21.252 21.2676 21.3613 20.873 21.5801 20.5176C21.7988 20.1621 22.1055 19.8789 22.5 19.668C22.8984 19.457 23.3594 19.3516 23.8828 19.3516C24.3984 19.3516 24.8496 19.4434 25.2363 19.627C25.623 19.8066 25.9238 20.0762 26.1387 20.4355C26.3535 20.791 26.4609 21.2344 26.4609 21.7656C26.4609 21.9805 26.4102 22.2109 26.3086 22.457C26.2109 22.6992 26.0566 22.9258 25.8457 23.1367C25.6387 23.3477 25.3691 23.5215 25.0371 23.6582C24.7051 23.791 24.3066 23.8574 23.8418 23.8574H22.916V23.2012ZM22.916 24.0918V23.4414H23.8418C24.3848 23.4414 24.834 23.5059 25.1895 23.6348C25.5449 23.7637 25.8242 23.9355 26.0273 24.1504C26.2344 24.3652 26.3789 24.6016 26.4609 24.8594C26.5469 25.1133 26.5898 25.3672 26.5898 25.6211C26.5898 26.0195 26.5215 26.373 26.3848 26.6816C26.252 26.9902 26.0625 27.252 25.8164 27.4668C25.5742 27.6816 25.2891 27.8438 24.9609 27.9531C24.6328 28.0625 24.2754 28.1172 23.8887 28.1172C23.5176 28.1172 23.168 28.0645 22.8398 27.959C22.5156 27.8535 22.2285 27.7012 21.9785 27.502C21.7285 27.2988 21.5332 27.0508 21.3926 26.7578C21.252 26.4609 21.1816 26.123 21.1816 25.7441H22.2656C22.2656 26.041 22.3301 26.3008 22.459 26.5234C22.5918 26.7461 22.7793 26.9199 23.0215 27.0449C23.2676 27.166 23.5566 27.2266 23.8887 27.2266C24.2207 27.2266 24.5059 27.1699 24.7441 27.0566C24.9863 26.9395 25.1719 26.7637 25.3008 26.5293C25.4336 26.2949 25.5 26 25.5 25.6445C25.5 25.2891 25.4258 24.998 25.2773 24.7715C25.1289 24.541 24.918 24.3711 24.6445 24.2617C24.375 24.1484 24.0566 24.0918 23.6895 24.0918H22.916Z" fill="white"/>
</svg>
