<svg width="48" height="48" viewBox="0 0 48 48" fill="none" xmlns="http://www.w3.org/2000/svg">
<circle cx="24" cy="24" r="12" fill="#16601A"/>
<path d="M22.7051 23.9395L21.8379 23.7168L22.2656 19.4688H26.6426V20.4707H23.1855L22.9277 22.791C23.084 22.7012 23.2812 22.6172 23.5195 22.5391C23.7617 22.4609 24.0391 22.4219 24.3516 22.4219C24.7461 22.4219 25.0996 22.4902 25.4121 22.627C25.7246 22.7598 25.9902 22.9512 26.209 23.2012C26.4316 23.4512 26.6016 23.752 26.7188 24.1035C26.8359 24.4551 26.8945 24.8477 26.8945 25.2812C26.8945 25.6914 26.8379 26.0684 26.7246 26.4121C26.6152 26.7559 26.4492 27.0566 26.2266 27.3145C26.0039 27.5684 25.7227 27.7656 25.3828 27.9062C25.0469 28.0469 24.6504 28.1172 24.1934 28.1172C23.8496 28.1172 23.5234 28.0703 23.2148 27.9766C22.9102 27.8789 22.6367 27.7324 22.3945 27.5371C22.1562 27.3379 21.9609 27.0918 21.8086 26.7988C21.6602 26.502 21.5664 26.1543 21.5273 25.7559H22.5586C22.6055 26.0762 22.6992 26.3457 22.8398 26.5645C22.9805 26.7832 23.1641 26.9492 23.3906 27.0625C23.6211 27.1719 23.8887 27.2266 24.1934 27.2266C24.4512 27.2266 24.6797 27.1816 24.8789 27.0918C25.0781 27.002 25.2461 26.873 25.3828 26.7051C25.5195 26.5371 25.623 26.334 25.6934 26.0957C25.7676 25.8574 25.8047 25.5898 25.8047 25.293C25.8047 25.0234 25.7676 24.7734 25.6934 24.543C25.6191 24.3125 25.5078 24.1113 25.3594 23.9395C25.2148 23.7676 25.0371 23.6348 24.8262 23.541C24.6152 23.4434 24.373 23.3945 24.0996 23.3945C23.7363 23.3945 23.4609 23.4434 23.2734 23.541C23.0898 23.6387 22.9004 23.7715 22.7051 23.9395Z" fill="white"/>
</svg>
