<svg width="79" height="80" viewBox="0 0 79 80" fill="none" xmlns="http://www.w3.org/2000/svg">
<path d="M78.525 31.0649C78.5198 35.7298 76.6646 40.202 73.366 43.5006C70.0675 46.7985 65.5958 48.6544 60.931 48.6595C60.1994 48.6595 59.6058 48.0666 59.6058 47.3343C59.6058 46.6027 60.1994 46.0091 60.931 46.0091C65.3257 46.0194 69.5022 44.0949 72.3489 40.7469C75.1964 37.3995 76.4252 32.9682 75.7098 28.632C74.9942 24.2963 72.4061 20.4954 68.6346 18.2402C64.8624 15.9845 60.2893 15.5038 56.1309 16.9259C55.7522 17.0523 55.3364 17.0029 54.9975 16.7911C54.6593 16.5781 54.4354 16.2232 54.3885 15.826C53.8219 11.0367 50.9763 6.8158 46.7492 4.49459C42.5221 2.17273 37.4336 2.03604 33.0877 4.12751C28.7425 6.21888 25.6743 10.2805 24.8515 15.0327C26.7813 15.9074 28.5378 17.1241 30.035 18.6239C30.5516 19.1417 30.5509 19.9792 30.0337 20.4964C29.5171 21.0136 28.679 21.0143 28.1611 20.4977C26.6903 19.0274 24.9273 17.8819 22.9868 17.1342C22.9617 17.1265 22.9354 17.1246 22.911 17.115C22.0607 16.7896 21.1834 16.5413 20.2888 16.3731C20.2613 16.368 20.233 16.3654 20.2054 16.3609C19.7979 16.2871 19.3891 16.2287 18.9784 16.1896C18.5208 16.1479 18.0601 16.1222 17.5948 16.1222C12.2561 16.1222 7.32242 18.9703 4.65341 23.594C1.98375 28.2172 1.98375 33.9138 4.65341 38.537C7.32242 43.1609 12.2561 46.0088 17.5948 46.0088C18.3264 46.0088 18.92 46.6024 18.92 47.334C18.92 48.0662 18.3264 48.6592 17.5948 48.6592C12.9318 48.6541 8.46076 46.7995 5.16287 43.5034C1.86497 40.2068 0.00836323 35.737 0.000641746 31.0741L0 31.0651V31.0645C0.00513397 26.4002 1.86104 21.928 5.15894 18.6299C8.45749 15.3314 12.9299 13.4761 17.5946 13.471C17.9668 13.471 18.3358 13.4864 18.7036 13.5095C18.7652 13.5133 18.8261 13.5185 18.8871 13.523C20.0461 13.6064 21.1929 13.804 22.3128 14.1127C23.3884 8.77848 26.8718 4.24268 31.7485 1.82783C36.6245 -0.58768 42.3443 -0.610188 47.2389 1.76687C52.1342 4.14459 55.6535 8.65279 56.7709 13.9786C58.132 13.643 59.5291 13.4723 60.9313 13.471C65.5962 13.4768 70.0678 15.3314 73.3663 18.63C76.6649 21.9279 78.5202 26.4002 78.5252 31.0645L78.525 31.0649ZM57.902 43.1824V69.5159C57.902 75.1819 49.7146 79.6196 39.262 79.6196C28.8095 79.6196 20.622 75.1819 20.622 69.5159V43.1824C20.622 37.5178 28.8101 33.08 39.262 33.08C49.7148 33.08 57.902 37.5178 57.902 43.1824ZM55.2516 57.2269C52.0191 60.1475 46.1299 62.0637 39.2619 62.0637C32.3939 62.0637 26.5047 60.1475 23.2722 57.2269V60.7386C23.2722 64.3374 29.6973 68.1905 39.2619 68.1905C48.8265 68.1905 55.2516 64.3374 55.2516 60.7386V57.2269ZM55.2516 48.4491C52.0191 51.3703 46.1299 53.2865 39.2619 53.2865C32.3939 53.2865 26.5047 51.3703 23.2722 48.4491V51.9614C23.2722 55.5602 29.6973 59.4133 39.2619 59.4133C48.8265 59.4133 55.2516 55.5602 55.2516 51.9614V48.4491ZM23.2715 43.1822C23.2715 46.7811 29.6966 50.6354 39.2612 50.6354C48.8258 50.6354 55.2509 46.7811 55.2509 43.1822C55.2509 39.5833 48.8258 35.7303 39.2612 35.7303C29.6966 35.7303 23.2715 39.5833 23.2715 43.1822ZM55.2516 69.5158V66.0041C52.0191 68.9253 46.1299 70.8409 39.2619 70.8409C32.3939 70.8409 26.5047 68.9247 23.2722 66.0041V69.5158C23.2722 73.1146 29.6973 76.969 39.2619 76.969C48.8265 76.9696 55.2516 73.1153 55.2516 69.5164V69.5158ZM26.324 43.4221C26.6301 43.596 26.992 43.6403 27.3308 43.5466C27.6697 43.4522 27.9572 43.2276 28.1305 42.9215C28.9326 41.5045 33.4172 39.9745 39.2622 39.9745H39.2616C39.9938 39.9745 40.5868 39.3815 40.5868 38.6493C40.5868 37.9177 39.9938 37.3241 39.2616 37.3241C33.7823 37.3241 27.5023 38.6506 25.8241 41.6168C25.6508 41.9229 25.6065 42.2848 25.7002 42.623C25.7939 42.9619 26.0185 43.2494 26.324 43.422L26.324 43.4221ZM69.6743 31.0652C69.6743 31.7975 70.268 32.3904 70.9996 32.3904C71.7318 32.3904 72.3248 31.7975 72.3248 31.0652C72.3215 27.8289 71.0342 24.7261 68.7458 22.4375C66.4572 20.149 63.3545 18.8623 60.1181 18.8585C59.3858 18.8585 58.7929 19.4522 58.7929 20.1837C58.7929 20.916 59.3858 21.509 60.1181 21.509C62.6517 21.5122 65.0807 22.5197 66.8724 24.3109C68.6635 26.1026 69.6717 28.5316 69.6743 31.0652L69.6743 31.0652Z" fill="#A81E30"/>
</svg>
