<svg width="72" height="72" viewBox="0 0 72 72" fill="none" xmlns="http://www.w3.org/2000/svg">
<path d="M11.8118 14.1091L11.8396 14.0955C12.6426 13.2512 13.6532 12.6003 14.7609 12.2128L14.8301 12.185L13.9023 9.58203L13.8331 9.59563C12.3378 10.1217 10.9669 11.0081 9.85916 12.1436H9.7207L11.7285 14.0957L11.8118 14.1091Z" fill="#A72037"/>
<path d="M9.81657 18.0555C9.92722 17.3353 10.1491 16.6572 10.4811 16.0064L10.5225 15.9372L8.03017 14.7046L8.00235 14.7738C7.50415 15.7987 7.15799 16.8922 7.01953 18.0276C7.43492 17.9584 7.86389 17.9305 8.3071 17.9305C8.81953 17.9305 9.33196 17.972 9.81658 18.0554L9.81657 18.0555Z" fill="#A72037"/>
<path d="M17.0583 11.7701C17.1411 11.7701 17.2382 11.7837 17.3216 11.7701H21.1571L21.2263 9.07021L17.3216 9.00098H16.9618L16.8926 9.01458L16.9896 11.7838L17.0583 11.7701Z" fill="#A72037"/>
<path d="M61.518 16.0063C61.8505 16.6572 62.0718 17.3353 62.1825 18.0554C62.6671 17.9726 63.1795 17.9305 63.6919 17.9305C64.1351 17.9305 64.5641 17.9584 64.9795 18.0276C64.841 16.8921 64.4949 15.7986 63.9967 14.7738L63.9689 14.7046L61.4766 15.9371L61.518 16.0063Z" fill="#A72037"/>
<path d="M60.1623 14.0947L60.1901 14.1083L60.2735 14.0947L62.2813 12.1427H62.1428C61.0352 11.0072 59.6641 10.1214 58.1689 9.59465L58.0997 9.58105L57.1719 12.184L57.2411 12.2118C58.3488 12.5994 59.3595 13.2503 60.1624 14.0946L60.1623 14.0947Z" fill="#A72037"/>
<path d="M54.6795 11.7702C54.7624 11.7838 54.8594 11.7702 54.9429 11.7702L55.0121 11.7838L55.1091 9.01458L55.0399 9.00098H54.6802L50.7754 9.07021L50.8446 11.7701L54.6795 11.7702Z" fill="#A72037"/>
<path d="M21.1152 41.898C21.6691 41.6489 22.2365 41.524 22.8325 41.524H23.0958V38.1452H24.4804C28.3988 38.1316 29.991 35.9434 30.0603 35.8471L30.8911 34.6702L32.0402 35.5423C35.1421 37.924 44.2805 38.6021 47.5479 38.6578L48.9047 38.6856V41.5242H49.168C49.7633 41.5242 50.345 41.649 50.8853 41.9117V39.9733C50.8853 33.0916 45.3053 27.5117 38.4237 27.5117H33.5776C26.696 27.5117 21.116 33.0916 21.116 39.9733L21.1152 41.898Z" fill="#A72037"/>
<path d="M49.1667 42.9092H48.9034V45.9417C48.9034 46.7861 48.8206 47.6311 48.6543 48.434H49.1667C49.9283 48.434 50.6206 48.1293 51.133 47.6169C51.6312 47.1186 51.936 46.4263 51.936 45.6648C51.936 44.7784 51.5206 44.0032 50.8839 43.4909C50.3993 43.1305 49.8041 42.9092 49.1667 42.9092L49.1667 42.9092Z" fill="#A72037"/>
<path d="M22.8318 42.9092C22.1951 42.9092 21.5992 43.1305 21.1146 43.4909C20.4779 44.0033 20.0625 44.7784 20.0625 45.6648C20.0625 46.4263 20.3672 47.1186 20.8655 47.6169C21.3779 48.1293 22.0702 48.434 22.8318 48.434H23.3442C23.1779 47.6311 23.0951 46.7861 23.0951 45.9417V42.9092L22.8318 42.9092Z" fill="#A72037"/>
<path d="M31.0938 57.8706C31.4312 60.2893 33.4872 62.1574 35.9992 62.1574C38.5113 62.1574 40.5666 60.2893 40.9047 57.8706C39.3909 58.4949 37.7356 58.8448 35.9992 58.8448C34.2629 58.8448 32.6075 58.4949 31.0938 57.8706Z" fill="#A72037"/>
<path d="M47.5201 45.9409V40.0415C47.5201 40.0415 35.3355 39.8233 31.1959 36.6387C31.1959 36.6387 29.2711 39.5155 24.4805 39.5297V45.9417C24.4805 52.3109 29.645 57.4619 36.0006 57.4619C42.3562 57.4612 47.5208 52.3103 47.5208 45.9411L47.5201 45.9409Z" fill="#A72037"/>
<path d="M45.9487 57.6445H42.3351L42.2763 58.0642C41.8399 61.1876 39.1417 63.5434 35.9998 63.5434C32.8573 63.5434 30.1598 61.1876 29.7233 58.0642L29.6646 57.6445H26.051C20.5564 57.6445 16.1022 62.0987 16.1022 67.5933L16.1016 72.0007H25.1016V66.4622H26.4862V72.0007H45.5147V66.4622H46.8994V72.0007H55.8994V67.5933C55.8987 62.0987 51.4445 57.6445 45.9493 57.6445H45.9487Z" fill="#A72037"/>
<path d="M27.9697 12.4617C28.1637 13.2233 28.4543 13.9434 28.8561 14.5943L27.3466 16.1038C28.1081 17.2672 29.1187 18.2777 30.2821 19.0394L31.7916 17.5299C32.4425 17.9317 33.1626 18.2222 33.9242 18.4163V20.5624C34.6023 20.7002 35.2946 20.7694 36.0005 20.7694C36.7064 20.7694 37.3987 20.7002 38.0774 20.5617V18.4157C38.839 18.2216 39.5591 17.9311 40.2101 17.5293L41.7195 19.0387C42.8829 18.2772 43.8935 17.2666 44.6551 16.1032L43.1456 14.5937C43.5474 13.9428 43.8379 13.2227 44.032 12.4611H46.1781C46.3165 11.7824 46.3858 11.0901 46.3858 10.3842C46.3858 9.67827 46.3165 8.98596 46.1781 8.30725L44.0314 8.30787C43.8373 7.54633 43.5468 6.8262 43.145 6.17524L44.6545 4.66576C43.8929 3.50243 42.8823 2.49183 41.7189 1.73022L40.2094 3.2397C39.5585 2.83791 38.8384 2.54739 38.0768 2.35329L38.0774 0.207692C37.3987 0.0692308 36.7064 0 36.0005 0C35.2946 0 34.6023 0.0692308 33.9236 0.207692V2.35377C33.162 2.54787 32.4419 2.83838 31.791 3.24017L30.2815 1.73069C29.1181 2.49223 28.1075 3.50284 27.3459 4.66623L28.8554 6.17572C28.4536 6.82661 28.1631 7.54674 27.969 8.30834H25.8229C25.6845 8.98706 25.6152 9.67936 25.6152 10.3853C25.6152 11.0912 25.6845 11.7835 25.8229 12.4622L27.9697 12.4617ZM36.0004 6.23094C38.2913 6.23094 40.1543 8.09392 40.1543 10.3848C40.1543 12.6757 38.2913 14.5386 36.0004 14.5386C33.7096 14.5386 31.8466 12.6757 31.8466 10.3848C31.8466 8.09392 33.7096 6.23094 36.0004 6.23094Z" fill="#A72037"/>
<path d="M38.7689 10.384C38.7689 11.9132 37.529 13.1532 35.9997 13.1532C34.4704 13.1532 33.2305 11.9132 33.2305 10.384C33.2305 8.85471 34.4704 7.61475 35.9997 7.61475C37.529 7.61475 38.7689 8.85471 38.7689 10.384Z" fill="#A72037"/>
<path d="M8.82579 28.3696L8.67188 29.9682C9.20471 29.8749 9.47236 29.5812 9.47236 29.0867C9.47236 28.9031 9.41302 28.7554 9.29372 28.646C9.17689 28.536 9.0205 28.4439 8.8258 28.3697L8.82579 28.3696Z" fill="#A72037"/>
<path d="M8.30769 19.3213C3.71931 19.3213 0 23.0406 0 27.629C0 32.2174 3.71931 35.9367 8.30769 35.9367C12.8961 35.9367 16.6154 32.2174 16.6154 27.629C16.6154 23.0412 12.8961 19.3213 8.30769 19.3213ZM10.7388 29.7276C10.6362 29.9977 10.4847 30.2363 10.2844 30.4428C10.0842 30.6498 9.83814 30.8173 9.54638 30.9484C9.2571 31.0794 8.92453 31.1592 8.54871 31.1888L8.49184 31.7946C8.48133 31.8836 8.44054 31.9664 8.37007 32.0394C8.2996 32.1111 8.20751 32.1476 8.09438 32.1476H7.53992L7.63696 31.1499C7.26671 31.0893 6.91252 30.9805 6.5744 30.8278C6.23629 30.6739 5.95256 30.4885 5.71953 30.2721L6.18437 29.599C6.22207 29.5434 6.27338 29.4976 6.34137 29.4612C6.40628 29.4234 6.47674 29.4055 6.55215 29.4055C6.63065 29.4055 6.70916 29.4259 6.79013 29.4649C6.87111 29.5057 6.95765 29.5551 7.05221 29.6138C7.14926 29.6719 7.25248 29.73 7.36623 29.7906C7.47996 29.85 7.60978 29.8988 7.75317 29.9377L7.93428 28.1056C7.70186 28.0407 7.46945 27.9647 7.23951 27.8769C7.01203 27.7891 6.80434 27.6717 6.62013 27.5227C6.43654 27.3725 6.28757 27.1834 6.17138 26.9534C6.05764 26.7222 6.00077 26.4342 6.00077 26.0868C6.00077 25.8309 6.05208 25.5811 6.15469 25.3388C6.2573 25.0953 6.40875 24.8765 6.60902 24.6818C6.8062 24.487 7.04975 24.3276 7.34212 24.2033C7.63389 24.0779 7.96705 24.0154 8.33979 24.0154L8.39418 23.469C8.40222 23.3769 8.44301 23.2947 8.51595 23.2199C8.58642 23.1457 8.67852 23.1093 8.79164 23.1093H9.34302L9.24597 24.0636C9.59459 24.1285 9.89502 24.233 10.1491 24.3758C10.4006 24.5204 10.6139 24.6744 10.787 24.8394L10.4192 25.3759C10.3648 25.4569 10.3085 25.5169 10.2517 25.5527C10.1948 25.5904 10.1274 25.6084 10.0514 25.6084C10.0001 25.6084 9.94075 25.5978 9.87584 25.5744C9.81094 25.5527 9.74047 25.5243 9.66196 25.4903C9.58593 25.4563 9.50248 25.4198 9.41286 25.3809C9.32384 25.3419 9.22926 25.3079 9.12913 25.2795L8.96161 26.9998C9.11553 27.0455 9.27006 27.0943 9.42645 27.1469C9.58036 27.2013 9.72934 27.2618 9.87274 27.3323C10.0161 27.4015 10.1515 27.4813 10.2758 27.5715C10.4 27.6624 10.5082 27.7687 10.6003 27.8905C10.6924 28.0135 10.7653 28.1557 10.8166 28.3151C10.8679 28.4746 10.8951 28.6576 10.8951 28.8603C10.8958 29.1694 10.8414 29.4587 10.7387 29.7276L10.7388 29.7276Z" fill="#A72037"/>
<path d="M7.59518 25.5058C7.53274 25.5664 7.487 25.6356 7.45733 25.711C7.42766 25.7864 7.41406 25.8668 7.41406 25.9502C7.41406 26.1406 7.4734 26.2952 7.59517 26.4138C7.71694 26.5313 7.87641 26.6302 8.0736 26.7112L8.21701 25.248C8.06804 25.2697 7.94379 25.3037 7.84118 25.3469C7.74166 25.3915 7.65759 25.444 7.59516 25.5058H7.59518Z" fill="#A72037"/>
<path d="M63.6925 19.3213C59.1041 19.3213 55.3848 23.0406 55.3848 27.629C55.3848 32.2174 59.1041 35.9367 63.6925 35.9367C68.2808 35.9367 72.0001 32.2174 72.0001 27.629C72.0001 23.0412 68.2808 19.3213 63.6925 19.3213ZM62.8796 30.0743L59.7371 27.1375L60.6835 26.1262L62.8629 28.1655L66.6922 24.4659L67.6546 25.4611L62.8796 30.0743Z" fill="#A72037"/>
</svg>
