<svg width="60" height="60" viewBox="0 0 60 60" fill="none" xmlns="http://www.w3.org/2000/svg">
<circle cx="30" cy="30" r="30" fill="#A72037"/>
<rect width="40" height="40" transform="translate(10 10)" fill="#A72037"/>
<path d="M23.3333 41.6654C25.1667 41.6654 26.6667 40.1654 26.6667 38.332V21.6654C26.6667 19.832 25.1667 18.332 23.3333 18.332C21.5 18.332 20 19.832 20 21.6654V38.332C20 40.1654 21.5 41.6654 23.3333 41.6654ZM33.3333 21.6654V38.332C33.3333 40.1654 34.8333 41.6654 36.6667 41.6654C38.5 41.6654 40 40.1654 40 38.332V21.6654C40 19.832 38.5 18.332 36.6667 18.332C34.8333 18.332 33.3333 19.832 33.3333 21.6654Z" fill="white"/>
</svg>
