<svg width="48" height="48" viewBox="0 0 48 48" fill="none" xmlns="http://www.w3.org/2000/svg">
<path d="M46.0346 28.0094C44.7933 27.2705 43.2968 27.2395 42.0918 27.8926L29.0429 34.2423C28.6262 32.3122 26.9103 30.8601 24.8567 30.8601H17.8524L14.9263 27.934C14.6041 27.6118 14.1686 27.4316 13.7145 27.4316H6.85703V27.4281C6.85703 26.4818 6.08906 25.7139 5.14277 25.7139H1.71426C0.767968 25.7139 0 26.4818 0 27.4281C0 28.3744 0.767968 29.1424 1.71426 29.1424H3.42852V41.1422H1.71426C0.767968 41.1422 0 41.9102 0 42.8564C0 43.8027 0.767968 44.5707 1.71426 44.5707H5.14277C6.08714 44.5707 6.85204 43.8062 6.85546 42.8633H9.88451L17.7189 46.7479C19.4125 47.5878 21.1937 47.9991 22.9489 47.9991C25.3986 47.9991 27.7966 47.1967 29.83 45.6351L46.2546 34.7716C47.3463 34.0209 47.9994 32.7834 47.9994 31.4598C47.9994 30.0317 47.264 28.7426 46.0349 28.009L46.0346 28.0094ZM44.3356 31.928L27.8395 42.8444C25.275 44.809 22.1396 45.1124 19.2407 43.6759L11.0468 39.6129C10.8103 39.4962 10.5497 39.4346 10.2857 39.4346H6.85718V30.8583H13.0044L15.9305 33.7844C16.2527 34.1066 16.6881 34.2869 17.1423 34.2869H24.8565C25.3294 34.2869 25.7136 34.671 25.7136 35.144C25.7136 35.6169 25.3294 36.0011 24.8565 36.0011L17.1427 36.0007C16.1964 36.0007 15.4285 36.7687 15.4285 37.715C15.4285 38.6613 16.1964 39.4292 17.1427 39.4292H24.8569C24.9751 39.4292 25.0849 39.4036 25.2013 39.3948C25.6057 39.5234 26.0549 39.5096 26.4647 39.3091L43.6573 30.9402C43.9316 30.7929 44.1646 30.8836 44.2794 30.952C44.3893 31.0171 44.571 31.1698 44.571 31.4579C44.571 31.6519 44.4734 31.8337 44.3361 31.9278L44.3356 31.928Z" fill="#CF9EAA"/>
<path d="M32.5711 5.14297V5.45827C30.581 6.16809 29.1426 8.05376 29.1426 10.2857C29.1426 13.1211 31.45 15.4285 34.2854 15.4285C35.2297 15.4285 35.9996 16.1984 35.9996 17.1428C35.9996 18.0871 35.2297 18.857 34.2854 18.857C33.341 18.857 32.5711 18.0871 32.5711 17.1428C32.5711 16.1965 31.8031 15.4285 30.8568 15.4285C29.9105 15.4285 29.1426 16.1965 29.1426 17.1428C29.1426 19.3747 30.581 21.2604 32.5711 21.9702V22.2855C32.5711 23.2318 33.3391 23.9998 34.2854 23.9998C35.2316 23.9998 35.9996 23.2318 35.9996 22.2855V21.9702C37.9897 21.2604 39.4281 19.3747 39.4281 17.1428C39.4281 14.3074 37.1207 12 34.2854 12C33.341 12 32.5711 11.2301 32.5711 10.2857C32.5711 9.34135 33.341 8.57146 34.2854 8.57146C35.2297 8.57146 35.9996 9.34135 35.9996 10.2857C35.9996 11.232 36.7676 12 37.7139 12C38.6602 12 39.4281 11.232 39.4281 10.2857C39.4281 8.05376 37.9897 6.16808 35.9996 5.45827V5.14297C35.9996 4.19668 35.2316 3.42871 34.2854 3.42871C33.3391 3.42871 32.5711 4.19668 32.5711 5.14297Z" fill="#CF9EAA"/>
<path d="M34.2844 27.4281C41.8458 27.4281 47.9984 21.2755 47.9984 13.7141C47.9984 6.15262 41.8458 0 34.2844 0C26.7229 0 20.5703 6.15262 20.5703 13.7141C20.5703 21.2755 26.7229 27.4281 34.2844 27.4281ZM34.2844 3.42852C39.9567 3.42852 44.5699 8.04173 44.5699 13.7141C44.5699 19.3864 39.9567 23.9996 34.2844 23.9996C28.612 23.9996 23.9988 19.3864 23.9988 13.7141C23.9988 8.04173 28.612 3.42852 34.2844 3.42852Z" fill="#CF9EAA"/>
<path d="M4.25997 23.7434C4.53586 23.9099 4.8393 23.9887 5.14121 23.9887C5.72245 23.9887 6.29142 23.6922 6.61214 23.1572L16.8977 6.02836C17.3844 5.21753 17.1223 4.16334 16.3096 3.6762C15.4987 3.18947 14.4445 3.45158 13.9574 4.26433L3.67185 21.3932C3.18512 22.2021 3.44915 23.2548 4.25998 23.7434L4.25997 23.7434Z" fill="#CF9EAA"/>
<path d="M5.14277 13.7143C7.97815 13.7143 10.2855 11.4069 10.2855 8.57148C10.2855 5.7361 7.97815 3.42871 5.14277 3.42871C2.30739 3.42871 0 5.7361 0 8.57148C0 11.4069 2.30739 13.7143 5.14277 13.7143ZM5.14277 6.85723C6.08714 6.85723 6.85703 7.62711 6.85703 8.57148C6.85703 9.51585 6.08714 10.2857 5.14277 10.2857C4.1984 10.2857 3.42852 9.51585 3.42852 8.57148C3.42852 7.62711 4.1984 6.85723 5.14277 6.85723Z" fill="#CF9EAA"/>
<path d="M10.2852 18.8566C10.2852 21.692 12.5925 23.9994 15.4279 23.9994C18.2633 23.9994 20.5707 21.692 20.5707 18.8566C20.5707 16.0213 18.2633 13.7139 15.4279 13.7139C12.5925 13.7139 10.2852 16.0213 10.2852 18.8566ZM17.1422 18.8566C17.1422 19.801 16.3723 20.5709 15.4279 20.5709C14.4836 20.5709 13.7137 19.801 13.7137 18.8566C13.7137 17.9123 14.4836 17.1424 15.4279 17.1424C16.3723 17.1424 17.1422 17.9123 17.1422 18.8566Z" fill="#CF9EAA"/>
</svg>
