<svg width="43" height="48" viewBox="0 0 43 48" fill="none" xmlns="http://www.w3.org/2000/svg">
<path d="M17.2286 0C13.9601 0 10.8255 1.29818 8.51355 3.60924C6.2021 5.92039 4.90313 9.05455 4.90234 12.3235C4.90157 15.592 6.19894 18.7269 8.5097 21.0393C10.8201 23.3515 13.9542 24.6512 17.2227 24.6527C20.4916 24.6543 23.627 23.3573 25.9396 21.0474C28.2523 18.7374 29.5527 15.6036 29.5551 12.3351C29.5528 9.06581 28.2535 5.93086 25.9428 3.61862C23.6316 1.30598 20.4979 0.00474179 17.2286 9.87341e-05V0Z" fill="#CF9EAA"/>
<path d="M0.666016 47.1358C0.666016 47.365 0.757087 47.5849 0.919161 47.747C1.08124 47.9091 1.3012 48.0002 1.53041 48.0002H23.8062C23.379 47.5255 23.1421 46.91 23.1405 46.2714V28.9834H10.1746C7.6528 28.9834 5.23436 29.9852 3.45113 31.7683C1.6679 33.5516 0.666183 35.9699 0.666183 38.4918L0.666016 47.1358Z" fill="#CF9EAA"/>
<path d="M33.5131 20.3389C31.2205 20.3389 29.0221 21.2496 27.401 22.8707C25.7799 24.4919 24.8691 26.6903 24.8691 28.9829C24.8691 31.2754 25.7799 33.4739 27.401 35.095C29.0221 36.7161 31.2205 37.6268 33.5131 37.6268C35.8057 37.6268 38.0041 36.7161 39.6253 35.095C41.2464 33.4739 42.1571 31.2754 42.1571 28.9829C42.1571 26.6903 41.2464 24.4918 39.6253 22.8707C38.0041 21.2496 35.8057 20.3389 33.5131 20.3389Z" fill="#CF9EAA"/>
<path d="M26.0878 47.0571L29.1911 45.674V38.4046C27.4322 37.6008 25.9346 36.3189 24.8691 34.7051V46.2702C24.8699 46.5631 25.0189 46.836 25.2647 46.9946C25.5109 47.1535 25.8208 47.1771 26.0878 47.0567L26.0878 47.0571Z" fill="#CF9EAA"/>
<path d="M36.1063 39.0195C34.4069 39.4695 32.6194 39.4695 30.9199 39.0195V44.9059L33.5131 43.7563L36.1063 44.9059V39.0195Z" fill="#CF9EAA"/>
<path d="M41.2935 47.1356C41.4591 47.1352 41.6212 47.087 41.7605 46.9975C42.0078 46.8385 42.1575 46.5653 42.1579 46.2712V34.7061C41.0925 36.3199 39.5949 37.6017 37.8359 38.4056V45.675L40.9393 47.0581C41.0504 47.109 41.1712 47.1356 41.2935 47.136L41.2935 47.1356Z" fill="#CF9EAA"/>
</svg>
