<svg width="31" height="31" viewBox="0 0 31 31" fill="none" xmlns="http://www.w3.org/2000/svg">
<g clip-path="url(#clip0_897_1185)">
<path d="M19.25 15.5C22.0125 15.5 24.25 13.2625 24.25 10.5C24.25 7.7375 22.0125 5.5 19.25 5.5C16.4875 5.5 14.25 7.7375 14.25 10.5C14.25 13.2625 16.4875 15.5 19.25 15.5ZM8 13V10.5C8 9.8125 7.4375 9.25 6.75 9.25C6.0625 9.25 5.5 9.8125 5.5 10.5V13H3C2.3125 13 1.75 13.5625 1.75 14.25C1.75 14.9375 2.3125 15.5 3 15.5H5.5V18C5.5 18.6875 6.0625 19.25 6.75 19.25C7.4375 19.25 8 18.6875 8 18V15.5H10.5C11.1875 15.5 11.75 14.9375 11.75 14.25C11.75 13.5625 11.1875 13 10.5 13H8ZM19.25 18C15.9125 18 9.25 19.675 9.25 23V24.25C9.25 24.9375 9.8125 25.5 10.5 25.5H28C28.6875 25.5 29.25 24.9375 29.25 24.25V23C29.25 19.675 22.5875 18 19.25 18Z" fill="#A72037"/>
</g>
<defs>
<clipPath id="clip0_897_1185">
<rect width="30" height="30" fill="white" transform="translate(0.5 0.5)"/>
</clipPath>
</defs>
</svg>
