<svg width="56" height="48" viewBox="0 0 56 48" fill="none" xmlns="http://www.w3.org/2000/svg">
<path d="M26.2036 13.3897C28.8232 13.3897 30.9551 11.2578 30.9551 8.63813C30.9551 6.01733 28.8232 3.88574 26.2036 3.88574C23.5828 3.88574 21.4512 6.01763 21.4512 8.63813C21.4508 11.2578 23.5828 13.3897 26.2036 13.3897ZM25.723 5.26518V4.90532C25.723 4.64056 25.938 4.42511 26.2032 4.42511C26.4679 4.42511 26.6834 4.64056 26.6834 4.90532V5.26518C27.0858 5.36698 27.4493 5.59466 27.7196 5.92492C27.8869 6.13051 27.8565 6.43314 27.6505 6.60045C27.4449 6.76855 27.1423 6.73816 26.975 6.53258C26.7852 6.29899 26.5035 6.16562 26.2028 6.16562C25.6535 6.16562 25.2065 6.61269 25.2065 7.16195C25.2065 7.71121 25.6535 8.15827 26.2028 8.15827C27.2816 8.15827 28.1595 9.03583 28.1595 10.115C28.1595 11.0273 27.5302 11.7964 26.683 12.0113V12.3704C26.683 12.6364 26.468 12.8506 26.2028 12.8506C25.938 12.8506 25.7226 12.6364 25.7226 12.3704V12.0105C25.3201 11.9095 24.9567 11.6811 24.6864 11.3508C24.5191 11.1452 24.5495 10.8426 24.7554 10.6753C24.9602 10.508 25.2625 10.5384 25.431 10.7439C25.6208 10.9767 25.9025 11.1109 26.2032 11.1109C26.7524 11.1109 27.1995 10.6638 27.1995 10.1146C27.1995 9.56452 26.7524 9.11824 26.2032 9.11824C25.1243 9.11824 24.2464 8.24069 24.2464 7.16151C24.2464 6.24805 24.8758 5.47943 25.723 5.26518V5.26518Z" fill="#CF9EAA"/>
<path d="M0.848307 17.2774H51.5581C52.0604 17.2774 52.264 16.6299 51.8517 16.3422L30.0883 1.21747C27.7528 -0.405822 24.6537 -0.405822 22.3182 1.21747L0.554781 16.3432C0.142444 16.6309 0.346047 17.278 0.848347 17.278L0.848307 17.2774ZM26.2027 2.41021C29.6368 2.41021 32.4312 5.20344 32.4312 8.63871C32.4312 12.0728 29.6368 14.8672 26.2027 14.8672C22.7687 14.8672 19.9742 12.0728 19.9742 8.63871C19.9746 5.20344 22.7687 2.41021 26.2027 2.41021Z" fill="#CF9EAA"/>
<path d="M46.1823 20.3775V22.2754C46.1823 22.7864 45.7656 23.2027 45.255 23.2027H44.9287V27.8828H39.7462V23.2027H39.4155C38.9045 23.2027 38.4922 22.786 38.4922 22.2754V20.3775C38.4922 19.8665 38.9045 19.4502 39.4155 19.4502H45.255C45.7656 19.4502 46.1823 19.8665 46.1823 20.3775H46.1823Z" fill="#CF9EAA"/>
<path d="M30.0489 20.3778V22.2758C30.0489 22.7868 29.6323 23.2031 29.1217 23.2031H28.791V27.9219C27.3267 28.1366 26.2017 29.4032 26.2017 30.9275V43.9804H22.8873C21.9726 43.9804 21.2344 43.2418 21.2344 42.3276V40.7733C21.2344 39.8586 21.973 39.1204 22.8873 39.1204H23.6129V23.2037H23.2822C22.7713 23.2037 22.355 22.787 22.355 22.2764V20.3784C22.355 19.8675 22.7716 19.4512 23.2822 19.4512H29.1217C29.6327 19.4512 30.049 19.8675 30.049 20.3784L30.0489 20.3778Z" fill="#CF9EAA"/>
<path d="M13.3874 43.9817H6.75761C5.84415 43.9817 5.10352 43.2411 5.10352 42.3276V40.7737C5.10352 39.8603 5.84415 39.1196 6.75761 39.1196H7.48207V23.2029H7.1526C6.64122 23.2029 6.2265 22.7882 6.2265 22.2768V20.3773C6.2265 19.8659 6.64122 19.4512 7.1526 19.4512H12.9917C13.5031 19.4512 13.9178 19.8659 13.9178 20.3773V22.2768C13.9178 22.7882 13.5031 23.2029 12.9917 23.2029H12.6622V39.1196H13.3867C14.3001 39.1196 15.0408 39.8603 15.0408 40.7737V42.3276C15.0416 43.2415 14.3009 43.9821 13.3875 43.9821L13.3874 43.9817Z" fill="#CF9EAA"/>
<path d="M54.437 30.0297H29.2492C28.7532 30.0297 28.3516 30.4314 28.3516 30.9274V47.1017C28.3516 47.5977 28.7533 47.9993 29.2492 47.9993H54.437C54.933 47.9993 55.3346 47.5976 55.3346 47.1017V30.9274C55.3346 30.431 54.933 30.0293 54.437 30.0293V30.0297ZM30.219 32.536C30.219 32.1525 30.5299 31.8416 30.9134 31.8416H31.836V34.4805H30.2189L30.219 32.536ZM31.8944 37.4198H30.9138C30.5303 37.4198 30.2194 37.1089 30.2194 36.7254V34.9959H31.8948L31.8944 37.4198ZM32.3513 31.8416H33.6976V34.4805H32.3513V31.8416ZM32.4097 34.9955H34.2512V37.4198H32.4097V34.9955ZM34.6628 45.4686H33.5583C33.2296 45.4686 32.9633 45.2023 32.9633 44.8744C32.9633 44.5457 33.2296 44.2793 33.5583 44.2793H34.6628C34.9915 44.2793 35.2578 44.5457 35.2578 44.8744C35.2574 45.2023 34.9911 45.4686 34.6628 45.4686ZM35.7976 36.7258C35.7976 37.1093 35.4867 37.4202 35.1031 37.4202H34.7665V34.9959H35.4369V34.4806H34.213V31.8416H35.1028C35.4863 31.8416 35.7972 32.1525 35.7972 32.5361L35.7976 36.7258ZM38.5293 45.4686H37.4248C37.0961 45.4686 36.8298 45.2023 36.8298 44.8744C36.8298 44.5457 37.0961 44.2793 37.4248 44.2793H38.5293C38.858 44.2793 39.1243 44.5457 39.1243 44.8744C39.1239 45.2023 38.8576 45.4686 38.5293 45.4686ZM42.3958 45.4686H41.2913C40.9626 45.4686 40.6963 45.2023 40.6963 44.8744C40.6963 44.5457 40.9626 44.2793 41.2913 44.2793H42.3958C42.7245 44.2793 42.9908 44.5457 42.9908 44.8744C42.9904 45.2023 42.7241 45.4686 42.3958 45.4686ZM46.2623 45.4686H45.1578C44.8291 45.4686 44.5628 45.2023 44.5628 44.8744C44.5628 44.5457 44.8291 44.2793 45.1578 44.2793H46.2623C46.591 44.2793 46.8573 44.5457 46.8573 44.8744C46.8573 45.2023 46.591 45.4686 46.2623 45.4686ZM50.1288 45.4686H49.0243C48.6952 45.4686 48.4289 45.2023 48.4289 44.8744C48.4289 44.5457 48.6952 44.2793 49.0243 44.2793H50.1288C50.4575 44.2793 50.7238 44.5457 50.7238 44.8744C50.7238 45.2023 50.4575 45.4686 50.1288 45.4686ZM50.3411 36.7001C49.6032 36.7001 48.9557 36.3134 48.5895 35.7314C48.2233 36.3134 47.5758 36.7001 46.8379 36.7001C45.6953 36.7001 44.7692 35.7736 44.7692 34.6314C44.7692 33.4887 45.6957 32.5626 46.8379 32.5626C47.5758 32.5626 48.2233 32.9493 48.5895 33.5305C48.9557 32.9493 49.6032 32.5626 50.3411 32.5626C51.4838 32.5626 52.4098 33.4891 52.4098 34.6314C52.4098 35.7736 51.4834 36.7001 50.3411 36.7001Z" fill="#CF9EAA"/>
</svg>
