<svg width="24" height="20" viewBox="0 0 24 20" fill="none" xmlns="http://www.w3.org/2000/svg">
<path fill-rule="evenodd" clip-rule="evenodd" d="M6.874 15.8332C4.04505 12.6143 4.04505 7.3872 6.874 4.16824C7.202 3.79503 7.202 3.18875 6.874 2.8155C6.54601 2.44224 6.01319 2.44229 5.68516 2.8155C2.2 6.78113 2.2 13.2202 5.68516 17.1864C6.01315 17.5596 6.54597 17.5596 6.874 17.1864C7.202 16.8132 7.202 16.2069 6.874 15.8337V15.8332ZM17.1257 4.16824C19.9546 7.3872 19.9546 12.6143 17.1257 15.8332C16.7977 16.2064 16.7977 16.8127 17.1257 17.186C17.4537 17.5592 17.9865 17.5592 18.3145 17.186C21.7997 13.2201 21.7997 6.78075 18.3145 2.81506C17.9865 2.44185 17.4537 2.44185 17.1257 2.81506C16.7977 3.18827 16.7977 3.79456 17.1257 4.16781V4.16824Z" fill="black"/>
<path fill-rule="evenodd" clip-rule="evenodd" d="M19.0321 1.99853C22.9133 6.41464 22.9133 13.5853 19.0321 18.0015C18.6306 18.4583 18.6306 19.2001 19.0321 19.6569C19.4336 20.1138 20.0855 20.1138 20.487 19.6569C25.171 14.3271 25.171 5.67242 20.487 0.342637C20.0855 -0.114212 19.4336 -0.114212 19.0321 0.342637C18.6306 0.799275 18.6306 1.54125 19.0321 1.99809V1.99853ZM4.96805 18.0015C1.0868 13.5851 1.0868 6.4142 4.96805 1.99853C5.36936 1.54168 5.36936 0.799911 4.96805 0.343072C4.56655 -0.113777 3.91466 -0.113777 3.51317 0.343072C-1.17106 5.67286 -1.17106 14.3276 3.51317 19.6574C3.91448 20.1142 4.56656 20.1142 4.96805 19.6574C5.36936 19.2005 5.36936 18.4587 4.96805 18.0019V18.0015Z" fill="black"/>
<path fill-rule="evenodd" clip-rule="evenodd" d="M12.0002 3.24219C8.72145 3.24219 6.05957 6.27115 6.05957 10.0018C6.05957 13.7326 8.72155 16.7615 12.0002 16.7615C15.279 16.7615 17.9409 13.7325 17.9409 10.0018C17.9409 6.27104 15.2789 3.24219 12.0002 3.24219ZM14.1564 9.09316L11.3672 7.11483C11.0771 6.90911 10.7118 6.8985 10.4129 7.08723C10.1141 7.27596 9.92859 7.63428 9.92859 8.02324V11.9802C9.92859 12.3691 10.1139 12.7274 10.4129 12.9162C10.7118 13.1049 11.0771 13.0943 11.3672 12.8886L14.1564 10.9103C14.4322 10.7147 14.5996 10.3713 14.5996 10.0016C14.5996 9.63204 14.432 9.28877 14.1564 9.09323V9.09316Z" fill="black"/>
</svg>
