<svg width="508" height="120" viewBox="0 0 508 120" fill="none" xmlns="http://www.w3.org/2000/svg">
<path d="M0.508789 60H507.49" stroke="#424242" stroke-width="2"/>
<path d="M263.001 7.12254C260.633 7.12254 258.716 9.04022 258.716 11.4082V105.697C258.716 108.065 260.633 109.983 263.001 109.983C265.369 109.983 267.287 108.065 267.287 105.697V11.4082C267.287 9.04013 265.369 7.12254 263.001 7.12254ZM194.429 39.4076C192.061 39.4076 190.143 41.3253 190.143 43.6933V77.9791C190.143 80.3471 192.061 82.2647 194.429 82.2647C196.797 82.2647 198.714 80.3471 198.714 77.9791V43.6933C198.714 41.3286 196.795 39.4076 194.429 39.4076ZM297.29 38.5718C294.922 38.5718 293.004 40.4895 293.004 42.8574V77.1432C293.004 79.5113 294.922 81.4289 297.29 81.4289C299.658 81.4289 301.575 79.5112 301.575 77.1432V42.8574C301.575 40.4927 299.658 38.5718 297.29 38.5718ZM177.285 47.979C174.917 47.979 172.999 49.8967 172.999 52.2646V69.4075C172.999 71.7756 174.917 73.6931 177.285 73.6931C179.653 73.6931 181.57 71.7755 181.57 69.4075V52.2646C181.57 49.8999 179.651 47.979 177.285 47.979ZM330.715 47.1431C328.347 47.1431 326.429 49.0608 326.429 51.4287V68.5717C326.429 70.9397 328.347 72.8573 330.715 72.8573C333.083 72.8573 335 70.9396 335 68.5717V51.4287C335 49.064 333.082 47.1431 330.715 47.1431ZM228.713 24.2656C226.345 24.2656 224.427 26.1833 224.427 28.5513V97.1238C224.427 99.4918 226.345 101.409 228.713 101.409C231.081 101.409 232.999 99.4917 232.999 97.1238V28.5513C232.999 26.1832 231.078 24.2656 228.713 24.2656ZM280.141 24.2656C277.773 24.2656 275.856 26.1833 275.856 28.5513V97.1238C275.856 99.4918 277.773 101.409 280.141 101.409C282.509 101.409 284.427 99.4917 284.427 97.1238V28.5513C284.427 26.1832 282.509 24.2656 280.141 24.2656ZM211.569 13.6932C209.201 13.6932 207.283 15.6109 207.283 17.9789V103.696C207.283 106.064 209.201 107.981 211.569 107.981C213.937 107.981 215.854 106.064 215.854 103.696V17.9789C215.854 15.6141 213.933 13.6932 211.569 13.6932ZM245.855 0C243.487 0 241.569 1.91768 241.569 4.28562V115.714C241.569 118.082 243.487 120 245.855 120C248.223 120 250.14 118.082 250.14 115.714V4.28562C250.14 1.91759 248.221 0 245.855 0ZM313.951 42.8562C311.583 42.8562 309.665 44.7739 309.665 47.1418V72.856C309.665 75.224 311.583 77.1416 313.951 77.1416C316.319 77.1416 318.236 75.224 318.236 72.856V47.1418C318.236 44.7771 316.319 42.8562 313.951 42.8562Z" fill="#424242"/>
</svg>
