<svg width="60" height="60" viewBox="0 0 60 60" fill="none" xmlns="http://www.w3.org/2000/svg">
<circle cx="30" cy="30" r="30" fill="#A72037"/>
<rect width="39" height="30" transform="translate(10 15)" fill="#A72037"/>
<path fill-rule="evenodd" clip-rule="evenodd" d="M21.1706 38.7479C16.5736 33.9195 16.5736 26.0788 21.1706 21.2504C21.7036 20.6906 21.7036 19.7812 21.1706 19.2213C20.6376 18.6614 19.7718 18.6615 19.2387 19.2213C13.5754 25.1697 13.5754 34.8283 19.2387 40.7777C19.7717 41.3375 20.6376 41.3375 21.1706 40.7777C21.7036 40.2178 21.7036 39.3084 21.1706 38.7485V38.7479ZM37.8296 21.2504C42.4266 26.0788 42.4266 33.9195 37.8296 38.7479C37.2966 39.3077 37.2966 40.2171 37.8296 40.777C38.3626 41.3368 39.2284 41.3368 39.7615 40.777C45.4248 34.8282 45.4248 25.1692 39.7615 19.2206C39.2285 18.6608 38.3626 18.6608 37.8296 19.2206C37.2966 19.7805 37.2966 20.6899 37.8296 21.2498V21.2504Z" fill="white"/>
<path fill-rule="evenodd" clip-rule="evenodd" d="M40.9272 17.9978C47.2342 24.622 47.2342 35.3779 40.9272 42.0022C40.2747 42.6875 40.2747 43.8001 40.9272 44.4854C41.5796 45.1707 42.6389 45.1707 43.2913 44.4854C50.9029 36.4907 50.9029 23.5086 43.2913 15.514C42.6389 14.8287 41.5796 14.8287 40.9272 15.514C40.2747 16.1989 40.2747 17.3119 40.9272 17.9971V17.9978ZM18.0731 42.0022C11.7661 35.3777 11.7661 24.6213 18.0731 17.9978C18.7252 17.3125 18.7252 16.1999 18.0731 15.5146C17.4206 14.8293 16.3613 14.8293 15.7089 15.5146C8.09703 23.5093 8.09703 36.4914 15.7089 44.486C16.361 45.1713 17.4207 45.1713 18.0731 44.486C18.7252 43.8008 18.7252 42.6881 18.0731 42.0029V42.0022Z" fill="white"/>
<path fill-rule="evenodd" clip-rule="evenodd" d="M29.5002 19.8594C24.1722 19.8594 19.8467 24.4028 19.8467 29.9988C19.8467 35.595 24.1724 40.1383 29.5002 40.1383C34.8283 40.1383 39.1538 35.5949 39.1538 29.9988C39.1538 24.4027 34.8281 19.8594 29.5002 19.8594ZM33.0041 28.6358L28.4716 25.6683C28.0002 25.3598 27.4065 25.3438 26.9209 25.6269C26.4352 25.91 26.1338 26.4475 26.1338 27.031V32.9664C26.1338 33.5497 26.4349 34.0873 26.9209 34.3704C27.4066 34.6535 28.0002 34.6375 28.4716 34.329L33.0041 31.3615C33.4522 31.0682 33.7241 30.553 33.7241 29.9986C33.7241 29.4442 33.4519 28.9293 33.0041 28.6359V28.6358Z" fill="white"/>
</svg>
