<svg width="17" height="16" viewBox="0 0 17 16" fill="none" xmlns="http://www.w3.org/2000/svg">
<path fill-rule="evenodd" clip-rule="evenodd" d="M3.16634 3.33203C3.16634 3.50884 3.23658 3.67841 3.3616 3.80344C3.48663 3.92846 3.6562 3.9987 3.83301 3.9987C4.00982 3.9987 4.17939 3.92846 4.30441 3.80344C4.42944 3.67841 4.49967 3.50884 4.49967 3.33203C4.49967 3.15522 4.42944 2.98565 4.30441 2.86063C4.17939 2.7356 4.00982 2.66536 3.83301 2.66536C3.6562 2.66536 3.48663 2.7356 3.3616 2.86063C3.23658 2.98565 3.16634 3.15522 3.16634 3.33203ZM3.83301 1.33203C3.30257 1.33203 2.79387 1.54274 2.41879 1.91782C2.04372 2.29289 1.83301 2.8016 1.83301 3.33203C1.83301 3.86246 2.04372 4.37117 2.41879 4.74624C2.79387 5.12132 3.30257 5.33203 3.83301 5.33203C4.36344 5.33203 4.87215 5.12132 5.24722 4.74624C5.62229 4.37117 5.83301 3.86246 5.83301 3.33203C5.83301 2.8016 5.62229 2.29289 5.24722 1.91782C4.87215 1.54274 4.36344 1.33203 3.83301 1.33203ZM12.4997 5.33203C12.4997 5.50884 12.5699 5.67841 12.6949 5.80344C12.82 5.92846 12.9895 5.9987 13.1663 5.9987C13.3432 5.9987 13.5127 5.92846 13.6377 5.80344C13.7628 5.67841 13.833 5.50884 13.833 5.33203C13.833 5.15522 13.7628 4.98565 13.6377 4.86063C13.5127 4.7356 13.3432 4.66536 13.1663 4.66536C12.9895 4.66536 12.82 4.7356 12.6949 4.86063C12.5699 4.98565 12.4997 5.15522 12.4997 5.33203ZM13.1663 3.33203C12.6359 3.33203 12.1272 3.54275 11.7521 3.91782C11.3771 4.29289 11.1663 4.8016 11.1663 5.33203C11.1663 5.86246 11.3771 6.37117 11.7521 6.74625C12.1272 7.12132 12.6359 7.33203 13.1663 7.33203C13.6968 7.33203 14.2055 7.12132 14.5806 6.74625C14.9556 6.37117 15.1663 5.86246 15.1663 5.33203C15.1663 4.8016 14.9556 4.29289 14.5806 3.91782C14.2055 3.54275 13.6968 3.33203 13.1663 3.33203ZM3.16634 12.6654C3.16634 12.8422 3.23658 13.0117 3.3616 13.1368C3.48663 13.2618 3.6562 13.332 3.83301 13.332C4.00982 13.332 4.17939 13.2618 4.30441 13.1368C4.42944 13.0117 4.49967 12.8422 4.49967 12.6654C4.49967 12.4886 4.42944 12.319 4.30441 12.194C4.17939 12.0689 4.00982 11.9987 3.83301 11.9987C3.6562 11.9987 3.48663 12.0689 3.3616 12.194C3.23658 12.319 3.16634 12.4886 3.16634 12.6654ZM3.83301 10.6654C3.30257 10.6654 2.79387 10.8761 2.41879 11.2512C2.04372 11.6262 1.83301 12.1349 1.83301 12.6654C1.83301 13.1958 2.04372 13.7045 2.41879 14.0796C2.79387 14.4547 3.30257 14.6654 3.83301 14.6654C4.36344 14.6654 4.87215 14.4547 5.24722 14.0796C5.62229 13.7045 5.83301 13.1958 5.83301 12.6654C5.83301 12.1349 5.62229 11.6262 5.24722 11.2512C4.87215 10.8761 4.36344 10.6654 3.83301 10.6654Z" fill="#8651C6"/>
<path fill-rule="evenodd" clip-rule="evenodd" d="M3.83366 10.6649C3.60033 10.6649 3.37566 10.7049 3.16699 10.7782V5.21822C3.59831 5.371 4.06901 5.371 4.50033 5.21822V10.7782C4.29166 10.7049 4.06699 10.6649 3.83366 10.6649ZM5.83366 12.6649C5.83366 12.2809 5.72566 11.9222 5.53833 11.6182L11.183 10.4082C11.1256 10.8619 11.2244 11.3215 11.463 11.7116L5.81766 12.9216C5.82833 12.8376 5.83366 12.7516 5.83366 12.6649ZM13.8337 8.77822V7.21822C13.4023 7.37089 12.9317 7.37089 12.5003 7.21822V8.77822C12.9316 8.62538 13.4024 8.62538 13.8337 8.77822ZM11.463 4.28489L5.81766 3.07422C5.87724 3.52807 5.77859 3.9886 5.53833 4.37822L11.183 5.58755C11.1255 5.1337 11.2242 4.67378 11.463 4.28355V4.28489Z" fill="#8651C6"/>
<path fill-rule="evenodd" clip-rule="evenodd" d="M12.5003 10.668C12.5003 10.8448 12.5706 11.0143 12.6956 11.1394C12.8206 11.2644 12.9902 11.3346 13.167 11.3346C13.3438 11.3346 13.5134 11.2644 13.6384 11.1394C13.7634 11.0143 13.8337 10.8448 13.8337 10.668C13.8337 10.4912 13.7634 10.3216 13.6384 10.1966C13.5134 10.0715 13.3438 10.0013 13.167 10.0013C12.9902 10.0013 12.8206 10.0715 12.6956 10.1966C12.5706 10.3216 12.5003 10.4912 12.5003 10.668ZM13.167 8.66797C12.6366 8.66797 12.1279 8.87868 11.7528 9.25375C11.3777 9.62883 11.167 10.1375 11.167 10.668C11.167 11.1984 11.3777 11.7071 11.7528 12.0822C12.1279 12.4573 12.6366 12.668 13.167 12.668C13.6974 12.668 14.2061 12.4573 14.5812 12.0822C14.9563 11.7071 15.167 11.1984 15.167 10.668C15.167 10.1375 14.9563 9.62883 14.5812 9.25375C14.2061 8.87868 13.6974 8.66797 13.167 8.66797Z" fill="#8651C6"/>
</svg>
