<svg width="17" height="16" viewBox="0 0 17 16" fill="none" xmlns="http://www.w3.org/2000/svg">
<path fill-rule="evenodd" clip-rule="evenodd" d="M3.16666 3.33203C3.16666 3.50884 3.2369 3.67841 3.36192 3.80344C3.48695 3.92846 3.65652 3.9987 3.83333 3.9987C4.01014 3.9987 4.17971 3.92846 4.30473 3.80344C4.42976 3.67841 4.49999 3.50884 4.49999 3.33203C4.49999 3.15522 4.42976 2.98565 4.30473 2.86063C4.17971 2.7356 4.01014 2.66536 3.83333 2.66536C3.65652 2.66536 3.48695 2.7356 3.36192 2.86063C3.2369 2.98565 3.16666 3.15522 3.16666 3.33203ZM3.83333 1.33203C3.3029 1.33203 2.79419 1.54274 2.41911 1.91782C2.04404 2.29289 1.83333 2.8016 1.83333 3.33203C1.83333 3.86246 2.04404 4.37117 2.41911 4.74624C2.79419 5.12132 3.3029 5.33203 3.83333 5.33203C4.36376 5.33203 4.87247 5.12132 5.24754 4.74624C5.62261 4.37117 5.83333 3.86246 5.83333 3.33203C5.83333 2.8016 5.62261 2.29289 5.24754 1.91782C4.87247 1.54274 4.36376 1.33203 3.83333 1.33203ZM3.16666 12.6654C3.16666 12.8422 3.2369 13.0117 3.36192 13.1368C3.48695 13.2618 3.65652 13.332 3.83333 13.332C4.01014 13.332 4.17971 13.2618 4.30473 13.1368C4.42976 13.0117 4.49999 12.8422 4.49999 12.6654C4.49999 12.4886 4.42976 12.319 4.30473 12.194C4.17971 12.0689 4.01014 11.9987 3.83333 11.9987C3.65652 11.9987 3.48695 12.0689 3.36192 12.194C3.2369 12.319 3.16666 12.4886 3.16666 12.6654ZM3.83333 10.6654C3.3029 10.6654 2.79419 10.8761 2.41911 11.2512C2.04404 11.6262 1.83333 12.1349 1.83333 12.6654C1.83333 13.1958 2.04404 13.7045 2.41911 14.0796C2.79419 14.4547 3.3029 14.6654 3.83333 14.6654C4.36376 14.6654 4.87247 14.4547 5.24754 14.0796C5.62261 13.7045 5.83333 13.1958 5.83333 12.6654C5.83333 12.1349 5.62261 11.6262 5.24754 11.2512C4.87247 10.8761 4.36376 10.6654 3.83333 10.6654ZM12.5 3.33203C12.5 3.50884 12.5702 3.67841 12.6953 3.80344C12.8203 3.92846 12.9899 3.9987 13.1667 3.9987C13.3435 3.9987 13.513 3.92846 13.6381 3.80344C13.7631 3.67841 13.8333 3.50884 13.8333 3.33203C13.8333 3.15522 13.7631 2.98565 13.6381 2.86063C13.513 2.7356 13.3435 2.66536 13.1667 2.66536C12.9899 2.66536 12.8203 2.7356 12.6953 2.86063C12.5702 2.98565 12.5 3.15522 12.5 3.33203ZM13.1667 1.33203C12.6362 1.33203 12.1275 1.54274 11.7524 1.91782C11.3774 2.29289 11.1667 2.8016 11.1667 3.33203C11.1667 3.86246 11.3774 4.37117 11.7524 4.74624C12.1275 5.12132 12.6362 5.33203 13.1667 5.33203C13.6971 5.33203 14.2058 5.12132 14.5809 4.74624C14.9559 4.37117 15.1667 3.86246 15.1667 3.33203C15.1667 2.8016 14.9559 2.29289 14.5809 1.91782C14.2058 1.54274 13.6971 1.33203 13.1667 1.33203Z" fill="#8651C6"/>
<path fill-rule="evenodd" clip-rule="evenodd" d="M11.1667 3.33464C11.1667 3.1013 11.2067 2.87664 11.28 2.66797H5.72C5.87278 3.09928 5.87278 3.56999 5.72 4.0013H11.28C11.2067 3.79264 11.1667 3.56797 11.1667 3.33464ZM13.1667 5.33464C13.4 5.33464 13.6247 5.29464 13.8333 5.2213V10.7813C13.402 10.6286 12.9313 10.6286 12.5 10.7813V5.2213C12.7087 5.29464 12.9333 5.33464 13.1667 5.33464ZM11.28 12.0013H5.72C5.87278 12.4326 5.87278 12.9033 5.72 13.3346H11.28C11.1273 12.9033 11.1273 12.4326 11.28 12.0013ZM3.16667 10.7813V5.2213C3.59799 5.37408 4.06869 5.37408 4.50001 5.2213V10.7813C4.06868 10.6286 3.598 10.6286 3.16667 10.7813Z" fill="#8651C6"/>
<path fill-rule="evenodd" clip-rule="evenodd" d="M12.5 12.668C12.5 12.8448 12.5702 13.0143 12.6953 13.1394C12.8203 13.2644 12.9899 13.3346 13.1667 13.3346C13.3435 13.3346 13.5131 13.2644 13.6381 13.1394C13.7631 13.0143 13.8333 12.8448 13.8333 12.668C13.8333 12.4912 13.7631 12.3216 13.6381 12.1966C13.5131 12.0715 13.3435 12.0013 13.1667 12.0013C12.9899 12.0013 12.8203 12.0715 12.6953 12.1966C12.5702 12.3216 12.5 12.4912 12.5 12.668ZM13.1667 10.668C12.6362 10.668 12.1275 10.8787 11.7525 11.2538C11.3774 11.6288 11.1667 12.1375 11.1667 12.668C11.1667 13.1984 11.3774 13.7071 11.7525 14.0822C12.1275 14.4573 12.6362 14.668 13.1667 14.668C13.6971 14.668 14.2058 14.4573 14.5809 14.0822C14.956 13.7071 15.1667 13.1984 15.1667 12.668C15.1667 12.1375 14.956 11.6288 14.5809 11.2538C14.2058 10.8787 13.6971 10.668 13.1667 10.668Z" fill="#8651C6"/>
</svg>
