<svg width="17" height="16" viewBox="0 0 17 16" fill="none" xmlns="http://www.w3.org/2000/svg">
<path fill-rule="evenodd" clip-rule="evenodd" d="M12.5003 3.33594C12.5003 3.51275 12.5706 3.68232 12.6956 3.80734C12.8206 3.93237 12.9902 4.0026 13.167 4.0026C13.3438 4.0026 13.5134 3.93237 13.6384 3.80734C13.7634 3.68232 13.8337 3.51275 13.8337 3.33594C13.8337 3.15913 13.7634 2.98956 13.6384 2.86453C13.5134 2.73951 13.3438 2.66927 13.167 2.66927C12.9902 2.66927 12.8206 2.73951 12.6956 2.86453C12.5706 2.98956 12.5003 3.15913 12.5003 3.33594ZM13.167 1.33594C12.6366 1.33594 12.1279 1.54665 11.7528 1.92172C11.3777 2.2968 11.167 2.8055 11.167 3.33594C11.167 3.86637 11.3777 4.37508 11.7528 4.75015C12.1279 5.12522 12.6366 5.33594 13.167 5.33594C13.6974 5.33594 14.2061 5.12522 14.5812 4.75015C14.9563 4.37508 15.167 3.86637 15.167 3.33594C15.167 2.8055 14.9563 2.2968 14.5812 1.92172C14.2061 1.54665 13.6974 1.33594 13.167 1.33594Z" fill="#8651C6"/>
<path fill-rule="evenodd" clip-rule="evenodd" d="M4.69531 10.8613L11.362 4.19531C11.5596 4.60797 11.8921 4.94078 12.3046 5.13865L5.63798 11.8046C5.4404 11.392 5.10783 11.0592 4.69531 10.8613Z" fill="#8651C6"/>
<path fill-rule="evenodd" clip-rule="evenodd" d="M3.16634 12.6641C3.16634 12.8409 3.23658 13.0104 3.3616 13.1355C3.48663 13.2605 3.6562 13.3307 3.83301 13.3307C4.00982 13.3307 4.17939 13.2605 4.30441 13.1355C4.42944 13.0104 4.49967 12.8409 4.49967 12.6641C4.49967 12.4873 4.42944 12.3177 4.30441 12.1927C4.17939 12.0676 4.00982 11.9974 3.83301 11.9974C3.6562 11.9974 3.48663 12.0676 3.3616 12.1927C3.23658 12.3177 3.16634 12.4873 3.16634 12.6641ZM3.83301 10.6641C3.30257 10.6641 2.79387 10.8748 2.41879 11.2498C2.04372 11.6249 1.83301 12.1336 1.83301 12.6641C1.83301 13.1945 2.04372 13.7032 2.41879 14.0783C2.79387 14.4533 3.30257 14.6641 3.83301 14.6641C4.36344 14.6641 4.87215 14.4533 5.24722 14.0783C5.62229 13.7032 5.83301 13.1945 5.83301 12.6641C5.83301 12.1336 5.62229 11.6249 5.24722 11.2498C4.87215 10.8748 4.36344 10.6641 3.83301 10.6641Z" fill="#8651C6"/>
</svg>
