<svg width="17" height="16" viewBox="0 0 17 16" fill="none" xmlns="http://www.w3.org/2000/svg">
<path fill-rule="evenodd" clip-rule="evenodd" d="M12.5003 3.33203C12.5003 3.50884 12.5706 3.67841 12.6956 3.80344C12.8206 3.92846 12.9902 3.9987 13.167 3.9987C13.3438 3.9987 13.5134 3.92846 13.6384 3.80344C13.7634 3.67841 13.8337 3.50884 13.8337 3.33203C13.8337 3.15522 13.7634 2.98565 13.6384 2.86063C13.5134 2.7356 13.3438 2.66536 13.167 2.66536C12.9902 2.66536 12.8206 2.7356 12.6956 2.86063C12.5706 2.98565 12.5003 3.15522 12.5003 3.33203ZM13.167 1.33203C12.6366 1.33203 12.1279 1.54274 11.7528 1.91782C11.3777 2.29289 11.167 2.8016 11.167 3.33203C11.167 3.86246 11.3777 4.37117 11.7528 4.74624C12.1279 5.12132 12.6366 5.33203 13.167 5.33203C13.6974 5.33203 14.2061 5.12132 14.5812 4.74624C14.9563 4.37117 15.167 3.86246 15.167 3.33203C15.167 2.8016 14.9563 2.29289 14.5812 1.91782C14.2061 1.54274 13.6974 1.33203 13.167 1.33203Z" fill="#8651C6"/>
<path fill-rule="evenodd" clip-rule="evenodd" d="M4.69531 10.8613L11.362 4.19531C11.5596 4.60797 11.8921 4.94078 12.3046 5.13865L5.63798 11.8046C5.4404 11.392 5.10783 11.0592 4.69531 10.8613Z" fill="#8651C6"/>
<path fill-rule="evenodd" clip-rule="evenodd" d="M3.16634 12.668C3.16634 12.8448 3.23658 13.0143 3.3616 13.1394C3.48663 13.2644 3.6562 13.3346 3.83301 13.3346C4.00982 13.3346 4.17939 13.2644 4.30441 13.1394C4.42944 13.0143 4.49967 12.8448 4.49967 12.668C4.49967 12.4912 4.42944 12.3216 4.30441 12.1966C4.17939 12.0715 4.00982 12.0013 3.83301 12.0013C3.6562 12.0013 3.48663 12.0715 3.3616 12.1966C3.23658 12.3216 3.16634 12.4912 3.16634 12.668ZM3.83301 10.668C3.30257 10.668 2.79387 10.8787 2.41879 11.2538C2.04372 11.6288 1.83301 12.1375 1.83301 12.668C1.83301 13.1984 2.04372 13.7071 2.41879 14.0822C2.79387 14.4573 3.30257 14.668 3.83301 14.668C4.36344 14.668 4.87215 14.4573 5.24722 14.0822C5.62229 13.7071 5.83301 13.1984 5.83301 12.668C5.83301 12.1375 5.62229 11.6288 5.24722 11.2538C4.87215 10.8787 4.36344 10.668 3.83301 10.668Z" fill="#8651C6"/>
</svg>
