<svg width="17" height="16" viewBox="0 0 17 16" fill="none" xmlns="http://www.w3.org/2000/svg">
<path d="M0.5 11.4027C0.5 12.0625 1.1058 12.5993 1.85046 12.5993C2.11114 12.5993 2.35468 12.5334 2.5613 12.4195L7.15116 14.7685C7.15078 14.7801 7.15016 14.7917 7.15016 14.8034C7.15016 15.4632 7.75596 16 8.50062 16C9.24528 16 9.85108 15.4632 9.85108 14.8034C9.85108 14.7909 9.85046 14.7786 9.85002 14.7662L14.4389 12.4196C14.6454 12.5334 14.8889 12.5993 15.1495 12.5993C15.8941 12.5993 16.5 12.0625 16.5 11.4027C16.5 10.9474 16.2114 10.5507 15.7879 10.3485L15.7888 5.65305C16.2119 5.45075 16.5 5.0543 16.5 4.59932C16.5 4.59898 16.5 4.59867 16.5 4.59833C16.5 4.59799 16.5 4.59767 16.5 4.59733C16.5 3.93754 15.8942 3.40073 15.1495 3.40073C14.8886 3.40073 14.6448 3.46685 14.438 3.58089L9.85055 1.2331C9.85067 1.22675 9.85111 1.19953 9.85111 1.1966C9.85111 0.536784 9.24528 0 8.50065 0C7.75602 0 7.15019 0.536784 7.15019 1.1966C7.15019 1.19953 7.1506 1.22646 7.15072 1.23271L2.56048 3.58C2.35406 3.46646 2.11082 3.40068 1.85049 3.40068C1.10583 3.40068 0.50003 3.93746 0.50003 4.59728C0.50003 4.59762 0.500059 4.59793 0.500059 4.59827C0.500059 4.59861 0.50003 4.59893 0.50003 4.59927C0.50003 5.05412 0.787973 5.45046 1.21081 5.65281L1.20993 10.3495C0.78753 10.5521 0.5 10.9482 0.5 11.4027ZM14.4389 5.61624C14.4621 5.62902 14.4857 5.64131 14.5098 5.65284L14.5089 10.3495C14.0865 10.5521 13.799 10.9482 13.799 11.4027C13.799 11.4145 13.7996 11.4262 13.8 11.4379L9.20937 13.7854C9.18671 13.773 9.16364 13.761 9.14012 13.7498V9.05365C9.56305 8.85129 9.85108 8.45493 9.85108 8C9.85108 7.98753 9.85046 7.97522 9.85002 7.96285L14.4389 5.61624ZM7.77449 2.22214C7.98436 2.34123 8.23345 2.41064 8.50062 2.41064C8.76764 2.41064 9.01658 2.34133 9.22636 2.22235L13.8 4.56301C13.7996 4.57443 13.799 4.58578 13.799 4.59728C13.799 4.59762 13.799 4.59793 13.799 4.59827C13.799 4.59861 13.799 4.59893 13.799 4.59927C13.799 4.61106 13.7996 4.62275 13.8 4.63446L9.2094 6.98201C9.00321 6.86889 8.76044 6.8034 8.50065 6.8034C8.23997 6.8034 7.99643 6.86936 7.78981 6.98322L3.19995 4.63427C3.20033 4.62264 3.20095 4.61106 3.20095 4.59935C3.20095 4.59901 3.20092 4.59869 3.20092 4.59835C3.20092 4.59801 3.20095 4.5977 3.20095 4.59736C3.20095 4.58536 3.20033 4.57346 3.19992 4.56152L7.77449 2.22214ZM2.48975 5.65305C2.5141 5.64141 2.53791 5.62902 2.5613 5.61613L7.15116 7.9651C7.15078 7.97673 7.15016 7.98831 7.15016 8.00003C7.15016 8.45495 7.43819 8.85132 7.86115 9.05367V13.7498C7.83687 13.7614 7.81314 13.7738 7.78978 13.7866L3.19992 11.4377C3.2003 11.426 3.20092 11.4145 3.20092 11.4027C3.20092 10.9474 2.91236 10.5508 2.48884 10.3486L2.48975 5.65305Z" fill="#8651C6"/>
</svg>
