<svg width="12" height="11" viewBox="0 0 12 11" fill="none" xmlns="http://www.w3.org/2000/svg">
<path d="M11.0968 5.2751L6.22176 0.400104C6.02676 0.205104 5.75592 0.0859375 5.45801 0.0859375H1.66634C1.07051 0.0859375 0.583008 0.573438 0.583008 1.16927V4.96094C0.583008 5.25885 0.702174 5.52969 0.902591 5.7301L5.77759 10.6051C5.97259 10.8001 6.24342 10.9193 6.54134 10.9193C6.83926 10.9193 7.11009 10.8001 7.30509 10.5997L11.0968 6.80802C11.2972 6.61302 11.4163 6.34219 11.4163 6.04427C11.4163 5.74635 11.2918 5.4701 11.0968 5.2751ZM2.47884 2.79427C2.02926 2.79427 1.66634 2.43135 1.66634 1.98177C1.66634 1.53219 2.02926 1.16927 2.47884 1.16927C2.92842 1.16927 3.29134 1.53219 3.29134 1.98177C3.29134 2.43135 2.92842 2.79427 2.47884 2.79427Z" fill="#2467AA"/>
</svg>
