<svg width="80" height="80" viewBox="0 0 80 80" fill="none" xmlns="http://www.w3.org/2000/svg">
<path d="M43.6731 26.9388C43.6731 23.6135 41.0662 21.0015 37.749 21.0015H35.3795C34.6686 21.0015 34.1944 20.5262 34.1944 19.8137C34.1944 19.1012 34.6686 18.626 35.3795 18.626H41.3036C42.7255 18.626 43.6731 17.6762 43.6731 16.2512C43.6731 14.8262 42.7255 13.8765 41.3036 13.8765H38.9341C38.9341 12.4515 37.9865 11.5017 36.5646 11.5017C35.1428 11.5017 34.1951 12.4515 34.1951 13.8765V14.1137C31.5882 14.589 29.4554 16.9637 29.4554 19.8137C29.4554 23.139 32.0624 25.751 35.3795 25.751H37.749C38.4599 25.751 38.9341 26.2263 38.9341 26.9388C38.9341 27.6513 38.4599 28.1258 37.749 28.1258H31.8249C30.4031 28.1258 29.4554 29.0756 29.4554 30.5006C29.4554 31.9256 30.4031 32.8753 31.8249 32.8753H37.749C41.0669 32.876 43.6731 30.2633 43.6731 26.9388V26.9388Z" fill="#A81E30"/>
<path d="M62.6316 68.5006H60.7356C59.3137 65.1754 60.2614 63.9883 61.6832 61.6128C64.7636 56.8626 65.9487 54.0126 62.1574 44.9881L55.7591 32.4003C56.9442 29.7876 57.6552 26.7003 57.6552 23.375C57.6552 11.4998 48.1765 2 36.3276 2C24.4787 2 15 11.4998 15 23.375C15 32.1623 20.2132 39.5253 27.7965 42.8495C27.3224 43.7999 27.0856 44.7504 27.0856 45.9375C27.0856 48.075 28.2707 49.9752 29.9293 50.925C29.6926 51.6375 29.4551 52.35 29.4551 53.0625C29.4551 56.1497 31.8246 58.7625 35.1425 58.9997C34.4316 61.6125 33.9574 64.6998 35.3792 68.4995L34.1948 68.5002C32.773 68.5002 31.8253 69.45 31.8253 70.875V75.6252C31.8253 77.0502 32.773 78 34.1948 78C35.6166 78 36.5643 77.0502 36.5643 75.6252V73.2505H60.261V75.6252C60.261 77.0502 61.2087 78 62.6305 78C64.0523 78 65 77.0502 65 75.6252V70.875C65.0007 69.45 64.053 68.5002 62.6312 68.5002L62.6316 68.5006ZM19.9764 23.3761C19.9764 14.1136 27.3224 6.75131 36.5643 6.75131C45.5695 6.75131 53.1522 14.1136 53.1522 23.3761C53.1522 28.1264 51.2562 32.4014 48.1758 35.4886C45.8063 32.4014 42.2517 32.1634 40.5924 32.6386C37.0378 33.3511 34.4308 36.2011 34.4308 39.7636V40.0009C26.138 38.5759 19.9764 31.6881 19.9764 23.3761V23.3761ZM31.8253 45.9375C31.8253 45.225 32.2995 44.7497 33.0104 44.7497H35.3799L35.8541 47.1245H33.0104C32.2988 47.1252 31.8253 46.6499 31.8253 45.9374V45.9375ZM34.1948 53.0625C34.1948 52.35 34.669 51.8747 35.3799 51.8747L36.5643 51.8754C36.5643 52.8252 36.5643 53.5377 36.3276 54.2502H35.3799C34.669 54.2502 34.1948 53.775 34.1948 53.0625L34.1948 53.0625ZM39.8822 59.0005C40.8298 55.9132 41.7782 52.1127 40.5931 46.6507L38.9345 39.2877C38.9345 38.0999 39.8822 37.3874 41.0673 37.1502C41.0673 37.1502 43.2 36.6749 44.3851 38.5752L44.6219 38.8124C44.6219 38.8124 48.6507 43.5627 48.4132 49.2627C48.4132 50.6877 49.3609 51.6375 50.7827 51.6375C51.9678 51.6375 53.1522 50.6877 53.1522 49.2627C53.3889 45.225 51.9671 41.4252 50.5453 39.0504C51.4929 38.3379 52.2038 37.6254 52.9147 36.6757L57.8912 46.4134C60.9716 53.5384 60.2607 54.7262 57.8912 58.5259C56.4693 60.9007 54.5733 63.2762 55.9952 68.0257H40.5917C38.4603 64.4625 38.9345 62.0877 39.8821 59.0005H39.8822Z" fill="#A81E30"/>
</svg>
