<svg width="27" height="28" viewBox="0 0 27 28" fill="none" xmlns="http://www.w3.org/2000/svg">
<path d="M13.5 0.5C9.91954 0.5 6.48584 1.92231 3.95412 4.45412C1.42231 6.98574 0 10.4196 0 14C0 17.5804 1.42231 21.0142 3.95412 23.5459C6.48574 26.0777 9.91963 27.5 13.5 27.5C17.0804 27.5 20.5142 26.0777 23.0459 23.5459C25.5777 21.0143 27 17.5804 27 14C27 10.4196 25.5777 6.98584 23.0459 4.45412C20.5143 1.92231 17.0804 0.5 13.5 0.5ZM14.7123 21.4456C14.7123 21.6987 14.6118 21.9415 14.4328 22.1206C14.2537 22.2997 14.011 22.4003 13.7579 22.4003H12.8318C12.5787 22.4003 12.3357 22.2997 12.1568 22.1206C11.9777 21.9415 11.8771 21.6987 11.8771 21.4456V20.2255C11.8771 19.9724 11.9777 19.7296 12.1568 19.5505C12.3357 19.3716 12.5787 19.271 12.8318 19.271H13.7579C14.011 19.271 14.2537 19.3716 14.4328 19.5505C14.6118 19.7296 14.7123 19.9724 14.7123 20.2255V21.4456ZM18.1489 11.0651C17.7886 11.7092 17.3343 12.2961 16.801 12.8063L15.8655 13.761C15.4924 14.1045 15.18 14.5085 14.9415 14.9561C14.7971 15.3202 14.7287 15.7101 14.741 16.1016V16.3346C14.741 16.4242 14.7314 16.5103 14.7257 16.6095V16.6325V17.5985C14.7257 17.6996 14.6854 17.7968 14.6138 17.8684C14.5423 17.9399 14.4451 17.9802 14.344 17.9802H12.2591C12.0482 17.9802 11.8771 17.8092 11.8771 17.5985V16.2658C11.8611 15.627 11.9734 14.9913 12.2075 14.3967C12.4955 13.7831 12.8949 13.2283 13.3855 12.7605L14.3402 11.7771H14.34C14.6911 11.4474 14.9962 11.0716 15.247 10.6603C15.4037 10.3802 15.4866 10.0648 15.4875 9.74385C15.516 9.31425 15.3337 8.89765 14.9988 8.62702C14.673 8.37239 14.1842 8.24526 13.5326 8.24526H13.5324C12.8919 8.25487 12.2591 8.3884 11.6691 8.63851C11.1786 8.84078 10.7093 9.0907 10.2679 9.38486C10.1509 9.46208 10.001 9.46886 9.87763 9.40275C9.75408 9.33646 9.67667 9.20801 9.67592 9.06808V7.06908C9.67535 6.93216 9.74824 6.80541 9.86689 6.73686C10.4696 6.39032 11.1103 6.11422 11.7761 5.91404C12.4706 5.70649 13.1914 5.60046 13.9163 5.59895C15.3456 5.59895 16.4677 5.94511 17.2822 6.63762C18.0968 7.32993 18.5042 8.28461 18.5042 9.50143C18.5115 10.0427 18.3919 10.5783 18.1546 11.065L18.1489 11.0651Z" fill="#16601A"/>
</svg>
