<svg width="80" height="80" viewBox="0 0 80 80" fill="none" xmlns="http://www.w3.org/2000/svg">
<path fill-rule="evenodd" clip-rule="evenodd" d="M55.2656 68.5773C54.7209 68.4612 54.1594 68.6558 53.8005 69.0833C53.7745 69.1143 51.6682 71.6205 49.1814 74.4826L42.0587 53.0475C43.3706 52.4369 44.3539 51.2566 44.7187 49.8185L44.7241 49.7983C44.742 49.7269 44.7588 49.6549 44.774 49.5819C44.7832 49.5366 44.7907 49.4903 44.7983 49.4445C44.8113 49.3709 44.8232 49.2973 44.8324 49.2226C44.8422 49.1506 44.8498 49.0781 44.8563 49.0051C44.859 48.9702 44.8617 48.9353 44.8638 48.901C44.8709 48.7941 44.8757 48.6873 44.8757 48.5788C44.8757 48.4812 44.873 48.3836 44.8671 48.2866C47.1314 47.7518 49.3086 46.8403 51.2892 45.5978C51.3536 45.6708 51.4202 45.7428 51.4895 45.8126V45.8131C51.5458 45.8698 51.6032 45.9243 51.6617 45.9778C51.6747 45.9898 51.6877 46.0007 51.7012 46.0127C51.7456 46.0525 51.79 46.0917 51.836 46.1299C51.8604 46.1506 51.8853 46.1697 51.9097 46.1898C51.9443 46.2176 51.979 46.2449 52.0142 46.2716C52.045 46.2956 52.077 46.3185 52.1089 46.3414C52.1382 46.3621 52.1674 46.3834 52.1966 46.4035C52.2329 46.4286 52.2697 46.4531 52.3071 46.4771C52.3325 46.4935 52.358 46.5098 52.3834 46.5262C52.424 46.5513 52.4652 46.5758 52.5063 46.5998C52.5291 46.6129 52.5513 46.626 52.574 46.6385C52.6184 46.6636 52.6628 46.6876 52.7083 46.711C52.7278 46.7214 52.7478 46.7317 52.7679 46.7415C52.8155 46.7655 52.8642 46.789 52.9124 46.8119C52.9298 46.8195 52.9471 46.8271 52.9639 46.8348C53.0158 46.8577 53.0673 46.88 53.1198 46.9013C53.1333 46.9067 53.1469 46.9122 53.161 46.9171C53.2167 46.9394 53.273 46.9612 53.3299 46.9809C53.3364 46.9836 53.3429 46.9852 53.3499 46.9874C53.599 47.0741 53.8551 47.1395 54.1172 47.1842C54.1388 47.188 54.1605 47.1924 54.1827 47.1957C54.2309 47.2033 54.2796 47.2093 54.3278 47.2153C54.3543 47.2185 54.3809 47.2224 54.4079 47.2251C54.4572 47.2305 54.5065 47.2344 54.5557 47.2382C54.5725 47.2398 54.5888 47.2414 54.6056 47.2425L62.1848 70.0509L55.2656 68.5773ZM30.8189 74.4824C28.3325 71.6203 26.2258 69.1142 26.2004 69.0831C25.9096 68.7375 25.4862 68.544 25.0471 68.544C24.9437 68.544 24.8392 68.5549 24.7353 68.5767L17.8161 70.0507L25.3948 47.2423C26.0721 47.1976 26.7305 47.009 27.3299 46.6906C27.3315 46.6895 27.3331 46.6884 27.3353 46.6879C27.3997 46.6536 27.4636 46.6176 27.5264 46.58C27.5383 46.5734 27.5497 46.5663 27.5616 46.5592C27.6147 46.5271 27.6672 46.4938 27.7192 46.4595C27.7365 46.448 27.7538 46.4366 27.7712 46.4251C27.8172 46.3941 27.8627 46.3619 27.9076 46.3292C27.9282 46.3139 27.9488 46.2992 27.9693 46.2839C28.0116 46.2523 28.0527 46.2196 28.0939 46.1869C28.1155 46.1695 28.1366 46.1531 28.1578 46.1351C28.1995 46.1008 28.2406 46.0648 28.2818 46.0283C28.3007 46.0114 28.3197 45.995 28.3381 45.9781C28.3965 45.9247 28.4534 45.8702 28.5097 45.8135C28.5102 45.8135 28.5102 45.8129 28.5108 45.8124C28.5801 45.7426 28.6472 45.6706 28.7117 45.5976C30.6917 46.84 32.8689 47.7516 35.1332 48.2863C35.1278 48.3834 35.1251 48.481 35.1251 48.5786C35.1251 48.687 35.1299 48.7939 35.1364 48.9008C35.1386 48.9351 35.1413 48.97 35.1446 49.0049C35.1505 49.0779 35.1586 49.1504 35.1678 49.2224C35.1776 49.2971 35.189 49.3707 35.202 49.4443C35.2101 49.4901 35.2177 49.5364 35.2269 49.5816C35.2415 49.6547 35.2588 49.7267 35.2761 49.7981L35.2816 49.8182C35.6465 51.2564 36.6298 52.4367 37.9416 53.0473L30.8189 74.4824ZM21.0501 28.9494C20.6239 28.7237 20.1171 28.7166 19.6845 28.9292C19.4268 29.0563 19.155 29.1211 18.8762 29.1211C17.855 29.1211 17.0245 28.2821 17.0245 27.2513C17.0245 26.2199 17.855 25.3815 18.8762 25.3815C19.155 25.3815 19.4268 25.4458 19.6845 25.5728C20.1171 25.786 20.6234 25.7784 21.0501 25.5532C21.4756 25.3275 21.7702 24.911 21.8427 24.4313C22.2851 21.4999 23.4427 18.6821 25.1889 16.2816C25.4737 15.8907 25.5571 15.3854 25.4136 14.922C25.2696 14.4586 24.9161 14.0917 24.4607 13.9342C24.1894 13.8404 23.9517 13.6916 23.7536 13.4915C23.0318 12.7626 23.0318 11.5763 23.7536 10.8475C24.4758 10.1181 25.6509 10.1181 26.3726 10.847C26.5708 11.0471 26.718 11.2875 26.8112 11.5611C26.9671 12.0207 27.3304 12.3778 27.7896 12.5228C28.2493 12.6684 28.749 12.5839 29.1367 12.2966C31.5132 10.5329 34.3042 9.36466 37.2075 8.91765C37.6829 8.8446 38.0955 8.5475 38.3186 8.11736C38.5422 7.68723 38.5493 7.17478 38.3381 6.73865C38.2125 6.47915 38.1486 6.2044 38.1486 5.92254C38.1486 4.89165 38.9792 4.05271 40.0003 4.05271C41.0214 4.05271 41.852 4.89171 41.852 5.92254C41.852 6.20439 41.7881 6.47915 41.6625 6.7392C41.4518 7.17532 41.4589 7.68723 41.682 8.11736C41.9056 8.54748 42.3181 8.84459 42.7935 8.91765C45.6967 9.36468 48.4874 10.5329 50.8644 12.2966C51.2521 12.5839 51.7518 12.6684 52.211 12.5233C52.6701 12.3783 53.0334 12.0212 53.1894 11.5617C53.2825 11.2875 53.4303 11.0471 53.6279 10.8475C54.3502 10.1181 55.5252 10.1181 56.247 10.8475C56.9693 11.5764 56.9693 12.7627 56.247 13.4915C56.0493 13.6916 55.8111 13.8404 55.5398 13.9342C55.0845 14.0917 54.7309 14.4586 54.5874 14.922C54.4434 15.3854 54.5268 15.8907 54.8116 16.2816C56.5584 18.6819 57.7153 21.4999 58.1583 24.4313C58.2304 24.911 58.5249 25.3275 58.951 25.5532C59.3771 25.7784 59.8839 25.786 60.316 25.5728C60.5732 25.4458 60.8455 25.3815 61.1249 25.3815C62.1461 25.3815 62.9766 26.2199 62.9766 27.2513C62.9766 28.2822 62.146 29.1211 61.1249 29.1211C60.8455 29.1211 60.5732 29.0563 60.316 28.9292C59.8839 28.7166 59.3771 28.7237 58.951 28.9494C58.5249 29.1746 58.2304 29.5911 58.1583 30.0714C57.7154 33.0021 56.5584 35.82 54.8116 38.2204C54.5268 38.6113 54.4434 39.1167 54.5874 39.5801C54.7309 40.0434 55.0845 40.4103 55.5398 40.5679C55.8111 40.6622 56.0493 40.811 56.247 41.0106C56.5967 41.3638 56.7895 41.8332 56.7895 42.3326C56.7895 42.8319 56.5968 43.3019 56.247 43.6551C56.0006 43.9037 55.6969 44.0716 55.366 44.1501C55.3579 44.1518 55.3498 44.1529 55.3417 44.1545C55.1857 44.1894 55.0293 44.2041 54.8744 44.1992H54.8722C54.7986 44.1965 54.726 44.1894 54.654 44.1785C54.6475 44.1774 54.6416 44.1768 54.6356 44.1758C54.4873 44.1512 54.3427 44.1092 54.2046 44.0498C54.2019 44.0487 54.1992 44.0471 54.1965 44.0455C54.1353 44.0188 54.0758 43.9877 54.0178 43.9544C54.0027 43.9457 53.9875 43.9364 53.9729 43.9266C53.9263 43.8983 53.8814 43.8672 53.8375 43.8339C53.8218 43.8225 53.8056 43.811 53.7899 43.7985C53.7363 43.756 53.6838 43.7102 53.6345 43.6606C53.6323 43.6584 53.6301 43.6568 53.628 43.6546C53.5592 43.5854 53.4986 43.5085 53.4417 43.4294C53.3361 43.2812 53.25 43.1187 53.1894 42.9404C53.0335 42.4809 52.6702 42.1238 52.211 41.9788C52.1163 41.9488 52.0193 41.9313 51.9224 41.9204C51.6089 41.8866 51.2911 41.9499 51.015 42.1074C50.963 42.1369 50.9126 42.1696 50.8644 42.2056C48.4876 43.9692 45.6969 45.1374 42.7936 45.5845C42.3182 45.6575 41.9056 45.9546 41.682 46.3847C41.4589 46.8149 41.4519 47.3268 41.6625 47.7629C41.7881 48.023 41.852 48.2977 41.852 48.5796C41.852 49.3526 41.3853 50.0177 40.7209 50.3023C40.7198 50.3023 40.7193 50.3028 40.7182 50.3034C40.6679 50.3246 40.6164 50.3437 40.5639 50.3601C40.5444 50.3666 40.5244 50.3715 40.5049 50.377C40.4702 50.3873 40.435 50.3966 40.3999 50.4048C40.3652 50.4119 40.3305 50.4179 40.2959 50.4233C40.2732 50.4271 40.2504 50.4315 40.2271 50.4342C40.1844 50.4391 40.1405 50.4424 40.0966 50.4446C40.0647 50.4462 40.0328 50.4495 40.0003 50.4495C39.9678 50.4495 39.9364 50.4462 39.9039 50.4446C39.86 50.4424 39.8167 50.4391 39.7739 50.4342C39.7507 50.4315 39.7279 50.4271 39.7052 50.4233C39.67 50.4179 39.6353 50.4119 39.6012 50.4048C39.5655 50.3966 39.5303 50.3873 39.4956 50.377C39.4761 50.3715 39.4561 50.3666 39.4366 50.3601C39.3841 50.3437 39.3327 50.3246 39.2823 50.3034C39.2812 50.3028 39.2807 50.3023 39.2796 50.3023C38.6158 50.0177 38.1485 49.3526 38.1485 48.5796C38.1485 48.2977 38.2124 48.023 38.338 47.7635C38.5492 47.3268 38.5422 46.8154 38.3185 46.3847C38.0954 45.9546 37.6829 45.6575 37.2075 45.5845C34.3043 45.1374 31.5137 43.9692 29.1366 42.2056C29.0933 42.1739 29.0484 42.145 29.0029 42.1183C28.991 42.1112 28.9791 42.1047 28.9666 42.0976C28.9244 42.0747 28.8811 42.0529 28.8372 42.0338C28.8329 42.0316 28.8285 42.0295 28.8242 42.0273C28.7766 42.0077 28.7278 41.9908 28.6791 41.9755C28.6656 41.9717 28.652 41.9679 28.6385 41.964C28.5952 41.9521 28.5519 41.9422 28.5075 41.9341C28.4999 41.933 28.4923 41.9308 28.4842 41.9297C28.4338 41.921 28.3835 41.9161 28.3326 41.9128C28.3185 41.9123 28.305 41.9117 28.2914 41.9112C28.2746 41.9106 28.2579 41.9095 28.2411 41.9095C28.2124 41.9095 28.1837 41.9112 28.155 41.9128C28.1479 41.9128 28.1414 41.9128 28.1344 41.9133C28.083 41.9172 28.0315 41.9242 27.9806 41.933C27.9682 41.9352 27.9563 41.9379 27.9438 41.9401C27.8918 41.951 27.8404 41.963 27.7895 41.9793C27.3303 42.1243 26.967 42.4814 26.8111 42.941C26.718 43.2152 26.5707 43.4551 26.3725 43.6546C26.3687 43.6584 26.3644 43.6617 26.3606 43.666C26.313 43.7129 26.2632 43.7571 26.2117 43.798C26.1933 43.8127 26.1738 43.8263 26.1554 43.8399C26.1159 43.8688 26.0758 43.8966 26.0347 43.9223C26.0135 43.9353 25.9924 43.9484 25.9708 43.9604C25.9269 43.9855 25.8825 44.0078 25.837 44.0291C25.8186 44.0373 25.8002 44.0471 25.7818 44.0553C25.7174 44.082 25.6513 44.1065 25.5842 44.1261C25.5788 44.1278 25.5733 44.1289 25.5674 44.1305C25.5046 44.1479 25.4407 44.1627 25.3757 44.1736C25.36 44.1763 25.3443 44.1779 25.3281 44.1807C25.268 44.1888 25.2073 44.1954 25.1456 44.1976C25.1359 44.1981 25.1261 44.1986 25.1158 44.1992C24.9648 44.203 24.8115 44.1888 24.6594 44.1545C24.6567 44.1539 24.654 44.1539 24.6513 44.1534C24.3221 44.0782 24.0097 43.913 23.7535 43.6546C23.0318 42.9257 23.0318 41.7394 23.7535 41.0106C23.9517 40.8111 24.1894 40.6623 24.4607 40.5679C24.916 40.4104 25.2696 40.0435 25.4136 39.5801C25.5571 39.1167 25.4737 38.6114 25.1889 38.2205C23.4427 35.8202 22.2852 33.0022 21.8427 30.0714C21.7702 29.5911 21.4756 29.1746 21.05 28.9495L21.0501 28.9494ZM57.5447 46.4922C57.8453 46.2997 58.1268 46.0735 58.3845 45.8134C59.3055 44.8839 59.8124 43.6475 59.8124 42.3327C59.8124 41.0177 59.3056 39.7819 58.3845 38.8519C58.3152 38.7821 58.2443 38.7145 58.1717 38.6496C59.4019 36.65 60.3051 34.4514 60.834 32.1655C60.9304 32.171 61.0268 32.1742 61.1242 32.1742C63.8126 32.1742 66 29.9658 66 27.2515C66 24.5366 63.8126 22.3288 61.1242 22.3288C61.0268 22.3288 60.9304 22.3315 60.834 22.3375C60.305 20.0511 59.4019 17.8525 58.1717 15.8534C58.2443 15.788 58.3152 15.7204 58.3845 15.6506C60.2856 13.7311 60.2856 10.6079 58.3845 8.68891C56.4835 6.76939 53.3903 6.76939 51.4892 8.68891C51.4199 8.75869 51.3533 8.83064 51.2889 8.9037C49.3088 7.66129 47.1311 6.74973 44.8668 6.21493C44.8728 6.11789 44.8755 6.02031 44.8755 5.92272C44.8755 3.20841 42.6881 1 39.9997 1C37.3114 1 35.1245 3.20841 35.1245 5.92272C35.1245 6.0203 35.1272 6.11788 35.1326 6.21493C32.8683 6.74973 30.6912 7.6612 28.7111 8.9037C28.6467 8.83065 28.5795 8.75869 28.5102 8.68891C26.6092 6.76939 23.516 6.76939 21.6149 8.68891C19.7144 10.6079 19.7144 13.7311 21.6149 15.6506C21.6842 15.7204 21.7557 15.788 21.8283 15.8534C20.5976 17.8525 19.6949 20.0511 19.1654 22.3375C19.069 22.3315 18.9727 22.3288 18.8758 22.3288C16.1874 22.3288 14 24.5366 14 27.2515C14 29.9658 16.1874 32.1742 18.8758 32.1742C18.9727 32.1742 19.069 32.171 19.1654 32.1655C19.695 34.4514 20.5975 36.65 21.8283 38.6496C21.7557 38.7145 21.6842 38.7821 21.6149 38.8524C19.7144 40.7714 19.7144 43.8946 21.6149 45.8136C21.8748 46.0758 22.1569 46.3009 22.4553 46.4912L14.1083 71.6093C13.9356 72.1289 14.052 72.7013 14.412 73.1101C14.7732 73.519 15.3227 73.7022 15.8533 73.5888L24.479 71.7516C25.5473 73.0137 27.9204 75.8032 30.2904 78.4892C30.5806 78.8179 30.9926 79 31.4193 79C31.52 79 31.6213 78.9902 31.7225 78.9689C32.2504 78.8599 32.6809 78.475 32.8525 77.9593L39.9995 56.4502L47.1471 77.9593C47.3182 78.475 47.7486 78.8599 48.2765 78.9689C48.3778 78.9902 48.479 79 48.5803 79C49.0064 79 49.419 78.8179 49.7087 78.4892C52.0792 75.8032 54.4523 73.0137 55.5206 71.7516L64.1459 73.5888C64.6776 73.7022 65.2266 73.519 65.5872 73.1101C65.9478 72.7013 66.0642 72.1289 65.8914 71.6093L57.5447 46.4922ZM39.9995 14.7547C46.8238 14.7547 52.3758 20.36 52.3758 27.2503C52.3758 34.1411 46.8238 39.7469 39.9995 39.7469C33.1751 39.7469 27.6231 34.1411 27.6231 27.2503C27.6231 20.36 33.1751 14.7547 39.9995 14.7547ZM39.9995 42.7994C48.491 42.7994 55.4004 35.8236 55.4004 27.2496C55.4004 18.6755 48.4916 11.7011 39.9995 11.7011C31.5079 11.7011 24.5999 18.6759 24.5999 27.2496C24.5999 35.8232 31.5082 42.7994 39.9995 42.7994ZM36.7626 24.7193C37.662 24.5874 38.4384 24.0177 38.8407 23.1951L39.9994 20.8242L41.1586 23.1951C41.5604 24.0177 42.3373 24.5874 43.2361 24.7193L45.8269 25.0993L43.9524 26.9447C43.3016 27.5847 43.0049 28.5071 43.1587 29.411L43.6016 32.0169L41.2836 30.7865C40.8819 30.5733 40.4406 30.4665 39.9993 30.4665C39.5586 30.4665 39.1173 30.5733 38.7155 30.7865L36.3976 32.0169L36.8405 29.411C36.9937 28.5066 36.697 27.5847 36.0467 26.9453L34.1717 25.0993L36.7626 24.7193ZM33.8367 29.0331L33.3272 32.0331C33.1485 33.0864 33.5692 34.1303 34.4253 34.7583C34.9088 35.1132 35.4746 35.2931 36.0442 35.2931C36.4828 35.2931 36.9235 35.1863 37.3313 34.9704L39.9995 33.5541L42.6683 34.9704C43.605 35.4676 44.7182 35.3864 45.5743 34.7583C46.4303 34.1303 46.851 33.0864 46.6723 32.0331L46.1628 29.0331L48.321 26.9086C49.079 26.1628 49.3465 25.0681 49.0195 24.052C48.6924 23.0363 47.8391 22.3097 46.792 22.1559L43.8087 21.7181L42.474 18.9885C42.0062 18.0306 41.0576 17.4353 39.9995 17.4353C38.9416 17.4353 37.9934 18.0306 37.5251 18.9885L36.191 21.7181L33.2071 22.1559C32.1605 22.3096 31.3066 23.0363 30.9796 24.052C30.6526 25.0681 30.9206 26.1628 31.6781 26.9081L33.8367 29.0331Z" fill="#A62033"/>
</svg>
