<svg width="56" height="64" viewBox="0 0 56 64" fill="none" xmlns="http://www.w3.org/2000/svg">
<path d="M22.7475 0C18.3894 0 14.21 1.73091 11.1274 4.81231C8.04551 7.89385 6.31355 12.0727 6.3125 16.4313C6.31147 20.7893 8.0413 24.9692 11.1223 28.0524C14.2028 31.1353 18.3817 32.8682 22.7397 32.8703C27.0982 32.8724 31.2787 31.1431 34.3622 28.0632C37.4457 24.9832 39.1797 20.8048 39.1828 16.4468C39.1797 12.0878 37.4473 7.90781 34.3664 4.82483C31.2849 1.74131 27.1065 0.00632239 22.7475 0.000131646V0Z" fill="#393939"/>
<path d="M0.667969 62.8474C0.667969 63.1531 0.789397 63.4464 1.0055 63.6625C1.22159 63.8785 1.51488 64 1.8205 64H31.5216C30.952 63.3671 30.6361 62.5465 30.634 61.6949V38.6443H13.346C9.98368 38.6443 6.75909 39.98 4.38145 42.3575C2.00381 44.7352 0.668192 47.9596 0.668192 51.3221L0.667969 62.8474Z" fill="#393939"/>
<path d="M44.4648 27.1189C41.408 27.1189 38.4767 28.3332 36.3153 30.4947C34.1538 32.6562 32.9395 35.5874 32.9395 38.6442C32.9395 41.701 34.1537 44.6322 36.3153 46.7937C38.4768 48.9552 41.408 50.1695 44.4648 50.1695C47.5215 50.1695 50.4528 48.9552 52.6143 46.7937C54.7758 44.6322 55.9901 41.701 55.9901 38.6442C55.9901 35.5874 54.7758 32.6562 52.6143 30.4947C50.4528 28.3332 47.5215 27.1189 44.4648 27.1189Z" fill="#393939"/>
<path d="M34.5643 62.7435L38.7021 60.8995V51.2069C36.3569 50.1351 34.36 48.4259 32.9395 46.2742V61.6944C32.9405 62.0849 33.1391 62.4487 33.4668 62.6601C33.7951 62.8721 34.2083 62.9035 34.5643 62.743L34.5643 62.7435Z" fill="#393939"/>
<path d="M47.921 52.0254C45.6551 52.6253 43.2718 52.6253 41.0059 52.0254V59.8739L44.4635 58.3411L47.921 59.8739V52.0254Z" fill="#393939"/>
<path d="M54.8386 62.8474C55.0594 62.8469 55.2755 62.7826 55.4612 62.6632C55.791 62.4512 55.9907 62.0869 55.9912 61.6949V46.2747C54.5706 48.4264 52.5738 50.1356 50.2285 51.2074V60.9L54.3663 62.744C54.5145 62.8119 54.6755 62.8474 54.8386 62.8479L54.8386 62.8474Z" fill="#393939"/>
</svg>
