<svg width="81" height="81" viewBox="0 0 81 81" fill="none" xmlns="http://www.w3.org/2000/svg">
<path d="M24.4291 78.3866C24.3156 78.4839 24.1929 78.5714 24.0575 78.6487C24.0007 78.6794 23.9392 78.703 23.8808 78.7304C23.8037 78.7691 23.725 78.8099 23.6415 78.8389C23.5644 78.8652 23.4841 78.8818 23.4043 78.9039C23.332 78.9227 23.264 78.9447 23.189 78.9592C23.037 78.9834 22.8806 78.9989 22.7248 78.9989C22.7221 78.9989 22.72 79 22.7163 79C22.5567 79 22.3982 78.9855 22.2419 78.9592C22.1728 78.9468 22.1102 78.9248 22.0438 78.9082C21.9592 78.8861 21.8719 78.8695 21.7894 78.8399C21.7123 78.8131 21.6406 78.7744 21.5683 78.739C21.503 78.7084 21.4366 78.6831 21.3734 78.6477C21.2406 78.5714 21.1159 78.4838 21.0034 78.3866L11.9822 70.5932C11.0372 69.7768 11.0372 68.4538 11.9822 67.638C12.4539 67.2293 13.0728 67.0257 13.6924 67.0257C14.3119 67.0257 14.9313 67.2293 15.403 67.638L20.2956 71.865V30.8325C20.2956 29.6788 21.3793 28.7426 22.7151 28.7426C24.0505 28.7426 25.1341 29.6788 25.1341 30.8325V71.865L30.1264 67.5521C30.6003 67.1434 31.216 66.9398 31.8366 66.9398C32.4572 66.9398 33.0729 67.1434 33.5472 67.5521C34.4906 68.3685 34.4906 69.6915 33.5472 70.5072L24.4291 78.3866ZM42.0684 29.2031H63.2111C65.4957 29.2031 67.3478 31.061 67.3478 33.3529C67.3478 35.6447 65.4957 37.5026 63.2111 37.5026H42.0684C39.7837 37.5026 37.9316 35.6447 37.9316 33.3529C37.9316 31.061 39.7837 29.2031 42.0684 29.2031ZM42.0684 42.5744H58.6152C60.8998 42.5744 62.7519 44.4323 62.7519 46.7241C62.7519 49.016 60.8998 50.8739 58.6152 50.8739H42.0684C39.7837 50.8739 37.9316 49.016 37.9316 46.7241C37.9316 44.4323 39.7837 42.5744 42.0684 42.5744ZM42.0684 55.9457H54.019C56.3031 55.9457 58.1557 57.8035 58.1557 60.0954C58.1557 62.3872 56.3031 64.2451 54.019 64.2451H42.0684C39.7837 64.2451 37.9316 62.3872 37.9316 60.0954C37.9316 57.8035 39.7837 55.9457 42.0684 55.9457ZM42.0684 69.3169H49.4223C51.707 69.3169 53.559 71.1748 53.559 73.4666C53.559 75.7585 51.707 77.6164 49.4223 77.6164H42.0684C39.7837 77.6164 37.9316 75.7585 37.9316 73.4666C37.9316 71.1748 39.7837 69.3169 42.0684 69.3169ZM13.1703 2H66.8297C72.4463 2 77 6.54119 77 12.1437C77 17.7457 72.4462 22.2871 66.8297 22.2871H13.1703C7.55367 22.2871 3 17.7459 3 12.1437C3 6.54119 7.55381 2 13.1703 2V2ZM15.0673 14.8309L18.2862 18.0412C18.472 18.2271 18.774 18.2271 18.9598 18.0412L19.6334 17.3693C19.8197 17.184 19.8197 16.8832 19.6334 16.6974L16.415 13.487C17.4585 11.8354 17.2588 9.62579 15.8164 8.18686C14.1421 6.51693 11.4275 6.51693 9.75334 8.18686C8.07905 9.85679 8.07905 12.5643 9.75334 14.2341C11.1963 15.673 13.4114 15.8717 15.0675 14.8308L15.0673 14.8309ZM14.745 13.1659C13.6367 14.2718 11.8387 14.2718 10.7299 13.1659C9.62099 12.06 9.62101 10.2671 10.7299 9.16124C11.8387 8.05533 13.6367 8.05533 14.745 9.16124C15.8539 10.2671 15.8539 12.06 14.745 13.1659Z" fill="#448087"/>
</svg>
