<svg width="24" height="18" viewBox="0 0 24 18" fill="none" xmlns="http://www.w3.org/2000/svg">
<path d="M15.25 8.99992C17.6441 8.99992 19.5833 7.06075 19.5833 4.66658C19.5833 2.27242 17.6441 0.333252 15.25 0.333252C12.8558 0.333252 10.9166 2.27242 10.9166 4.66658C10.9166 7.06075 12.8558 8.99992 15.25 8.99992ZM5.49998 6.83325V4.66658C5.49998 4.07075 5.01248 3.58325 4.41665 3.58325C3.82081 3.58325 3.33331 4.07075 3.33331 4.66658V6.83325H1.16665C0.570813 6.83325 0.083313 7.32075 0.083313 7.91658C0.083313 8.51242 0.570813 8.99992 1.16665 8.99992H3.33331V11.1666C3.33331 11.7624 3.82081 12.2499 4.41665 12.2499C5.01248 12.2499 5.49998 11.7624 5.49998 11.1666V8.99992H7.66665C8.26248 8.99992 8.74998 8.51242 8.74998 7.91658C8.74998 7.32075 8.26248 6.83325 7.66665 6.83325H5.49998ZM15.25 11.1666C12.3575 11.1666 6.58331 12.6183 6.58331 15.4999V16.5833C6.58331 17.1791 7.07081 17.6666 7.66665 17.6666H22.8333C23.4291 17.6666 23.9166 17.1791 23.9166 16.5833V15.4999C23.9166 12.6183 18.1425 11.1666 15.25 11.1666Z" fill="white"/>
</svg>
