<svg width="81" height="81" viewBox="0 0 81 81" fill="none" xmlns="http://www.w3.org/2000/svg">
<path d="M53.983 22.7583C53.983 23.9491 53.8641 25.1341 53.629 26.2898C53.5705 26.4226 53.5341 26.5678 53.521 26.718C52.8198 29.5831 51.4062 32.1207 49.471 33.9851C49.1623 31.4843 48.0004 29.2539 46.2679 27.8332C47.4113 26.4666 48.0568 24.6078 48.0623 22.6663C48.0671 20.7246 47.4318 18.861 46.2968 17.4851C45.1611 16.1102 43.6183 15.3378 42.0096 15.3378C40.4016 15.3378 38.8589 16.1103 37.7232 17.4851C36.5874 18.8609 35.9523 20.7245 35.9577 22.6663C35.9632 24.608 36.6088 26.4667 37.752 27.8332C37.3602 28.1502 36.9944 28.5111 36.6582 28.9111C35.5301 30.2843 34.7911 32.0543 34.5491 33.9669C32.0472 31.5515 30.4455 28.0331 30.0982 24.1898C30.0748 23.682 30.0748 23.1733 30.0982 22.6655C30.0982 17.4994 32.3822 12.7257 36.0891 10.1427C39.796 7.55962 44.3631 7.55962 48.07 10.1427C51.7769 12.7257 54.0602 17.4994 54.0602 22.6655L53.983 22.7583Z" fill="#448087"/>
<path d="M44.9595 22.7584C44.9595 23.7134 44.6439 24.6287 44.0836 25.3017C43.5226 25.9746 42.7622 26.3505 41.9716 26.3455C41.181 26.3406 40.424 25.9556 39.8693 25.2751C39.3145 24.5947 39.0072 23.6753 39.0154 22.7212C39.0237 21.767 39.3468 20.855 39.9133 20.1896C40.4798 19.5233 41.2429 19.1565 42.0336 19.1714C42.8152 19.1814 43.5619 19.5639 44.1098 20.2368C44.6584 20.909 44.9637 21.8159 44.9596 22.7585L44.9595 22.7584Z" fill="#448087"/>
<path d="M46.4678 35.4335V36.2143C45.0482 36.9014 43.5322 37.2548 42.0019 37.2548C40.466 37.2656 38.9439 36.9121 37.5208 36.2143V35.4891C37.5379 34.0918 38.0075 32.7576 38.8297 31.7717C39.6603 30.698 40.8152 30.0748 42.0328 30.0433C43.2118 30.0533 44.3399 30.6258 45.1705 31.6356C46.0017 32.6455 46.4678 34.0105 46.4678 35.4335L46.4678 35.4335Z" fill="#448087"/>
<path d="M25.4323 75.3411V76.0663H25.3244L24.6775 76.3268L24.3695 76.438L23.7686 76.6239H23.6607L23.0295 76.7724C22.5758 76.8629 22.1186 76.9251 21.6593 76.9583C21.198 77.0139 20.734 77.0139 20.2734 76.9583C19.8127 76.9425 19.3542 76.8803 18.9025 76.7724L18.2714 76.6239C17.9785 76.6239 17.7014 76.4563 17.4092 76.3451H17.4086C17.0985 76.2488 16.7946 76.1244 16.5004 75.9734V75.2481C16.5004 73.3222 17.3515 71.5433 18.7334 70.5798C20.1153 69.6172 21.8175 69.6172 23.1994 70.5798C24.5813 71.5431 25.4325 73.3221 25.4325 75.2481L25.4323 75.3411Z" fill="#448087"/>
<path d="M23.9223 62.6468C23.9223 63.5994 23.6081 64.5121 23.0499 65.185C22.4909 65.858 21.734 66.2355 20.9447 66.2339C20.1555 66.2322 19.3992 65.8522 18.8431 65.1767C18.2862 64.5013 17.9748 63.5869 17.9776 62.6343C17.9803 61.6817 18.2972 60.7698 18.8576 60.0992C19.4179 59.4279 20.1762 59.0545 20.9655 59.0595C21.7506 59.0645 22.5027 59.4446 23.0569 60.1167C23.611 60.7888 23.9225 61.6982 23.9225 62.6466L23.9223 62.6468Z" fill="#448087"/>
<path d="M32.9458 62.6468C32.9437 67.0753 31.2366 71.2507 28.3258 73.9474C28.0425 71.4688 26.915 69.2459 25.2148 67.8137C26.3581 66.4479 27.0037 64.5883 27.0091 62.6468C27.0146 60.706 26.3794 58.8415 25.2437 57.4665C24.1079 56.0907 22.5651 55.3183 20.9572 55.3183C19.3485 55.3183 17.8058 56.0908 16.6701 57.4665C15.535 58.8414 14.8997 60.7059 14.9046 62.6468C14.9101 64.5884 15.5557 66.4481 16.6989 67.8137C16.3036 68.1249 15.9372 68.4867 15.6058 68.8916C14.479 70.2648 13.7455 72.0356 13.5111 73.9474C10.6345 71.2208 8.96324 67.0429 8.98383 62.6277C8.98658 58.9352 10.1581 55.3831 12.259 52.6979C14.3606 50.0135 17.2324 48.3997 20.2869 48.1865H20.9647C24.1424 48.1865 27.1893 49.7099 29.4368 52.4217C31.6836 55.1335 32.9459 58.8118 32.9459 62.647L32.9458 62.6468Z" fill="#448087"/>
<path d="M65.995 62.6467C65.995 63.5977 65.6822 64.5104 65.1246 65.1833C64.567 65.8562 63.8115 66.2338 63.023 66.2338C62.2351 66.2338 61.4789 65.8562 60.9214 65.1833C60.3638 64.5103 60.051 63.5976 60.051 62.6467C60.051 61.695 60.3638 60.7831 60.9214 60.1102C61.479 59.4373 62.2352 59.0597 63.023 59.0597C63.8116 59.0597 64.5671 59.4373 65.1246 60.1102C65.6821 60.7832 65.995 61.6951 65.995 62.6467Z" fill="#448087"/>
<path d="M67.505 75.341V76.0663H67.3971L66.7501 76.3268L66.4421 76.438L65.9341 76.6056H65.657L65.118 76.7359V76.7351C64.8891 76.7906 64.6574 76.828 64.425 76.8462H63.732C63.2707 76.9027 62.8066 76.9027 62.346 76.8462C61.8854 76.8305 61.4268 76.7682 60.9751 76.6604C60.7462 76.6247 60.52 76.5691 60.2973 76.4936L59.6194 76.2895L59.3114 76.1783L58.6803 75.9177H58.5572V75.1925C58.5428 73.7404 59.0123 72.3422 59.8607 71.3124C60.7091 70.2827 61.8648 69.7085 63.0679 69.7176C64.271 69.7276 65.4205 70.32 66.2572 71.363C67.1028 72.4301 67.5531 73.8656 67.505 75.341L67.505 75.341Z" fill="#448087"/>
<path d="M75.0202 62.6467C75.0285 67.0528 73.3592 71.219 70.4923 73.9473C70.2434 72.0339 69.4995 70.264 68.3673 68.8915C68.0407 68.4924 67.6791 68.1372 67.2893 67.8319C68.4326 66.4661 69.0781 64.6073 69.0836 62.6658C69.0884 60.7241 68.4532 58.8596 67.3181 57.4846C66.1824 56.1097 64.6396 55.3364 63.031 55.3364C61.4229 55.3364 59.8802 56.1098 58.7445 57.4846C57.6088 58.8595 56.9736 60.7241 56.9791 62.6658C56.9845 64.6075 57.6301 66.4662 58.7734 67.8319C57.0491 69.2433 55.8935 71.4605 55.5855 73.9473C52.7035 71.2323 51.0261 67.0593 51.0426 62.6467C51.0426 58.8114 52.3049 55.1331 54.5517 52.4214C56.7992 49.7096 59.8461 48.1861 63.0238 48.1861C63.4239 48.1579 63.8247 48.1579 64.2248 48.1861H64.5025C67.4174 48.6267 70.0974 50.3418 72.0355 53.0062C73.9736 55.6706 75.0358 59.1007 75.0206 62.6465L75.0202 62.6467Z" fill="#448087"/>
<path d="M33.4544 7.79543C32.3036 8.74635 31.2668 9.88478 30.3744 11.1784L20.8113 10.1935C19.965 10.0956 19.3449 9.18866 19.4254 8.16721C19.5065 7.14659 20.2579 6.39732 21.1035 6.49439L33.4544 7.79543Z" fill="#448087"/>
<path d="M22.275 6.47628C21.8006 5.02003 20.8333 3.87837 19.6171 3.33819C18.4009 2.79717 17.0514 2.9092 15.9074 3.64603C14.764 4.38288 13.9356 5.67399 13.631 7.19495C13.3264 8.71507 13.5746 10.3207 14.313 11.6061C14.9324 12.5321 15.7877 13.1851 16.746 13.4648H16.9158C17.2382 13.556 17.5696 13.6 17.901 13.595C18.5617 13.595 19.2141 13.4175 19.8109 13.0748C20.8807 12.5213 21.7304 11.4882 22.1822 10.1939C22.5789 9.00736 22.6119 7.68969 22.275 6.47656L22.275 6.47628ZM17.963 6.47628C18.5948 6.72688 19.0218 7.43881 19.0218 8.24203C19.0218 9.04526 18.5948 9.75719 17.963 10.0078C17.1552 10.0078 16.5 9.217 16.5 8.24203C16.5 7.26706 17.1552 6.47628 17.963 6.47628Z" fill="#448087"/>
<path d="M23.0282 24.8019C22.4136 23.8791 21.5639 23.2253 20.6111 22.9432C20.235 22.8154 19.8459 22.7532 19.4561 22.7573C18.5224 22.7598 17.6121 23.1083 16.8492 23.7572C16.0861 24.4061 15.5065 25.3221 15.1902 26.3816C15.0032 26.9758 14.9097 27.6055 14.9132 28.2403C14.9118 28.8734 15.0005 29.5024 15.1744 30.099C15.6942 31.7602 16.8382 33.0232 18.2544 33.5011C18.669 33.6513 19.1 33.7268 19.5332 33.7235C20.1519 33.7227 20.7652 33.5708 21.3343 33.2779C22.1298 32.8697 22.8097 32.1926 23.293 31.3288C23.777 30.465 24.0431 29.4502 24.0603 28.408C24.0678 28.359 24.0678 28.3084 24.0603 28.2595C24.05 26.9991 23.6863 25.7809 23.0283 24.8019L23.0282 24.8019ZM19.3171 26.4373H19.456V26.4382C20.292 26.483 20.9451 27.3268 20.9259 28.3367C20.9073 29.3465 20.2232 30.153 19.3866 30.153C18.5492 30.153 17.8658 29.3465 17.8466 28.3367C17.828 27.3268 18.4811 26.483 19.3171 26.4382L19.3171 26.4373Z" fill="#448087"/>
<path d="M43.5727 46.6238C43.0811 46.399 42.5586 46.2853 42.0327 46.2894C41.5081 46.2886 40.9877 46.3948 40.4927 46.6056C39.6037 46.9848 38.8324 47.6826 38.2818 48.6062C37.7311 49.5297 37.4279 50.635 37.4128 51.7725C37.4052 51.8895 37.4052 52.0082 37.4128 52.1252C37.4726 53.4279 37.9277 54.6585 38.6908 55.5828C39.544 56.649 40.7196 57.2514 41.9482 57.2514C43.1761 57.2514 44.3517 56.649 45.2049 55.5828C45.968 54.6584 46.4232 53.4277 46.4837 52.1252C46.4912 52.0082 46.4912 51.8895 46.4837 51.7725C46.4782 50.6623 46.1983 49.5786 45.68 48.6616C45.1609 47.7439 44.4274 47.0344 43.5727 46.6237L43.5727 46.6238ZM42.0327 53.5384C41.4559 53.5002 40.9519 53.0571 40.7457 52.4066C40.5394 51.756 40.6694 51.0192 41.0771 50.5263C41.4854 50.0334 42.0959 49.8766 42.6349 50.1263C43.1739 50.3753 43.5417 50.9835 43.5727 51.6797C43.5727 52.1726 43.4104 52.6455 43.1217 52.994C42.8329 53.3425 42.441 53.5384 42.0327 53.5384Z" fill="#448087"/>
<path d="M65.3947 33.7427C65.2772 33.761 65.1582 33.761 65.0407 33.7427C65.0476 33.8539 65.0476 33.9659 65.0407 34.0771C65.007 34.2132 64.9602 34.3443 64.9018 34.4671C65.1204 34.1111 65.4367 33.8605 65.7949 33.7609C65.6615 33.7792 65.5267 33.7734 65.3947 33.7427L65.3947 33.7427ZM65.3947 33.7427C65.2772 33.761 65.1582 33.761 65.0407 33.7427C65.0476 33.8539 65.0476 33.9659 65.0407 34.0771C65.007 34.2132 64.9602 34.3443 64.9018 34.4671C65.1204 34.1111 65.4367 33.8605 65.7949 33.7609C65.6615 33.7792 65.5267 33.7734 65.3947 33.7427L65.3947 33.7427ZM65.3947 33.7427C65.2772 33.761 65.1582 33.761 65.0407 33.7427C65.0476 33.8539 65.0476 33.9659 65.0407 34.0771C65.007 34.2132 64.9602 34.3443 64.9018 34.4671C65.1204 34.1111 65.4367 33.8605 65.7949 33.7609C65.6615 33.7792 65.5267 33.7734 65.3947 33.7427L65.3947 33.7427ZM66.5037 33.6124C66.4384 33.5386 66.3861 33.4498 66.3497 33.3519C66.2885 33.4124 66.2211 33.4622 66.1489 33.5012C66.0905 33.5568 66.0217 33.595 65.9489 33.6124H65.7488H66.0417C66.3181 33.6124 66.5889 33.702 66.8268 33.873C66.7065 33.8116 66.5965 33.7228 66.5037 33.6124L66.5037 33.6124ZM65.3947 33.7427C65.2772 33.761 65.1582 33.761 65.0407 33.7427C65.0476 33.8539 65.0476 33.9659 65.0407 34.0771C65.007 34.2132 64.9602 34.3443 64.9018 34.4671C65.1204 34.1111 65.4367 33.8605 65.7949 33.7609C65.6615 33.7792 65.5267 33.7734 65.3947 33.7427L65.3947 33.7427ZM66.5037 33.6124C66.4384 33.5386 66.3861 33.4498 66.3497 33.3519C66.2885 33.4124 66.2211 33.4622 66.1489 33.5012C66.0905 33.5568 66.0217 33.595 65.9489 33.6124H65.7488H66.0417C66.3181 33.6124 66.5889 33.702 66.8268 33.873C66.7065 33.8116 66.5965 33.7228 66.5037 33.6124L66.5037 33.6124ZM65.3947 33.7427C65.2772 33.761 65.1582 33.761 65.0407 33.7427C65.0476 33.8539 65.0476 33.9659 65.0407 34.0771C65.007 34.2132 64.9602 34.3443 64.9018 34.4671C65.1204 34.1111 65.4367 33.8605 65.7949 33.7609C65.6615 33.7792 65.5267 33.7734 65.3947 33.7427L65.3947 33.7427ZM66.5037 33.6124C66.4384 33.5386 66.3861 33.4498 66.3497 33.3519C66.2885 33.4124 66.2211 33.4622 66.1489 33.5012C66.0905 33.5568 66.0217 33.595 65.9489 33.6124H65.7488H66.0417C66.3181 33.6124 66.5889 33.702 66.8268 33.873C66.7065 33.8116 66.5965 33.7228 66.5037 33.6124L66.5037 33.6124ZM66.5037 33.6124C66.4384 33.5386 66.3861 33.4498 66.3497 33.3519C66.2885 33.4124 66.2211 33.4622 66.1489 33.5012C66.0905 33.5568 66.0217 33.595 65.9489 33.6124H65.7488H66.0417C66.3181 33.6124 66.5889 33.702 66.8268 33.873C66.7065 33.8116 66.5965 33.7228 66.5037 33.6124L66.5037 33.6124ZM69.5837 32.0699C68.9388 31.0551 68.0162 30.3506 66.9808 30.0809H66.6268C66.4219 30.0618 66.2156 30.0618 66.0108 30.0809C65.1644 30.0751 64.3353 30.3655 63.6239 30.9173C63.4857 31.0119 63.3571 31.1239 63.2389 31.2517C62.4035 32.0193 61.8199 33.1187 61.5909 34.3558C61.5153 34.7392 61.4789 35.1325 61.483 35.5266C61.496 37.5106 62.3815 39.337 63.8088 40.3218C64.4846 40.7848 65.2491 41.028 66.0261 41.0288C66.3052 41.0255 66.5829 40.9939 66.8579 40.9359C67.8995 40.6877 68.8386 40.0148 69.5171 39.0299C70.1957 38.0449 70.5724 36.8077 70.5848 35.5266C70.6013 34.2703 70.252 33.0472 69.5989 32.0699H69.5837ZM66.0107 37.2185H65.6408C65.0063 36.9862 64.5656 36.29 64.5477 35.4893C64.5484 35.174 64.6226 34.8645 64.7629 34.5973C64.9815 34.2413 65.2985 33.9907 65.6566 33.8912H65.9495H65.9488C66.2252 33.8912 66.4968 33.9808 66.7346 34.1517C67.1293 34.4903 67.3692 35.0346 67.3809 35.6196C67.2867 36.4643 66.7278 37.124 66.0258 37.2186L66.0107 37.2185ZM66.4878 33.6123C66.4232 33.5384 66.3709 33.4496 66.3338 33.3517C66.2733 33.4123 66.2059 33.4621 66.1338 33.5011C66.0753 33.5567 66.0066 33.5948 65.9337 33.6123H65.7336H66.0265H66.0258C66.3022 33.6123 66.5738 33.7019 66.8116 33.8728C66.6961 33.8089 66.5916 33.721 66.5036 33.6123L66.4878 33.6123ZM65.3789 33.7426C65.2613 33.7608 65.1424 33.7608 65.0248 33.7426C65.0324 33.8537 65.0324 33.9658 65.0248 34.0769C64.9911 34.213 64.9451 34.3441 64.8866 34.4669C65.1046 34.111 65.4215 33.8604 65.7797 33.7608C65.6511 33.7774 65.5212 33.7716 65.3947 33.7425L65.3789 33.7426ZM66.4878 33.6123C66.4232 33.5384 66.3709 33.4496 66.3338 33.3517C66.2733 33.4123 66.2059 33.4621 66.1338 33.5011C66.0753 33.5567 66.0066 33.5948 65.9337 33.6123H65.7336H66.0265H66.0258C66.3022 33.6123 66.5738 33.7019 66.8116 33.8728C66.6961 33.8089 66.5916 33.721 66.5036 33.6123L66.4878 33.6123ZM65.3789 33.7426C65.2613 33.7608 65.1424 33.7608 65.0248 33.7426C65.0324 33.8537 65.0324 33.9658 65.0248 34.0769C64.9911 34.213 64.9451 34.3441 64.8866 34.4669C65.1046 34.111 65.4215 33.8604 65.7797 33.7608C65.6511 33.7774 65.5212 33.7716 65.3947 33.7425L65.3789 33.7426ZM66.4878 33.6123C66.4232 33.5384 66.3709 33.4496 66.3338 33.3517C66.2733 33.4123 66.2059 33.4621 66.1338 33.5011C66.0753 33.5567 66.0066 33.5948 65.9337 33.6123H65.7336H66.0265H66.0258C66.3022 33.6123 66.5738 33.7019 66.8116 33.8728C66.6961 33.8089 66.5916 33.721 66.5036 33.6123L66.4878 33.6123ZM65.3789 33.7426C65.2613 33.7608 65.1424 33.7608 65.0248 33.7426C65.0324 33.8537 65.0324 33.9658 65.0248 34.0769C64.9911 34.213 64.9451 34.3441 64.8866 34.4669C65.1046 34.111 65.4215 33.8604 65.7797 33.7608C65.6511 33.7774 65.5212 33.7716 65.3947 33.7425L65.3789 33.7426ZM65.3789 33.7426C65.2613 33.7608 65.1424 33.7608 65.0248 33.7426C65.0324 33.8537 65.0324 33.9658 65.0248 34.0769C64.9911 34.213 64.9451 34.3441 64.8866 34.4669C65.1046 34.111 65.4215 33.8604 65.7797 33.7608C65.6511 33.7774 65.5212 33.7716 65.3947 33.7425L65.3789 33.7426ZM65.3789 33.7426C65.2613 33.7608 65.1424 33.7608 65.0248 33.7426C65.0324 33.8537 65.0324 33.9658 65.0248 34.0769C64.9911 34.213 64.9451 34.3441 64.8866 34.4669C65.1046 34.111 65.4215 33.8604 65.7797 33.7608C65.6511 33.7774 65.5212 33.7716 65.3947 33.7425L65.3789 33.7426ZM65.3789 33.7426C65.2613 33.7608 65.1424 33.7608 65.0248 33.7426C65.0324 33.8537 65.0324 33.9658 65.0248 34.0769C64.9911 34.213 64.9451 34.3441 64.8866 34.4669C65.1046 34.111 65.4215 33.8604 65.7797 33.7608C65.6511 33.7774 65.5212 33.7716 65.3947 33.7425L65.3789 33.7426Z" fill="#448087"/>
<path d="M73.54 15.4532C72.5686 15.4498 71.6219 15.8241 70.8395 16.5202C70.0571 17.2164 69.4817 18.198 69.1977 19.3191C69.0671 19.8443 68.9997 20.3887 68.997 20.9363C68.9887 22.1685 69.3373 23.3651 69.9828 24.3193C70.6318 25.3333 71.5606 26.032 72.6008 26.2892C72.9081 26.3796 73.2237 26.4236 73.5399 26.4195C74.8895 26.7207 76.2803 26.2826 77.3348 25.2229C78.3902 24.1633 79 22.5925 79 20.9363C79 19.28 78.3902 17.7094 77.3348 16.6505C76.2802 15.5909 74.8893 15.1519 73.5399 15.4531L73.54 15.4532ZM73.54 22.702C73.1392 22.7277 72.7466 22.5527 72.4558 22.2191C72.1643 21.8847 72 21.4217 72 20.9363C72.0041 20.5869 72.0894 20.2451 72.2468 19.9513C72.5397 19.3771 73.0677 19.0394 73.6259 19.0685C74.1842 19.0983 74.6853 19.4908 74.9356 20.0941C75.1852 20.6981 75.1453 21.4176 74.8297 21.9743C74.5141 22.5311 73.9738 22.8381 73.4169 22.7767L73.54 22.702Z" fill="#448087"/>
<path d="M61.5281 11.8293C61.0125 11.8119 60.5388 11.4841 60.2658 10.9555C60.699 11.8384 60.4576 12.9785 59.7268 13.5021L58.6337 14.2829H58.633C59.28 14.9434 60.072 15.3632 60.9121 15.491L60.6501 14.0041H60.6508C60.6357 13.8746 60.6357 13.7435 60.6508 13.6141C60.6419 13.4904 60.6419 13.366 60.6508 13.2423C60.6419 13.1619 60.6419 13.0805 60.6508 13.0001C60.6735 12.8947 60.7099 12.7951 60.7581 12.703C60.7972 12.6167 60.8433 12.5354 60.8969 12.4615C60.9451 12.3786 61.0021 12.3039 61.0661 12.2383L61.2201 12.1081C61.262 12.0541 61.3156 12.016 61.3741 11.9969H61.4511L61.6669 11.9039L61.5281 11.8293ZM61.5281 11.8293C61.0125 11.8119 60.5388 11.4841 60.2658 10.9555C60.699 11.8384 60.4576 12.9785 59.7268 13.5021L58.6337 14.2829H58.633C59.28 14.9434 60.072 15.3632 60.9121 15.491L60.6501 14.0041H60.6508C60.6357 13.8746 60.6357 13.7435 60.6508 13.6141C60.6419 13.4904 60.6419 13.366 60.6508 13.2423C60.6419 13.1619 60.6419 13.0805 60.6508 13.0001C60.6735 12.8947 60.7099 12.7951 60.7581 12.703C60.7972 12.6167 60.8433 12.5354 60.8969 12.4615C60.9451 12.3786 61.0021 12.3039 61.0661 12.2383L61.2201 12.1081C61.262 12.0541 61.3156 12.016 61.3741 11.9969H61.4511L61.6669 11.9039L61.5281 11.8293ZM61.5281 11.8293C61.0125 11.8119 60.5388 11.4841 60.2658 10.9555C60.699 11.8384 60.4576 12.9785 59.7268 13.5021L58.6337 14.2829H58.633C59.28 14.9434 60.072 15.3632 60.9121 15.491L60.6501 14.0041H60.6508C60.6357 13.8746 60.6357 13.7435 60.6508 13.6141C60.6419 13.4904 60.6419 13.366 60.6508 13.2423C60.6419 13.1619 60.6419 13.0805 60.6508 13.0001C60.6735 12.8947 60.7099 12.7951 60.7581 12.703C60.7972 12.6167 60.8433 12.5354 60.8969 12.4615C60.9451 12.3786 61.0021 12.3039 61.0661 12.2383L61.2201 12.1081C61.262 12.0541 61.3156 12.016 61.3741 11.9969H61.4511L61.6669 11.9039L61.5281 11.8293ZM61.5281 11.8293C61.0125 11.8119 60.5388 11.4841 60.2658 10.9555C60.699 11.8384 60.4576 12.9785 59.7268 13.5021L58.6337 14.2829H58.633C59.28 14.9434 60.072 15.3632 60.9121 15.491L60.6501 14.0041H60.6508C60.6357 13.8746 60.6357 13.7435 60.6508 13.6141C60.6419 13.4904 60.6419 13.366 60.6508 13.2423C60.6419 13.1619 60.6419 13.0805 60.6508 13.0001C60.6735 12.8947 60.7099 12.7951 60.7581 12.703C60.7972 12.6167 60.8433 12.5354 60.8969 12.4615C60.9451 12.3786 61.0021 12.3039 61.0661 12.2383L61.2201 12.1081C61.262 12.0541 61.3156 12.016 61.3741 11.9969H61.4511L61.6669 11.9039L61.5281 11.8293ZM61.5281 4.58043C60.3298 4.60449 59.1857 5.18948 58.3381 6.21342C57.4904 7.23652 57.005 8.61717 56.9851 10.0635C56.9851 10.4079 57.016 10.7506 57.0779 11.0858C57.2512 12.2143 57.7152 13.2474 58.4034 14.0389C59.0923 14.8297 59.9702 15.3375 60.9121 15.491C61.1177 15.5101 61.3232 15.5101 61.5281 15.491C62.3792 15.4993 63.2138 15.2089 63.9308 14.6546H64.023C64.9002 13.9526 65.552 12.9096 65.871 11.699C66.0009 11.1745 66.0683 10.6302 66.071 10.0826C66.0476 8.63876 65.5609 7.2631 64.7132 6.24326C63.8662 5.2243 62.7242 4.6418 61.528 4.61775L61.5281 4.58043ZM61.821 11.7919H61.5281C61.0125 11.7745 60.5388 11.4467 60.2658 10.919C60.138 10.646 60.0685 10.3398 60.0651 10.0262C60.0651 9.45859 60.2913 8.92588 60.6728 8.59398C61.0544 8.26207 61.5446 8.17162 61.9908 8.35169C62.437 8.53092 62.7848 8.95826 62.9251 9.50008C63.0653 10.0419 62.9808 10.6319 62.6989 11.0858C62.483 11.421 62.1785 11.6575 61.8361 11.7554L61.821 11.7919ZM61.5281 11.7919C61.0125 11.7745 60.5388 11.4467 60.2658 10.919C60.699 11.8019 60.4576 12.9411 59.7268 13.4646L58.6337 14.2455H58.633C59.28 14.906 60.072 15.3258 60.9121 15.4536L60.6501 13.9667H60.6508C60.6357 13.8372 60.6357 13.7061 60.6508 13.5767C60.6419 13.453 60.6419 13.3286 60.6508 13.2049C60.6419 13.1244 60.6419 13.0431 60.6508 12.9635C60.6735 12.8581 60.7099 12.7577 60.7581 12.6656C60.7972 12.5793 60.8433 12.498 60.8969 12.4241C60.9451 12.3412 61.0021 12.2665 61.0661 12.2009L61.2201 12.0707C61.262 12.0167 61.3156 11.9786 61.3741 11.9595H61.4511L61.6669 11.8665L61.5281 11.7919ZM61.5281 11.7919C61.0125 11.7745 60.5388 11.4467 60.2658 10.919C60.699 11.8019 60.4576 12.9411 59.7268 13.4646L58.6337 14.2455H58.633C59.28 14.906 60.072 15.3258 60.9121 15.4536L60.6501 13.9667H60.6508C60.6357 13.8372 60.6357 13.7061 60.6508 13.5767C60.6419 13.453 60.6419 13.3286 60.6508 13.2049C60.6419 13.1244 60.6419 13.0431 60.6508 12.9635C60.6735 12.8581 60.7099 12.7577 60.7581 12.6656C60.7972 12.5793 60.8433 12.498 60.8969 12.4241C60.9451 12.3412 61.0021 12.2665 61.0661 12.2009L61.2201 12.0707C61.262 12.0167 61.3156 11.9786 61.3741 11.9595H61.4511L61.6669 11.8665L61.5281 11.7919ZM61.5281 11.7919C61.0125 11.7745 60.5388 11.4467 60.2658 10.919C60.699 11.8019 60.4576 12.9411 59.7268 13.4646L58.6337 14.2455H58.633C59.28 14.906 60.072 15.3258 60.9121 15.4536L60.6501 13.9667H60.6508C60.6357 13.8372 60.6357 13.7061 60.6508 13.5767C60.6419 13.453 60.6419 13.3286 60.6508 13.2049C60.6419 13.1244 60.6419 13.0431 60.6508 12.9635C60.6735 12.8581 60.7099 12.7577 60.7581 12.6656C60.7972 12.5793 60.8433 12.498 60.8969 12.4241C60.9451 12.3412 61.0021 12.2665 61.0661 12.2009L61.2201 12.0707C61.262 12.0167 61.3156 11.9786 61.3741 11.9595H61.4511L61.6669 11.8665L61.5281 11.7919Z" fill="#448087"/>
<path d="M10.4478 30.0444C9.59669 30.0444 8.90781 29.2121 8.90781 28.1857C8.88856 28.8802 8.54962 29.5042 8.02988 29.8029C8.17425 29.7457 8.32482 29.7142 8.47607 29.71H8.76895L9.07695 29.8212L9.29283 29.9697L9.52383 30.1929C9.59464 30.2419 9.65308 30.3124 9.69295 30.3979C9.79333 30.5473 9.8717 30.7174 9.92395 30.8999L10.3708 32.3495C10.9779 31.7181 11.444 30.9132 11.7259 30.0071L10.4478 30.0444ZM10.4478 30.0444C9.59669 30.0444 8.90781 29.2121 8.90781 28.1857C8.88856 28.8802 8.54962 29.5042 8.02988 29.8029C8.17425 29.7457 8.32482 29.7142 8.47607 29.71H8.76895L9.07695 29.8212L9.29283 29.9697L9.52383 30.1929C9.59464 30.2419 9.65308 30.3124 9.69295 30.3979C9.79333 30.5473 9.8717 30.7174 9.92395 30.8999L10.3708 32.3495C10.9779 31.7181 11.444 30.9132 11.7259 30.0071L10.4478 30.0444ZM11.7107 26.327H11.7101C11.5561 25.7852 11.3209 25.2807 11.0171 24.8401C10.3887 23.8186 9.475 23.1059 8.44588 22.8329C8.12277 22.7416 7.79138 22.6976 7.46001 22.7026C6.11045 22.4014 4.7204 22.8403 3.66511 23.9C2.61049 24.9588 2 26.5295 2 28.1858C2 29.842 2.61051 31.4127 3.66511 32.4724C4.72042 33.532 6.11062 33.9702 7.46001 33.6689C8.52012 33.6656 9.54525 33.2109 10.355 32.3869C10.9628 31.7555 11.4289 30.9506 11.7101 30.0446C11.8847 29.448 11.9727 28.819 11.972 28.1859C11.9803 27.5519 11.8916 26.9222 11.7101 26.3272L11.7107 26.327ZM7.93767 29.8403H7.93698C7.7878 29.8992 7.63242 29.9307 7.47499 29.9332C7.00611 30.1191 6.49119 30.022 6.09105 29.6726C5.69162 29.3233 5.45443 28.7632 5.45443 28.1675C5.45443 27.5708 5.69162 27.0116 6.09105 26.6614C6.49117 26.3121 7.00611 26.215 7.47499 26.4017C7.74242 26.4 8.00367 26.4897 8.22986 26.6614C8.62517 27.0008 8.86443 27.5451 8.8768 28.1301C8.85755 28.8246 8.51931 29.4486 7.99886 29.7474L7.93767 29.8403ZM10.4478 30.0444C9.59666 30.0444 8.90778 29.2121 8.90778 28.1857C8.88853 28.8802 8.54958 29.5042 8.02984 29.8029C8.17421 29.7457 8.32478 29.7141 8.47603 29.71H8.76891L9.07691 29.8212L9.29279 29.9697L9.52379 30.1929C9.59461 30.2419 9.65304 30.3124 9.69292 30.3979C9.79329 30.5472 9.87166 30.7173 9.92392 30.8999L10.3708 32.3495C10.9779 31.718 11.444 30.9132 11.7258 30.0071L10.4478 30.0444Z" fill="#448087"/>
<path d="M21.8279 44.4869H20.9658C20.2288 44.4919 19.4932 44.5541 18.7637 44.6728L18.1786 33.5207L18.1016 31.9964H18.1009C18.0459 30.97 18.6908 30.0838 19.5412 30.0174C20.3917 29.9502 21.1259 30.7285 21.1809 31.7549L21.2579 33.2975L21.8279 44.4869Z" fill="#448087"/>
<path d="M16.453 30.0444H10.447C9.59586 30.0444 8.90698 29.2121 8.90698 28.1857C8.90698 27.1593 9.59586 26.327 10.447 26.327H16.453C17.3034 26.327 17.9929 27.1593 17.9929 28.1857C17.9929 29.2121 17.3034 30.0444 16.453 30.0444Z" fill="#448087"/>
<path d="M9.04504 26.9218C8.75216 26.9185 8.46547 26.8223 8.21385 26.643C7.50022 26.0879 7.29328 24.9404 7.75185 24.0783L15.0518 10.2492H15.0511C15.5103 9.38213 16.4653 9.12823 17.1844 9.6825C17.9028 10.2368 18.1132 11.3893 17.6539 12.2564L10.3391 26.0663V26.0671C10.0565 26.599 9.56906 26.921 9.04518 26.9218L9.04504 26.9218Z" fill="#448087"/>
<path d="M19.1949 26.4396C18.3954 26.443 17.7264 25.7086 17.6549 24.7477L16.6849 12.053C16.6134 11.0324 17.2404 10.1346 18.086 10.0458C18.9323 9.94875 19.6837 10.6972 19.7649 11.7186L20.7198 24.4507H20.7191C20.7995 25.4722 20.1794 26.3783 19.3331 26.4762L19.1949 26.4396Z" fill="#448087"/>
<path d="M22.3207 28.9101C21.5617 28.9168 20.912 28.2563 20.7889 27.3526C20.6659 26.4482 21.1073 25.5711 21.8277 25.2857L28.0798 22.7946H28.0804C28.8883 22.4718 29.7607 22.9996 30.0281 23.9754C30.2962 24.9504 29.8582 26.0034 29.0504 26.326L22.7977 28.7797C22.6444 28.8486 22.4835 28.8926 22.3206 28.91L22.3207 28.9101Z" fill="#448087"/>
<path d="M14.6049 46.1778C13.6603 46.6831 12.7617 47.3054 11.925 48.0364L7.47413 33.5761L7.02725 32.1265H7.02794C6.744 31.183 7.13312 30.1375 7.90587 29.7659H7.998C8.14237 29.7086 8.29294 29.6771 8.44488 29.6729H8.73776L9.04576 29.7841L9.26164 29.9326L9.49264 30.1559L9.49195 30.1567C9.55589 30.2148 9.61295 30.2836 9.66108 30.3608C9.75595 30.5151 9.83364 30.6836 9.89207 30.8628L10.339 32.3124L14.6049 46.1778Z" fill="#448087"/>
<path d="M43.5727 40.8439V48.1484C43.5727 49.1748 42.8831 50.0071 42.0327 50.0071C41.1822 50.0071 40.4927 49.1748 40.4927 48.1484V40.8439C41.0007 40.8439 41.5088 40.9368 42.0327 40.9368C42.5565 40.9368 43.0337 40.8995 43.5727 40.8439Z" fill="#448087"/>
<path d="M39.368 55.3778L38.7369 55.5819L35.1791 56.6606C34.8415 55.4657 34.3974 54.3191 33.855 53.2402L37.4589 52.125L38.6139 51.7715L38.6132 51.7723C39.4382 51.5209 40.2763 52.1241 40.4846 53.1199C40.6929 54.1156 40.1931 55.1263 39.3681 55.3777L39.368 55.3778Z" fill="#448087"/>
<path d="M50.1321 53.2408C49.5897 54.3195 49.1456 55.4663 48.808 56.6612L45.2509 55.5833L44.6198 55.3792L44.6191 55.3784C43.7941 55.127 43.2943 54.1163 43.5026 53.1206C43.7109 52.1248 44.5489 51.5216 45.374 51.773L46.529 52.1265L50.1321 53.2408Z" fill="#448087"/>
<path d="M67.058 39.3187L66.8579 40.843L66.3038 44.9138L66.3031 44.913C65.2932 44.6309 64.2607 44.4815 63.2231 44.4674L63.7931 40.2298L64.009 38.7055C64.1417 37.7596 64.8491 37.0916 65.6411 37.1622H65.8411C66.6668 37.3596 67.2086 38.3197 67.058 39.3187L67.058 39.3187Z" fill="#448087"/>
<path d="M65.0252 33.6874C65.0328 33.7986 65.0328 33.9106 65.0252 34.0218C64.9915 34.1579 64.9455 34.289 64.887 34.4118C64.5997 34.9238 64.1205 35.2308 63.6083 35.23C63.3147 35.2341 63.0267 35.1379 62.7771 34.9512L61.5912 34.3562L55.8932 29.8771C56.3132 28.6822 56.6226 27.436 56.8172 26.1597L63.2852 31.1034L63.7932 31.4934L64.3473 31.9207L64.348 31.9215C64.8313 32.309 65.0933 32.9911 65.0252 33.6873L65.0252 33.6874Z" fill="#448087"/>
<path d="M71.1377 20.6214C70.8043 20.6214 70.4804 20.4912 70.2137 20.2497L63.0067 13.726C62.3261 13.1104 62.1886 11.9454 62.6987 11.1239C63.2088 10.3024 64.1741 10.1365 64.8547 10.7521L72.0617 17.2758C72.7423 17.8923 72.8798 19.0573 72.3697 19.878C72.0789 20.346 71.6224 20.6214 71.1377 20.6214V20.6214Z" fill="#448087"/>
<path d="M59.7277 13.5011L58.6345 14.2819L56.0317 16.1406C55.6604 14.9822 55.1909 13.8736 54.6299 12.8323L57.0787 10.9736L58.1567 10.1928C58.8765 9.80033 59.7249 10.1281 60.1223 10.9521C60.519 11.776 60.3354 12.829 59.6967 13.39L59.7277 13.5011Z" fill="#448087"/>
<path d="M67.6282 34.227C67.3374 34.2294 67.0528 34.1257 66.8121 33.9299C66.0971 33.3872 65.8771 32.2513 66.3192 31.3834L70.6463 23.0376C71.1097 22.1655 72.0715 21.9116 72.7947 22.4709C73.518 23.0301 73.7277 24.191 73.2643 25.0639L68.9372 33.4097C68.6443 33.9324 68.1514 34.2403 67.6282 34.227V34.227Z" fill="#448087"/>
<path d="M65.3948 33.7427C64.6558 33.7626 64.0095 33.1461 63.8548 32.274L60.6057 14.0032H60.605C60.427 12.9768 60.9715 11.9694 61.8219 11.7545C62.6723 11.5388 63.507 12.1959 63.685 13.2224L66.919 31.4931C67.1005 32.4938 66.5773 33.4829 65.7489 33.7053C65.6327 33.7368 65.5138 33.7493 65.3948 33.7426L65.3948 33.7427Z" fill="#448087"/>
</svg>
