<svg width="44" height="43" viewBox="0 0 44 43" fill="none" xmlns="http://www.w3.org/2000/svg">
<path d="M34.8893 17.4199C33.8241 17.4222 32.7676 17.6274 31.7701 18.0254L23.5498 0.357122C23.462 0.168929 23.2939 0.0382285 23.0993 0.00722906C22.9052 -0.0242119 22.7085 0.0481022 22.5732 0.200814L4.55432 20.5217L0.334461 22.7648L0.33404 22.7644C0.0365297 22.9229 -0.0849123 23.3092 0.063004 23.6276L3.81846 31.6993V31.6998C3.9668 32.0178 4.32819 32.1476 4.62612 31.9895L6.43683 31.0269C7.7357 32.1646 12.9489 36.8646 14.5773 40.3634C15.4341 42.205 16.7409 43 17.9159 43V42.9995C18.3252 43.0013 18.7294 42.9012 19.0967 42.7076C20.3709 42.0307 21.1878 40.1111 19.9716 37.4966V37.4961C18.5088 34.5254 16.8133 31.6918 14.9039 29.026L25.883 27.7212C26.0419 30.2387 27.1159 32.5896 28.8762 34.2707C30.636 35.9519 32.9422 36.83 35.3001 36.7164C37.6583 36.6028 39.8813 35.5073 41.4927 33.6635C43.1042 31.8202 43.9767 29.3755 43.9229 26.8531C43.8691 24.331 42.8938 21.9312 41.2053 20.1679C39.5165 18.4049 37.2494 17.4186 34.889 17.42L34.8893 17.4199ZM22.8549 1.75582L30.6662 18.5456C27.905 20.1118 26.0964 23.0915 25.8838 26.4255L14.1258 27.8228L9.17513 17.1824L22.8549 1.75582ZM9.02603 28.4296L5.64579 21.164L8.29312 18.1785L12.8512 27.9749L9.02603 28.4296ZM1.4113 23.6313L4.64739 21.9111L7.86626 28.8289L4.63018 30.5501L1.4113 23.6313ZM18.8934 38.0697C19.746 39.9019 19.3409 41.1401 18.5614 41.5547C17.7315 41.9953 16.4675 41.5318 15.6573 39.79C14.0479 36.332 9.42805 32.0098 7.62025 30.3986L8.84725 29.7465L13.5062 29.1927V29.1922C15.538 31.9801 17.3408 34.9499 18.8934 38.0697L18.8934 38.0697ZM34.8899 35.4494C32.8127 35.4494 30.8209 34.5672 29.3522 32.9975C27.8832 31.4277 27.0583 29.2987 27.0583 27.0785C27.0583 24.8583 27.8832 22.7294 29.3522 21.1595C30.8208 19.5898 32.8127 18.7076 34.8899 18.7076C36.967 18.7076 38.9588 19.5898 40.4275 21.1595C41.8962 22.7293 42.7215 24.8583 42.7215 27.0785C42.7189 29.2978 41.8932 31.4254 40.4249 32.9947C38.9568 34.564 36.9662 35.4466 34.8899 35.4494ZM35.4925 21.2835V27.7225H35.492C35.492 28.0778 35.2227 28.3662 34.8899 28.3662C34.557 28.3662 34.2873 28.0778 34.2873 27.7225V21.2835C34.2873 20.9277 34.557 20.6394 34.8899 20.6394C35.2227 20.6394 35.492 20.9277 35.492 21.2835H35.4925ZM35.4925 30.2979V31.5856H35.492C35.492 31.9413 35.2227 32.2297 34.8899 32.2297C34.557 32.2297 34.2873 31.9413 34.2873 31.5856V30.2979C34.2873 29.9422 34.557 29.6538 34.8899 29.6538C35.2227 29.6538 35.492 29.9422 35.492 30.2979H35.4925Z" fill="#BEFBFF"/>
</svg>
