<svg width="60" height="60" viewBox="0 0 60 60" fill="none" xmlns="http://www.w3.org/2000/svg">
<circle cx="30" cy="30" r="30" fill="#A72037"/>
<rect width="24" height="30" transform="translate(18 15)" fill="#A72037"/>
<path d="M40.5602 24.375C39.7645 24.375 39.1201 25.004 39.1201 25.7813V28.5948C39.1201 33.5033 35.0324 37.4963 30.0077 37.5009C30.0059 37.5009 30.0039 37.5 30.0021 37.5C30.0002 37.5 29.9973 37.5009 29.9952 37.5009C24.9688 37.498 20.8799 33.5043 20.8799 28.5948L20.8801 25.7813C20.8801 25.004 20.2358 24.375 19.4401 24.375C18.6443 24.375 18 25.004 18 25.7813V28.5948C18 34.5804 22.6214 39.5243 28.562 40.2204V42.1873H25.2019C24.4062 42.1873 23.7618 42.8163 23.7618 43.5936C23.7618 44.3706 24.406 44.9999 25.2019 44.9999H34.8022C35.5979 44.9999 36.2422 44.3708 36.2422 43.5936C36.2422 42.8165 35.5981 42.1873 34.8022 42.1873H31.4421V40.2204C37.3808 39.521 42 34.5786 42 28.5948V25.7813C42 25.004 41.3559 24.375 40.5599 24.375H40.5602Z" fill="white"/>
<path d="M30.0018 35.6245C33.9666 35.6245 37.2019 32.4651 37.2019 28.5933V22.0312C37.2019 18.15 33.9665 15 30.0018 15C26.0274 15 22.8018 18.1499 22.8018 22.0312V28.5933C22.802 32.4651 26.0275 35.6245 30.0018 35.6245Z" fill="white"/>
</svg>
