<svg width="16" height="20" viewBox="0 0 16 20" fill="none" xmlns="http://www.w3.org/2000/svg">
<path d="M15.0401 6.25C14.5097 6.25 14.0801 6.66934 14.0801 7.18753V9.06319C14.0801 12.3356 11.3549 14.9975 8.00517 15.0006C8.00395 15.0006 8.00258 15 8.00137 15C8.00016 15 7.99818 15.0006 7.99682 15.0006C4.64585 14.9987 1.91994 12.3362 1.91994 9.06319L1.92009 7.18753C1.92009 6.66934 1.49052 6.25 0.960045 6.25C0.429566 6.25 0 6.66934 0 7.18753V9.06319C0 13.0536 3.08095 16.3496 7.04131 16.8136V18.1248H4.80127C4.2708 18.1248 3.84123 18.5442 3.84123 19.0624C3.84123 19.5804 4.27064 19.9999 4.80127 19.9999H11.2014C11.7319 19.9999 12.1615 19.5806 12.1615 19.0624C12.1615 18.5443 11.7321 18.1248 11.2014 18.1248H8.9614V16.8136C12.9206 16.3473 16 13.0524 16 9.06319V7.18753C16 6.66934 15.5706 6.25 15.04 6.25H15.0401Z" fill="black"/>
<path d="M8.0012 13.7497C10.6444 13.7497 12.8012 11.6434 12.8012 9.06223V4.68745C12.8012 2.1 10.6443 0 8.0012 0C5.35161 0 3.20117 2.09992 3.20117 4.68745V9.06223C3.20132 11.6434 5.35169 13.7497 8.0012 13.7497Z" fill="black"/>
</svg>
