<svg width="45" height="44" viewBox="0 0 45 44" fill="none" xmlns="http://www.w3.org/2000/svg">
<rect x="0.5" width="44" height="44" rx="22" fill="#ECF8FF"/>
<path d="M22.0001 15.7481C19.9325 15.7481 18.2501 17.4305 18.2501 19.4981C18.2501 21.5657 19.9325 23.2481 22.0001 23.2481C24.0676 23.2481 25.7501 21.5657 25.7501 19.4981C25.7501 17.4305 24.068 15.7481 22.0001 15.7481ZM22.0001 21.9981C20.6216 21.9981 19.5001 20.8766 19.5001 19.4981C19.5001 18.1196 20.6216 16.9981 22.0001 16.9981C23.3786 16.9981 24.5001 18.1196 24.5001 19.4981C24.5001 20.8766 23.3786 21.9981 22.0001 21.9981ZM28.8606 22.6379C29.4098 22.0789 29.6258 21.2579 29.4258 20.495C29.1762 19.5497 29.1762 19.6961 29.4258 18.7493C29.6262 17.9868 29.4098 17.1661 28.8606 16.6063C28.1739 15.9141 28.2524 16.0325 28.0047 15.0989C27.8036 14.3321 27.209 13.7286 26.4532 13.5231C25.543 13.2762 25.6477 13.3442 24.9786 12.6552C24.4231 12.0919 23.6067 11.8708 22.8485 12.0763C21.9305 12.3305 22.0633 12.3266 21.1505 12.0763C20.3985 11.8688 19.577 12.0919 19.0216 12.6563C18.3458 13.3466 18.4665 13.2723 17.5481 13.5231C16.7915 13.7286 16.197 14.3321 15.9954 15.0981C15.747 16.0372 15.8243 15.9133 15.1395 16.6067C14.5903 17.1661 14.3743 17.9872 14.5747 18.7501C14.8243 19.6942 14.8243 19.5477 14.5747 20.4957C14.3743 21.2582 14.5907 22.0789 15.1399 22.6387C15.8267 23.3309 15.7481 23.2125 15.9958 24.1461C16.0743 24.4446 16.2267 24.7071 16.4106 24.9422L14.547 29.5274C14.3786 29.9402 14.6841 30.3883 15.1247 30.3883C15.1462 30.3883 15.011 30.393 17.2075 30.309L18.6235 31.8047C18.7493 31.9375 18.9134 32 19.0759 32C19.3169 32 19.5536 31.8621 19.6563 31.6109L21.7051 26.5707C21.8964 26.5052 22.104 26.505 22.2954 26.5703L24.3438 31.6109C24.4462 31.8621 24.6833 32 24.9243 32C25.0868 32 25.2508 31.9375 25.3766 31.8047L26.7926 30.3094C28.9891 30.3934 28.8539 30.3887 28.8754 30.3887C29.3161 30.3887 29.6215 29.9406 29.4532 29.5277L27.5899 24.943C27.7739 24.7078 27.9262 24.4453 28.0047 24.1473C28.2532 23.2075 28.1758 23.3313 28.8606 22.6379ZM18.8641 30.2402C17.9817 29.3082 18.2173 29.557 17.7263 29.0383C17.0114 29.0656 17.3571 29.0524 16.0696 29.102L17.4583 25.6848C17.4891 25.6949 17.5157 25.7141 17.5474 25.7227C18.4016 25.9516 18.3466 25.9024 18.7813 26.3442C19.1696 26.7403 19.6716 26.9524 20.186 26.9887L18.8641 30.2402ZM27.9309 29.1016C26.6454 29.0524 26.9883 29.0656 26.2743 29.0383C25.7836 29.5566 26.0188 29.3082 25.1364 30.2402L23.8122 26.9824C24.3282 26.9469 24.8301 26.7399 25.2192 26.3438C25.6649 25.8903 25.6032 25.9457 26.4532 25.7223C26.4848 25.7137 26.5114 25.6946 26.5422 25.6848L27.9309 29.1016ZM26.7961 23.8285C26.7083 24.1637 26.4508 24.4274 26.1235 24.5164C25.2008 24.7606 25.0145 24.7684 24.3278 25.4684C24.0153 25.7852 23.5391 25.8438 23.1657 25.6043C22.4575 25.1574 21.5423 25.1571 20.8341 25.6051C20.463 25.8406 19.9844 25.7856 19.672 25.4676C18.993 24.777 18.8079 24.7664 17.8763 24.516C17.5489 24.427 17.2915 24.1633 17.2036 23.8278C16.8888 22.6313 16.9095 22.6485 16.0306 21.7625C15.7888 21.5161 15.6935 21.1524 15.7829 20.8129C16.1013 19.6227 16.1032 19.6223 15.7829 18.4321C15.6938 18.0926 15.7892 17.729 16.0306 17.4829C16.9063 16.5962 16.8876 16.6212 17.2036 15.4161C17.2915 15.0809 17.5489 14.8173 17.8763 14.729C19.079 14.4005 19.0356 14.4243 19.9126 13.5329C20.1157 13.3255 20.4524 13.1829 20.8219 13.2825C22.0118 13.6098 21.988 13.6106 23.1766 13.2825C23.4965 13.1938 23.8481 13.2899 24.0872 13.5313C24.9579 14.4247 24.9415 14.4079 26.1247 14.729C26.4504 14.8176 26.7083 15.0813 26.7961 15.4169C27.111 16.6133 27.0903 16.5962 27.9692 17.4821C28.211 17.7286 28.3063 18.0922 28.2168 18.4317C27.8969 19.6239 27.8981 19.6247 28.2168 20.8125C28.3059 21.152 28.2106 21.5157 27.9692 21.7618C27.0938 22.6489 27.1122 22.6235 26.7961 23.8285Z" fill="#1BA0F2"/>
</svg>
