<svg width="45" height="44" viewBox="0 0 45 44" fill="none" xmlns="http://www.w3.org/2000/svg">
<rect x="0.5" width="44" height="44" rx="22" fill="#ECF8FF"/>
<path d="M32.1875 27.75H13.75V14.3125C13.75 14.1398 13.6102 14 13.4375 14H12.8125C12.6398 14 12.5 14.1398 12.5 14.3125V28.375C12.5 28.7203 12.7797 29 13.125 29H32.1875C32.3602 29 32.5 28.8602 32.5 28.6875V28.0625C32.5 27.8898 32.3602 27.75 32.1875 27.75ZM16.3414 21.7746C16.2195 21.8965 16.2195 22.0945 16.3414 22.2164L16.7832 22.6582C16.9051 22.7801 17.1031 22.7801 17.225 22.6582L20.0645 19.8453L23.3727 23.1535C23.6168 23.3977 24.0125 23.3977 24.2566 23.1535L27.9102 19.5L29.6305 21.2203C29.8238 21.4137 30.0613 21.5 30.2945 21.5C30.782 21.5 31.25 21.1211 31.25 20.5492V15.8824C31.25 15.5332 30.9668 15.25 30.6176 15.25H25.9508C25.1055 15.25 24.6824 16.2719 25.2801 16.8695L27.0266 18.616L23.8148 21.8277L20.509 18.5219C20.2656 18.2785 19.8715 18.2777 19.6273 18.5199L16.3414 21.7746ZM26.6781 16.5H30V19.8219L26.6781 16.5Z" fill="#1BA0F2"/>
</svg>
