<svg width="36" height="47" viewBox="0 0 36 47" fill="none" xmlns="http://www.w3.org/2000/svg">
<path d="M0 0V47H35.4731V0H0ZM33.1087 44.5269H2.3656V2.47442H33.1087V9.89488V44.5269Z" fill="#BEFBFF"/>
<path d="M11.8243 7.42126H21.2838V9.89492H11.8243V7.42126Z" fill="#BEFBFF"/>
<path d="M7.09314 7.42126H9.45801V9.89492H7.09314V7.42126Z" fill="#BEFBFF"/>
<path d="M11.8243 19.7896H28.3787V22.2632H11.8243V19.7896Z" fill="#BEFBFF"/>
<path d="M11.8243 24.7371H18.9185V27.2107H11.8243V24.7371Z" fill="#BEFBFF"/>
<path d="M11.8243 12.3688H23.6487V14.8424H11.8243V12.3688Z" fill="#BEFBFF"/>
<path d="M7.09314 19.7896H9.45801V22.2632H7.09314V19.7896Z" fill="#BEFBFF"/>
<path d="M11.8243 32.1578H28.3787V34.6315H11.8243V32.1578Z" fill="#BEFBFF"/>
<path d="M11.8243 37.1053H23.6487V39.579H11.8243V37.1053Z" fill="#BEFBFF"/>
<path d="M7.09314 32.1578H9.45801V34.6315H7.09314V32.1578Z" fill="#BEFBFF"/>
</svg>
