<svg width="76" height="81" viewBox="0 0 76 81" fill="none" xmlns="http://www.w3.org/2000/svg">
<path d="M48.2881 36.3712C49.2841 36.1949 50.0057 35.3225 49.9915 34.3112V29.7619C49.996 28.9985 49.6971 28.2645 49.1609 27.7217C48.6253 27.1782 47.8953 26.8697 47.1321 26.8635H43.0709C42.7206 25.3069 41.6793 23.995 40.2424 23.3011C38.8056 22.6073 37.1309 22.6073 35.6942 23.3011C34.2575 23.995 33.2161 25.3069 32.8658 26.8635H28.8046C28.0413 26.8697 27.3113 27.1782 26.7757 27.7217C26.2395 28.2647 25.9407 28.9986 25.9452 29.7619V34.3112C25.931 35.3226 26.6525 36.1949 27.6486 36.3712C28.5125 36.5435 29.2476 37.1079 29.6374 37.8979C30.0267 38.6883 30.0267 39.6149 29.6374 40.4053C29.2481 41.1958 28.513 41.7602 27.6492 41.9326C26.6525 42.1077 25.9304 42.9807 25.9452 43.9925V47.725C25.9406 48.4883 26.2395 49.2223 26.7752 49.7657C27.3113 50.3092 28.0413 50.6177 28.8046 50.6239H47.1319C47.8952 50.6177 48.6252 50.3092 49.1614 49.7657C49.697 49.2222 49.9959 48.4882 49.9914 47.725V43.9925C50.0061 42.9806 49.2846 42.1083 48.2879 41.9332C47.424 41.7603 46.6889 41.1964 46.2991 40.4059C45.9099 39.6155 45.9099 38.6889 46.2991 37.8984C46.689 37.108 47.424 36.5436 48.2879 36.3712H48.2881ZM47.4603 44.3433V47.7248C47.4705 47.9169 47.3242 48.0808 47.1321 48.0927H28.8047C28.6126 48.0808 28.4663 47.9169 28.4765 47.7248V44.3439C30.0115 43.9331 31.2857 42.8636 31.9574 41.4239C32.6286 39.9837 32.6286 38.3203 31.9574 36.8802C31.2856 35.44 30.0115 34.371 28.4765 33.9597V29.7619C28.4663 29.5703 28.6126 29.4059 28.8047 29.3946H33.2445C34.2586 29.4025 35.1265 28.6675 35.2863 27.6657C35.401 26.79 35.9355 26.0261 36.7186 25.6182C37.5017 25.2103 38.435 25.2103 39.2181 25.6182C40.0012 26.0261 40.5357 26.79 40.6504 27.6657C40.8103 28.6675 41.6781 29.4026 42.6923 29.3946H47.132C47.3241 29.4059 47.4704 29.5703 47.4603 29.7619V33.9597C45.9258 34.3711 44.6511 35.44 43.9794 36.8802C43.3081 38.3198 43.3081 39.9831 43.9794 41.4233C44.6511 42.8635 45.9258 43.9325 47.4603 44.3433H47.4603Z" fill="#A81E30"/>
<path d="M6.80097 39.2336H1.2656C0.5667 39.2336 0 39.8003 0 40.4992C0 41.1981 0.5667 41.7648 1.2656 41.7648H6.80097C7.49987 41.7648 8.06657 41.1981 8.06657 40.4992C8.06657 39.8003 7.49987 39.2336 6.80097 39.2336Z" fill="#A81E30"/>
<path d="M37.968 8.82015C38.6669 8.82015 39.2336 8.25345 39.2336 7.55455V1.2656C39.2336 0.566699 38.6669 0 37.968 0C37.2691 0 36.7024 0.566699 36.7024 1.2656V7.55455C36.7024 8.25345 37.2691 8.82015 37.968 8.82015Z" fill="#A81E30"/>
<path d="M25.1283 10.6209C25.3798 11.2661 26.095 11.5995 26.7505 11.3763C27.4076 11.1373 27.7454 10.4107 27.5059 9.75416L25.3882 3.94368C25.1481 3.28829 24.4221 2.95097 23.7661 3.18998C23.1101 3.42953 22.7717 4.15444 23.0101 4.81096L25.1283 10.6209Z" fill="#A81E30"/>
<path d="M15.718 17.2989C16.0248 17.3029 16.3226 17.1932 16.5537 16.9915C17.0785 16.5294 17.1294 15.7299 16.6678 15.2049L12.754 10.7584C12.2924 10.2335 11.4923 10.1821 10.9674 10.6443C10.4431 11.1059 10.3916 11.9054 10.8538 12.4303L14.7676 16.8774C15.0106 17.1464 15.3558 17.2995 15.718 17.2989L15.718 17.2989Z" fill="#A81E30"/>
<path d="M9.65758 26.1177L4.54384 23.7107V23.7113C3.91216 23.4152 3.15959 23.687 2.86297 24.3187C2.56578 24.9498 2.83585 25.7024 3.4664 26.0013L8.58015 28.4082H8.57958C9.21294 28.6907 9.95592 28.4229 10.2639 27.802C10.4069 27.498 10.4232 27.15 10.3097 26.8341C10.1961 26.5183 9.96164 26.2607 9.65767 26.1177L9.65758 26.1177Z" fill="#A81E30"/>
<path d="M74.6704 39.2336H69.135C68.4361 39.2336 67.8694 39.8003 67.8694 40.4992C67.8694 41.1981 68.4361 41.7648 69.135 41.7648H74.6704C75.3693 41.7648 75.936 41.1981 75.936 40.4992C75.936 39.8003 75.3693 39.2336 74.6704 39.2336Z" fill="#A81E30"/>
<path d="M73.0765 24.3169C72.7787 23.6846 72.025 23.4134 71.3927 23.7106L66.279 26.1176V26.117C65.6467 26.4148 65.375 27.1685 65.6727 27.8008C65.9835 28.4189 66.7236 28.6856 67.3565 28.4076L72.4702 26.0006C72.7742 25.8577 73.0087 25.6 73.1222 25.2842C73.2358 24.9684 73.2194 24.6203 73.0765 24.3169V24.3169Z" fill="#A81E30"/>
<path d="M63.1816 10.7582L59.2678 15.2053V15.2047C58.8062 15.7296 58.857 16.5291 59.3819 16.9913C59.9119 17.4371 60.6989 17.3868 61.1679 16.8772L65.0817 12.4301C65.5439 11.9052 65.4925 11.1057 64.9682 10.644C64.4433 10.1819 63.6432 10.2333 63.1816 10.7582L63.1816 10.7582Z" fill="#A81E30"/>
<path d="M49.1848 11.3763C49.8408 11.6068 50.5612 11.2712 50.807 10.6208L52.9252 4.81095C53.1637 4.15441 52.8252 3.42952 52.1693 3.18997C51.5133 2.95098 50.7873 3.28828 50.5471 3.94367L48.4289 9.75357L48.4294 9.75414C48.1899 10.4107 48.5283 11.1373 49.1848 11.3763L49.1848 11.3763Z" fill="#A81E30"/>
<path d="M44.928 73.4048C44.928 72.7059 44.3613 72.1392 43.6624 72.1392H32.7314C32.1817 72.1302 31.724 71.7132 31.6647 71.1663C31.0008 65.7254 28.551 60.1262 24.5797 54.9753C23.0022 52.9305 21.1659 51.0801 19.7659 48.9016C17.6002 45.5358 16.4499 41.6182 16.4522 37.6163C16.4522 25.9468 26.104 16.4526 37.9674 16.4526C49.8308 16.4526 59.4826 25.9463 59.4826 37.6163C59.4837 41.4775 58.4125 45.2636 56.3886 48.5524C56.0253 49.1428 55.6326 49.7095 55.2281 50.27C56.0976 50.4514 56.9463 50.7203 57.7616 51.0723C58.03 50.6808 58.2938 50.2853 58.5441 49.8785C60.8137 46.1907 62.0149 41.9458 62.0138 37.6163C62.0138 24.5513 51.2268 13.9214 37.9674 13.9214C24.7079 13.9214 13.921 24.5507 13.921 37.6163C13.9187 42.103 15.208 46.4959 17.6365 50.2694C19.0772 52.5113 20.9531 54.4171 22.5752 56.5206C26.2692 61.3124 28.5439 66.4827 29.1524 71.4735V71.4741C29.2948 72.6317 29.9847 73.651 31.0067 74.2137V77.268C31.0293 78.2783 31.4519 79.2382 32.1813 79.9377C32.9102 80.6371 33.8871 81.0191 34.8972 80.9993H41.0376C42.0479 81.0191 43.0247 80.6371 43.7536 79.9377C44.483 79.2382 44.9056 78.2782 44.9282 77.268L44.928 73.4048ZM42.3968 77.2671C42.3494 77.9723 41.7431 78.5079 41.0375 78.4672H34.8971C34.1914 78.5079 33.5851 77.9723 33.5377 77.2671V74.6704H42.3969L42.3968 77.2671Z" fill="#A81E30"/>
<path d="M52.5216 52.5216C49.6683 52.5216 46.932 53.655 44.915 55.6726C42.8974 57.6896 41.764 60.4259 41.764 63.2792C41.764 66.1325 42.8974 68.8688 44.915 70.8858C46.932 72.9034 49.6683 74.0368 52.5216 74.0368C55.3749 74.0368 58.1112 72.9034 60.1283 70.8858C62.1458 68.8688 63.2792 66.1325 63.2792 63.2792C63.2758 60.427 62.1419 57.6925 60.1248 55.6761C58.1084 53.6591 55.3736 52.5251 52.5216 52.5216ZM52.5216 71.5056C50.3396 71.5056 48.2474 70.6389 46.7049 69.0959C45.1619 67.5535 44.2952 65.4612 44.2952 63.2792C44.2952 61.0972 45.1619 59.0049 46.7049 57.4625C48.2474 55.9195 50.3396 55.0528 52.5216 55.0528C54.7037 55.0528 56.7959 55.9195 58.3383 57.4625C59.8814 59.0049 60.748 61.0972 60.748 63.2792C60.7458 65.4601 59.8779 67.5511 58.336 69.0936C56.7936 70.6354 54.7025 71.5033 52.5216 71.5056Z" fill="#A81E30"/>
<path d="M55.6358 60.3163L50.8626 63.3814L49.8343 61.5158C49.6722 61.222 49.3999 61.0039 49.0772 60.9107C48.7546 60.8175 48.4083 60.8559 48.1139 61.0181C47.8201 61.1802 47.6026 61.4526 47.5094 61.7752C47.4161 62.0978 47.4551 62.4447 47.6173 62.7385L49.2993 65.7895C49.4682 66.0963 49.7569 66.319 50.0965 66.4048C50.4366 66.4879 50.7954 66.4297 51.0915 66.2432L57.003 62.4464C57.2867 62.2651 57.4861 61.9792 57.5584 61.6509C57.6302 61.3221 57.5686 60.9786 57.3867 60.6961C57.2053 60.413 56.9183 60.2141 56.59 60.1429C56.2612 60.0717 55.9182 60.1344 55.6357 60.3164L55.6358 60.3163Z" fill="#A81E30"/>
</svg>
