<svg width="37" height="37" viewBox="0 0 37 37" fill="none" xmlns="http://www.w3.org/2000/svg">
<path d="M11.6137 37C7.33887 37 3.35402 35.4864 0 32.8747C2.84767 33.099 7.87316 32.5618 10.999 28.932C6.29671 28.6694 4.17606 24.2789 3.89945 22.4026C4.299 22.5903 6.20451 22.8154 7.2802 22.2901C1.87101 20.6389 1.04119 14.86 1.22559 13.0963C2.23982 13.9594 3.96092 14.2596 4.63707 14.1846C-0.403309 9.79412 1.41 3.18966 2.30129 1.76369C5.91845 7.86437 11.3394 11.2907 18.0459 11.4813C17.9195 10.8062 17.8527 10.1033 17.8527 9.38134C17.8527 4.20017 21.2927 0 25.5362 0C27.7534 0 29.7512 1.1466 31.1536 2.98065C32.6352 2.558 34.865 1.56859 35.955 0.712982C35.4056 3.1146 33.695 5.11805 32.6603 5.8606C32.6689 5.88586 32.6519 5.83523 32.6603 5.8606C33.5692 5.69323 36.0285 5.11785 37 4.31542C36.5196 5.66462 34.706 7.90791 33.2177 9.16381C33.4946 24.0308 24.1511 37 11.6137 37Z" fill="#47ACDF"/>
</svg>
