<svg width="16" height="16" viewBox="0 0 16 16" fill="none" xmlns="http://www.w3.org/2000/svg">
<g clip-path="url(#clip0_2984_49674)">
<path d="M6.66634 10.6684H9.33301C9.69967 10.6684 9.99967 10.3684 9.99967 10.0018V6.66844H11.0597C11.653 6.66844 11.953 5.94844 11.533 5.52844L8.47301 2.46844C8.21301 2.20844 7.79301 2.20844 7.53301 2.46844L4.47301 5.52844C4.05301 5.94844 4.34634 6.66844 4.93967 6.66844H5.99967V10.0018C5.99967 10.3684 6.29967 10.6684 6.66634 10.6684ZM3.99967 12.0018H11.9997C12.3663 12.0018 12.6663 12.3018 12.6663 12.6684C12.6663 13.0351 12.3663 13.3351 11.9997 13.3351H3.99967C3.63301 13.3351 3.33301 13.0351 3.33301 12.6684C3.33301 12.3018 3.63301 12.0018 3.99967 12.0018Z" fill="#448087"/>
</g>
<defs>
<clipPath id="clip0_2984_49674">
<rect width="16" height="16" fill="white"/>
</clipPath>
</defs>
</svg>
