<svg width="17" height="16" viewBox="0 0 17 16" fill="none" xmlns="http://www.w3.org/2000/svg">
<path fill-rule="evenodd" clip-rule="evenodd" d="M3.16634 3.33203C3.16634 3.50884 3.23658 3.67841 3.3616 3.80344C3.48663 3.92846 3.6562 3.9987 3.83301 3.9987C4.00982 3.9987 4.17939 3.92846 4.30441 3.80344C4.42944 3.67841 4.49967 3.50884 4.49967 3.33203C4.49967 3.15522 4.42944 2.98565 4.30441 2.86063C4.17939 2.7356 4.00982 2.66536 3.83301 2.66536C3.6562 2.66536 3.48663 2.7356 3.3616 2.86063C3.23658 2.98565 3.16634 3.15522 3.16634 3.33203ZM3.83301 1.33203C3.30257 1.33203 2.79387 1.54274 2.41879 1.91782C2.04372 2.29289 1.83301 2.8016 1.83301 3.33203C1.83301 3.86246 2.04372 4.37117 2.41879 4.74624C2.79387 5.12132 3.30257 5.33203 3.83301 5.33203C4.36344 5.33203 4.87215 5.12132 5.24722 4.74624C5.62229 4.37117 5.83301 3.86246 5.83301 3.33203C5.83301 2.8016 5.62229 2.29289 5.24722 1.91782C4.87215 1.54274 4.36344 1.33203 3.83301 1.33203ZM3.16634 12.6654C3.16634 12.8422 3.23658 13.0117 3.3616 13.1368C3.48663 13.2618 3.6562 13.332 3.83301 13.332C4.00982 13.332 4.17939 13.2618 4.30441 13.1368C4.42944 13.0117 4.49967 12.8422 4.49967 12.6654C4.49967 12.4886 4.42944 12.319 4.30441 12.194C4.17939 12.0689 4.00982 11.9987 3.83301 11.9987C3.6562 11.9987 3.48663 12.0689 3.3616 12.194C3.23658 12.319 3.16634 12.4886 3.16634 12.6654ZM3.83301 10.6654C3.30257 10.6654 2.79387 10.8761 2.41879 11.2512C2.04372 11.6262 1.83301 12.1349 1.83301 12.6654C1.83301 13.1958 2.04372 13.7045 2.41879 14.0796C2.79387 14.4547 3.30257 14.6654 3.83301 14.6654C4.36344 14.6654 4.87215 14.4547 5.24722 14.0796C5.62229 13.7045 5.83301 13.1958 5.83301 12.6654C5.83301 12.1349 5.62229 11.6262 5.24722 11.2512C4.87215 10.8761 4.36344 10.6654 3.83301 10.6654ZM12.4997 3.33203C12.4997 3.50884 12.5699 3.67841 12.6949 3.80344C12.82 3.92846 12.9895 3.9987 13.1663 3.9987C13.3432 3.9987 13.5127 3.92846 13.6377 3.80344C13.7628 3.67841 13.833 3.50884 13.833 3.33203C13.833 3.15522 13.7628 2.98565 13.6377 2.86063C13.5127 2.7356 13.3432 2.66536 13.1663 2.66536C12.9895 2.66536 12.82 2.7356 12.6949 2.86063C12.5699 2.98565 12.4997 3.15522 12.4997 3.33203ZM13.1663 1.33203C12.6359 1.33203 12.1272 1.54274 11.7521 1.91782C11.3771 2.29289 11.1663 2.8016 11.1663 3.33203C11.1663 3.86246 11.3771 4.37117 11.7521 4.74624C12.1272 5.12132 12.6359 5.33203 13.1663 5.33203C13.6968 5.33203 14.2055 5.12132 14.5806 4.74624C14.9556 4.37117 15.1663 3.86246 15.1663 3.33203C15.1663 2.8016 14.9556 2.29289 14.5806 1.91782C14.2055 1.54274 13.6968 1.33203 13.1663 1.33203Z" fill="#8651C6"/>
<path fill-rule="evenodd" clip-rule="evenodd" d="M11.167 3.33464C11.167 3.1013 11.207 2.87664 11.2803 2.66797H5.72033C5.8731 3.09928 5.8731 3.56999 5.72033 4.0013H11.2803C11.207 3.79264 11.167 3.56797 11.167 3.33464ZM13.167 5.33464C13.4003 5.33464 13.625 5.29464 13.8337 5.2213V10.7813C13.4023 10.6286 12.9317 10.6286 12.5003 10.7813V5.2213C12.709 5.29464 12.9337 5.33464 13.167 5.33464ZM11.2803 12.0013H5.72033C5.8731 12.4326 5.8731 12.9033 5.72033 13.3346H11.2803C11.1277 12.9033 11.1277 12.4326 11.2803 12.0013ZM3.16699 10.7813V5.2213C3.59831 5.37408 4.06901 5.37408 4.50033 5.2213V10.7813C4.069 10.6286 3.59832 10.6286 3.16699 10.7813Z" fill="#8651C6"/>
<path fill-rule="evenodd" clip-rule="evenodd" d="M12.5003 12.668C12.5003 12.8448 12.5706 13.0143 12.6956 13.1394C12.8206 13.2644 12.9902 13.3346 13.167 13.3346C13.3438 13.3346 13.5134 13.2644 13.6384 13.1394C13.7634 13.0143 13.8337 12.8448 13.8337 12.668C13.8337 12.4912 13.7634 12.3216 13.6384 12.1966C13.5134 12.0715 13.3438 12.0013 13.167 12.0013C12.9902 12.0013 12.8206 12.0715 12.6956 12.1966C12.5706 12.3216 12.5003 12.4912 12.5003 12.668ZM13.167 10.668C12.6366 10.668 12.1279 10.8787 11.7528 11.2538C11.3777 11.6288 11.167 12.1375 11.167 12.668C11.167 13.1984 11.3777 13.7071 11.7528 14.0822C12.1279 14.4573 12.6366 14.668 13.167 14.668C13.6974 14.668 14.2061 14.4573 14.5812 14.0822C14.9563 13.7071 15.167 13.1984 15.167 12.668C15.167 12.1375 14.9563 11.6288 14.5812 11.2538C14.2061 10.8787 13.6974 10.668 13.167 10.668Z" fill="#8651C6"/>
</svg>
