<svg width="18" height="18" viewBox="0 0 18 18" fill="none" xmlns="http://www.w3.org/2000/svg">
<path d="M13.0009 11.0006H12.2109L11.9309 10.7306C13.1309 9.33063 13.7509 7.42063 13.4109 5.39063C12.9409 2.61063 10.6209 0.390626 7.82087 0.0506256C3.59087 -0.469374 0.0408733 3.09063 0.550873 7.32063C0.890873 10.1206 3.11087 12.4406 5.89087 12.9106C7.92087 13.2506 9.83087 12.6306 11.2309 11.4306L11.5009 11.7106V12.5006L15.7609 16.7506C16.1709 17.1606 16.8309 17.1606 17.2409 16.7506L17.2509 16.7406C17.6609 16.3306 17.6609 15.6706 17.2509 15.2606L13.0009 11.0006ZM7.00087 11.0006C4.51087 11.0006 2.50087 8.99063 2.50087 6.50063C2.50087 4.01063 4.51087 2.00063 7.00087 2.00063C9.49087 2.00063 11.5009 4.01063 11.5009 6.50063C11.5009 8.99063 9.49087 11.0006 7.00087 11.0006ZM7.00087 4.00063C6.72087 4.00063 6.50087 4.22063 6.50087 4.50063V6.00063H5.00087C4.72087 6.00063 4.50087 6.22063 4.50087 6.50063C4.50087 6.78063 4.72087 7.00063 5.00087 7.00063H6.50087V8.50063C6.50087 8.78063 6.72087 9.00063 7.00087 9.00063C7.28087 9.00063 7.50087 8.78063 7.50087 8.50063V7.00063H9.00087C9.28087 7.00063 9.50087 6.78063 9.50087 6.50063C9.50087 6.22063 9.28087 6.00063 9.00087 6.00063H7.50087V4.50063C7.50087 4.22063 7.28087 4.00063 7.00087 4.00063Z" fill="white"/>
</svg>
