<svg width="18" height="18" viewBox="0 0 18 18" fill="none" xmlns="http://www.w3.org/2000/svg">
<path d="M13.0006 11.0006H12.2106L11.9306 10.7306C13.1306 9.33063 13.7506 7.42063 13.4106 5.39063C12.9406 2.61063 10.6206 0.390626 7.82063 0.0506256C3.59063 -0.469374 0.0306256 3.09063 0.550626 7.32063C0.890626 10.1206 3.11063 12.4406 5.89063 12.9106C7.92063 13.2506 9.83063 12.6306 11.2306 11.4306L11.5006 11.7106V12.5006L15.7606 16.7506C16.1706 17.1606 16.8306 17.1606 17.2406 16.7506L17.2506 16.7406C17.6606 16.3306 17.6606 15.6706 17.2506 15.2606L13.0006 11.0006ZM7.00063 11.0006C4.51063 11.0006 2.50063 8.99063 2.50063 6.50063C2.50063 4.01063 4.51063 2.00063 7.00063 2.00063C9.49063 2.00063 11.5006 4.01063 11.5006 6.50063C11.5006 8.99063 9.49063 11.0006 7.00063 11.0006ZM5.00063 6.00063H9.00063C9.28063 6.00063 9.50063 6.22063 9.50063 6.50063C9.50063 6.78063 9.28063 7.00063 9.00063 7.00063H5.00063C4.72063 7.00063 4.50063 6.78063 4.50063 6.50063C4.50063 6.22063 4.72063 6.00063 5.00063 6.00063Z" fill="white"/>
</svg>
